<svg width="100" height="100" viewBox="0 0 100 100" fill="none" xmlns="http://www.w3.org/2000/svg">
<g clip-path="url(#clip0_2_6385)">
<circle cx="50" cy="50" r="5" fill="white"/>
<path d="M4.72058 42.2081C6.05563 42.3419 7.03935 42.8101 7.742 43.479C8.44466 44.2148 8.72572 45.1512 8.58519 46.2884C8.51493 47.0242 8.23386 47.6262 7.81227 48.0944C7.39068 48.6295 6.82855 48.964 6.19616 49.2315C5.49351 49.4322 4.72058 49.4991 3.8774 49.4322C2.54235 49.2984 1.55863 48.8971 0.855977 48.1613C0.153321 47.4255 -0.057476 46.489 0.0127896 45.3519C0.153321 44.2148 0.64518 43.4121 1.48837 42.8101C2.33155 42.275 3.38554 42.0743 4.72058 42.2081ZM4.01793 48.0944C5.07191 48.2282 5.84483 48.0944 6.47722 47.7599C7.03935 47.4255 7.39068 46.8904 7.46094 46.1546C7.53121 45.4188 7.32041 44.8168 6.82855 44.3486C6.33669 43.8803 5.56377 43.6128 4.50979 43.5459C3.4558 43.4121 2.68288 43.5459 2.12076 43.8803C1.55863 44.2148 1.2073 44.7499 1.13704 45.5526C0.996508 47.0242 1.98023 47.8937 4.01793 48.0944Z" fill="white"/>
<path d="M1.7693 37.5251L6.82842 39.1305C7.46081 39.3312 7.95267 39.3312 8.37426 39.1974C8.79585 39.0636 9.07692 38.6623 9.28771 38.0603C9.56878 37.3245 9.49851 36.6556 9.21745 36.1873C8.86612 35.7191 8.23373 35.3178 7.25001 34.9833L3.17461 33.6455L3.5962 32.4415L11.4659 34.9833L11.1146 35.9867L9.99037 35.8529V35.9198C10.2714 36.2542 10.4822 36.6556 10.5525 37.1238C10.6228 37.592 10.5525 38.1271 10.3417 38.6623C9.99037 39.5318 9.56878 40.1338 8.93639 40.4683C8.304 40.8027 7.53107 40.8027 6.54736 40.4683L1.41797 38.796L1.7693 37.5251Z" fill="white"/>
<path d="M6.89752 25.9531C7.10834 25.6186 7.24889 25.4179 7.45971 25.1504L8.44354 25.8862C8.23272 26.0868 8.09217 26.3544 7.88135 26.5551C7.67053 26.8895 7.60026 27.2909 7.60026 27.7591C7.60026 28.1604 7.81108 28.5618 8.0219 28.9631C8.303 29.3644 8.65437 29.632 9.07601 29.8996L12.9411 31.9062L12.3086 33.0434L5.21094 29.2975L5.77313 28.3611L7.17861 28.9631V28.8962C6.82724 28.3611 6.68669 27.8929 6.61642 27.3578C6.54614 26.8226 6.68669 26.4213 6.89752 25.9531Z" fill="white"/>
<path d="M14.3482 16.9907C15.1211 16.2549 15.9643 15.9205 16.948 16.0543C17.9317 16.188 18.8452 16.6563 19.8289 17.5258C20.8126 18.4623 21.3747 19.3318 21.445 20.2683C21.5855 21.2048 21.2342 22.0074 20.4613 22.7432C20.0397 23.1446 19.6181 23.4121 19.1965 23.5459C18.7749 23.6797 18.2831 23.7466 17.7912 23.6797L17.7209 23.7466C18.0723 24.2817 18.2128 24.5492 18.2831 24.6161L17.5804 25.285L9.28906 17.4589L10.2728 16.5225L12.3105 18.3954C12.7321 18.7967 13.0834 19.1981 13.505 19.5994L13.5753 19.5325C13.2942 18.663 13.5753 17.7934 14.3482 16.9907ZM15.0508 17.9272C14.4887 18.4623 14.2077 19.0643 14.2779 19.5994C14.3482 20.1345 14.7698 20.8034 15.613 21.5392L15.6832 21.6061C16.4562 22.3419 17.2291 22.8101 17.7912 22.877C18.4236 22.9439 18.9857 22.6763 19.6181 22.1412C20.11 21.6061 20.3208 21.071 20.1802 20.469C20.0397 19.867 19.6181 19.1981 18.8452 18.5292C18.0723 17.8603 17.4399 17.4589 16.8075 17.3252C16.1751 17.1914 15.5427 17.392 15.0508 17.9272Z" fill="white"/>
<path d="M27.1355 17.6593C26.0815 18.3282 25.0978 18.5289 24.0438 18.3282C23.0601 18.1275 22.1466 17.4586 21.444 16.3884C20.7413 15.3182 20.39 14.3148 20.5305 13.3784C20.6711 12.4419 21.1629 11.6392 22.0764 11.0372C22.9196 10.5021 23.833 10.3014 24.6762 10.5021C25.5897 10.7028 26.2923 11.2379 26.9247 12.1744L27.3463 12.8432L22.6385 15.8533C23.2006 16.5891 23.7628 17.0573 24.3951 17.1911C25.0275 17.3249 25.7302 17.1911 26.4328 16.7897C26.7842 16.5891 27.1355 16.3215 27.4166 16.054C27.6976 15.7864 27.9787 15.3851 28.33 14.9837L28.9624 15.9202C28.6813 16.3215 28.4003 16.656 28.1192 16.9235C27.9787 17.1242 27.5571 17.3917 27.1355 17.6593ZM22.7088 11.9068C22.1466 12.2412 21.8656 12.7095 21.7953 13.2446C21.7251 13.7797 21.8656 14.3817 22.2169 14.9837L25.7302 12.7764C25.3086 12.1744 24.8167 11.773 24.3249 11.6392C23.7628 11.5055 23.2709 11.5723 22.7088 11.9068Z" fill="white"/>
<path d="M36.2679 13.2451L34.3005 8.56287C34.0194 7.96087 33.7383 7.55953 33.3167 7.35886C32.8952 7.15819 32.4033 7.15819 31.8412 7.42575C31.0682 7.69331 30.5764 8.16154 30.3656 8.69665C30.1548 9.23177 30.2953 9.96756 30.6467 10.904L32.2628 14.7167L30.998 15.1849L27.9766 7.82709L28.9603 7.42575L29.5927 8.3622H29.6629C29.7332 7.89398 29.944 7.49264 30.2953 7.15819C30.6467 6.82374 31.0682 6.48929 31.6304 6.35552C32.5438 6.02107 33.387 5.95418 34.0194 6.22174C34.6518 6.48929 35.1437 7.0913 35.5652 8.02776L37.5327 12.7769L36.2679 13.2451Z" fill="white"/>
<path d="M43.0142 11.9058C41.8195 12.1065 40.7654 11.9058 39.9221 11.3038C39.0789 10.7018 38.5869 9.76535 38.3761 8.56134C38.1653 7.29044 38.3058 6.28709 38.7978 5.41753C39.2897 4.54796 40.133 4.07973 41.2574 3.87906C42.3115 3.6784 43.1548 3.87906 43.8575 4.41418C44.5602 4.9493 45.0522 5.75197 45.263 6.82221L45.4035 7.62488L39.7816 8.56134C39.9924 9.4309 40.3438 10.0998 40.8357 10.4342C41.3979 10.8356 42.0304 10.9694 42.8737 10.8356C43.2953 10.7687 43.7169 10.6349 44.0683 10.5011C44.4197 10.3674 44.9116 10.1667 45.3332 9.83224L45.5441 10.9694C45.1224 11.2369 44.7008 11.4376 44.3494 11.5714C43.998 11.7052 43.5061 11.772 43.0142 11.9058ZM41.3979 4.9493C40.7654 5.08308 40.2735 5.35064 39.9924 5.75197C39.7113 6.15331 39.5708 6.75532 39.6411 7.4911L43.7872 6.82221C43.6467 6.08642 43.3656 5.55131 42.9439 5.28375C42.5223 4.9493 42.0304 4.81552 41.3979 4.9493Z" fill="white"/>
<path d="M51.4465 4.34783H49.3383L49.4086 11.2375H48.0734L48.0031 4.41472H46.5273V3.81271L48.0031 3.34448V2.87625C48.0031 1.9398 48.2139 1.20401 48.6356 0.735786C49.0572 0.267559 49.76 0 50.6735 0C51.2357 0 51.7276 0.0668896 52.2898 0.267559L51.9385 1.2709C51.4465 1.13712 51.0249 1.07023 50.6735 1.07023C50.1816 1.07023 49.9005 1.20401 49.6897 1.53846C49.4789 1.87291 49.3383 2.27425 49.3383 2.87625V3.41137H51.4465V4.34783Z" fill="white"/>
<path d="M54.0461 11.5041L52.7109 11.3703L53.5542 3.54422L54.8894 3.678L54.0461 11.5041ZM53.6245 1.40375C53.6245 1.1362 53.765 0.935527 53.9056 0.801748C54.1164 0.667969 54.3272 0.667969 54.5381 0.667969C54.7489 0.667969 54.9597 0.801748 55.1003 0.935527C55.2408 1.06931 55.3111 1.26998 55.2408 1.60442C55.2408 1.87198 55.1003 2.07265 54.9597 2.20643C54.8192 2.34021 54.6083 2.4071 54.3975 2.34021C54.1867 2.34021 53.9759 2.20643 53.8353 2.07265C53.6948 1.93887 53.6245 1.67131 53.6245 1.40375Z" fill="white"/>
<path d="M59.3151 11.5047C59.4556 11.5716 59.6665 11.5716 59.9476 11.5716C60.1584 11.5716 60.3692 11.5716 60.5098 11.5716L60.2989 12.5749C60.1584 12.5749 59.9476 12.6418 59.6665 12.6418C59.3854 12.6418 59.1043 12.6418 58.8935 12.5749C57.2772 12.2405 56.715 11.304 57.0663 9.69869L58.0502 5.21708L56.9258 5.01642L57.0663 4.41441L58.261 4.01307L59.1745 2.47461L59.9476 2.60839L59.5259 4.34752L61.845 4.81575L61.6341 5.81909L59.3151 5.35086L58.3313 9.83247C58.261 10.3007 58.261 10.6351 58.4718 10.9027C58.6124 11.2372 58.8935 11.3709 59.3151 11.5047Z" fill="white"/>
<path d="M67.3247 12.6425C67.0436 13.3114 66.5517 13.7796 65.9193 13.9803C65.2165 14.181 64.3732 14.1141 63.3894 13.7128C62.3353 13.3783 61.6325 12.9101 61.1406 12.375L61.5623 11.2378C62.265 11.9067 63.038 12.4419 63.811 12.7094C64.4435 12.9101 64.9354 12.977 65.3571 12.9101C65.7084 12.8432 65.9895 12.5756 66.1301 12.2412C66.2706 11.9736 66.2004 11.6392 65.9895 11.3716C65.7787 11.0372 65.3571 10.6358 64.7949 10.1676C64.1624 9.63249 63.7408 9.23115 63.5299 8.96359C63.3191 8.69603 63.1786 8.36158 63.1083 8.09403C63.038 7.82647 63.1083 7.49202 63.2488 7.15757C63.4597 6.55556 63.9516 6.15423 64.5841 6.02045C65.2165 5.81978 65.9895 5.95356 66.9031 6.22112C67.8167 6.55556 68.5194 6.9569 69.2221 7.55891L68.4491 8.36158C67.8167 7.75958 67.1139 7.35824 66.4814 7.15757C65.9193 6.9569 65.4976 6.89001 65.2165 6.9569C64.9354 7.02379 64.6543 7.22446 64.5841 7.49202C64.5138 7.75958 64.5138 8.02714 64.6543 8.29469C64.7949 8.56225 65.2868 8.96359 65.9895 9.63249C66.5517 10.1007 66.9734 10.5021 67.1842 10.7696C67.395 11.1041 67.5356 11.3716 67.6058 11.7061C67.4653 11.9736 67.4653 12.3081 67.3247 12.6425Z" fill="white"/>
<path d="M79.4843 17.9265C78.7113 18.9299 77.7977 19.5988 76.7436 19.7994C75.7598 20.0001 74.776 19.7326 73.7921 19.0637C73.1597 18.6623 72.738 18.1272 72.5272 17.5252C72.2461 16.9232 72.1758 16.3212 72.3164 15.5854C72.4569 14.9165 72.8083 14.2476 73.3002 13.5787C74.0732 12.5754 74.9868 11.9065 75.9706 11.7058C76.9545 11.5051 77.9383 11.7727 78.9221 12.4416C79.8357 13.1105 80.3979 13.9132 80.4682 14.9165C80.5384 15.9198 80.2573 16.9232 79.4843 17.9265ZM74.4246 14.3814C73.7921 15.1841 73.511 15.9198 73.511 16.5219C73.511 17.1908 73.8624 17.7259 74.4949 18.1941C75.1273 18.6623 75.7598 18.7961 76.4625 18.5954C77.095 18.3948 77.7275 17.9265 78.3599 17.1239C78.9924 16.3212 79.2735 15.5854 79.2735 14.9834C79.2735 14.3145 78.9221 13.7794 78.2897 13.378C76.9545 12.4416 75.6895 12.776 74.4246 14.3814Z" fill="white"/>
<path d="M85.2469 17.9252L81.2418 21.2697C80.7499 21.671 80.4689 22.1393 80.3986 22.5406C80.3283 22.9419 80.5391 23.4102 80.9607 23.8115C81.5228 24.4135 82.085 24.748 82.7174 24.6811C83.3497 24.6811 84.0524 24.3466 84.8253 23.6777L88.0575 21.0021L88.971 22.0055L82.7174 27.2229L82.0147 26.4202L82.7174 25.6175L82.6471 25.5506C82.1552 25.6175 81.7336 25.5506 81.2418 25.35C80.7499 25.1493 80.3283 24.8817 79.977 24.4135C79.3446 23.6777 78.9933 23.0088 79.0636 22.3399C79.1338 21.671 79.4851 21.0021 80.3283 20.3332L84.4037 16.9219L85.2469 17.9252Z" fill="white"/>
<path d="M93.0446 27.9597C93.2554 28.2273 93.3959 28.5617 93.4662 28.8293L92.2717 29.2975C92.2014 29.03 92.0609 28.7624 91.9203 28.4949C91.7096 28.1604 91.3582 27.8928 91.0069 27.6922C90.5853 27.4915 90.1637 27.4246 89.6718 27.4915C89.18 27.5584 88.7584 27.6922 88.2665 27.8928L84.4722 30.0333L83.7695 28.8962L90.8664 24.8828L91.4285 25.8193L90.234 26.6888V26.7557C90.8664 26.7557 91.4285 26.8226 91.8501 27.0902C92.4825 27.2239 92.8338 27.5584 93.0446 27.9597Z" fill="white"/>
<path d="M97.4705 38.5964C97.7515 39.5997 97.611 40.4693 97.0489 41.2051C96.4867 41.9408 95.5733 42.476 94.2382 42.8104C92.9032 43.1449 91.8492 43.1449 90.9358 42.7435C90.0223 42.4091 89.4602 41.6733 89.1791 40.7368C89.0386 40.2017 88.9683 39.7335 89.1089 39.2653C89.1791 38.797 89.3899 38.3957 89.671 38.0612V37.9944C89.0386 37.9944 88.6873 37.9944 88.617 37.9944L88.3359 37.1248L99.6487 34.1816L100 35.4525L97.2597 36.1883C96.6975 36.3221 96.1354 36.4559 95.5733 36.5228V36.5897C96.4867 36.8572 97.1191 37.5261 97.4705 38.5964ZM96.2759 38.6632C96.0651 37.9275 95.6435 37.3923 95.1517 37.1917C94.5896 36.991 93.7464 36.991 92.6924 37.2586H92.6221C91.4979 37.5261 90.7952 37.9275 90.4439 38.3957C90.0926 38.8639 90.0223 39.4659 90.2331 40.2686C90.4439 40.9375 90.8655 41.4057 91.4276 41.6064C92.06 41.8071 92.8329 41.8071 93.8869 41.5395C94.8706 41.2719 95.5733 40.9375 95.9949 40.4693C96.4165 39.9342 96.4867 39.399 96.2759 38.6632Z" fill="white"/>
<path d="M90.4463 48.7617C90.3761 47.5577 90.7274 46.6212 91.43 45.9523C92.1327 45.2165 93.1867 44.8821 94.4515 44.7483C95.7865 44.6814 96.8405 44.949 97.6837 45.551C98.5269 46.153 98.9485 46.9557 99.0187 48.0259C99.089 49.0293 98.8079 49.8319 98.1755 50.4339C97.5431 51.0359 96.6297 51.3704 95.5054 51.4373L94.6623 51.5042L94.3109 46.0861C93.3975 46.153 92.6948 46.4206 92.203 46.8888C91.7111 47.357 91.5003 47.959 91.5706 48.7617C91.5706 49.163 91.6408 49.5644 91.7814 49.9657C91.8516 50.367 92.0624 50.7684 92.3435 51.2366L91.149 51.3035C90.9382 50.9022 90.7977 50.5008 90.6571 50.0995C90.5166 49.6981 90.4463 49.2968 90.4463 48.7617ZM97.8945 48.0259C97.8242 47.4239 97.6134 46.9557 97.1918 46.6212C96.7702 46.2868 96.1378 46.0861 95.4352 46.0861L95.646 50.0995C96.4189 50.0326 96.981 49.8319 97.4026 49.4975C97.8242 49.163 97.8945 48.6279 97.8945 48.0259Z" fill="white"/>
<path d="M89.8125 58.4605L95.0824 59.1963C95.7148 59.2632 96.2769 59.1963 96.6282 58.9957C96.9795 58.7281 97.2606 58.3268 97.3309 57.7248C97.4714 56.9221 97.3309 56.3201 96.9093 55.8518C96.4877 55.4505 95.785 55.1161 94.731 54.9823L90.5151 54.3803L90.7259 53.1094L98.947 54.3134L98.8065 55.3167H97.6822V55.3836C98.0335 55.6512 98.3146 56.0525 98.4551 56.5207C98.5957 56.989 98.6659 57.4572 98.5254 57.9923C98.3849 58.9288 98.0335 59.5977 97.4714 59.999C96.9093 60.4003 96.1364 60.5341 95.0824 60.3335L89.7422 59.5308L89.8125 58.4605Z" fill="white"/>
<path d="M87.6325 64.6821C88.0541 63.5449 88.7567 62.8092 89.7404 62.4747C90.7242 62.0734 91.7781 62.1403 93.0429 62.5416C94.3077 63.0098 95.1509 63.6118 95.6428 64.4814C96.1346 65.351 96.2049 66.2874 95.7833 67.2908C95.432 68.2272 94.7996 68.8292 93.9564 69.1637C93.1132 69.4981 92.1295 69.4312 91.0755 69.0968L90.3026 68.8292L92.27 63.7456C91.3566 63.4781 90.6539 63.4112 90.0215 63.6787C89.3891 63.9463 88.9675 64.4145 88.6865 65.1503C88.5459 65.5516 88.4054 65.953 88.3351 66.2874C88.2649 66.6888 88.2649 67.157 88.2649 67.6921L87.1406 67.2908C87.1406 66.8225 87.1406 66.3543 87.2109 66.0199C87.2812 65.6854 87.492 65.2172 87.6325 64.6821ZM94.7996 66.8894C95.0104 66.2874 95.0104 65.7523 94.7293 65.2841C94.4482 64.8159 94.0267 64.4145 93.324 64.0801L91.8484 67.8259C92.5511 68.0934 93.1835 68.0934 93.6753 67.9597C94.1672 67.8259 94.5185 67.4914 94.7996 66.8894Z" fill="white"/>
<path d="M90.2348 75.4517L91.2888 73.7126L85.0352 70.3012L85.7378 69.1641L91.9914 72.5754L92.6941 71.3714L93.2562 71.639L92.9752 73.0437L93.3967 73.2443C94.2399 73.7126 94.8021 74.2477 95.0129 74.8497C95.2237 75.4517 95.0831 76.1206 94.6615 76.8564C94.3805 77.3246 94.0291 77.659 93.6075 78.0604L92.8346 77.2577C93.186 76.9233 93.467 76.6557 93.6075 76.3213C93.8183 75.9199 93.8886 75.5855 93.7481 75.251C93.6075 74.9166 93.2562 74.5821 92.6941 74.3146L92.2022 74.047L91.1483 75.7861L90.2348 75.4517Z" fill="white"/>
<path d="M82.4336 74.0468L83.2065 72.9766L89.952 77.5919L89.1791 78.6622L82.4336 74.0468ZM91.7789 78.7291C91.9897 78.9297 92.1302 79.0635 92.2005 79.2642C92.2005 79.4649 92.1302 79.6655 92.06 79.7993C91.9194 79.9331 91.7789 80.0669 91.5681 80.1338C91.3573 80.2006 91.1465 80.1338 90.8655 79.9331C90.6547 79.7993 90.5141 79.5986 90.4439 79.398C90.4439 79.1973 90.4439 78.9966 90.5844 78.8628C90.7249 78.6622 90.8655 78.5953 91.0763 78.5284C91.3573 78.5284 91.5681 78.5953 91.7789 78.7291Z" fill="white"/>
<path d="M79.835 78.3269C79.6945 78.4607 79.6242 78.5945 79.4837 78.7951C79.3431 78.9958 79.2729 79.1296 79.2026 79.2634L78.4297 78.5945C78.5 78.4607 78.5702 78.3269 78.7108 78.0593C78.8513 77.8587 78.9918 77.658 79.2026 77.4573C80.2566 76.3202 81.4511 76.2533 82.7159 77.3904L86.2994 80.4674L87.0724 79.6647L87.5642 80.066L87.1426 81.27L88.0561 82.8085L87.494 83.4105L86.0886 82.2065L84.4725 83.8787L83.6996 83.2098L85.3157 81.5376L81.7322 78.4607C81.3808 78.1262 81.0295 77.9925 80.6782 77.9925C80.3269 77.9925 80.1161 78.0593 79.835 78.3269Z" fill="white"/>
<path d="M74.7037 84.2804C74.2118 83.6784 74.0713 83.0764 74.2118 82.4075C74.3524 81.7386 74.9146 81.0697 75.6876 80.4677C76.5309 79.7988 77.3039 79.3975 78.0066 79.2637L78.7796 80.2001C77.7958 80.4008 76.9525 80.8021 76.32 81.2704C75.7578 81.6717 75.4767 82.073 75.4065 82.4075C75.3362 82.7419 75.4065 83.0764 75.6173 83.3439C75.8281 83.6115 76.1092 83.6784 76.4606 83.6784C76.812 83.6784 77.4444 83.5446 78.2174 83.277C78.9905 83.0095 79.6229 82.8757 79.9743 82.8757C80.3257 82.8088 80.677 82.8757 80.9581 83.0095C81.2392 83.1433 81.5203 83.277 81.7311 83.6115C82.1528 84.0797 82.2933 84.6817 82.0825 85.2837C81.8717 85.8857 81.45 86.4877 80.677 87.0898C79.9743 87.6249 79.131 88.0262 78.2877 88.2938L77.9363 87.2235C78.7796 86.956 79.4824 86.6215 80.0446 86.2202C80.4662 85.8857 80.7473 85.5513 80.8878 85.2168C81.0284 84.8824 80.9581 84.6148 80.7473 84.4142C80.5365 84.2135 80.3257 84.0797 79.9743 84.0797C79.6229 84.0797 79.0607 84.2135 78.0769 84.548C77.3741 84.7486 76.812 84.8824 76.4606 84.9493C76.0389 85.0162 75.6876 84.9493 75.4065 84.8155C75.1957 84.8155 74.9848 84.6148 74.7037 84.2804Z" fill="white"/>
<path d="M63.8123 91.639C63.2501 90.435 63.1798 89.4316 63.5312 88.4952C63.8825 87.5587 64.5853 86.8898 65.7097 86.4216C66.4124 86.154 67.0449 86.0203 67.7476 86.154C68.4504 86.2878 69.0126 86.4885 69.5747 86.9567C70.1369 87.4249 70.5586 88.0269 70.91 88.7627C71.4721 89.9667 71.5424 90.9701 71.1911 91.9065C70.8397 92.843 70.1369 93.5119 69.0126 93.9801C67.9584 94.4484 66.9043 94.4484 65.9908 94.047C65.0772 93.6457 64.3042 92.7761 63.8123 91.639ZM69.5045 89.2979C69.0828 88.3614 68.5909 87.7594 68.0287 87.4249C67.4665 87.0905 66.7638 87.0905 66.061 87.4249C65.3583 87.6925 64.8664 88.1607 64.7258 88.8296C64.5853 89.4316 64.6556 90.2343 65.0772 91.1708C65.4988 92.1072 65.9908 92.7092 66.553 92.9768C67.1152 93.3112 67.8179 93.3112 68.5206 92.9768C69.9964 92.3079 70.3478 91.1039 69.5045 89.2979Z" fill="white"/>
<path d="M60.9327 96.3877L59.949 91.371C59.8085 90.7689 59.5977 90.3007 59.2463 90.0332C58.895 89.7656 58.4032 89.6987 57.7708 89.8325C56.9276 89.9663 56.3655 90.3007 56.0844 90.8358C55.8033 91.3709 55.7331 92.1067 55.9439 93.1101L56.7871 97.1234L55.452 97.391L53.7656 89.6318L54.8899 89.4311L55.3115 90.4345H55.3817C55.5223 90.0332 55.8033 89.6987 56.2249 89.3643C56.6465 89.0967 57.1384 88.896 57.7005 88.7623C58.6842 88.5616 59.4571 88.6954 60.0193 89.0298C60.5814 89.3643 61.003 90.0332 61.2138 91.0365L62.2678 96.1201L60.9327 96.3877Z" fill="white"/>
<path d="M47.8627 97.7924C47.5114 97.7924 47.16 97.7924 46.8789 97.7255L47.0195 96.5215C47.3006 96.5884 47.6519 96.5884 47.933 96.5884C48.3547 96.5884 48.7763 96.4546 49.1277 96.2539C49.4791 96.0532 49.7601 95.7188 49.971 95.3175C50.1818 94.9161 50.2521 94.4479 50.2521 93.9797L50.1818 89.7656H51.517L51.5873 97.6586H50.4629L50.3223 96.187H50.2521C49.971 96.7222 49.5493 97.1235 49.1277 97.391C48.8466 97.6586 48.3547 97.7924 47.8627 97.7924Z" fill="white"/>
<path d="M35.9882 95.9857C34.9342 95.7182 34.2316 95.1831 33.81 94.3135C33.4586 93.4439 33.3884 92.4406 33.81 91.1697C34.1613 89.8988 34.7234 89.0292 35.4963 88.4941C36.2693 87.959 37.1827 87.8252 38.2367 88.0928C38.7988 88.2265 39.2204 88.4272 39.5718 88.7617C39.9231 89.0292 40.2041 89.4306 40.3447 89.8319H40.4149C40.696 89.2968 40.9068 89.0292 40.9771 88.9623L41.8905 89.2299L38.7988 99.9991L37.4638 99.6647L38.2367 97.056C38.3772 96.5209 38.588 95.9857 38.7286 95.5175H38.6583C38.0259 96.1195 37.1125 96.2533 35.9882 95.9857ZM36.4801 94.9824C37.253 95.1831 37.9556 95.1162 38.3772 94.7817C38.8691 94.4473 39.2204 93.7784 39.5015 92.7082V92.6413C39.7826 91.571 39.8528 90.8352 39.5718 90.3001C39.361 89.765 38.7988 89.3637 38.0259 89.163C37.3233 88.9623 36.6909 89.0961 36.199 89.4974C35.7071 89.8988 35.3558 90.5677 35.0748 91.5041C34.7937 92.4406 34.7937 93.2433 35.0045 93.7784C35.2856 94.4473 35.7774 94.8486 36.4801 94.9824Z" fill="white"/>
<path d="M30.2938 85.0834C31.4182 85.6186 32.121 86.3543 32.4021 87.2908C32.6832 88.2273 32.5426 89.2975 31.9101 90.3677C31.2777 91.5049 30.5047 92.2406 29.5911 92.642C28.6775 93.0433 27.6937 92.9764 26.6396 92.5082C25.726 92.04 25.0936 91.438 24.8827 90.5684C24.6016 89.6988 24.7422 88.8293 25.3044 87.8259L25.6557 87.157L30.7155 89.6319C31.1371 88.8293 31.2074 88.0935 31.0669 87.4915C30.9263 86.8895 30.4344 86.4212 29.6614 86.0199C29.2397 85.8192 28.8884 85.6855 28.4667 85.5517C28.0451 85.4179 27.6234 85.351 26.991 85.351L27.5531 84.3477C28.0451 84.3477 28.4667 84.4814 28.8884 84.5483C29.3803 84.6821 29.8019 84.8828 30.2938 85.0834ZM27.2018 91.5717C27.764 91.8393 28.3262 91.9062 28.8884 91.7055C29.3803 91.5049 29.8722 91.1035 30.2938 90.5015L26.499 88.6955C26.1477 89.3644 26.0774 89.9664 26.1477 90.4346C26.2882 90.9697 26.6396 91.3042 27.2018 91.5717Z" fill="white"/>
<path d="M21.7922 79.7319L18.4897 83.6784C18.0681 84.1466 17.8574 84.6148 17.9276 85.083C17.9276 85.4844 18.2087 85.8857 18.7005 86.2871C19.3329 86.8222 19.9653 87.0228 20.5977 86.8891C21.1598 86.7553 21.7922 86.2871 22.4949 85.5513L25.165 82.3406L26.219 83.1433L21.0193 89.2971L20.1761 88.6282L20.7382 87.6917L20.668 87.6249C20.2464 87.7586 19.7545 87.7586 19.2627 87.6917C18.7708 87.558 18.2789 87.3573 17.8574 87.0229C17.0844 86.4208 16.6628 85.7519 16.5926 85.1499C16.5223 84.5479 16.8034 83.7453 17.4358 83.0095L20.8085 78.9961L21.7922 79.7319Z" fill="white"/>
<path d="M17.2259 74.7816C17.9989 75.7181 18.3502 76.6545 18.2097 77.591C18.0691 78.5943 17.507 79.4639 16.453 80.2666C15.399 81.0692 14.4153 81.4706 13.3613 81.4706C12.3074 81.4706 11.4642 81.0023 10.7615 80.1997C10.1291 79.397 9.84806 78.5943 9.98859 77.7248C10.1291 76.8552 10.621 76.1194 11.5344 75.3836L12.1668 74.9154L15.7504 79.1294C16.453 78.5274 16.8746 77.9254 16.9449 77.3234C17.0151 76.7214 16.8044 76.0525 16.3125 75.4505C16.0314 75.1161 15.7504 74.8485 15.399 74.5809C15.118 74.3134 14.6964 74.1127 14.1343 73.8452L15.0477 73.1094C15.4693 73.31 15.8909 73.5776 16.172 73.8452C16.5233 74.0458 16.8746 74.3803 17.2259 74.7816ZM11.6047 79.5308C12.0263 79.999 12.5182 80.2666 13.0803 80.2666C13.6424 80.2666 14.2045 80.1328 14.8369 79.7314L12.1668 76.5876C11.6047 77.0559 11.2534 77.5241 11.1128 78.0592C11.1128 78.5943 11.2534 79.0625 11.6047 79.5308Z" fill="white"/>
<path d="M6.1964 71.4379L7.25039 73.177L13.504 69.7656L14.2067 70.9027L7.95304 74.3141L8.6557 75.5181L8.09357 75.7857L6.96932 74.7823L6.54773 74.983C5.63428 75.5181 4.93162 75.7188 4.22897 75.585C3.59658 75.4512 3.03445 75.0499 2.54259 74.2472C2.26153 73.779 2.121 73.3108 1.98047 72.7757L3.10472 72.575C3.17498 73.0432 3.31551 73.3777 3.52631 73.7121C3.73711 74.1134 4.08844 74.3141 4.43976 74.3141C4.79109 74.381 5.28295 74.2472 5.84508 73.9128L6.33693 73.6452L5.28295 71.9061L6.1964 71.4379Z" fill="white"/>
<path d="M2.40155 71.1027C2.12048 71.2364 1.90969 71.2364 1.69889 71.1695C1.48809 71.1027 1.34756 70.9689 1.2773 70.7682C1.20703 70.5675 1.20703 70.3669 1.20703 70.2331C1.2773 70.0324 1.41783 69.8986 1.69889 69.7649C1.97995 69.6311 2.19075 69.6311 2.40155 69.698C2.61234 69.7649 2.75287 69.8986 2.82314 70.0993C2.8934 70.3 2.8934 70.5006 2.8934 70.7013C2.82314 70.8351 2.68261 70.9689 2.40155 71.1027ZM11.4658 65.8184L12.0279 67.0224L4.43925 70.2331L3.87712 69.0291L11.4658 65.8184Z" fill="white"/>
<path d="M8.79529 61.4706C8.72503 61.3368 8.65476 61.1362 8.5845 60.9355C8.51423 60.7348 8.3737 60.601 8.30343 60.4673L9.28715 60.1328C9.35742 60.1997 9.49795 60.4004 9.63848 60.601C9.77901 60.8017 9.84928 61.0693 9.98981 61.3368C10.4817 62.8084 9.91954 63.8117 8.30343 64.28L3.73617 65.6846L4.0875 66.7549L3.45511 66.9556L2.61192 66.0191H0.785016L0.574219 65.2833L2.40112 64.7482L1.69847 62.6077L2.68219 62.2733L3.38484 64.4137L7.95211 63.0091C8.3737 62.8753 8.72503 62.6746 8.86556 62.4071C8.93582 62.1395 8.93582 61.8719 8.79529 61.4706Z" fill="white"/>
<path d="M5.98309 54.2475C6.75601 54.1137 7.3884 54.3144 7.88026 54.7826C8.37212 55.2508 8.72344 55.9866 8.86398 56.9899C9.00451 57.9933 9.00451 58.8629 8.79371 59.5318L7.5992 59.7324C7.88026 58.796 7.95052 57.9264 7.80999 57.1237C7.66946 56.4548 7.52893 56.0535 7.24787 55.7859C6.96681 55.5184 6.68574 55.4515 6.26415 55.4515C5.91282 55.5184 5.70202 55.6522 5.49123 55.9866C5.3507 56.3211 5.1399 56.8562 4.99937 57.592C4.85884 58.3946 4.64804 58.9297 4.50751 59.2642C4.36698 59.5986 4.15618 59.8662 3.87512 60C3.66432 60.2006 3.31299 60.2675 2.96167 60.3344C2.25901 60.4682 1.69689 60.2675 1.27529 59.7993C0.783433 59.3311 0.502371 58.6622 0.36184 57.7257C0.221309 56.8562 0.221309 55.9866 0.502371 55.1839L1.62662 55.5184C1.41582 56.3879 1.34556 57.1237 1.48609 57.7257C1.55635 58.2609 1.76715 58.6622 1.97795 58.8629C2.18875 59.1304 2.46981 59.1973 2.75087 59.1304C3.03193 59.0635 3.24273 58.9297 3.45353 58.6622C3.66432 58.3946 3.80485 57.7926 4.01565 56.8562C4.15618 56.1873 4.29671 55.6522 4.50751 55.3177C4.64804 54.9833 4.85884 54.7157 5.1399 54.515C5.28043 54.4481 5.56149 54.3144 5.98309 54.2475Z" fill="white"/>
</g>
<defs>
<clipPath id="clip0_2_6385">
<rect width="100" height="100" fill="white"/>
</clipPath>
</defs>
</svg>
