<svg width="100" height="100" viewBox="0 0 100 100" fill="none" xmlns="http://www.w3.org/2000/svg">
<g clip-path="url(#clip0_2_4960)">
<circle cx="51" cy="49" r="5" fill="white"/>
<path d="M14.5417 28.6054L13.4485 28.3034V28.3638C13.6914 28.9074 13.8129 29.3907 13.7522 29.8135C13.7522 30.2363 13.57 30.6592 13.327 31.2028C12.9626 31.8672 12.5374 32.2901 11.9908 32.4713C11.4442 32.6525 10.8368 32.5921 10.2295 32.2297C8.83254 31.5048 8.71107 30.0551 9.80432 27.8201L10.3509 26.6724L9.92579 26.4912C9.4399 26.2496 8.95402 26.1288 8.5896 26.2496C8.22518 26.3704 7.9215 26.612 7.67856 27.0953C7.49635 27.4577 7.37488 27.8201 7.31414 28.1826C7.25341 28.545 7.19267 28.9074 7.19267 29.2698L6.16016 29.149C6.16016 28.7262 6.22089 28.243 6.34236 27.8201C6.46384 27.3369 6.58531 26.9141 6.82825 26.5516C7.25341 25.706 7.73929 25.2227 8.34666 25.0415C8.89328 24.8603 9.62211 24.9207 10.4117 25.3435L15.0276 27.7597L14.5417 28.6054ZM12.5374 30.4779C12.8411 29.8739 12.9626 29.2698 12.7804 28.7262C12.5982 28.1826 12.2338 27.7597 11.6264 27.4577L11.019 27.1557L10.5332 28.1826C10.1687 28.9678 9.98653 29.6323 9.98653 30.0551C10.0473 30.5383 10.2902 30.9008 10.7154 31.1424C11.0798 31.3236 11.3835 31.384 11.6871 31.2632C12.1123 31.082 12.3552 30.8404 12.5374 30.4779Z" fill="white"/>
<path d="M10.7761 20.4501L14.6025 23.5307C15.0883 23.8931 15.5135 24.0743 15.9387 24.0743C16.3638 24.0743 16.7282 23.8327 17.0926 23.3495C17.5785 22.7454 17.7607 22.1414 17.6393 21.5978C17.5178 21.0541 17.0926 20.4501 16.3031 19.846L13.2055 17.3694L13.9951 16.403L20.008 21.1749L19.3399 21.9602L18.4288 21.4769V21.5374C18.5503 21.9602 18.611 22.383 18.4896 22.8059C18.3681 23.2287 18.1252 23.7119 17.8215 24.1348C17.2141 24.8596 16.6068 25.2824 15.9994 25.3428C15.3313 25.4033 14.6632 25.1616 13.8736 24.5576L9.92578 21.4165L10.7761 20.4501Z" fill="white"/>
<path d="M22.8643 17.4295C22.9858 17.3087 23.1072 17.1879 23.2287 17.0067C23.3502 16.8255 23.4717 16.7047 23.5324 16.5839L24.2005 17.3087C24.1398 17.4295 24.0183 17.6107 23.8968 17.792C23.7753 17.9732 23.5931 18.1544 23.4109 18.3356C22.3177 19.3625 21.2244 19.2417 20.1312 18.094L17.1551 14.7717L16.3048 15.4966L15.8797 15.0737L16.3656 13.9865L15.6367 12.4159L16.1833 11.9327L17.3373 13.2616L18.9772 11.8119L19.6453 12.5367L18.0054 13.9865L20.9815 17.2483C21.2852 17.5503 21.5889 17.7316 21.8925 17.792C22.3177 17.7316 22.5606 17.6711 22.8643 17.4295Z" fill="white"/>
<path d="M29.5456 13.7461L26.8733 9.63858C26.5088 9.09494 26.1444 8.79292 25.78 8.67211C25.4156 8.5513 24.9297 8.67211 24.4438 8.97413C23.7757 9.39696 23.4113 9.8802 23.3506 10.4238C23.2898 10.9675 23.5328 11.6923 24.0794 12.538L26.2659 15.8603L25.2334 16.5247L19.2812 7.46401L20.3138 6.79956L22.0751 9.45737C22.3181 9.8198 22.5003 10.1218 22.6217 10.4238L22.6825 10.3634C22.6825 9.94061 22.8039 9.51777 23.0469 9.09494C23.2898 8.67211 23.6542 8.37008 24.0794 8.06806C24.869 7.58482 25.5978 7.3432 26.2052 7.46401C26.8125 7.58482 27.4199 8.06806 27.9665 8.85332L30.6996 13.0212L29.5456 13.7461Z" fill="white"/>
<path d="M37.0736 6.19491C37.5595 7.3426 37.6203 8.36948 37.2558 9.27555C36.8914 10.1816 36.2233 10.7857 35.1908 11.2085C34.5227 11.4501 33.9154 11.5105 33.308 11.4501C32.7006 11.3293 32.154 11.0877 31.6681 10.6045C31.1822 10.1212 30.7571 9.57757 30.5141 8.79231C30.0282 7.64462 29.9675 6.61774 30.3319 5.77208C30.6963 4.92641 31.3644 4.26196 32.397 3.83913C33.308 3.41629 34.2798 3.41629 35.1301 3.89953C35.9804 4.38277 36.5877 5.04722 37.0736 6.19491ZM31.6681 8.30908C32.0325 9.21515 32.4577 9.81919 33.0043 10.1212C33.5509 10.4232 34.1583 10.4836 34.8264 10.1816C35.4945 9.94 35.9196 9.45676 36.1019 8.85272C36.2841 8.24867 36.1626 7.52381 35.7982 6.61774C35.4338 5.71167 35.0086 5.10763 34.462 4.8056C33.9154 4.50358 33.308 4.50358 32.6399 4.7452C31.3037 5.34924 30.9393 6.55734 31.6681 8.30908Z" fill="white"/>
<path d="M41.9346 1.12081C42.2383 1.0604 42.542 1 42.8456 1L42.9064 2.14769C42.6027 2.14769 42.3598 2.14769 42.0561 2.20809C41.6917 2.3289 41.3272 2.51012 41.0236 2.81214C40.7199 3.11416 40.5377 3.47659 40.4162 3.89943C40.2947 4.32226 40.2947 4.74509 40.4162 5.22833L41.2665 9.21504L40.0518 9.45666L38.4727 1.96648L39.5052 1.72486L39.8696 3.11416H39.9303C40.1125 2.57052 40.3555 2.08728 40.7199 1.78526C41.0843 1.42283 41.4487 1.18121 41.9346 1.12081Z" fill="white"/>
<path d="M60.7027 9.39588V8.3086H60.6419C60.156 8.67103 59.7309 8.91265 59.3057 9.03345C58.8806 9.15426 58.3947 9.09386 57.8481 8.97305C57.1192 8.85224 56.5726 8.48981 56.2082 8.06698C55.8438 7.64415 55.783 6.97969 55.9045 6.31524C56.2082 4.80512 57.6051 4.26148 60.0346 4.68432L61.31 4.86553L61.3707 4.4427C61.4922 3.89905 61.4315 3.41582 61.2493 3.11379C61.0671 2.81177 60.7027 2.57015 60.156 2.44934C59.7309 2.38894 59.3665 2.32853 59.002 2.38894C58.6376 2.44934 58.2732 2.50975 57.9088 2.57015L57.7266 1.54327C58.1517 1.42246 58.5769 1.36206 59.0628 1.30165C59.5487 1.24125 59.9738 1.30165 60.399 1.42246C61.31 1.60367 61.9174 1.9661 62.2818 2.44934C62.6462 2.93258 62.7069 3.59703 62.5855 4.5031L61.553 9.5771L60.7027 9.39588ZM58.3339 8.06698C59.002 8.18779 59.6094 8.12738 60.0953 7.82536C60.5812 7.52334 60.8849 7.0401 61.0063 6.37565L61.1278 5.65079L60.0346 5.46958C59.1842 5.34877 58.5162 5.34877 58.091 5.46958C57.6659 5.65079 57.3622 5.95281 57.2407 6.49646C57.18 6.85889 57.2407 7.22131 57.4229 7.46293C57.6051 7.76496 57.9088 7.94617 58.3339 8.06698Z" fill="white"/>
<path d="M67.5026 3.53729L65.6198 8.06765C65.3769 8.61129 65.3161 9.09453 65.4984 9.51736C65.6806 9.9402 65.9842 10.1818 66.5309 10.4234C67.2597 10.7255 67.8671 10.7255 68.353 10.4838C68.8388 10.2422 69.264 9.63817 69.6891 8.7321L71.2075 5.04741L72.3615 5.53065L69.3855 12.598L68.4137 12.1752L68.6566 11.1483H68.5959C68.2315 11.3899 67.8063 11.5107 67.3812 11.5711C66.956 11.6315 66.4094 11.5107 65.9235 11.2691C65.0732 10.9067 64.5266 10.4234 64.2229 9.87979C63.9192 9.33615 64.0407 8.55089 64.4051 7.64482L66.3487 2.99365L67.5026 3.53729Z" fill="white"/>
<path d="M73.7599 14.2283C73.8813 14.2887 74.0635 14.4095 74.2457 14.4699C74.4279 14.5303 74.6102 14.5908 74.7316 14.6512L74.2457 15.4968C74.1243 15.4968 73.9421 15.4364 73.6991 15.3156C73.4562 15.2552 73.2132 15.1344 73.031 15.0136C71.7556 14.2283 71.5126 13.141 72.3629 11.8121L74.7316 8.00664L73.8206 7.463L74.1243 6.97976L75.339 7.10057L76.6144 5.95288L77.2218 6.31531L76.3108 7.82543L78.1936 8.97312L77.7077 9.81878L75.8249 8.67109L73.5169 12.4162C73.274 12.7786 73.2132 13.141 73.274 13.4431C73.274 13.7451 73.4562 14.0471 73.7599 14.2283Z" fill="white"/>
<path d="M79.1666 19.5442L82.3856 15.8595C82.8108 15.3763 82.993 14.9535 82.993 14.5306C82.993 14.1078 82.75 13.7454 82.3249 13.3225C81.7175 12.8393 81.1709 12.5977 80.6243 12.7185C80.0776 12.8393 79.4703 13.2017 78.8022 13.987L76.1905 16.9468L75.2188 16.1012L82.3249 7.88611L83.2966 8.73177L81.2316 11.148C80.9279 11.45 80.685 11.6916 80.5028 11.9332L80.5635 11.9936C80.9887 11.8728 81.4138 11.8728 81.8997 11.9936C82.3249 12.1144 82.8108 12.3561 83.1752 12.6581C83.904 13.2621 84.2684 13.8662 84.3292 14.5306C84.3899 15.1951 84.0862 15.8595 83.4789 16.5844L80.1991 20.3295L79.1666 19.5442Z" fill="white"/>
<path d="M88.581 24.6789C87.6092 25.4641 86.6374 25.7661 85.6656 25.7057C84.6939 25.6453 83.9043 25.1621 83.2362 24.256C82.811 23.7124 82.5681 23.1083 82.5074 22.5043C82.4466 21.9002 82.5681 21.2962 82.8718 20.6921C83.1755 20.0881 83.6614 19.5445 84.2687 19.0612C85.2405 18.276 86.2123 17.9739 87.1233 18.0343C88.0344 18.0947 88.8847 18.578 89.5528 19.4841C90.2209 20.3297 90.4638 21.2358 90.2816 22.1419C90.0994 23.0479 89.5528 23.8936 88.581 24.6789ZM84.9976 20.0881C84.208 20.6921 83.7828 21.2962 83.6006 21.9002C83.4184 22.5043 83.6006 23.1083 84.0258 23.652C84.4509 24.256 84.9975 24.4976 85.6656 24.4976C86.3337 24.4976 87.0018 24.1956 87.7307 23.5916C88.5202 22.9875 88.9454 22.3835 89.1276 21.7794C89.2491 21.1754 89.1276 20.5713 88.6417 20.0277C87.7914 18.9404 86.516 18.9404 84.9976 20.0881Z" fill="white"/>
<path d="M94.8372 27.8795C95.0194 28.1815 95.1409 28.4835 95.2016 28.7251L94.1084 29.148C94.0477 28.8459 93.9262 28.6043 93.8047 28.3627C93.6225 28.0003 93.3188 27.7587 92.9544 27.517C92.59 27.2754 92.1648 27.215 91.7397 27.215C91.3145 27.215 90.8894 27.3358 90.4642 27.5774L86.8808 29.5104L86.2734 28.4231L93.0151 24.7988L93.501 25.7049L92.347 26.4902V26.5506C92.9544 26.5506 93.4403 26.6714 93.8654 26.913C94.2906 27.1546 94.655 27.4566 94.8372 27.8795Z" fill="white"/>
<path d="M92.102 48.1155L93.1952 47.8135V47.7531C92.7094 47.3906 92.3449 47.0886 92.102 46.7262C91.859 46.3638 91.7983 45.8805 91.7376 45.3369C91.6768 44.612 91.7983 44.008 92.1627 43.5247C92.5271 43.0415 93.0738 42.7999 93.8026 42.7395C95.3817 42.6187 96.2928 43.7663 96.5357 46.1825L96.7179 47.451L97.1431 47.3906C97.7504 47.3302 98.1149 47.2094 98.4185 46.9074C98.6615 46.6054 98.783 46.2429 98.7222 45.6993C98.6615 45.2765 98.6007 44.914 98.4185 44.5516C98.2971 44.1892 98.1149 43.8872 97.9327 43.5851L98.8437 43.1019C99.0866 43.4643 99.2689 43.8872 99.4511 44.31C99.6333 44.7328 99.694 45.2161 99.7547 45.6389C99.8155 46.545 99.694 47.2698 99.3296 47.7531C98.9652 48.2363 98.2971 48.5383 97.4468 48.5987L92.2235 49.0216L92.102 48.1155ZM92.7701 45.4577C92.8308 46.1825 93.0738 46.6658 93.4989 47.0886C93.9241 47.451 94.4707 47.6323 95.1388 47.5718L95.8069 47.5114L95.6854 46.3638C95.5639 45.5181 95.3817 44.8536 95.1388 44.4912C94.8351 44.1288 94.4707 43.9476 93.9241 44.008C93.4989 44.0684 93.256 44.1892 93.013 44.4308C92.7701 44.6724 92.7094 45.0348 92.7701 45.4577Z" fill="white"/>
<path d="M99.6933 52.9487L94.7737 52.405C94.1663 52.3446 93.6804 52.405 93.3768 52.6467C93.0731 52.8883 92.8301 53.3111 92.7694 53.8547C92.7087 54.64 92.8301 55.2441 93.2553 55.6065C93.6804 56.0293 94.3485 56.2709 95.3203 56.3917L99.3289 56.8146L99.2074 58.0831L91.5547 57.2374L91.6762 56.2105L92.7087 56.1501V56.0897C92.3443 55.8481 92.1013 55.4857 91.9798 55.0628C91.7976 54.64 91.7976 54.1568 91.8584 53.6131C91.9798 52.7071 92.2835 52.0426 92.7694 51.6198C93.2553 51.1969 93.9841 51.0761 94.9559 51.1365L99.9362 51.6802L99.6933 52.9487Z" fill="white"/>
<path d="M91.1302 61.9481C91.0694 62.1293 91.0694 62.3105 91.0087 62.4917C91.0087 62.7334 90.948 62.8542 91.0087 62.975L90.0977 62.7333C90.0977 62.6125 90.0977 62.4313 90.0977 62.1897C90.0977 61.9481 90.1584 61.7065 90.2191 61.4648C90.6443 60.0151 91.5553 59.5319 93.1345 59.9547L97.4467 61.1628L97.7504 60.1359L98.3578 60.3172L98.54 61.5253L99.9976 62.4313L99.8154 63.1562L98.1148 62.6729L97.5075 64.7871L96.5357 64.5455L97.143 62.4313L92.8915 61.2836C92.4664 61.1628 92.1019 61.1628 91.7983 61.344C91.3731 61.344 91.1909 61.5857 91.1302 61.9481Z" fill="white"/>
<path d="M87.4859 68.5932L91.9804 70.6469C92.527 70.8885 93.0129 70.9489 93.438 70.8281C93.8024 70.7073 94.1669 70.3449 94.4098 69.8617C94.7135 69.1368 94.7742 68.5328 94.5313 68.0495C94.2883 67.5663 93.681 67.083 92.8307 66.6602L89.2472 65.0293L89.7939 63.8816L99.6938 68.4119L99.1472 69.5596L96.2319 68.2307C95.8675 68.0495 95.5031 67.8683 95.2601 67.7475L95.1994 67.8079C95.4423 68.1703 95.5638 68.5932 95.5638 69.0764C95.5638 69.5596 95.5031 70.0429 95.2601 70.4657C94.8957 71.3114 94.3491 71.855 93.8024 72.0966C93.1951 72.3382 92.4663 72.2778 91.5552 71.855L87 69.8013L87.4859 68.5932Z" fill="white"/>
<path d="M85.1781 78.9825C84.1456 78.2577 83.5383 77.412 83.3561 76.5059C83.1738 75.5999 83.4168 74.6938 84.0241 73.7877C84.4493 73.2441 84.9352 72.8213 85.4818 72.5796C86.0892 72.338 86.6965 72.2776 87.3646 72.3984C88.0327 72.5192 88.7008 72.8213 89.3082 73.3045C90.3407 74.0293 90.9481 74.875 91.1303 75.7811C91.3125 76.6872 91.0695 77.5932 90.4014 78.4993C89.7941 79.345 88.9438 79.8282 88.0327 79.949C87.1217 80.0094 86.1499 79.7074 85.1781 78.9825ZM88.5794 74.3314C87.7898 73.7877 87.1217 73.4857 86.4536 73.4857C85.8462 73.4857 85.2996 73.7877 84.8745 74.3918C84.4493 74.9958 84.3278 75.5999 84.51 76.2039C84.6922 76.808 85.1781 77.412 85.9677 77.9557C86.7573 78.4993 87.4254 78.8013 88.0935 78.7409C88.7616 78.6805 89.2475 78.3785 89.6726 77.8348C90.4622 76.6268 90.1585 75.4791 88.5794 74.3314Z" fill="white"/>
<path d="M83.7834 85.8691C83.5405 86.1107 83.2975 86.2919 83.0546 86.4127L82.3865 85.567C82.6294 85.3858 82.8724 85.265 83.0546 85.0838C83.3582 84.7818 83.5405 84.4797 83.6012 84.0569C83.6619 83.6341 83.6619 83.2716 83.5405 82.8488C83.419 82.426 83.176 82.0636 82.8116 81.7011L79.957 78.8017L80.8681 77.8956L86.2736 83.3321L85.5447 84.0569L84.4515 83.1508L84.3908 83.2112C84.5122 83.7549 84.573 84.2985 84.4515 84.7818C84.33 85.265 84.1478 85.567 83.7834 85.8691Z" fill="white"/>
<path d="M66.7761 87.6809L67.4442 88.5266H67.5049C67.6264 87.9225 67.8693 87.4997 68.1123 87.1373C68.3552 86.7748 68.7804 86.5332 69.2663 86.2916C69.9344 85.9896 70.5417 85.8688 71.1491 86.05C71.6957 86.2312 72.1209 86.654 72.4853 87.2581C73.1534 88.6474 72.4245 89.9159 70.238 91.0636L69.0841 91.6676L69.2663 92.0905C69.5092 92.6341 69.8129 92.9361 70.1773 93.0569C70.5417 93.1777 70.9669 93.1173 71.4528 92.9361C71.8172 92.7549 72.1209 92.5133 72.4245 92.2717C72.6675 92.0301 72.9712 91.728 73.1534 91.4864L73.8822 92.1509C73.6393 92.5133 73.3356 92.8153 72.9712 93.1173C72.6068 93.4194 72.2423 93.661 71.8172 93.8422C70.9669 94.265 70.2988 94.3858 69.6914 94.2046C69.0841 94.0234 68.5982 93.5402 68.2337 92.7549L65.9258 88.0433L66.7761 87.6809ZM69.5092 87.3185C68.9019 87.6205 68.4767 88.0433 68.2337 88.5266C68.0515 89.0702 68.1123 89.6139 68.416 90.2179L68.7196 90.822L69.6914 90.2783C70.481 89.8555 70.9669 89.4931 71.2706 89.0702C71.5135 88.6474 71.5135 88.2246 71.3313 87.7413C71.1491 87.3789 70.9061 87.1373 70.6025 87.0769C70.2988 87.0165 69.9344 87.1373 69.5092 87.3185Z" fill="white"/>
<path d="M64.9534 96.4398L63.6779 91.6678C63.4957 91.0638 63.2528 90.641 62.9491 90.4597C62.5847 90.2181 62.1595 90.2181 61.6129 90.3389C60.8233 90.5201 60.3375 90.8826 60.0945 91.4262C59.8516 91.9095 59.8516 92.6343 60.0945 93.6008L61.127 97.4667L59.9123 97.7687L57.9688 90.3993L58.9405 90.1577L59.3657 91.0638H59.4264C59.5479 90.641 59.7908 90.2785 60.1552 89.9765C60.5197 89.6745 60.9448 89.4329 61.4914 89.3121C62.4025 89.0704 63.1313 89.1308 63.6779 89.4329C64.2246 89.7349 64.6497 90.3389 64.8927 91.3054L66.1681 96.1378L64.9534 96.4398Z" fill="white"/>
<path d="M53.4118 91.7273C53.2296 91.7273 53.0474 91.7877 52.8652 91.8481C52.683 91.9085 52.5008 91.9689 52.3793 92.0293L52.2578 91.0629C52.3793 91.0025 52.5615 90.942 52.8044 90.8816C53.0474 90.8212 53.2903 90.7608 53.5333 90.7608C55.0517 90.64 55.8412 91.3045 56.0234 92.875L56.4486 97.2845L57.5418 97.1637L57.6026 97.7678L56.5701 98.3718L56.2057 100.063L55.4768 100.124L55.2946 98.3718L53.1081 98.6134L52.9866 97.647L55.1731 97.4054L54.748 92.9958C54.6873 92.573 54.5658 92.2105 54.3228 92.0293C54.1406 91.7877 53.837 91.7273 53.4118 91.7273Z" fill="white"/>
<path d="M45.8838 90.7616L45.5801 95.6544C45.5194 96.2584 45.6409 96.7416 45.8838 97.0437C46.1268 97.3457 46.5519 97.5269 47.1593 97.5873C47.9489 97.6477 48.4955 97.4665 48.9206 97.0437C49.285 96.6208 49.528 95.9564 49.5887 94.9295L49.8317 91.0032L51.1071 91.0636L50.4998 101.876L49.2243 101.816L49.4065 98.6746C49.4065 98.2518 49.4673 97.8893 49.528 97.5873H49.4673C49.2243 97.9497 48.8599 98.1914 48.4347 98.3726C48.0096 98.5538 47.5237 98.6142 46.9771 98.6142C46.066 98.5538 45.3372 98.3122 44.912 97.8289C44.4869 97.3457 44.3047 96.6208 44.3047 95.6544L44.6084 90.7012L45.8838 90.7616Z" fill="white"/>
<path d="M35.3144 92.3925C35.6181 91.1844 36.1647 90.3387 37.015 89.7951C37.8653 89.2515 38.7764 89.1911 39.8089 89.4327C40.477 89.6139 41.0236 89.9159 41.4488 90.3992C41.8739 90.822 42.1776 91.426 42.2991 92.0301C42.4206 92.6341 42.3598 93.4194 42.1776 94.1442C41.8739 95.3523 41.3273 96.198 40.5377 96.7416C39.7482 97.2853 38.8371 97.3457 37.7439 97.1041C36.7114 96.802 35.9825 96.2584 35.4966 95.4127C35.0108 94.5671 35.0108 93.5402 35.3144 92.3925ZM40.9629 93.8422C41.2058 92.9361 41.2058 92.1509 40.9629 91.6072C40.7199 91.0636 40.2341 90.6408 39.5052 90.4596C38.7764 90.2783 38.169 90.3992 37.6831 90.7616C37.1973 91.124 36.8328 91.7885 36.5899 92.7549C36.3469 93.661 36.3469 94.4463 36.5899 94.9899C36.8328 95.5336 37.3187 95.9564 38.0476 96.1376C39.5052 96.4396 40.4163 95.7148 40.9629 93.8422Z" fill="white"/>
<path d="M28.3911 93.6009C28.0875 93.4801 27.8445 93.2989 27.6016 93.1781L28.2089 92.2116C28.4519 92.3928 28.6948 92.5136 28.9378 92.6344C29.3022 92.8156 29.6666 92.876 30.0917 92.8156C30.5169 92.7552 30.8813 92.574 31.2457 92.3324C31.6101 92.0304 31.8531 91.7283 32.0353 91.2451L33.7359 87.5604L34.8899 88.1041L31.7316 95.0506L30.7598 94.6278L31.185 93.2989H31.1243C30.6384 93.6613 30.1525 93.8425 29.7273 93.9029C29.2414 93.8425 28.8163 93.7821 28.3911 93.6009Z" fill="white"/>
<path d="M20.5544 78.4393L20.0078 79.4057L20.0685 79.4661C20.6759 79.4057 21.1618 79.4057 21.5869 79.5266C21.9513 79.6474 22.3765 79.9494 22.8016 80.3118C23.3483 80.8555 23.6519 81.3991 23.7127 81.9427C23.7734 82.4864 23.5305 83.0904 23.0446 83.5737C21.9513 84.7214 20.4937 84.4797 18.6716 82.8488L17.6998 82.0031L17.3961 82.3052C16.971 82.728 16.7888 83.1508 16.7888 83.5133C16.7888 83.8757 16.971 84.2381 17.3961 84.6609C17.6998 84.963 18.0035 85.1442 18.3679 85.3254C18.7323 85.5066 19.036 85.6274 19.4004 85.7482L19.036 86.7147C18.6108 86.5939 18.1857 86.4127 17.7605 86.2315C17.3354 85.9899 16.971 85.7482 16.6673 85.4462C15.9992 84.8422 15.6348 84.1777 15.574 83.5737C15.5133 82.9696 15.817 82.3656 16.4243 81.7011L20.0078 77.8956L20.5544 78.4393ZM21.8906 80.8555C21.4047 80.3722 20.8581 80.1306 20.3114 80.1306C19.7648 80.1306 19.2182 80.3722 18.7323 80.9159L18.2464 81.3991L19.0967 82.124C19.7648 82.728 20.3114 83.03 20.7973 83.1508C21.2832 83.2716 21.6476 83.0904 22.0121 82.728C22.3157 82.426 22.4372 82.124 22.3765 81.8219C22.3765 81.4595 22.1943 81.1575 21.8906 80.8555Z" fill="white"/>
<path d="M11.687 79.8892L15.6956 76.9897C16.1815 76.6273 16.4852 76.2649 16.5459 75.8421C16.6066 75.4192 16.4852 74.9964 16.1815 74.5132C15.6956 73.8487 15.2097 73.5467 14.6631 73.4863C14.1164 73.4259 13.4484 73.7279 12.6588 74.2715L9.43977 76.6273L8.71094 75.6004L14.9668 71.1305L15.5741 71.9762L14.8453 72.701L14.906 72.7614C15.3312 72.701 15.7563 72.8218 16.1815 73.0634C16.6066 73.3051 16.971 73.6071 17.2747 74.0903C17.8213 74.8152 18.0643 75.54 17.9428 76.1441C17.8821 76.8085 17.3962 77.3522 16.6066 77.9562L12.5373 80.9161L11.687 79.8892Z" fill="white"/>
<path d="M11.9325 67.5056C11.8717 67.3847 11.7503 67.2035 11.6288 67.0223C11.5073 66.8411 11.3859 66.7203 11.3251 66.6599L12.1754 66.2371C12.2969 66.2975 12.4184 66.4787 12.5398 66.6599C12.7221 66.8411 12.8435 67.0827 12.965 67.2639C13.6331 68.5928 13.2687 69.6197 11.8717 70.3446L7.86317 72.3379L8.34906 73.3044L7.80243 73.546L6.83065 72.8212L5.13004 73.1232L4.76562 72.4587L6.34476 71.6735L5.37299 69.6801L6.22329 69.2573L7.19507 71.2507L11.1429 69.2573C11.5681 69.0761 11.811 68.8345 11.9325 68.5324C12.1754 68.17 12.1147 67.868 11.9325 67.5056Z" fill="white"/>
<path d="M10.1694 60.1963L5.4927 61.646C4.88534 61.8272 4.52093 62.1292 4.27798 62.4312C4.09578 62.7937 4.03504 63.2165 4.21725 63.8205C4.46019 64.5454 4.82461 65.0286 5.37123 65.2703C5.91786 65.5119 6.64669 65.4515 7.55773 65.1494L11.3234 63.9413L11.6878 65.1494L1.30192 68.4113L0.9375 67.2032L3.9743 66.2367C4.39946 66.1159 4.70314 66.0555 5.00682 65.9951V65.9347C4.58166 65.8139 4.21725 65.6327 3.85283 65.2703C3.54915 64.9078 3.30621 64.5454 3.124 64.0018C2.82032 63.0957 2.82032 62.3708 3.124 61.8272C3.42768 61.2835 4.03504 60.8003 4.94608 60.4983L9.74423 58.9882L10.1694 60.1963Z" fill="white"/>
<path d="M4.88696 50.8943C6.16242 50.7735 7.13419 50.9547 7.92376 51.4983C8.71333 52.042 9.13848 52.8876 9.25996 53.9749C9.32069 54.6394 9.25996 55.3038 8.95628 55.8475C8.71333 56.3911 8.28818 56.8744 7.68082 57.2368C7.13419 57.5992 6.40536 57.7804 5.61579 57.9012C4.40107 58.022 3.36856 57.8408 2.63972 57.2972C1.85015 56.7535 1.425 55.9079 1.30353 54.8206C1.18206 53.7333 1.425 52.8876 2.0931 52.1628C2.7612 51.4379 3.67224 51.0755 4.88696 50.8943ZM5.49432 56.6327C6.4661 56.5119 7.13419 56.2703 7.62008 55.8475C8.10597 55.4246 8.28818 54.8206 8.16671 54.0957C8.10597 53.3709 7.80229 52.8272 7.25567 52.5252C6.70904 52.2232 5.98021 52.1024 5.00843 52.1628C4.03665 52.2836 3.36856 52.5252 2.88267 52.9481C2.45752 53.3709 2.27531 53.9749 2.33604 54.6998C2.51825 56.2099 3.55076 56.8744 5.49432 56.6327Z" fill="white"/>
<path d="M1.24257 44.9136C1.24257 44.5512 1.3033 44.2492 1.36404 44.0076L2.51802 44.2492C2.45729 44.5512 2.39655 44.7928 2.39655 45.0949C2.39655 45.5177 2.45729 45.8801 2.6395 46.2425C2.8217 46.605 3.12538 46.907 3.4898 47.0882C3.85422 47.3298 4.27937 47.4506 4.76526 47.4506L8.83458 47.6923L8.77384 48.9608L1.12109 48.4775L1.18183 47.4506L2.57876 47.3902V47.3298C2.09287 47.0278 1.72845 46.6654 1.48551 46.2425C1.24257 45.8197 1.18183 45.3969 1.24257 44.9136Z" fill="white"/>
</g>
<defs>
<clipPath id="clip0_2_4960">
<rect width="100" height="100" fill="white"/>
</clipPath>
</defs>
</svg>
