<svg width="100" height="100" viewBox="0 0 100 100" fill="none" xmlns="http://www.w3.org/2000/svg">
<g clip-path="url(#clip0_2_3571)">
<circle cx="51" cy="50" r="5" fill="white"/>
<g clip-path="url(#clip1_2_3571)">
<path d="M8.08352 27.2564C8.55971 26.3715 9.21447 25.8995 10.0478 25.7225C10.8811 25.5455 11.893 25.7815 12.9645 26.3715C14.0359 26.9615 14.7502 27.6694 15.1073 28.4364C15.4645 29.2034 15.4049 30.0293 14.9288 30.9143C14.6907 31.3862 14.393 31.6812 14.0359 31.9762C13.6788 32.2712 13.3216 32.3892 12.8454 32.4482L12.7859 32.5072C13.2026 32.8612 13.4407 33.0972 13.5002 33.1562L13.0835 33.9231L3.73828 28.9084L4.33352 27.8464L6.59542 29.0854C7.07161 29.3213 7.48828 29.6163 7.90495 29.8523L7.96447 29.7933C7.54781 29.0264 7.60733 28.1414 8.08352 27.2564ZM8.91685 27.9054C8.55971 28.5544 8.50019 29.1444 8.73828 29.6163C8.97638 30.0883 9.51209 30.6193 10.4049 31.0913H10.4645C11.3573 31.5632 12.0716 31.7992 12.6669 31.6812C13.2621 31.5632 13.6788 31.2092 14.0359 30.5603C14.3335 29.9703 14.393 29.4393 14.0954 28.9084C13.7978 28.3774 13.2621 27.9054 12.4288 27.4334C11.5954 26.9615 10.8811 26.7845 10.2859 26.8435C9.69066 26.9615 9.21447 27.3154 8.91685 27.9054Z" fill="white"/>
<path d="M18.0826 25.8996L17.3683 26.9025L8.79688 20.5899L9.51116 19.5869L18.0826 25.8996Z" fill="white"/>
<path d="M21.1783 16.9912C22.0711 17.8171 22.5473 18.7611 22.6068 19.6461C22.6663 20.59 22.3092 21.416 21.5354 22.1829C21.0592 22.6549 20.5235 23.0089 19.9283 23.1269C19.333 23.3039 18.7378 23.2449 18.083 23.0089C17.4283 22.7729 16.8925 22.4189 16.2973 21.8879C15.4044 21.062 14.9283 20.177 14.9283 19.2331C14.8687 18.3481 15.2259 17.4632 15.9997 16.6962C16.714 15.9292 17.6068 15.5753 18.4997 15.6343C19.4521 15.6932 20.3449 16.1062 21.1783 16.9912ZM17.1902 21.003C17.8449 21.652 18.4997 22.0059 19.0949 22.1239C19.6902 22.1829 20.2854 22.0059 20.7616 21.475C21.2378 20.944 21.4759 20.413 21.3568 19.823C21.2973 19.2331 20.8806 18.5841 20.2259 17.9351C19.5711 17.2862 18.9163 16.9322 18.3211 16.8732C17.7259 16.8142 17.1306 17.0502 16.6544 17.5222C15.7021 18.4661 15.8806 19.6461 17.1902 21.003Z" fill="white"/>
<path d="M29.1549 15.811L28.6787 15.044L28.6191 15.103C28.6191 15.988 28.2025 16.7549 27.3096 17.3449C26.4763 17.8759 25.7025 18.0529 24.8691 17.7579C24.0358 17.4629 23.262 16.8729 22.6072 15.87C21.9525 14.867 21.5953 13.9231 21.6549 13.0381C21.7144 12.1532 22.131 11.4452 22.9049 10.9142C23.7382 10.3243 24.631 10.2063 25.5239 10.5603L25.5834 10.5013L25.1668 9.6163L26.0001 9.08533L30.2858 15.339C30.881 16.224 31.1191 17.0499 31.0001 17.8169C30.881 18.5839 30.2858 19.2918 29.3334 19.8818C28.4406 20.4718 27.6072 20.8847 26.8334 21.0027L26.1787 20.0588C27.012 19.9998 27.9049 19.6458 28.7977 18.9968C29.3334 18.6429 29.631 18.2299 29.7501 17.6989C29.8691 17.1679 29.6906 16.637 29.3334 16.106L29.1549 15.811ZM26.9525 16.342C27.6072 15.929 27.9049 15.457 27.9644 14.926C28.0239 14.3951 27.7858 13.7461 27.3096 13.0381L27.131 12.8021C26.5953 11.9762 26.0001 11.4452 25.4644 11.2682C24.9287 11.0912 24.3334 11.2092 23.6787 11.6222C23.143 11.9762 22.9049 12.4482 22.9049 13.0381C22.9049 13.6281 23.143 14.3361 23.6787 15.103C24.2144 15.87 24.7501 16.342 25.2858 16.578C25.8215 16.8139 26.4168 16.6959 26.9525 16.342Z" fill="white"/>
<path d="M36.1177 4.54284C37.0701 4.24785 37.9035 4.30685 38.6177 4.83782C39.332 5.3098 39.8677 6.13576 40.2844 7.3157C40.6416 8.49564 40.7011 9.49859 40.4035 10.2656C40.1058 11.0915 39.4511 11.6225 38.5582 11.9175C38.082 12.0945 37.6058 12.0945 37.1892 12.0945C36.7725 12.0355 36.3558 11.8585 35.9987 11.6225H35.8797C35.9392 12.2125 35.9392 12.5074 35.9392 12.6254L35.1058 12.9204L31.832 2.77293L33.0225 2.41895L33.7963 4.83782C33.9749 5.3098 34.0939 5.84077 34.213 6.31275H34.2725C34.5106 5.42779 35.1058 4.83782 36.1177 4.54284ZM36.2368 5.54579C35.5225 5.78178 35.0463 6.13576 34.8677 6.66673C34.6892 7.19771 34.7487 7.90567 35.0463 8.84962V8.90862C35.3439 9.85257 35.7606 10.5015 36.1773 10.8555C36.6535 11.1505 37.2487 11.2095 37.963 10.9735C38.6177 10.7965 39.0344 10.3835 39.1535 9.79358C39.332 9.20361 39.2725 8.49564 38.9749 7.61068C38.6773 6.72573 38.3201 6.07676 37.8439 5.72278C37.4868 5.42779 36.8916 5.3688 36.2368 5.54579Z" fill="white"/>
<path d="M44.2731 10.4425L43.0826 10.6195L41.2969 0.176991L42.4874 0L44.2731 10.4425Z" fill="white"/>
<path d="M52.7257 6.13578C52.7852 7.37471 52.4876 8.31867 51.8923 9.02663C51.2971 9.7346 50.4638 10.0886 49.3328 10.1476C48.678 10.1476 48.0233 10.0296 47.4876 9.7346C46.9519 9.43961 46.5352 8.96764 46.2376 8.43666C45.94 7.84669 45.7614 7.19772 45.7614 6.37177C45.7019 5.13283 45.9995 4.18887 46.5947 3.48091C47.19 2.77294 48.0233 2.41896 49.1542 2.41896C50.2257 2.35997 51.059 2.71395 51.7138 3.36292C52.3685 4.01188 52.7257 4.95584 52.7257 6.13578ZM47.0709 6.31277C47.0709 7.25672 47.309 7.96469 47.6661 8.43666C48.0828 8.90864 48.6185 9.14463 49.3328 9.14463C50.0471 9.14463 50.5828 8.84964 50.94 8.37767C51.2971 7.90569 51.4757 7.13873 51.4161 6.25377C51.4161 5.30982 51.1781 4.60185 50.7614 4.12988C50.3447 3.6579 49.809 3.42191 49.0947 3.48091C47.7257 3.42191 47.0114 4.42486 47.0709 6.31277Z" fill="white"/>
<path d="M59.3328 10.7963L59.5113 9.91131H59.4518C58.7971 10.5603 58.0232 10.7963 56.9518 10.6193C55.9994 10.4423 55.2852 9.97031 54.8685 9.26234C54.4518 8.55438 54.3328 7.55143 54.5709 6.31249C54.7494 5.13255 55.2256 4.24759 55.8804 3.65762C56.5352 3.06765 57.3685 2.83166 58.2613 3.00866C59.2732 3.18565 59.9875 3.65762 60.4042 4.54258H60.4637L60.8209 3.59863L61.7732 3.77562L60.5232 11.1502C60.3447 12.2122 59.928 12.9792 59.3328 13.3921C58.678 13.8051 57.8447 13.9821 56.6542 13.7461C55.5828 13.5691 54.6899 13.2741 54.0352 12.8022L54.2137 11.6812C54.8685 12.2122 55.7613 12.5072 56.8328 12.7432C57.4875 12.8612 58.0232 12.7432 58.4399 12.4482C58.8566 12.1532 59.1542 11.6812 59.2733 11.0323L59.3328 10.7963ZM57.309 9.61633C58.0828 9.73432 58.6185 9.61633 59.0352 9.32134C59.4518 8.96736 59.7494 8.37739 59.8685 7.49243L59.928 7.19745C60.1066 6.1945 60.0471 5.48653 59.809 4.95556C59.5709 4.42459 59.0352 4.1296 58.2613 4.01161C57.6661 3.89361 57.1304 4.0706 56.7137 4.48358C56.2971 4.89656 55.9994 5.60453 55.8209 6.48948C55.6423 7.37444 55.7018 8.1414 55.9399 8.67237C56.2375 9.20335 56.6542 9.55733 57.309 9.61633Z" fill="white"/>
<path d="M72.1922 7.43353C73.085 7.84651 73.6207 8.49548 73.7993 9.32144C73.9779 10.1474 73.7993 11.1503 73.2636 12.2123C72.7279 13.3332 72.0731 14.0412 71.2398 14.3952C70.466 14.7492 69.6326 14.7492 68.7398 14.2772C68.2636 14.0412 67.9064 13.8052 67.6683 13.4512C67.3707 13.0972 67.1922 12.7433 67.1326 12.2713L67.0731 12.2123C66.716 12.6253 66.4779 12.8613 66.4183 12.9793L65.6445 12.5663L70.3469 3.06775L71.4779 3.59872L70.3469 5.89961C70.1088 6.37158 69.8707 6.78456 69.6326 7.25654L69.6922 7.31554C70.4064 6.96155 71.2993 6.96155 72.1922 7.43353ZM71.5969 8.25949C70.9422 7.90551 70.3469 7.90551 69.8707 8.1415C69.3945 8.37748 68.9183 8.96745 68.4422 9.85241V9.91141C67.966 10.8554 67.8469 11.5633 67.9064 12.0943C68.0255 12.6253 68.3826 13.0972 69.0969 13.3922C69.6922 13.6872 70.2874 13.6872 70.7636 13.3922C71.2398 13.0972 71.716 12.5073 72.1326 11.6813C72.5493 10.8554 72.7279 10.1474 72.6088 9.55743C72.5493 8.96745 72.1922 8.55447 71.5969 8.25949Z" fill="white"/>
<path d="M73.9767 17.2862L72.9648 16.5782L78.9767 7.84668L79.9886 8.55464L73.9767 17.2862Z" fill="white"/>
<path d="M83.0831 20.0002C82.2498 20.8852 81.357 21.4161 80.4641 21.4751C79.5117 21.5931 78.6784 21.2391 77.8451 20.5312C77.3689 20.0592 77.0117 19.5872 76.8331 18.9973C76.6546 18.4073 76.6546 17.8173 76.8331 17.1684C77.0117 16.5194 77.3689 15.9294 77.9046 15.3394C78.7379 14.4545 79.5712 13.9235 80.5236 13.8645C81.476 13.8055 82.3093 14.1005 83.1427 14.8085C83.9165 15.5164 84.3331 16.3424 84.3331 17.2863C84.2736 18.2303 83.8569 19.1153 83.0831 20.0002ZM78.857 16.2244C78.2022 16.9324 77.9046 17.5813 77.8451 18.1713C77.7855 18.7613 78.0236 19.3512 78.5593 19.8232C79.0951 20.2952 79.6308 20.4722 80.2855 20.3542C80.8808 20.2362 81.5355 19.8232 82.1308 19.1743C82.7855 18.4663 83.0831 17.8173 83.1427 17.2273C83.2022 16.6374 82.9641 16.1064 82.4284 15.5754C81.2974 14.6315 80.107 14.8085 78.857 16.2244Z" fill="white"/>
<path d="M84.5701 27.8465L85.3439 27.3156L85.2844 27.2566C84.3916 27.3156 83.6177 26.9026 82.963 26.0766C82.3677 25.3097 82.1892 24.4837 82.4273 23.6577C82.6654 22.8318 83.2606 22.0648 84.2725 21.2979C85.2249 20.5899 86.1773 20.2359 87.0701 20.2949C87.963 20.2949 88.6773 20.7079 89.2725 21.4749C89.8677 22.3008 90.0463 23.1268 89.7487 24.0117L89.8082 24.0707L90.7011 23.5988L91.2963 24.3657L85.1654 28.8495C84.2725 29.4985 83.4987 29.7344 82.7249 29.6164C81.9511 29.4985 81.2368 28.9675 80.582 28.0825C79.9273 27.1976 79.5106 26.3716 79.332 25.6636L80.2249 25.0147C80.3439 25.8406 80.7606 26.6666 81.4154 27.5516C81.7725 28.0825 82.2487 28.3775 82.7844 28.4365C83.3201 28.4955 83.8558 28.3775 84.3916 27.9645L84.5701 27.8465ZM83.9154 25.6636C84.3916 26.2536 84.8677 26.6076 85.4035 26.6076C85.9392 26.6666 86.5939 26.3716 87.3082 25.8406L87.5463 25.6636C88.3796 25.0737 88.8558 24.4837 88.9749 23.9527C89.1535 23.4218 88.9749 22.8318 88.5582 22.1828C88.2011 21.6518 87.6654 21.4159 87.0701 21.4749C86.4749 21.5339 85.7606 21.7698 85.0463 22.3008C84.2725 22.8318 83.7963 23.4218 83.6177 23.9527C83.4392 24.6017 83.4987 25.1327 83.9154 25.6636Z" fill="white"/>
<path d="M96.1789 34.3362C96.5361 35.2801 96.4766 36.1061 96.0004 36.814C95.5242 37.522 94.7504 38.112 93.5599 38.5249C92.3694 38.9379 91.417 38.9969 90.5837 38.7609C89.7504 38.4659 89.1551 37.876 88.8575 36.991C88.6789 36.519 88.6194 36.0471 88.6789 35.6341C88.7385 35.2211 88.8575 34.8081 89.0956 34.4541L89.0361 34.3362C88.5004 34.3952 88.1432 34.3952 88.0242 34.3952L87.7266 33.5692L97.7266 29.9114L98.1432 31.0323L95.7028 31.9173C95.2266 32.0943 94.7504 32.2713 94.2147 32.3893V32.4482C95.2266 32.7432 95.8218 33.3332 96.1789 34.3362ZM95.167 34.4541C94.9289 33.7462 94.5123 33.3332 93.9766 33.1562C93.4408 32.9792 92.7266 33.0972 91.7742 33.4512H91.7147C90.7623 33.8052 90.1075 34.2182 89.8099 34.6901C89.5123 35.1621 89.5123 35.7521 89.7504 36.46C89.9885 37.109 90.4051 37.463 90.9409 37.64C91.5361 37.758 92.2504 37.699 93.1432 37.345C94.0361 37.05 94.6313 36.637 94.9885 36.1651C95.3456 35.6931 95.4051 35.1031 95.167 34.4541Z" fill="white"/>
<path d="M90.5818 42.5957L90.3438 41.4158L100.76 39.2329L100.998 40.4129L90.5818 42.5957Z" fill="white"/>
<path d="M95.2275 50.8554C93.9775 50.9144 93.0251 50.6784 92.3108 50.1475C91.5965 49.5575 91.1799 48.7315 91.1203 47.6696C91.0608 47.0206 91.1799 46.3717 91.4775 45.8407C91.7751 45.3097 92.1918 44.8967 92.787 44.5428C93.3823 44.2478 94.037 44.0118 94.8108 44.0118C96.0608 43.9528 97.0132 44.1888 97.7275 44.7197C98.4418 45.3097 98.8584 46.1357 98.918 47.1976C98.9775 48.2596 98.6799 49.0855 98.0251 49.7935C97.3703 50.3835 96.418 50.7374 95.2275 50.8554ZM94.8703 45.1917C93.918 45.2507 93.2037 45.4867 92.7275 45.8997C92.2513 46.3127 92.0727 46.8436 92.0727 47.5516C92.1323 48.2596 92.4299 48.7905 92.9061 49.1445C93.4418 49.4985 94.1561 49.6165 95.1084 49.5575C96.0608 49.4985 96.7751 49.2625 97.1918 48.8495C97.668 48.4366 97.8465 47.9056 97.787 47.1386C97.7275 45.7227 96.7156 45.0737 94.8703 45.1917Z" fill="white"/>
<path d="M90.7618 57.5223L91.6546 57.6993V57.6403C90.9998 57.0503 90.7022 56.2243 90.8213 55.2214C90.9403 54.2774 91.357 53.5695 92.1308 53.0975C92.8451 52.6255 93.857 52.5075 95.107 52.6845C96.2975 52.8615 97.2498 53.2155 97.8451 53.8645C98.4403 54.5134 98.7379 55.2804 98.6189 56.2243C98.4998 57.2273 98.0237 57.9352 97.1903 58.4072V58.4662L98.1427 58.7612L98.0237 59.7052L90.4046 58.7022C89.3332 58.5842 88.5594 58.1712 88.0832 57.5813C87.607 56.9913 87.4284 56.1063 87.607 54.9854C87.726 53.9234 88.0236 53.0385 88.4403 52.3895L89.5713 52.5075C89.0951 53.1565 88.7975 54.0414 88.6189 55.1624C88.5594 55.8114 88.6784 56.3423 88.976 56.7553C89.2737 57.1683 89.8094 57.4043 90.4641 57.5223H90.7618ZM91.8927 55.5164C91.7737 56.2833 91.9522 56.8143 92.3094 57.2273C92.6665 57.6403 93.3213 57.8763 94.2141 57.9942L94.5118 58.0532C95.5237 58.1712 96.2379 58.1122 96.7737 57.8173C97.3094 57.5223 97.5475 56.9913 97.6665 56.2243C97.726 55.5754 97.5475 55.1034 97.1308 54.6904C96.6546 54.2774 95.9998 54.0414 95.0475 53.9234C94.0951 53.8055 93.3808 53.8645 92.8451 54.1594C92.2498 54.3954 91.9522 54.8674 91.8927 55.5164Z" fill="white"/>
<path d="M94.6927 70.1477C94.276 71.0327 93.6808 71.6226 92.8475 71.7996C92.0141 72.0356 91.0022 71.8586 89.9308 71.3867C88.7998 70.9147 88.026 70.2657 87.6094 69.4988C87.1927 68.7318 87.1927 67.9058 87.6094 67.0209C87.7879 66.5489 88.0856 66.1949 88.3832 65.8999C88.6808 65.605 89.0975 65.428 89.5141 65.369L89.5737 65.31C89.157 64.956 88.8594 64.779 88.7999 64.72L89.157 63.894L98.9189 68.1418L98.4427 69.2628L96.0618 68.2008C95.5856 67.9648 95.1094 67.7878 94.6927 67.4929V67.5519C95.0499 68.3778 95.1094 69.2038 94.6927 70.1477ZM93.7999 69.5578C94.0975 68.8498 94.157 68.3188 93.8594 67.8468C93.5618 67.3749 93.026 66.9619 92.0737 66.5489H92.0141C91.0618 66.1359 90.3475 66.0179 89.8118 66.1359C89.276 66.2539 88.8594 66.6669 88.5618 67.3749C88.2641 67.9648 88.3237 68.5548 88.6213 69.0268C88.9189 69.4988 89.5141 69.9707 90.407 70.3247C91.2999 70.6787 92.0141 70.8557 92.5499 70.7377C93.0856 70.6197 93.5618 70.2067 93.7999 69.5578Z" fill="white"/>
<path d="M84.8086 72.2713L85.4634 71.2094L94.511 76.8141L93.8562 77.876L84.8086 72.2713Z" fill="white"/>
<path d="M82.4295 81.416C81.4771 80.649 80.9414 79.764 80.8224 78.8791C80.7033 77.9941 81.001 77.1092 81.7152 76.2832C82.1319 75.7523 82.6676 75.3983 83.2629 75.2213C83.8581 75.0443 84.4533 74.9853 85.1081 75.1623C85.7629 75.3393 86.3581 75.6343 86.9533 76.1652C87.9057 76.9322 88.4414 77.7581 88.5605 78.7021C88.6795 79.5871 88.3819 80.472 87.6676 81.298C87.0129 82.1239 86.1795 82.5369 85.2271 82.5369C84.2748 82.5369 83.3224 82.1829 82.4295 81.416ZM86.0605 77.1092C85.3462 76.5192 84.6914 76.1652 84.0367 76.1652C83.4414 76.1062 82.9057 76.4012 82.4295 76.9322C81.9533 77.4632 81.7748 78.0531 81.9533 78.6431C82.0724 79.2331 82.489 79.823 83.2629 80.472C83.9771 81.062 84.6319 81.357 85.2867 81.416C85.8819 81.416 86.4176 81.18 86.8938 80.59C87.7867 79.4691 87.5486 78.2891 86.0605 77.1092Z" fill="white"/>
<path d="M74.5733 83.1858L75.109 83.9528L75.1685 83.8938C75.109 83.0088 75.4661 82.2419 76.2995 81.5929C77.0733 81.0029 77.8471 80.7669 78.7399 80.9439C79.5733 81.1209 80.4066 81.7109 81.1804 82.6549C81.9542 83.5988 82.3114 84.4838 82.3114 85.3687C82.3114 86.2537 81.9542 86.9616 81.1804 87.5516C80.4066 88.2006 79.5137 88.3776 78.6209 88.1416L78.5614 88.2006L79.0376 89.0855L78.2638 89.6755L73.5019 83.7758C72.8471 82.9498 72.5495 82.1239 72.609 81.3569C72.6685 80.59 73.2042 79.882 74.0971 79.174C74.9304 78.4661 75.7638 78.0531 76.5376 77.8761L77.2519 78.7611C76.4185 78.938 75.5852 79.351 74.6923 80C74.2161 80.413 73.9185 80.8259 73.859 81.3569C73.7995 81.8879 73.978 82.4189 74.3947 82.8908L74.5733 83.1858ZM76.7161 82.4779C76.1209 82.9498 75.8233 83.4218 75.8233 83.9528C75.8233 84.4838 76.0614 85.0737 76.6566 85.7817L76.8352 86.0177C77.4899 86.7846 78.0852 87.2566 78.6209 87.3746C79.1566 87.4926 79.7518 87.3156 80.3471 86.8436C80.8233 86.4307 81.0614 85.9587 81.0018 85.3687C80.9423 84.7787 80.6447 84.1298 80.0495 83.3628C79.4542 82.6549 78.9185 82.1829 78.3233 82.0059C77.7876 81.9469 77.2518 82.0649 76.7161 82.4779Z" fill="white"/>
<path d="M68.5011 94.9264C67.6083 95.2803 66.7154 95.2804 66.0011 94.8674C65.2273 94.4544 64.6321 93.6874 64.1559 92.5665C63.6797 91.4455 63.5606 90.4426 63.7987 89.6166C64.0368 88.7907 64.6321 88.2007 65.5249 87.8467C66.0011 87.6697 66.4773 87.5517 66.894 87.6107C67.3106 87.6107 67.7273 87.7287 68.0845 87.9647L68.144 87.9057C68.0845 87.3747 68.0249 87.0208 68.0249 86.9618L68.8583 86.6078L72.9059 96.4013L71.7749 96.8733L70.763 94.5134C70.5845 94.0414 70.4059 93.5694 70.2273 93.0385H70.1678C70.0487 93.9234 69.513 94.5724 68.5011 94.9264ZM68.3225 93.9234C69.0368 93.6284 69.4535 93.2155 69.5726 92.7435C69.6916 92.2125 69.5726 91.5045 69.2154 90.5606V90.5016C68.7987 89.5576 68.3821 88.9677 67.9059 88.6727C67.4297 88.3777 66.8345 88.3777 66.1202 88.6727C65.4654 88.9087 65.1083 89.3216 64.9892 89.9116C64.8702 90.5016 64.9892 91.2096 65.3464 92.0945C65.7035 92.9795 66.1202 93.5694 66.5964 93.8644C67.1321 94.1594 67.6678 94.2184 68.3225 93.9234Z" fill="white"/>
<path d="M59.9297 89.7347L61.1202 89.4397L63.7392 99.7052L62.5487 100L59.9297 89.7347Z" fill="white"/>
<path d="M51.8321 94.6314C51.7131 93.3924 51.8917 92.4485 52.4274 91.6815C52.9631 90.9146 53.7964 90.5016 54.8678 90.3836C55.5226 90.3246 56.1774 90.3836 56.7131 90.6786C57.2488 90.9146 57.725 91.3276 58.0821 91.9175C58.4393 92.4485 58.6178 93.1565 58.7369 93.9234C58.8559 95.1034 58.6774 96.1063 58.1417 96.8143C57.6059 97.5812 56.7726 97.9942 55.7012 98.1122C54.6297 98.2302 53.7964 97.9942 53.0821 97.3453C52.3678 96.7553 51.9512 95.8113 51.8321 94.6314ZM57.4869 94.0414C57.3678 93.0975 57.1297 92.4485 56.7131 91.9765C56.2964 91.5045 55.7012 91.3276 54.9869 91.4455C54.2726 91.5045 53.7369 91.7995 53.4393 92.3305C53.1416 92.8615 53.0226 93.5694 53.0821 94.5134C53.2012 95.4573 53.4393 96.1063 53.8559 96.5783C54.2726 96.9913 54.8678 97.1683 55.5821 97.1093C57.0702 96.9323 57.6655 95.9293 57.4869 94.0414Z" fill="white"/>
<path d="M44.9263 90.5016L44.8073 91.3866H44.8668C45.4621 90.6786 46.2359 90.3836 47.3073 90.5016C48.2597 90.5606 48.974 90.9736 49.5097 91.7406C50.0454 92.5075 50.1644 93.4515 50.0454 94.6314C49.9263 95.8114 49.5692 96.7553 48.974 97.4043C48.3787 98.0533 47.6049 98.3482 46.6525 98.2302C45.6406 98.1123 44.8668 97.6993 44.3906 96.8733H44.3311L44.093 97.8763L43.1406 97.8173L43.8549 90.2656C43.974 89.2037 44.2716 88.4367 44.8668 87.9648C45.4621 87.4928 46.3549 87.2568 47.4859 87.3748C48.5573 87.4928 49.4502 87.7288 50.1644 88.0828L50.0454 89.2037C49.3311 88.7317 48.4382 88.4957 47.3073 88.3777C46.6525 88.3187 46.1763 88.4367 45.7597 88.7907C45.343 89.1447 45.1049 89.6167 45.0454 90.2656L44.9263 90.5016ZM46.9501 91.5046C46.1763 91.4456 45.6406 91.5636 45.224 91.9766C44.8668 92.3305 44.6287 92.9795 44.5097 93.8645V94.1595C44.3906 95.1624 44.5097 95.8704 44.8073 96.4013C45.1049 96.8733 45.6406 97.1683 46.4144 97.2273C47.0692 97.2863 47.5454 97.1093 47.9621 96.6373C48.3787 96.1654 48.6168 95.4574 48.6763 94.5724C48.7359 93.6285 48.6763 92.9205 48.3787 92.4485C48.1406 91.8586 47.6644 91.5636 46.9501 91.5046Z" fill="white"/>
<path d="M32.3085 94.8673C31.4156 94.5133 30.8204 93.9234 30.5227 93.0974C30.2847 92.2715 30.3442 91.2685 30.8204 90.1476C31.2966 89.0266 31.8918 88.2007 32.6656 87.7877C33.4394 87.3747 34.2727 87.3157 35.1656 87.6697C35.6418 87.8467 35.9989 88.0827 36.3561 88.4366C36.6537 88.7316 36.8323 89.1446 36.9513 89.5576L37.0704 89.6166C37.4275 89.1446 37.6061 88.9086 37.6656 88.8496L38.4989 89.1446L34.5704 98.9971L33.4394 98.5251L34.3918 96.1063C34.5704 95.6343 34.8085 95.1623 35.0466 94.6903H34.987C34.1537 95.1623 33.2608 95.2213 32.3085 94.8673ZM32.9037 93.9824C33.618 94.2774 34.2132 94.2774 34.6299 93.9824C35.1061 93.6874 35.5227 93.0974 35.8799 92.1535V92.0945C36.237 91.1505 36.3561 90.3835 36.237 89.8526C36.0585 89.3216 35.6418 88.9086 34.9275 88.6136C34.2727 88.3776 33.737 88.4366 33.2608 88.7316C32.7847 89.0856 32.368 89.6756 32.0108 90.5605C31.6537 91.4455 31.5347 92.1535 31.7132 92.7434C31.8918 93.3334 32.2489 93.7464 32.9037 93.9824Z" fill="white"/>
<path d="M29.8093 85.1915L30.8808 85.7815L25.5831 94.985L24.5117 94.3951L29.8093 85.1915Z" fill="white"/>
<path d="M20.5246 83.1857C21.2984 82.2417 22.1317 81.6518 23.0246 81.4748C23.9174 81.2978 24.8103 81.5928 25.7031 82.2417C26.2388 82.6547 26.596 83.1267 26.8341 83.7167C27.0722 84.3066 27.0722 84.8966 26.9531 85.5456C26.8341 86.1945 26.4769 86.7845 26.0007 87.4335C25.2269 88.3774 24.3936 88.9674 23.5007 89.1444C22.6079 89.3214 21.715 89.0264 20.8222 88.3774C19.9888 87.7285 19.5126 86.9615 19.4531 86.0176C19.4531 85.0146 19.7507 84.1296 20.5246 83.1857ZM24.9888 86.6075C25.5841 85.8406 25.8817 85.1916 25.8817 84.6016C25.8817 84.0116 25.5841 83.4807 25.0484 83.0087C24.4531 82.5957 23.9174 82.4187 23.3222 82.5957C22.7269 82.7727 22.1317 83.1857 21.5365 83.9527C20.9412 84.7196 20.6436 85.3686 20.7031 85.9586C20.7626 86.5485 21.0007 87.0795 21.596 87.5515C22.6674 88.4364 23.7984 88.0825 24.9888 86.6075Z" fill="white"/>
<path d="M18.3817 75.4573L17.6674 76.0472L17.7269 76.1062C18.6198 75.9882 19.4531 76.3422 20.1079 77.1092C20.7626 77.8171 21.0007 78.6431 20.8222 79.4691C20.6436 80.295 20.1079 81.121 19.215 81.9469C18.3222 82.7139 17.3698 83.1269 16.5365 83.1859C15.7031 83.2449 14.8698 82.8909 14.2746 82.1829C13.6198 81.416 13.3817 80.59 13.5603 79.705L13.5007 79.646L12.6079 80.177L11.9531 79.4691L17.7269 74.5133C18.5603 73.8053 19.3341 73.5104 20.1079 73.5694C20.8817 73.6283 21.6555 74.1003 22.3698 74.9263C23.0841 75.7522 23.5603 76.5192 23.7984 77.2862L22.965 78.0531C22.7865 77.2272 22.3103 76.4012 21.596 75.5753C21.1793 75.1033 20.7031 74.8673 20.1674 74.8083C19.6317 74.7493 19.096 74.9853 18.6198 75.3983L18.3817 75.4573ZM19.215 77.5812C18.7388 76.9912 18.2031 76.7552 17.6674 76.7552C17.1317 76.7552 16.5365 77.0502 15.8222 77.6402L15.5841 77.8171C14.8103 78.4661 14.3936 79.0561 14.2746 79.646C14.1555 80.236 14.3341 80.767 14.8698 81.357C15.2865 81.8289 15.7626 82.0059 16.4174 81.9469C17.0722 81.8879 17.6674 81.534 18.3817 80.944C19.096 80.354 19.5126 79.764 19.6912 79.1741C19.8698 78.5841 19.6317 78.0531 19.215 77.5812Z" fill="white"/>
<path d="M6.29743 69.9115C5.88077 69.0266 5.88077 68.2006 6.29743 67.4337C6.7141 66.6667 7.42839 66.0177 8.55934 65.5458C9.69029 65.0148 10.7022 64.8968 11.5355 65.0738C12.3689 65.3098 13.0236 65.8407 13.4403 66.7257C13.6784 67.1977 13.7379 67.6107 13.7379 68.0826C13.7379 68.4956 13.6189 68.9086 13.3808 69.3216L13.4403 69.3806C13.976 69.2626 14.3331 69.2036 14.3927 69.2036L14.7498 70.0295L5.04743 74.4543L4.51172 73.3334L6.89267 72.2714C7.36886 72.0354 7.84505 71.8584 8.32124 71.6815V71.6225C7.36886 71.4455 6.7141 70.8555 6.29743 69.9115ZM7.30934 69.6756C7.60696 70.3835 8.02362 70.7375 8.55934 70.8555C9.09505 70.9735 9.80934 70.7965 10.7617 70.3835H10.8212C11.7736 69.9705 12.3689 69.4986 12.607 69.0266C12.8451 68.5546 12.8451 67.9646 12.5474 67.2567C12.2498 66.6667 11.8331 66.3127 11.2379 66.1947C10.6427 66.0767 9.92839 66.2537 9.09505 66.6077C8.2022 67.0207 7.66648 67.4337 7.36886 67.9646C7.01172 68.4956 7.01172 69.0856 7.30934 69.6756Z" fill="white"/>
<path d="M11.2381 61.1798L11.5952 62.3598L1.35714 65.3686L1 64.1887L11.2381 61.1798Z" fill="white"/>
<path d="M5.93914 53.3923C7.12961 53.2153 8.14152 53.3923 8.91533 53.9233C9.68914 54.4542 10.1653 55.2212 10.2844 56.2832C10.4034 56.9321 10.2844 57.5811 10.0463 58.1121C9.80818 58.702 9.39152 59.115 8.8558 59.528C8.32009 59.882 7.66533 60.118 6.89152 60.236C5.70104 60.413 4.68914 60.236 3.91533 59.764C3.14152 59.233 2.66533 58.466 2.54628 57.4041C2.36771 56.3422 2.6058 55.5162 3.20104 54.7492C3.79628 53.9823 4.74866 53.5693 5.93914 53.3923ZM6.77247 58.938C7.72485 58.82 8.37961 58.525 8.8558 58.0531C9.27247 57.6401 9.45104 57.0501 9.33199 56.3422C9.21294 55.6342 8.91533 55.1622 8.37961 54.8672C7.8439 54.5722 7.12961 54.5132 6.17723 54.6312C5.22485 54.7492 4.57009 55.0442 4.15342 55.5162C3.73676 55.9292 3.55818 56.5191 3.67723 57.2271C3.8558 58.643 4.86771 59.233 6.77247 58.938Z" fill="white"/>
<path d="M9.86998 46.3715L8.97712 46.3125V46.3715C9.69141 46.9025 10.0485 47.7284 9.98902 48.7314C9.9295 49.6753 9.57236 50.4423 8.85807 50.9143C8.14379 51.4452 7.19141 51.6222 5.94141 51.5632C4.75093 51.5042 3.79855 51.1502 3.14379 50.6193C2.48903 50.0883 2.19141 49.2623 2.19141 48.3184C2.19141 47.3154 2.60807 46.5485 3.38188 46.0175V45.9585L2.36998 45.7225L2.4295 44.7786L10.0485 45.1915C11.12 45.2505 11.8938 45.5455 12.4295 46.1355C12.9652 46.7255 13.1438 47.5514 13.0843 48.6724C13.0247 49.7343 12.8462 50.6193 12.489 51.3272L11.3581 51.2682C11.7747 50.5603 12.0128 49.6753 12.0724 48.5544C12.1319 47.9054 11.9533 47.4334 11.5962 47.0205C11.239 46.6075 10.7033 46.4305 10.0485 46.3715H9.86998ZM8.9176 48.4364C8.97712 47.6694 8.79855 47.1384 8.38188 46.7845C7.96521 46.4305 7.36998 46.1945 6.4176 46.1945H6.11998C5.1676 46.1355 4.45331 46.2535 3.97712 46.5485C3.50093 46.8435 3.26283 47.4334 3.20331 48.2004C3.14379 48.8494 3.38188 49.3213 3.85807 49.6753C4.33426 50.0293 5.04855 50.2653 6.00093 50.3243C6.95331 50.3833 7.6676 50.2653 8.14379 49.9113C8.61998 49.6163 8.9176 49.1443 8.9176 48.4364Z" fill="white"/>
</g>
</g>
<defs>
<clipPath id="clip0_2_3571">
<rect width="100" height="100" fill="white"/>
</clipPath>
<clipPath id="clip1_2_3571">
<rect width="100" height="100" fill="white" transform="translate(1)"/>
</clipPath>
</defs>
</svg>
