<svg width="98" height="98" viewBox="0 0 98 98" fill="none" xmlns="http://www.w3.org/2000/svg">
<g clip-path="url(#clip0_1_1774)">
<path d="M6.97506 25.6425C6.50616 26.4621 6.44755 27.2817 6.79922 28.0427C7.09228 28.8038 7.73702 29.4477 8.73343 29.9746C9.72984 30.5015 10.609 30.6771 11.4296 30.5015C12.1916 30.3259 12.8363 29.799 13.3052 28.9794C13.5983 28.4525 13.8327 27.75 14.0086 26.9304L14.8877 27.3987C14.8291 27.8085 14.7705 28.1598 14.6533 28.4525C14.5361 28.8038 14.3602 29.155 14.1844 29.5648C13.5983 30.7357 12.7777 31.3796 11.7227 31.6723C10.5504 31.9065 9.37817 31.6723 8.14731 31.0284C7.32673 30.6186 6.74061 30.0917 6.27171 29.4477C5.80281 28.8623 5.56836 28.1598 5.56836 27.3987C5.56836 26.6377 5.7442 25.9352 6.15448 25.1741C6.56477 24.3545 7.09228 23.7106 7.73702 23.3008L8.38176 24.1204C7.73702 24.5887 7.26812 25.1156 6.97506 25.6425Z" fill="white"/>
<path d="M16.7623 17.972C17.8759 18.9087 18.5206 19.9039 18.5792 21.0162C18.6378 22.1285 18.2276 23.2408 17.2898 24.3531L15.7658 26.2265L8.9668 20.6649L10.6666 18.5574C11.5457 17.5037 12.4835 16.9182 13.5386 16.8012C14.6522 16.7426 15.7072 17.0939 16.7623 17.972ZM16.0589 18.9087C15.1797 18.2062 14.3591 17.8549 13.5972 17.972C12.7766 18.0305 12.0733 18.4989 11.3699 19.377L10.4321 20.4893L15.7658 24.8215L16.5278 23.8848C17.9931 22.0114 17.8759 20.3722 16.0589 18.9087Z" fill="white"/>
<path d="M21.8046 11.4157C22.3908 12.1182 22.5666 12.8207 22.3908 13.5818C22.2149 14.3428 21.6874 15.1039 20.8668 15.8064L20.1049 16.4504L22.2735 19.0848L21.3944 19.7873L15.8262 12.9964L17.6432 11.5328C19.2843 10.1278 20.691 10.0692 21.8046 11.4157ZM19.4601 15.6893L20.1635 15.1039C20.8082 14.5185 21.2185 14.0501 21.3357 13.5818C21.453 13.1135 21.3357 12.6451 20.9255 12.1768C20.5738 11.767 20.1635 11.5328 19.6946 11.5328C19.2257 11.5328 18.6982 11.8255 18.1121 12.2939L17.2329 12.9964L19.4601 15.6893Z" fill="white"/>
<path d="M31.5336 12.8205L29.2477 11.0057L26.1998 12.7619L26.6687 15.6305L25.6723 16.1574L24.2656 6.79061L25.1448 6.32227L32.4714 12.2936L31.5336 12.8205ZM28.4857 10.3032L26.3171 8.48834L25.3206 7.55166C25.4379 8.02 25.5551 8.48834 25.6723 8.89813L26.1412 11.7082L28.4857 10.3032Z" fill="white"/>
<path d="M36.5743 4.2737C36.8673 5.09329 36.8087 5.85435 36.3984 6.49831C35.9881 7.14228 35.2262 7.66916 34.1711 8.02042L33.2333 8.37167L34.347 11.5915L33.292 11.9428L30.3613 3.68828L32.6472 2.92722C34.6987 2.22472 36.0467 2.69306 36.5743 4.2737ZM32.9403 7.49353L33.7609 7.20082C34.5814 6.90811 35.1089 6.55686 35.402 6.14706C35.6951 5.73726 35.6951 5.26892 35.5192 4.6835C35.3434 4.15662 34.9917 3.80536 34.5814 3.68828C34.1711 3.57119 33.585 3.57119 32.8231 3.8639L31.768 4.21516L32.9403 7.49353Z" fill="white"/>
<path d="M49.7025 0.995221C48.7647 0.995221 48.0027 1.34648 47.4752 1.99044C46.9477 2.63441 46.7133 3.51255 46.7133 4.62485C46.7133 5.73716 47.0063 6.61529 47.5338 7.25926C48.0614 7.90323 48.8233 8.1374 49.7611 8.1374C50.4059 8.1374 51.1092 8.02031 51.8712 7.7276V8.66428C51.5195 8.78136 51.1678 8.89845 50.8161 8.95699C50.4645 9.01553 50.0542 9.01553 49.6439 9.07408C48.3544 9.07408 47.358 8.72282 46.6547 7.96177C45.9513 7.20072 45.5996 6.08841 45.541 4.62485C45.541 3.74672 45.6582 2.92712 46.0099 2.22461C46.3616 1.5221 46.8305 0.995221 47.4752 0.585424C48.12 0.175627 48.8819 0 49.7025 0C50.6403 0 51.4609 0.117085 52.1642 0.468339L51.7539 1.40502C51.0506 1.11231 50.3472 0.936679 49.7025 0.995221Z" fill="white"/>
<path d="M61.1919 5.97169C60.8989 7.3767 60.3128 8.43047 59.375 9.01589C58.4372 9.60132 57.2649 9.77694 55.7996 9.48423L53.3965 9.01589L55.0962 0.410156L57.7338 0.937038C59.0819 1.17121 60.0197 1.75663 60.6644 2.63477C61.3092 3.5129 61.485 4.62521 61.1919 5.97169ZM60.0783 5.79606C60.3128 4.68375 60.1955 3.80562 59.7266 3.16165C59.3163 2.51768 58.5544 2.04934 57.4407 1.81517L56.034 1.52246L54.7446 8.25484L55.9168 8.48901C58.2027 8.95735 59.6094 8.07921 60.0783 5.79606Z" fill="white"/>
<path d="M69.3383 7.31831C68.9867 8.13791 68.4592 8.66479 67.6972 8.89896C66.9352 9.13313 66.056 9.01604 65.001 8.60625L64.0632 8.19645L62.7738 11.3577L61.7773 10.9479L65.1182 2.81055L67.2869 3.68868C69.3383 4.50828 69.9831 5.73767 69.3383 7.31831ZM64.4735 7.31831L65.2941 7.66957C66.1147 8.02082 66.7594 8.07936 67.2283 8.02082C67.6972 7.90374 68.0489 7.55248 68.2833 6.96706C68.5178 6.44018 68.4592 5.97184 68.2833 5.56204C68.0489 5.15224 67.58 4.80099 66.8766 4.50828L65.763 4.09848L64.4735 7.31831Z" fill="white"/>
<path d="M72.6795 16.5095L73.2071 13.6409L70.2764 11.7676L67.9319 13.5239L66.9941 12.9384L74.6138 7.31836L75.4343 7.84524L73.6173 17.1535L72.6795 16.5095ZM73.5001 12.6457L74.0862 9.89423L74.4379 8.54775C74.0862 8.899 73.7346 9.19172 73.4415 9.48443L71.1556 11.1822L73.5001 12.6457Z" fill="white"/>
<path d="M82.5847 16.9773C81.9986 17.6212 81.2952 17.9139 80.5332 17.8554C79.7713 17.7969 78.9507 17.3871 78.1301 16.626L77.3682 15.9235L75.0823 18.4408L74.2617 17.6798L80.1816 11.2401L81.8813 12.8208C83.5225 14.3429 83.7569 15.6893 82.5847 16.9773ZM78.0129 15.2795L78.6577 15.865C79.3024 16.4504 79.8885 16.8016 80.3574 16.8602C80.8263 16.9187 81.2952 16.7431 81.7055 16.2748C82.1158 15.865 82.233 15.3966 82.1744 14.9868C82.1158 14.5185 81.7641 14.0501 81.178 13.5233L80.3574 12.7622L78.0129 15.2795Z" fill="white"/>
<path d="M89.9695 23.8861C89.442 23.0665 88.7973 22.6567 87.9767 22.5396C87.1561 22.4225 86.2769 22.6567 85.3391 23.2421C84.4013 23.8275 83.8152 24.53 83.5808 25.3496C83.3463 26.1107 83.5221 26.9303 84.0497 27.7499C84.4013 28.2768 84.8702 28.8036 85.515 29.3305L84.6944 29.8574C84.4013 29.6232 84.1083 29.3891 83.8738 29.0964C83.6394 28.8036 83.4049 28.5109 83.1705 28.1597C82.4671 27.0474 82.2327 26.0522 82.5257 24.9984C82.8188 24.0032 83.5808 23.0665 84.753 22.3054C85.515 21.8371 86.2769 21.5444 87.0389 21.4273C87.8009 21.3102 88.5042 21.4858 89.1489 21.7786C89.7937 22.0713 90.3798 22.6567 90.8487 23.3592C91.3762 24.1203 91.6693 24.9398 91.7279 25.7009L90.6729 25.818C90.5556 25.0569 90.3212 24.413 89.9695 23.8861Z" fill="white"/>
<path d="M91.9045 36.1784C90.5564 36.7053 89.3842 36.7638 88.3878 36.2955C87.3913 35.8272 86.6294 34.949 86.0433 33.544L85.1641 31.2608L93.3698 28.041L94.3662 30.5583C94.8937 31.8463 94.8937 32.9586 94.4835 33.9538C94.0146 34.949 93.194 35.7101 91.9045 36.1784ZM91.4356 35.1246C92.4906 34.7149 93.1354 34.1294 93.487 33.4269C93.8387 32.7244 93.7801 31.8463 93.3698 30.7925L92.8423 29.446L86.4535 31.9634L86.8638 33.0757C87.743 35.3003 89.2669 35.9442 91.4356 35.1246Z" fill="white"/>
<path d="M95.1858 43.7896C94.3067 43.9653 93.5447 43.7896 93.0172 43.2628C92.4311 42.7359 92.0208 41.9163 91.8449 40.8625L91.6691 39.8673L88.3282 40.4527L88.1523 39.3404L96.827 37.7598L97.2373 40.0429C97.5303 42.209 96.827 43.4384 95.1858 43.7896ZM92.5483 39.6331L92.7241 40.5113C92.9 41.3894 93.1344 41.9748 93.4861 42.3261C93.8378 42.6773 94.3067 42.7944 94.9514 42.6773C95.4789 42.5602 95.8892 42.3261 96.1236 41.9163C96.3581 41.5065 96.3581 40.9211 96.2409 40.16L96.065 39.0477L92.5483 39.6331Z" fill="white"/>
<path d="M89.209 51.5176L91.9052 50.4053L91.8466 46.9513L89.0918 45.9561V44.8438L97.9423 48.1221V49.1173L89.1504 52.6884L89.209 51.5176ZM92.9016 50.054L95.5392 49.0003L96.8286 48.5319C96.3597 48.4148 95.8908 48.2978 95.4806 48.1807L92.7844 47.244L92.9016 50.054Z" fill="white"/>
<path d="M94.1325 60.1231C93.2534 59.9474 92.6086 59.5376 92.2569 58.8351C91.9053 58.1326 91.788 57.2545 92.0225 56.1422L92.1983 55.1469L88.8574 54.5615L89.0333 53.4492L97.7079 54.9713L97.2976 57.2545C96.8287 59.4791 95.8323 60.4158 94.1325 60.1231ZM93.0775 55.3226L92.9017 56.2007C92.7258 57.0788 92.7844 57.7228 93.0189 58.1326C93.2533 58.5424 93.6636 58.8351 94.2498 58.9522C94.8359 59.0693 95.2462 58.9522 95.5979 58.6595C95.9495 58.3668 96.184 57.8399 96.3012 57.0788L96.477 55.9665L93.0775 55.3226Z" fill="white"/>
<path d="M92.2564 70.0179C92.6667 69.1397 92.6667 68.3787 92.315 67.6176C91.9634 66.8566 91.3186 66.2711 90.3222 65.8028C89.2672 65.3345 88.388 65.2174 87.626 65.393C86.8641 65.5686 86.2779 66.1541 85.8677 67.0322C85.6332 67.6176 85.3988 68.2616 85.2815 69.0812L84.4023 68.6714C84.461 68.2616 84.5196 67.9103 84.5782 67.5591C84.6368 67.2078 84.8126 66.8566 84.9885 66.4468C85.516 65.2759 86.2779 64.5149 87.333 64.2222C88.388 63.9294 89.5016 64.0465 90.7911 64.6905C91.6117 65.0418 92.2564 65.5686 92.7253 66.1541C93.1942 66.7395 93.4873 67.3835 93.5459 68.1445C93.6045 68.9056 93.4873 69.6666 93.077 70.4277C92.6667 71.2473 92.1978 71.9498 91.6117 72.4181L90.9669 71.5985C91.5531 71.1302 92.022 70.6033 92.2564 70.0179Z" fill="white"/>
<path d="M82.8786 78.27C81.7063 77.3919 81.0616 76.4552 80.8858 75.3429C80.7099 74.2306 81.0616 73.1183 81.9408 71.8889L83.4061 69.8984L90.4982 75.0502L88.9156 77.2162C88.0951 78.3285 87.1573 78.9725 86.1022 79.1481C85.0472 79.3823 83.9922 79.0896 82.8786 78.27ZM83.5233 77.3333C84.4025 77.9773 85.2817 78.27 86.0436 78.1529C86.8056 78.0358 87.5676 77.5675 88.2123 76.6308L89.0329 75.46L83.4647 71.4205L82.7613 72.3572C81.4133 74.2891 81.6477 75.9283 83.5233 77.3333Z" fill="white"/>
<path d="M78.2483 85.063C77.6622 84.419 77.3691 83.7165 77.545 82.9554C77.6622 82.1944 78.1311 81.4333 78.9517 80.6723L79.7136 79.9698L77.3691 77.4525L78.1897 76.6914L84.1682 83.1311L82.4684 84.7117C80.8273 86.2338 79.4206 86.3509 78.2483 85.063ZM80.2998 80.6723L79.655 81.2577C79.0103 81.8431 78.6586 82.37 78.5414 82.8384C78.4242 83.3067 78.6 83.775 79.0103 84.2434C79.4206 84.6532 79.8309 84.8288 80.2998 84.8288C80.7687 84.7702 81.2962 84.4775 81.8237 83.9507L82.6443 83.1896L80.2998 80.6723Z" fill="white"/>
<path d="M68.4593 84.2429L70.8038 85.9406L73.7344 84.0673L73.1483 81.1987L74.0861 80.6133L76.0203 89.863L75.1997 90.3899L67.5215 84.8283L68.4593 84.2429ZM71.6244 86.5846L73.9102 88.2823L74.9653 89.1605C74.7894 88.6921 74.6722 88.2823 74.555 87.8726L73.9689 85.121L71.6244 86.5846Z" fill="white"/>
<path d="M63.8291 93.0243C63.4774 92.2047 63.4774 91.4437 63.8877 90.7412C64.298 90.0387 65.0014 89.5118 65.9978 89.102L66.9356 88.6922L65.6461 85.5309L66.6425 85.1211L69.9834 93.2585L67.8148 94.1366C65.8806 94.9562 64.5325 94.605 63.8291 93.0243ZM67.3459 89.5703L66.5253 89.9216C65.7047 90.2728 65.1772 90.6241 64.9428 91.0339C64.7083 91.4437 64.7083 91.912 64.9428 92.4974C65.1772 93.0243 65.4703 93.317 65.9392 93.4341C66.4081 93.5512 66.9356 93.4927 67.6975 93.1414L68.7526 92.7316L67.3459 89.5703Z" fill="white"/>
<path d="M54.5088 96.7716C55.4466 96.6545 56.1499 96.2447 56.5602 95.5422C57.0291 94.8397 57.1464 93.9615 57.0291 92.8492C56.8533 91.7369 56.5016 90.9173 55.9155 90.3319C55.3294 89.7465 54.5088 89.5708 53.571 89.7465C52.9263 89.805 52.2815 90.0392 51.5196 90.3904L51.4023 89.4538C51.754 89.2781 52.1057 89.1025 52.4574 89.044C52.809 88.9269 53.1607 88.8683 53.6296 88.8098C54.9191 88.6342 55.9741 88.8683 56.7361 89.5708C57.498 90.2734 58.0255 91.3271 58.2014 92.7321C58.3186 93.6103 58.26 94.4299 58.0255 95.1324C57.7911 95.8349 57.3808 96.4203 56.7947 96.8886C56.2086 97.357 55.5052 97.6497 54.626 97.7668C53.6882 97.8839 52.8677 97.8253 52.1643 97.5912L52.4574 96.5959C53.1607 96.7716 53.8641 96.8301 54.5088 96.7716Z" fill="white"/>
<path d="M42.4936 93.2588C42.6108 91.7952 43.0211 90.7415 43.9003 90.0389C44.7795 89.3364 45.8931 88.9852 47.3584 89.1023L49.8201 89.2779L49.2926 98.0592L46.5965 97.8836C45.2484 97.8251 44.1933 97.3567 43.49 96.5957C42.728 95.7175 42.435 94.6638 42.4936 93.2588ZM43.6658 93.3173C43.6072 94.4296 43.8417 95.3078 44.3106 95.8932C44.8381 96.4786 45.6587 96.8299 46.7723 96.8884L48.2376 96.9469L48.6479 90.156L47.4756 90.0975C45.0725 89.9219 43.8417 90.9756 43.6658 93.3173Z" fill="white"/>
<path d="M34.229 93.0231C34.4634 92.1449 34.9323 91.5595 35.6357 91.2668C36.339 90.9741 37.2182 90.9741 38.3319 91.2083L39.3283 91.4424L40.2075 88.1641L41.2625 88.4568L39.0352 96.9454L36.8079 96.36C34.6393 95.8331 33.8187 94.7208 34.229 93.0231ZM39.0938 92.3791L38.2146 92.1449C37.3941 91.9108 36.7493 91.9108 36.2804 92.0864C35.8115 92.262 35.5185 92.6718 35.3426 93.2573C35.2254 93.7841 35.284 94.2525 35.5771 94.6037C35.8701 94.955 36.3976 95.2477 37.101 95.4233L38.156 95.716L39.0938 92.3791Z" fill="white"/>
<path d="M29.7173 84.3004L29.5415 87.2275L32.7065 88.6911L34.8166 86.6421L35.813 87.1104L29.014 93.6672L28.1348 93.2574L28.7209 83.832L29.7173 84.3004ZM29.4242 88.2813L29.1898 91.0913L29.014 92.4378C29.307 92.028 29.6001 91.7353 29.8931 91.384L31.886 89.3936L29.4242 88.2813Z" fill="white"/>
<path d="M19.8692 85.1794C20.3967 84.4184 21.0414 84.0671 21.8034 84.0086C22.5654 83.95 23.4445 84.2428 24.3237 84.8867L25.1443 85.4721L27.1371 82.6621L28.0163 83.3061L22.9756 90.5068L21.1 89.1603C19.2831 87.8724 18.8728 86.5845 19.8692 85.1794ZM24.6168 86.2332L23.9134 85.7063C23.2101 85.1794 22.624 84.9453 22.0965 84.9453C21.6276 84.9453 21.2173 85.238 20.807 85.7063C20.4553 86.1747 20.3967 86.643 20.5139 87.0528C20.6311 87.4626 21.0414 87.9309 21.6862 88.3993L22.624 89.0432L24.6168 86.2332Z" fill="white"/>
<path d="M11.6647 79.2657C12.2508 79.9682 13.0127 80.3195 13.8333 80.3781C14.6539 80.3781 15.4745 80.0268 16.3537 79.3243C17.2328 78.5632 17.7017 77.8022 17.819 77.0411C17.9362 76.2215 17.7017 75.4605 17.057 74.758C16.6467 74.2896 16.1192 73.8213 15.4159 73.353L16.1778 72.709C16.5295 72.8846 16.8226 73.1188 17.1156 73.353C17.3501 73.5871 17.6431 73.8798 17.9362 74.2311C18.7568 75.2263 19.1084 76.2215 18.9912 77.2753C18.874 78.3291 18.2293 79.3243 17.1156 80.261C16.4123 80.8464 15.7089 81.2562 15.0056 81.4318C14.2436 81.6074 13.5403 81.6074 12.8369 81.3147C12.1336 81.0806 11.4888 80.6122 10.9613 79.9683C10.3752 79.2657 9.9649 78.5047 9.78906 77.8022L10.7855 77.5095C10.9027 78.212 11.2544 78.7974 11.6647 79.2657Z" fill="white"/>
<path d="M8.14696 67.3244C9.43643 66.6219 10.5501 66.4463 11.6051 66.739C12.6601 67.0317 13.5393 67.8513 14.2427 69.1392L15.4149 71.2468L7.73667 75.5204L6.4472 73.1787C5.80246 72.0078 5.56801 70.8955 5.86107 69.8417C6.21275 68.8465 6.9161 68.0269 8.14696 67.3244ZM8.73308 68.3196C7.73667 68.8465 7.15055 69.4905 6.9161 70.2515C6.68165 71.0126 6.85749 71.8907 7.385 72.8274L8.08835 74.1153L14.0668 70.837L13.4807 69.7832C12.3671 67.6757 10.7845 67.2073 8.73308 68.3196Z" fill="white"/>
<path d="M3.92745 60.2407C4.80664 59.948 5.50999 60.0651 6.15472 60.4749C6.79946 60.8847 7.26836 61.6457 7.62004 62.6995L7.9131 63.6362L11.1954 62.5824L11.5471 63.6362L3.16549 66.3291L2.46214 64.1045C1.8174 62.0555 2.2863 60.7676 3.92745 60.2407ZM7.03391 63.9874L6.74085 63.1678C6.44779 62.3483 6.15472 61.7628 5.74444 61.4701C5.33415 61.1774 4.86525 61.1189 4.27913 61.353C3.75161 61.5287 3.39994 61.8214 3.2241 62.2897C3.04826 62.758 3.10688 63.2849 3.34133 64.046L3.693 65.0997L7.03391 63.9874Z" fill="white"/>
<path d="M8.85035 51.751L6.2714 53.156L6.7403 56.61L9.5537 57.254L9.72953 58.3663L0.527381 56.2002L0.410156 55.205L8.67451 50.6387L8.85035 51.751ZM5.39221 53.6243L2.87188 54.9708L1.64102 55.5562C2.10992 55.6148 2.57882 55.6733 2.9891 55.7319L5.74389 56.3758L5.39221 53.6243Z" fill="white"/>
<path d="M2.8134 43.9072C3.69258 43.9658 4.39593 44.2585 4.86483 44.9024C5.33373 45.5464 5.50957 46.4245 5.45096 47.5368L5.39234 48.5321L8.79187 48.7077V49.7615L0 49.4102L0.117225 47.0685C0.175837 44.8439 1.11364 43.7901 2.8134 43.9072ZM4.45455 48.4735L4.51316 47.5954C4.57177 46.7173 4.45455 46.0733 4.16148 45.6635C3.86842 45.2537 3.45813 45.0195 2.8134 45.0195C2.22727 45.0195 1.81699 45.1366 1.52392 45.4879C1.23086 45.8391 1.05502 46.4245 1.05502 47.1856L0.996411 48.2979L4.45455 48.4735Z" fill="white"/>
</g>
<defs>
<clipPath id="clip0_1_1774">
<rect width="98" height="98" fill="white"/>
</clipPath>
</defs>
</svg>
