<svg width="100" height="100" viewBox="0 0 100 100" fill="none" xmlns="http://www.w3.org/2000/svg">
<g clip-path="url(#clip0_1_2225)">
<circle cx="50" cy="51" r="5" fill="#06849B"/>
<path d="M16.1258 32.4482C15.5718 33.5001 14.8517 34.1091 13.91 34.3859C12.9683 34.6627 11.9158 34.4412 10.6971 33.8322C9.47844 33.2233 8.70292 32.3928 8.37055 31.507C8.03818 30.5659 8.14897 29.5694 8.70292 28.5175C8.8691 28.1853 9.09068 27.8531 9.36765 27.521C9.64463 27.1888 9.8662 26.9674 10.0878 26.8013L10.8633 27.6871C10.3094 28.1853 9.9216 28.6282 9.70002 29.0711C9.31226 29.7908 9.25686 30.4552 9.53384 31.0641C9.81081 31.6731 10.4201 32.1714 11.3065 32.6696C12.1928 33.1125 12.9129 33.2786 13.5776 33.2233C14.2424 33.1125 14.7409 32.725 15.0733 32.0607C15.4057 31.4517 15.5718 30.732 15.6272 29.9569L16.6797 30.5105C16.6797 31.0641 16.5136 31.7285 16.1258 32.4482Z" fill="#06849B"/>
<path d="M19.063 21.2644C20.1155 22.0948 20.6694 23.036 20.8356 24.0325C21.0018 25.029 20.6695 25.9702 19.9493 26.9113C19.5062 27.4649 18.9522 27.8525 18.2875 28.0739C17.6781 28.2954 17.0134 28.2954 16.2933 28.1293C15.5732 27.9632 14.9084 27.631 14.2991 27.0774C13.302 26.247 12.6926 25.3058 12.5264 24.3647C12.3603 23.3681 12.6926 22.427 13.4128 21.4858C14.1329 20.6 15.0192 20.1572 16.0163 20.1018C17.0134 20.1018 18.0659 20.4893 19.063 21.2644ZM15.13 26.0255C15.9055 26.6899 16.6256 27.022 17.2904 27.022C17.9551 27.022 18.5645 26.7452 19.063 26.1363C19.5616 25.5273 19.7277 24.9183 19.5616 24.2539C19.3954 23.5896 18.9522 22.9806 18.1213 22.3163C17.2904 21.6519 16.6256 21.3198 15.9609 21.3198C15.2962 21.3198 14.7422 21.5966 14.2437 22.2055C13.2466 23.4789 13.5789 24.7522 15.13 26.0255Z" fill="#06849B"/>
<path d="M27.7601 19.4379L24.6026 15.3411C24.2149 14.8429 23.7717 14.5107 23.3286 14.4553C22.8854 14.4 22.4422 14.5107 21.9437 14.8982C21.279 15.3965 20.9466 15.9501 20.9466 16.5591C20.9466 17.1681 21.2236 17.8878 21.8883 18.7182L24.4364 22.0399L23.3839 22.8704L18.3984 16.4484L19.2294 15.784L20.0603 16.5591L20.1157 16.5037C20.0603 16.0055 20.1711 15.5626 20.3926 15.1197C20.6142 14.6768 20.9466 14.2893 21.3897 13.9571C22.1653 13.3481 22.9408 13.0713 23.6055 13.182C24.2703 13.2927 24.935 13.7356 25.5443 14.5107L28.7572 18.7182L27.7601 19.4379Z" fill="#06849B"/>
<path d="M32.6335 15.6181C32.7997 15.5627 32.9659 15.452 33.1321 15.2859C33.2982 15.1198 33.4644 15.0091 33.5198 14.9538L33.963 15.8395C33.8522 15.9503 33.7414 16.061 33.5198 16.2271C33.2982 16.3932 33.0767 16.5593 32.8551 16.67C31.4148 17.3897 30.3623 17.0021 29.5868 15.5074L27.4264 11.2999L26.4293 11.7981L26.1523 11.2445L26.9279 10.248L26.6509 8.4764L27.371 8.08887L28.2019 9.74973L30.3069 8.69785L30.8055 9.639L28.7005 10.6909L30.8609 14.8984C31.0825 15.3413 31.3594 15.5627 31.6364 15.7288C31.9688 15.8395 32.3011 15.7842 32.6335 15.6181Z" fill="#06849B"/>
<path d="M39.9481 13.9568L39.3388 12.9049H39.2834C39.0618 13.5139 38.7848 13.9568 38.4525 14.2336C38.1201 14.5104 37.677 14.7319 37.0676 14.9533C36.2921 15.1748 35.6274 15.1748 35.0734 14.898C34.5195 14.6211 34.1317 14.1229 33.9101 13.4032C33.4116 11.853 34.4087 10.6351 36.9014 9.80465L38.2309 9.36175L38.0647 8.91886C37.8985 8.30987 37.6216 7.92234 37.2892 7.75625C36.9568 7.53481 36.5137 7.53481 35.9597 7.70089C35.572 7.81162 35.1842 8.03306 34.8518 8.25451C34.5195 8.47596 34.2425 8.75277 33.9655 8.97422L33.3008 8.14379C33.6331 7.81162 34.0209 7.53481 34.4087 7.258C34.8518 6.98119 35.295 6.8151 35.7381 6.64901C36.6799 6.3722 37.4554 6.3722 38.0093 6.64901C38.6187 6.92582 39.0064 7.53481 39.2834 8.4206L40.8898 13.7353L39.9481 13.9568ZM37.0676 13.9014C37.7877 13.68 38.2863 13.2925 38.5633 12.7942C38.8402 12.2959 38.8956 11.687 38.6741 10.9672L38.4525 10.2475L37.3446 10.6351C36.4583 10.9672 35.8489 11.2994 35.5166 11.6316C35.1842 12.0191 35.1288 12.462 35.2396 13.0156C35.3504 13.4032 35.572 13.68 35.9043 13.8461C36.2367 14.0122 36.6245 14.0122 37.0676 13.9014Z" fill="#06849B"/>
<path d="M46.1526 13.1819C44.9893 13.2927 44.0476 13.0159 43.3275 12.4069C42.6074 11.7425 42.1642 10.746 42.0534 9.41733C41.8872 8.08864 42.1088 6.9814 42.7182 6.20633C43.2721 5.43127 44.2138 4.93301 45.4325 4.82228C45.8202 4.76692 46.208 4.76692 46.5958 4.82228C46.9835 4.87765 47.3159 4.93301 47.5929 5.04373L47.2605 6.15097C46.5404 5.98488 45.931 5.87416 45.4879 5.92952C44.657 6.04025 44.103 6.31706 43.7706 6.87068C43.4383 7.4243 43.3275 8.19936 43.4383 9.25124C43.5491 10.2478 43.826 10.9675 44.2692 11.4104C44.7124 11.9086 45.3217 12.0747 46.0972 12.0193C46.8174 11.964 47.4821 11.7425 48.1468 11.355L48.2576 12.5176C47.6483 12.8498 46.9835 13.0712 46.1526 13.1819Z" fill="#06849B"/>
<path d="M52.5204 12.0747C52.6866 12.0747 52.9082 12.0747 53.1297 12.0747C53.3513 12.0747 53.5175 12.0193 53.6837 11.9639L53.6283 12.9605C53.5175 13.0158 53.2959 13.0712 53.019 13.0712C52.742 13.1265 52.5204 13.1265 52.2434 13.1265C50.637 13.0158 49.9169 12.1854 49.9722 10.4692L50.2492 5.7634L49.0859 5.70804L49.1413 5.09906L50.3046 4.65616L50.9693 2.93994L51.7449 2.9953L51.6341 4.87761L53.9607 4.98833L53.9053 6.04021L51.5787 5.92949L51.3017 10.6353C51.3017 11.0782 51.3571 11.4657 51.5787 11.7425C51.8003 11.9086 52.1326 12.0747 52.5204 12.0747Z" fill="#06849B"/>
<path d="M62.2707 6.64923L60.5535 11.5764C60.3319 12.1854 60.3319 12.6837 60.4981 13.1266C60.6643 13.5695 61.052 13.8463 61.606 14.0124C62.3815 14.2892 63.0462 14.2892 63.5448 13.957C64.0433 13.6248 64.4865 13.0159 64.8189 12.0193L66.2037 8.03327L67.4778 8.47617L64.8189 16.1715L63.7664 15.784L63.9325 14.7321H63.8772C63.5448 15.0089 63.1016 15.175 62.6031 15.2303C62.1045 15.2857 61.606 15.2303 61.052 15.0089C60.1103 14.6767 59.501 14.2338 59.1686 13.6248C58.8362 13.0159 58.8916 12.2408 59.224 11.2443L60.9966 6.20633L62.2707 6.64923Z" fill="#06849B"/>
<path d="M72.3537 17.8874C71.9659 18.5517 71.412 18.8839 70.6919 18.9393C69.9717 18.9946 69.1962 18.7732 68.3099 18.2195C67.3682 17.6659 66.7589 17.0569 66.3711 16.448L66.9804 15.3961C67.5344 16.2265 68.1437 16.8355 68.8638 17.2784C69.4178 17.6106 69.9163 17.7767 70.3041 17.7767C70.6919 17.7767 70.9688 17.5552 71.135 17.2784C71.3012 17.0016 71.3012 16.6694 71.1904 16.3372C71.0796 16.0051 70.7473 15.5068 70.2487 14.8978C69.7502 14.2335 69.4178 13.7352 69.2516 13.4031C69.0854 13.0709 69.03 12.7387 69.03 12.4619C69.03 12.1851 69.1408 11.8529 69.3624 11.5207C69.6948 10.9671 70.1933 10.635 70.8581 10.5796C71.5228 10.5242 72.2429 10.7457 73.0738 11.2439C73.8494 11.7422 74.5141 12.2958 75.0126 13.0709L74.0709 13.7352C73.517 13.0155 73.0184 12.4619 72.4091 12.1297C71.9105 11.8529 71.5228 11.6868 71.1904 11.6868C70.8581 11.6868 70.5811 11.7976 70.4703 12.0744C70.3041 12.3512 70.3041 12.628 70.4149 12.9048C70.5257 13.1816 70.8581 13.7352 71.4674 14.5103C71.9105 15.0639 72.2429 15.5068 72.4091 15.8943C72.5753 16.2265 72.6307 16.5587 72.6307 16.8909C72.6861 17.2784 72.5753 17.6106 72.3537 17.8874Z" fill="#06849B"/>
<path d="M81.7141 31.6179C81.1047 30.6213 80.9385 29.6802 81.1601 28.739C81.4371 27.7979 82.1018 26.9675 83.2651 26.2477C84.4284 25.528 85.4809 25.2512 86.478 25.4173C87.4751 25.5834 88.2506 26.1924 88.9153 27.2443C89.1369 27.5764 89.3031 27.9086 89.4139 28.2961C89.5247 28.6837 89.6355 29.0158 89.6355 29.2927L88.4722 29.5141C88.306 28.7944 88.1398 28.2408 87.8629 27.7979C87.4197 27.0782 86.8657 26.746 86.2564 26.6906C85.5917 26.6353 84.8716 26.8567 83.9852 27.4104C83.1543 27.9086 82.6004 28.5176 82.3788 29.1266C82.1572 29.7356 82.2126 30.3445 82.6558 31.0089C83.0435 31.6179 83.5421 32.1161 84.1514 32.559L83.1543 33.168C82.6558 32.8358 82.1572 32.2822 81.7141 31.6179Z" fill="#06849B"/>
<path d="M89.8579 39.7553C88.6392 40.1982 87.5313 40.2536 86.5896 39.866C85.6479 39.4785 84.9831 38.7588 84.5954 37.6516C84.3184 36.9872 84.263 36.2675 84.3738 35.6585C84.4846 35.0496 84.817 34.4406 85.3155 33.9423C85.8141 33.4441 86.4788 33.0565 87.2543 32.7244C88.473 32.2815 89.5809 32.2261 90.5226 32.5583C91.4643 32.9458 92.1291 33.6655 92.5168 34.7727C92.9046 35.8246 92.9046 36.8211 92.406 37.7069C91.9629 38.6481 91.0766 39.3124 89.8579 39.7553ZM87.7529 33.9977C86.8112 34.3298 86.1464 34.8281 85.7587 35.3817C85.3709 35.9353 85.3709 36.5997 85.6479 37.3194C85.9249 38.0391 86.368 38.482 87.0328 38.7034C87.6975 38.9249 88.473 38.8142 89.4147 38.482C90.3564 38.1498 91.0212 37.6516 91.3535 37.0979C91.6859 36.5443 91.7413 35.88 91.4643 35.1603C90.9104 33.6655 89.6917 33.278 87.7529 33.9977Z" fill="#06849B"/>
<path d="M87.088 48.1704L92.2397 47.5061C92.9045 47.4507 93.3476 47.2293 93.6246 46.8971C93.9016 46.5649 94.0124 46.0667 93.957 45.4577C93.8462 44.6272 93.5692 44.0736 93.0153 43.7414C92.4613 43.4093 91.7412 43.3539 90.6887 43.4646L86.4787 43.9629L86.3125 42.6342L94.4001 41.6377L94.5109 42.6896L93.4584 43.0217V43.0771C93.9016 43.2986 94.2339 43.5754 94.5109 44.0183C94.7879 44.4612 94.9541 44.9041 95.0095 45.4577C95.1202 46.4542 95.0095 47.2293 94.5663 47.7275C94.1231 48.2258 93.403 48.6133 92.4059 48.724L87.1434 49.3884L87.088 48.1704Z" fill="#06849B"/>
<path d="M87.9197 54.3156C87.9197 54.4816 87.9197 54.7031 87.9197 54.9245C87.9197 55.146 87.9751 55.3121 88.0305 55.4782L87.0334 55.4228C86.978 55.3121 86.9226 55.0906 86.9226 54.8138C86.8672 54.537 86.8672 54.3156 86.8672 54.0388C86.978 52.4333 87.8643 51.7135 89.5261 51.8243L94.2347 52.1011L94.2901 50.9385L94.8994 50.9938L95.3426 52.2118L97.0598 52.8208L97.0044 53.5959L95.121 53.4851L95.0102 55.8103L93.9577 55.755L94.0685 53.4298L89.3599 53.153C88.9168 53.153 88.529 53.2083 88.2521 53.4298C88.0859 53.6512 87.9197 53.928 87.9197 54.3156Z" fill="#06849B"/>
<path d="M85.6474 61.5125H86.8106V61.4571C86.4229 60.9588 86.1459 60.4606 86.0905 60.0177C85.9797 59.5748 86.0351 59.0765 86.1459 58.4676C86.3121 57.6925 86.6999 57.1389 87.1984 56.7513C87.697 56.3638 88.3617 56.3084 89.0818 56.4745C90.6883 56.8621 91.2422 58.3015 90.7437 60.8481L90.4667 62.1768L90.9099 62.2875C91.5192 62.4536 91.9623 62.3983 92.3501 62.2322C92.6825 62.0661 92.9594 61.6785 93.0702 61.0696C93.181 60.6267 93.181 60.2391 93.181 59.8516C93.1256 59.4641 93.0702 59.0765 93.0148 58.689L94.0673 58.5229C94.1781 58.9658 94.2335 59.4641 94.2335 59.9623C94.2335 60.4606 94.1781 60.9588 94.0673 61.4017C93.8458 62.3429 93.458 63.0072 92.9594 63.3948C92.4055 63.7823 91.6854 63.8377 90.7991 63.6162L85.4258 62.3429L85.6474 61.5125ZM87.143 59.0212C86.9768 59.7409 87.0322 60.3499 87.3092 60.8481C87.5862 61.3464 88.1401 61.6785 88.8603 61.8446L89.5804 62.0107L89.802 60.8481C89.9681 59.907 89.9681 59.2426 89.8573 58.7444C89.7466 58.2461 89.3588 57.9693 88.8049 57.8586C88.4171 57.7478 88.0293 57.8032 87.7524 58.0247C87.4754 58.2461 87.2538 58.5783 87.143 59.0212Z" fill="#06849B"/>
<path d="M83.2102 67.2705C83.7087 66.2186 84.3735 65.4989 85.3152 65.2221C86.2569 64.9453 87.3094 65.056 88.5281 65.6096C89.7467 66.1632 90.5777 66.8829 90.9654 67.8241C91.3532 68.7652 91.2978 69.7617 90.7992 70.869C90.6331 71.2012 90.4115 71.5887 90.1899 71.8655C89.9683 72.1977 89.7468 72.4191 89.5252 72.5852L88.6943 71.7548C89.1928 71.2565 89.5806 70.7583 89.7467 70.3154C90.0791 69.5957 90.0791 68.9313 89.8021 68.3223C89.4698 67.7687 88.8604 67.2705 87.9187 66.8276C87.0324 66.44 86.2569 66.2739 85.6476 66.44C85.0382 66.6061 84.5397 66.9936 84.2073 67.7134C83.9303 68.3777 83.7641 69.0974 83.7641 69.8171L82.6562 69.3189C82.7116 68.7099 82.8778 67.9902 83.2102 67.2705Z" fill="#06849B"/>
<path d="M80.9381 73.3049C80.8274 73.471 80.772 73.6371 80.6612 73.8585C80.5504 74.08 80.495 74.246 80.495 74.3568L79.6641 73.8032C79.6641 73.6924 79.7749 73.471 79.8302 73.2495C79.941 73.0281 80.0518 72.7513 80.218 72.5298C81.1043 71.2011 82.2122 70.9797 83.6525 71.9208L87.5855 74.5229L88.1948 73.5817L88.7488 73.9139L88.5272 75.1872L89.6905 76.5712L89.2473 77.2356L87.6963 76.1837L86.4222 78.1214L85.5359 77.5678L86.81 75.6301L82.877 73.0281C82.4892 72.7513 82.1014 72.6405 81.7691 72.6959C81.4367 72.7513 81.1597 72.9727 80.9381 73.3049Z" fill="#06849B"/>
<path d="M80.7171 84.433L77.3381 80.4469C76.8949 79.9487 76.5072 79.6719 76.064 79.6165C75.6209 79.5611 75.1777 79.7272 74.7345 80.1147C74.1252 80.6684 73.7928 81.222 73.7928 81.831C73.7928 82.44 74.1252 83.1043 74.8453 83.9347L77.6151 87.1457L76.618 88.0315L71.3555 81.831L72.1864 81.1113L73.0173 81.7756L73.0727 81.7202C73.0173 81.2774 73.0727 80.8345 73.2943 80.3916C73.5159 79.9487 73.7928 79.5058 74.2914 79.1182C75.0115 78.5093 75.7316 78.1771 76.4518 78.2324C77.1165 78.2878 77.8366 78.6753 78.5014 79.4504L81.9912 83.4918L80.7171 84.433Z" fill="#06849B"/>
<path d="M65.8728 87.4778C65.4851 86.8134 65.4851 86.1491 65.762 85.5401C66.039 84.8758 66.6483 84.3222 67.5347 83.8239C68.4764 83.3256 69.3073 83.0488 70.0274 83.0488L70.6367 84.1007C69.6396 84.1561 68.8087 84.3775 68.0332 84.7651C67.4239 85.0972 67.0915 85.4294 66.9253 85.7616C66.7591 86.0937 66.7591 86.4259 66.9253 86.7581C67.0915 87.0349 67.3131 87.201 67.7008 87.2563C68.0886 87.3117 68.6425 87.2563 69.4181 87.1456C70.249 87.0349 70.8029 86.9795 71.1907 87.0349C71.5785 87.0903 71.8554 87.1456 72.1324 87.3117C72.4094 87.4778 72.631 87.6992 72.7971 88.0314C73.1295 88.6404 73.1295 89.194 72.8525 89.803C72.5756 90.412 72.0216 90.9102 71.1907 91.4085C70.3598 91.8514 69.5289 92.1282 68.6425 92.1836L68.5318 91.021C69.4181 90.9102 70.1382 90.7441 70.7475 90.412C71.2461 90.1352 71.5785 89.8584 71.7446 89.5815C71.9108 89.3047 71.9108 89.0279 71.8 88.7511C71.6339 88.4743 71.4123 88.3082 71.1353 88.3082C70.8583 88.3082 70.1936 88.3082 69.2519 88.4189C68.5318 88.5297 67.9778 88.585 67.59 88.5297C67.2023 88.4743 66.8699 88.4189 66.5929 88.2529C66.316 88.0868 66.0944 87.81 65.8728 87.4778Z" fill="#06849B"/>
<path d="M49.3628 88.6407C50.5261 88.5853 51.4678 88.9175 52.1325 89.6372C52.7973 90.3569 53.185 91.3534 53.185 92.6821C53.2404 94.0662 52.9081 95.118 52.2987 95.8378C51.6894 96.5575 50.7477 97.0003 49.529 97.0003C49.1412 97.0003 48.7535 97.0004 48.3657 96.8896C47.9779 96.8343 47.6456 96.7235 47.424 96.6128L47.8118 95.5056C48.5319 95.727 49.0858 95.8378 49.5844 95.8378C50.4153 95.8378 51.0246 95.5609 51.357 95.0073C51.7448 94.4537 51.911 93.6786 51.8556 92.6821C51.8002 91.6856 51.634 90.9659 51.1908 90.4676C50.8031 89.9694 50.1937 89.6926 49.4182 89.7479C48.6981 89.7479 47.9779 89.9694 47.3132 90.3016L47.2578 89.139C47.8672 88.8068 48.5319 88.6407 49.3628 88.6407Z" fill="#06849B"/>
<path d="M38.1731 91.5747C38.3947 90.246 38.8932 89.3048 39.7241 88.6958C40.4997 88.0869 41.4968 87.8654 42.66 88.0869C43.3802 88.1976 43.9895 88.4744 44.4881 88.9173C44.9866 89.3602 45.319 89.9138 45.5406 90.5782C45.7068 91.2425 45.7621 92.0176 45.596 92.848C45.3744 94.1767 44.8758 95.1178 44.1003 95.7268C43.3248 96.3358 42.3277 96.5573 41.1644 96.3358C40.0565 96.1144 39.2256 95.6161 38.6716 94.7303C38.1177 93.8999 37.9515 92.848 38.1731 91.5747ZM44.2111 92.6265C44.3773 91.63 44.3219 90.7996 43.9895 90.246C43.6572 89.6924 43.1586 89.3048 42.3831 89.1387C41.6076 89.028 40.9982 89.1387 40.4997 89.637C40.0011 90.0799 39.6687 90.7996 39.5026 91.8515C39.3364 92.848 39.3918 93.6784 39.7241 94.232C40.0565 94.7857 40.5551 95.1732 41.3306 95.2839C42.937 95.5054 43.8787 94.6196 44.2111 92.6265Z" fill="#06849B"/>
<path d="M32.3039 84.8756L30.2543 89.6367C29.9773 90.2457 29.9219 90.744 30.0881 91.1868C30.2543 91.5744 30.5866 91.9066 31.196 92.1834C31.9715 92.5155 32.6362 92.5155 33.1348 92.2387C33.6887 91.9619 34.1319 91.3529 34.5197 90.4118L36.1815 86.5364L37.4002 87.0347L34.1873 94.5086L33.1902 94.0657L33.4672 92.9584L33.4118 92.9031C33.024 93.1799 32.5808 93.346 32.0823 93.346C31.5837 93.346 31.0852 93.2906 30.5866 93.0692C29.6449 92.6816 29.091 92.1834 28.814 91.519C28.537 90.8547 28.6478 90.0796 29.0356 89.1385L31.1406 84.2666L32.3039 84.8756Z" fill="#06849B"/>
<path d="M26.5967 82.495C26.4305 82.3842 26.2643 82.3289 26.0427 82.2182C25.8211 82.1074 25.655 82.0521 25.5442 82.0521L26.0981 81.2216C26.2089 81.2216 26.4305 81.3324 26.6521 81.3877C26.8736 81.4985 27.1506 81.6092 27.3722 81.7753C28.7017 82.6611 28.8678 83.7683 27.9815 85.2077L25.378 89.1384L26.3197 89.7474L25.9873 90.301L24.7133 90.0796L23.3284 91.2422L22.6637 90.7993L23.7162 89.2491L21.7773 87.9758L22.3313 87.09L24.2701 88.3633L26.8736 84.4326C27.1506 84.0451 27.2614 83.6576 27.206 83.3254C27.1506 82.9932 26.929 82.7164 26.5967 82.495Z" fill="#06849B"/>
<path d="M21.5564 76.9034L20.9471 77.8999L21.0025 77.9553C21.6672 77.8446 22.1658 77.8999 22.6089 78.066C23.0521 78.2321 23.4399 78.5089 23.883 78.8964C24.437 79.4501 24.7693 80.0037 24.8247 80.668C24.8801 81.277 24.6031 81.886 24.1046 82.4396C22.9413 83.6576 21.4457 83.3808 19.5068 81.6092L18.4543 80.7234L18.122 81.0556C17.6788 81.4985 17.4572 81.9414 17.4572 82.3289C17.4572 82.7164 17.6788 83.104 18.0666 83.5469C18.399 83.8237 18.7313 84.1005 19.0637 84.2666C19.4515 84.4326 19.7838 84.5987 20.1162 84.7095L19.7284 85.706C19.2853 85.5952 18.8421 85.3738 18.399 85.1523C17.9558 84.9309 17.568 84.5987 17.2357 84.3219C16.5155 83.6576 16.1278 82.9932 16.0724 82.3289C16.017 81.6645 16.3494 81.0002 16.9587 80.3359L20.7809 76.2944L21.5564 76.9034ZM22.8859 79.5054C22.332 79.0072 21.778 78.7304 21.1687 78.7304C20.5593 78.7304 20.0054 79.0072 19.5068 79.5054L19.0083 80.059L19.8946 80.8341C20.6147 81.4431 21.1687 81.8306 21.6672 81.9414C22.1658 82.0521 22.6089 81.886 22.9967 81.4985C23.2737 81.1663 23.4399 80.8895 23.3845 80.5019C23.4399 80.1698 23.2183 79.8376 22.8859 79.5054Z" fill="#06849B"/>
<path d="M17.7904 71.9213C18.4551 72.8625 18.6767 73.8037 18.5105 74.8002C18.3443 75.7967 17.6242 76.6271 16.5717 77.4022C15.4638 78.1772 14.4113 78.5094 13.4142 78.3987C12.4171 78.288 11.5862 77.7343 10.8661 76.7378C10.6445 76.4057 10.4229 76.0735 10.3121 75.686C10.1459 75.2984 10.0352 75.0216 10.0352 74.7448L11.1984 74.4126C11.3646 75.1323 11.6416 75.686 11.9186 76.0735C12.4171 76.7378 12.9711 77.07 13.5804 77.1254C14.2451 77.1254 14.9653 76.8486 15.7962 76.2396C16.5717 75.686 17.1257 75.077 17.2918 74.468C17.458 73.859 17.3472 73.25 16.9041 72.5857C16.5163 71.9767 15.9624 71.5338 15.2976 71.1463L16.2393 70.4819C16.7933 70.7587 17.2918 71.257 17.7904 71.9213Z" fill="#06849B"/>
<path d="M13.7446 66.9387C13.6892 66.7727 13.5784 66.6066 13.4122 66.4405C13.3014 66.2744 13.1907 66.1083 13.0799 65.9976L14.0216 65.5547C14.1324 65.6654 14.2431 65.7761 14.4093 65.9976C14.5755 66.219 14.6863 66.4405 14.8525 66.6619C15.5726 68.1013 15.1849 69.1532 13.6338 69.9283L9.36843 72.032L9.86698 73.0839L9.31303 73.3607L8.31593 72.5303L6.5433 72.8071L6.21094 72.0874L7.87277 71.257L6.82028 69.1532L7.76199 68.7103L8.81448 70.8141L13.0245 68.7103C13.4676 68.4889 13.7446 68.2674 13.8554 67.9353C13.9108 67.6031 13.9108 67.2709 13.7446 66.9387Z" fill="#06849B"/>
<path d="M4.16046 61.1258L9.31215 60.1847C9.97689 60.0739 10.42 59.8525 10.697 59.5203C10.974 59.1881 11.0294 58.6899 10.9186 58.0809C10.7524 57.2505 10.42 56.6969 9.92149 56.42C9.42294 56.1432 8.64742 56.0879 7.59492 56.254L3.44033 56.9737L3.21875 55.645L11.251 54.2056L11.4171 55.2574L10.42 55.645V55.7003C10.8632 55.8664 11.1956 56.1432 11.4725 56.5308C11.7495 56.9183 11.9711 57.4166 12.0819 58.0255C12.2481 58.9667 12.1373 59.7418 11.8049 60.3507C11.4725 60.9597 10.7524 61.2919 9.69991 61.458L4.43743 62.3991L4.16046 61.1258Z" fill="#06849B"/>
<path d="M9.03668 46.7862C9.8122 46.7862 10.3661 47.1184 10.7539 47.672C11.1417 48.2256 11.3632 49.056 11.3079 50.1079C11.2525 51.1598 11.0863 52.0456 10.7539 52.6546L9.59062 52.5992C10.0338 51.7134 10.3108 50.883 10.3108 50.0526C10.3108 49.3882 10.2554 48.89 10.0338 48.5578C9.8122 48.2256 9.53523 48.0595 9.14746 48.0595C8.8151 48.0595 8.53812 48.1703 8.31655 48.5024C8.09497 48.8346 7.81799 49.3329 7.48563 50.0526C7.15326 50.8276 6.87629 51.3259 6.7101 51.6581C6.48853 51.9902 6.26695 52.2117 5.98997 52.3224C5.713 52.4331 5.38063 52.5438 5.04827 52.4885C4.38353 52.4885 3.88498 52.2117 3.49722 51.6581C3.10946 51.1044 2.94327 50.3294 2.99867 49.3882C2.99867 48.4471 3.22025 47.6166 3.60801 46.7862L4.60511 47.2845C4.21735 48.1149 4.05116 48.8346 4.05116 49.4989C4.05116 50.0526 4.10656 50.4955 4.27274 50.7723C4.43893 51.0491 4.6605 51.2152 4.99287 51.2152C5.26985 51.2152 5.54682 51.1044 5.713 50.883C5.93458 50.6615 6.21155 50.0526 6.54392 49.1668C6.82089 48.5024 7.04247 48.0042 7.26405 47.672C7.48563 47.3398 7.7626 47.1184 8.03957 46.9523C8.37194 46.8416 8.70431 46.7862 9.03668 46.7862Z" fill="#06849B"/>
</g>
<defs>
<clipPath id="clip0_1_2225">
<rect width="100" height="100" fill="white"/>
</clipPath>
</defs>
</svg>
