<svg width="100" height="100" viewBox="0 0 100 100" fill="none" xmlns="http://www.w3.org/2000/svg">
<g clip-path="url(#clip0_1_47)">
<circle cx="51" cy="50" r="5" fill="white"/>
<path d="M15.6899 31.7438C15.1128 32.8397 14.3625 33.4742 13.3813 33.7626C12.4002 34.051 11.3036 33.8203 10.0339 33.1858C8.76413 32.5513 7.95612 31.6861 7.60983 30.7632C7.26354 29.7827 7.37897 28.7444 7.95612 27.6485C8.12926 27.3024 8.36012 26.9563 8.6487 26.6102C8.93727 26.2641 9.16813 26.0334 9.39899 25.8604L10.207 26.7832C9.62985 27.3024 9.22585 27.7638 8.99499 28.2253C8.59098 28.9751 8.53327 29.6673 8.82184 30.3018C9.11042 30.9363 9.74528 31.4554 10.6687 31.9745C11.5922 32.436 12.3425 32.609 13.035 32.5513C13.7276 32.436 14.247 32.0322 14.5933 31.34C14.9396 30.7056 15.1128 29.9557 15.1705 29.1482L16.2671 29.725C16.2671 30.3018 16.0939 30.994 15.6899 31.7438Z" fill="white"/>
<path d="M18.7487 20.0924C19.8453 20.9576 20.4225 21.9382 20.5956 22.9765C20.7688 24.0147 20.4225 24.9953 19.6722 25.9759C19.2105 26.5527 18.6333 26.9564 17.9407 27.1872C17.3059 27.4179 16.6133 27.4179 15.863 27.2449C15.1127 27.0718 14.4201 26.7257 13.7852 26.1489C12.7464 25.2837 12.1115 24.3031 11.9384 23.3225C11.7652 22.2843 12.1115 21.3037 12.8618 20.3231C13.6121 19.4002 14.5355 18.9388 15.5744 18.8811C16.6133 18.8811 17.7099 19.2849 18.7487 20.0924ZM14.651 25.053C15.459 25.7451 16.2093 26.0912 16.9019 26.0912C17.5944 26.0912 18.2293 25.8028 18.7487 25.1683C19.2682 24.5338 19.4413 23.8994 19.2682 23.2072C19.095 22.515 18.6333 21.8805 17.7676 21.1883C16.9019 20.4962 16.2093 20.1501 15.5167 20.1501C14.8241 20.1501 14.247 20.4385 13.7275 21.073C12.6887 22.3996 13.035 23.7263 14.651 25.053Z" fill="white"/>
<path d="M27.8066 18.1888L24.5173 13.9204C24.1133 13.4013 23.6516 13.0552 23.19 12.9975C22.7283 12.9399 22.2666 13.0552 21.7472 13.459C21.0547 13.9781 20.7085 14.5549 20.7085 15.1894C20.7085 15.8239 20.997 16.5738 21.6895 17.439L24.3441 20.8998L23.2477 21.7651L18.0539 15.0741L18.9195 14.3819L19.7852 15.1894L19.8429 15.1317C19.7852 14.6126 19.9006 14.1512 20.1314 13.6897C20.3622 13.2283 20.7085 12.8245 21.1702 12.4784C21.9781 11.8439 22.786 11.5555 23.4785 11.6709C24.171 11.7862 24.8635 12.2477 25.4983 13.0552L28.8454 17.439L27.8066 18.1888Z" fill="white"/>
<path d="M32.8855 14.2089C33.0586 14.1512 33.2318 14.0358 33.4049 13.8628C33.578 13.6897 33.7512 13.5744 33.8089 13.5167L34.2706 14.4396C34.1552 14.555 34.0398 14.6703 33.8089 14.8434C33.578 15.0164 33.3472 15.1895 33.1163 15.3048C31.6157 16.0547 30.5191 15.6509 29.7111 14.0935L27.4603 9.70976L26.4214 10.2289L26.1328 9.65208L26.9408 8.61382L26.6522 6.76802L27.4025 6.36426L28.2683 8.09469L30.4614 6.99875L30.9809 7.97933L28.7877 9.07526L31.0386 13.459C31.2694 13.9205 31.558 14.1512 31.8466 14.3242C32.1929 14.4396 32.5392 14.3819 32.8855 14.2089Z" fill="white"/>
<path d="M40.5029 12.4786L39.8681 11.3827H39.8104C39.5795 12.0172 39.2909 12.4786 38.9446 12.767C38.5984 13.0554 38.1366 13.2862 37.5018 13.5169C36.6938 13.7476 36.0012 13.7476 35.424 13.4592C34.8469 13.1708 34.4429 12.6517 34.212 11.9018C33.6926 10.2868 34.7314 9.01777 37.3286 8.15256L38.7138 7.69111L38.5406 7.22966C38.3675 6.59517 38.0789 6.1914 37.7326 6.01836C37.3863 5.78764 36.9246 5.78764 36.3475 5.96068C35.9435 6.07604 35.5395 6.30677 35.1932 6.53749C34.8469 6.76821 34.5583 7.05662 34.2697 7.28734L33.5771 6.42213C33.9234 6.07604 34.3274 5.78764 34.7314 5.49923C35.1932 5.21083 35.6549 5.03778 36.1166 4.86474C37.0978 4.57634 37.9058 4.57634 38.4829 4.86474C39.1178 5.15315 39.5218 5.78764 39.8104 6.71053L41.4841 12.2479L40.5029 12.4786ZM37.5018 12.421C38.2521 12.1902 38.7715 11.7865 39.0601 11.2673C39.3486 10.7482 39.4064 10.1137 39.1755 9.36386L38.9446 8.61401L37.7903 9.01777C36.8669 9.36386 36.232 9.70995 35.8857 10.056C35.5395 10.4598 35.4817 10.9212 35.5972 11.4981C35.7126 11.9018 35.9435 12.1902 36.2898 12.3633C36.636 12.5363 37.04 12.5363 37.5018 12.421Z" fill="white"/>
<path d="M46.9662 11.6711C45.7542 11.7864 44.773 11.498 44.0227 10.8635C43.2725 10.1714 42.8107 9.1331 42.6953 7.74875C42.5222 6.36441 42.753 5.21079 43.3879 4.40325C43.965 3.59572 44.9462 3.07659 46.2159 2.96123C46.6199 2.90355 47.0239 2.90355 47.4279 2.96123C47.8319 3.01891 48.1782 3.07659 48.4668 3.19195L48.1205 4.34557C47.3702 4.17253 46.7353 4.05717 46.2736 4.11485C45.4079 4.23021 44.8308 4.51862 44.4845 5.09543C44.1382 5.67224 44.0227 6.47977 44.1382 7.57571C44.2536 8.61397 44.5422 9.36382 45.0039 9.82527C45.4656 10.3444 46.1005 10.5174 46.9085 10.4598C47.6588 10.4021 48.3514 10.1714 49.0439 9.76759L49.1594 10.9789C48.5245 11.325 47.8319 11.5557 46.9662 11.6711Z" fill="white"/>
<path d="M53.6037 10.5174C53.7769 10.5174 54.0077 10.5174 54.2386 10.5174C54.4694 10.5174 54.6426 10.4597 54.8157 10.402L54.758 11.4403C54.6426 11.4979 54.4117 11.5556 54.1232 11.5556C53.8346 11.6133 53.6037 11.6133 53.3151 11.6133C51.6414 11.4979 50.8911 10.6327 50.9488 8.84462L51.2374 3.94173L50.0254 3.88405L50.0831 3.24956L51.2951 2.78811L51.9877 1L52.7957 1.05768L52.6803 3.01883L55.1043 3.1342L55.0466 4.23014L52.6226 4.11477L52.334 9.01766C52.334 9.47911 52.3917 9.88287 52.6226 10.1713C52.8534 10.3443 53.1997 10.5174 53.6037 10.5174Z" fill="white"/>
<path d="M63.7586 4.86477L61.9695 9.99838C61.7386 10.6329 61.7386 11.152 61.9118 11.6134C62.0849 12.0749 62.4889 12.3633 63.0661 12.5363C63.8741 12.8247 64.5666 12.8247 65.0861 12.4787C65.6055 12.1326 66.0672 11.4981 66.4135 10.4598L67.8564 6.30679L69.1838 6.76824L66.4135 14.7859L65.3169 14.3821L65.4901 13.2862H65.4324C65.0861 13.5746 64.6244 13.7476 64.1049 13.8053C63.5855 13.863 63.0661 13.8053 62.4889 13.5746C61.5078 13.2285 60.8729 12.7671 60.5266 12.1326C60.1803 11.4981 60.238 10.6905 60.5843 9.65229L62.4312 4.40332L63.7586 4.86477Z" fill="white"/>
<path d="M74.2625 16.574C73.8585 17.2661 73.2814 17.6122 72.5311 17.6699C71.7808 17.7276 70.9728 17.4969 70.0493 16.92C69.0682 16.3432 68.4333 15.7087 68.0293 15.0743L68.6642 13.9783C69.2413 14.8435 69.8762 15.478 70.6265 15.9395C71.2036 16.2856 71.7231 16.4586 72.1271 16.4586C72.5311 16.4586 72.8196 16.2279 72.9928 15.9395C73.1659 15.6511 73.1659 15.305 73.0505 14.9589C72.9351 14.6128 72.5888 14.0937 72.0693 13.4592C71.5499 12.767 71.2036 12.2479 71.0305 11.9018C70.8573 11.5557 70.7996 11.2096 70.7996 10.9212C70.7996 10.6328 70.915 10.2867 71.1459 9.94065C71.4922 9.36384 72.0116 9.01775 72.7042 8.96007C73.3968 8.90239 74.1471 9.13311 75.0128 9.65224C75.8208 10.1714 76.5134 10.7482 77.0328 11.5557L76.0517 12.2479C75.4745 11.498 74.9551 10.9212 74.3202 10.5751C73.8008 10.2867 73.3968 10.1137 73.0505 10.1137C72.7042 10.1137 72.4156 10.2291 72.3002 10.5175C72.1271 10.8059 72.1271 11.0943 72.2425 11.3827C72.3579 11.6711 72.7042 12.2479 73.3391 13.0554C73.8008 13.6322 74.1471 14.0937 74.3202 14.4974C74.4934 14.8435 74.5511 15.1896 74.5511 15.5357C74.6088 15.9395 74.4934 16.2856 74.2625 16.574Z" fill="white"/>
<path d="M84.0156 30.8788C83.3807 29.8406 83.2076 28.86 83.4385 27.8794C83.727 26.8988 84.4196 26.0336 85.6316 25.2838C86.8436 24.5339 87.9402 24.2455 88.9791 24.4185C90.0179 24.5916 90.8259 25.2261 91.5185 26.322C91.7494 26.6681 91.9225 27.0142 92.038 27.418C92.1534 27.8217 92.2688 28.1678 92.2688 28.4562L91.0568 28.6869C90.8837 27.9371 90.7105 27.3603 90.4219 26.8988C89.9602 26.149 89.3831 25.8029 88.7482 25.7452C88.0556 25.6875 87.3053 25.9182 86.3819 26.4951C85.5162 27.0142 84.939 27.6487 84.7082 28.2832C84.4773 28.9177 84.535 29.5522 84.9968 30.2443C85.4008 30.8788 85.9202 31.3979 86.5551 31.8594L85.5162 32.4939C84.9968 32.1478 84.4773 31.571 84.0156 30.8788Z" fill="white"/>
<path d="M92.498 39.358C91.2283 39.8194 90.074 39.8771 89.0929 39.4733C88.1117 39.0696 87.4191 38.3197 87.0151 37.1661C86.7265 36.4739 86.6688 35.7241 86.7843 35.0896C86.8997 34.4551 87.246 33.8206 87.7654 33.3015C88.2848 32.7823 88.9774 32.3786 89.7854 32.0325C91.0552 31.571 92.2095 31.5134 93.1906 31.8594C94.1718 32.2632 94.8643 33.0131 95.2683 34.1667C95.6724 35.2626 95.6724 36.3009 95.1529 37.2238C94.6912 38.2044 93.7678 38.8965 92.498 39.358ZM90.3049 33.3592C89.3237 33.7052 88.6311 34.2244 88.2271 34.8012C87.8231 35.378 87.8231 36.0702 88.1117 36.82C88.4003 37.5699 88.862 38.0313 89.5546 38.262C90.2472 38.4928 91.0552 38.3774 92.0363 38.0313C93.0175 37.6852 93.71 37.1661 94.0563 36.5893C94.4026 36.0125 94.4603 35.3203 94.1718 34.5705C93.5946 33.0131 92.3249 32.6093 90.3049 33.3592Z" fill="white"/>
<path d="M89.6117 48.1254L94.9787 47.4333C95.6712 47.3756 96.1328 47.1449 96.4214 46.7988C96.7099 46.4527 96.8253 45.9336 96.7676 45.2991C96.6522 44.4339 96.3637 43.8571 95.7866 43.511C95.2095 43.1649 94.4593 43.1072 93.3628 43.2226L88.977 43.7417L88.8038 42.3573L97.2293 41.3191L97.3447 42.415L96.2482 42.7611V42.8188C96.7099 43.0495 97.0562 43.3379 97.3447 43.7994C97.6332 44.2608 97.8064 44.7223 97.8641 45.2991C97.9795 46.3373 97.8641 47.1449 97.4024 47.664C96.9407 48.1831 96.1905 48.5869 95.1518 48.7023L89.6695 49.3944L89.6117 48.1254Z" fill="white"/>
<path d="M90.4784 54.5278C90.4784 54.7009 90.4784 54.9316 90.4784 55.1623C90.4784 55.393 90.5361 55.5661 90.5938 55.7391L89.555 55.6814C89.4973 55.5661 89.4396 55.3354 89.4396 55.0469C89.3819 54.7585 89.3819 54.5278 89.3819 54.2394C89.4973 52.5667 90.4207 51.8168 92.1519 51.9322L97.0571 52.2206L97.1148 51.0093L97.7496 51.067L98.2113 52.3359L100 52.9704L99.9426 53.778L97.9805 53.6626L97.8651 56.0852L96.7686 56.0275L96.884 53.6049L91.9788 53.3165C91.5171 53.3165 91.1132 53.3742 90.8246 53.6049C90.6515 53.8356 90.4784 54.1241 90.4784 54.5278Z" fill="white"/>
<path d="M88.1119 62.0267H89.3238V61.9691C88.9199 61.4499 88.6313 60.9308 88.5736 60.4694C88.4582 60.0079 88.5159 59.4888 88.6313 58.8543C88.8044 58.0468 89.2084 57.4699 89.7278 57.0662C90.2472 56.6624 90.9397 56.6047 91.6899 56.7778C93.3634 57.1815 93.9405 58.6812 93.4211 61.3346L93.1326 62.7189L93.5943 62.8343C94.229 63.0073 94.6907 62.9496 95.0947 62.7766C95.4409 62.6036 95.7295 62.1998 95.8449 61.5653C95.9603 61.1039 95.9603 60.7001 95.9603 60.2963C95.9026 59.8925 95.8449 59.4888 95.7872 59.085L96.8836 58.912C96.9991 59.3734 97.0568 59.8925 97.0568 60.4117C97.0568 60.9308 96.9991 61.4499 96.8836 61.9114C96.6528 62.892 96.2488 63.5841 95.7295 63.9879C95.1524 64.3917 94.4022 64.4494 93.4788 64.2186L87.8811 62.892L88.1119 62.0267ZM89.6701 59.4311C89.4969 60.181 89.5547 60.8154 89.8432 61.3346C90.1317 61.8537 90.7088 62.1998 91.459 62.3728L92.2092 62.5459L92.4401 61.3346C92.6132 60.354 92.6132 59.6618 92.4978 59.1427C92.3824 58.6236 91.9784 58.3352 91.4013 58.2198C90.9974 58.1044 90.5934 58.1621 90.3049 58.3928C90.0163 58.6236 89.7855 58.9697 89.6701 59.4311Z" fill="white"/>
<path d="M85.5732 68.0252C86.0927 66.9292 86.7853 66.1794 87.7664 65.891C88.7476 65.6026 89.8441 65.7179 91.1139 66.2948C92.3836 66.8716 93.2493 67.6214 93.6533 68.602C94.0573 69.5826 93.9996 70.6208 93.4802 71.7744C93.307 72.1205 93.0762 72.5243 92.8453 72.8127C92.6145 73.1588 92.3836 73.3895 92.1527 73.5626L91.287 72.6973C91.8065 72.1782 92.2105 71.6591 92.3836 71.1976C92.7299 70.4478 92.7299 69.7556 92.4413 69.1211C92.095 68.5443 91.4602 68.0252 90.479 67.5637C89.5556 67.16 88.7476 66.9869 88.1127 67.16C87.4778 67.333 86.9584 67.7368 86.6121 68.4866C86.3235 69.1788 86.1504 69.9287 86.1504 70.6785L84.9961 70.1594C85.0538 69.5249 85.227 68.775 85.5732 68.0252Z" fill="white"/>
<path d="M83.2061 74.3125C83.0907 74.4855 83.033 74.6586 82.9176 74.8893C82.8022 75.12 82.7445 75.2931 82.7445 75.4084L81.8788 74.8316C81.8788 74.7163 81.9943 74.4855 82.052 74.2548C82.1674 74.0241 82.2828 73.7357 82.4559 73.505C83.3793 72.1206 84.5334 71.8899 86.0339 72.8705L90.1312 75.5815L90.766 74.6009L91.343 74.947L91.1122 76.2737L92.3241 77.7157L91.8624 78.4078L90.2466 77.3119L88.9193 79.3307L87.996 78.7539L89.3232 76.7351L85.2259 74.0241C84.822 73.7357 84.418 73.6203 84.0718 73.678C83.7255 73.7357 83.437 73.9664 83.2061 74.3125Z" fill="white"/>
<path d="M82.9753 85.9064L79.4551 81.7534C78.9934 81.2343 78.5894 80.9459 78.1278 80.8882C77.6661 80.8305 77.2044 81.0035 76.7428 81.4073C76.108 81.9841 75.7617 82.5609 75.7617 83.1954C75.7617 83.8299 76.108 84.5221 76.8582 85.3873L79.7436 88.7328L78.7048 89.6557L73.2225 83.1954L74.0882 82.4456L74.9538 83.1377L75.0115 83.0801C74.9538 82.6186 75.0115 82.1572 75.2423 81.6957C75.4732 81.2343 75.7617 80.7728 76.2811 80.3691C77.0313 79.7346 77.7815 79.3885 78.5317 79.4462C79.2242 79.5038 79.9744 79.9076 80.6669 80.7151L84.3026 84.9259L82.9753 85.9064Z" fill="white"/>
<path d="M67.5106 89.0788C67.1066 88.3867 67.1066 87.6945 67.3952 87.06C67.6838 86.3678 68.3187 85.791 69.2421 85.2719C70.2233 84.7528 71.089 84.4644 71.8393 84.4644L72.4741 85.5603C71.4353 85.618 70.5695 85.8487 69.7615 86.2525C69.1267 86.5986 68.7804 86.9446 68.6072 87.2907C68.4341 87.6368 68.4341 87.9829 68.6072 88.329C68.7804 88.6174 69.0112 88.7904 69.4152 88.8481C69.8193 88.9058 70.3964 88.8481 71.2044 88.7328C72.0701 88.6174 72.6473 88.5597 73.0513 88.6174C73.4553 88.6751 73.7439 88.7327 74.0324 88.9058C74.321 89.0788 74.5519 89.3096 74.725 89.6556C75.0713 90.2901 75.0713 90.8669 74.7827 91.5014C74.4942 92.1359 73.917 92.6551 73.0513 93.1742C72.1856 93.6356 71.3198 93.924 70.3964 93.9817L70.281 92.7704C71.2044 92.6551 71.9547 92.482 72.5896 92.1359C73.109 91.8475 73.4553 91.5591 73.6284 91.2707C73.8016 90.9823 73.8016 90.6939 73.6862 90.4055C73.513 90.1171 73.2821 89.9441 72.9936 89.9441C72.705 89.9441 72.0124 89.9441 71.0313 90.0594C70.281 90.1748 69.7038 90.2325 69.2998 90.1748C68.8958 90.1171 68.5495 90.0594 68.2609 89.8864C67.9724 89.7133 67.7415 89.4249 67.5106 89.0788Z" fill="white"/>
<path d="M50.313 90.2901C51.5251 90.2324 52.5062 90.5785 53.1988 91.3284C53.8914 92.0782 54.2954 93.1165 54.2954 94.5008C54.3531 95.9429 54.0068 97.0388 53.3719 97.7886C52.7371 98.5385 51.7559 98.9999 50.4862 98.9999C50.0822 98.9999 49.6782 98.9999 49.2742 98.8846C48.8702 98.8269 48.5239 98.7115 48.293 98.5962L48.697 97.4426C49.4473 97.6733 50.0245 97.7886 50.5439 97.7886C51.4096 97.7886 52.0445 97.5002 52.3908 96.9234C52.7948 96.3466 52.9679 95.5391 52.9102 94.5008C52.8525 93.4626 52.6794 92.7127 52.2176 92.1936C51.8136 91.6745 51.1788 91.3861 50.3708 91.4437C49.6205 91.4437 48.8702 91.6745 48.1776 92.0205L48.1199 90.8092C48.7547 90.4632 49.4473 90.2901 50.313 90.2901Z" fill="white"/>
<path d="M38.6555 93.3473C38.8863 91.963 39.4058 90.9824 40.2715 90.3479C41.0795 89.7134 42.1184 89.4827 43.3304 89.7134C44.0807 89.8288 44.7155 90.1172 45.235 90.5786C45.7544 91.0401 46.1007 91.6169 46.3315 92.3091C46.5047 93.0012 46.5624 93.8088 46.3893 94.674C46.1584 96.0583 45.639 97.0389 44.831 97.6734C44.0229 98.3079 42.9841 98.5386 41.7721 98.3079C40.6178 98.0772 39.752 97.558 39.1749 96.6351C38.5977 95.7699 38.4246 94.674 38.6555 93.3473ZM44.9464 94.4433C45.1195 93.405 45.0618 92.5398 44.7155 91.963C44.3692 91.3862 43.8498 90.9824 43.0418 90.8094C42.2338 90.694 41.5989 90.8094 41.0795 91.3285C40.5601 91.7899 40.2138 92.5398 40.0406 93.6357C39.8675 94.674 39.9252 95.5392 40.2715 96.116C40.6178 96.6928 41.1372 97.0966 41.9452 97.212C43.6189 97.4427 44.6001 96.5198 44.9464 94.4433Z" fill="white"/>
<path d="M32.539 86.3679L30.4038 91.3285C30.1153 91.963 30.0576 92.4821 30.2307 92.9435C30.4038 93.3473 30.7501 93.6934 31.3849 93.9818C32.1928 94.3279 32.8853 94.3279 33.4047 94.0395C33.9817 93.7511 34.4434 93.1166 34.8474 92.136L36.5786 88.0983L37.8482 88.6174L34.5011 96.4044L33.4624 95.9429L33.7509 94.7893L33.6932 94.7316C33.2892 95.02 32.8276 95.1931 32.3082 95.1931C31.7888 95.1931 31.2694 95.1354 30.7501 94.9047C29.769 94.5009 29.1919 93.9818 28.9034 93.2896C28.6148 92.5974 28.7303 91.7899 29.1342 90.8093L31.3271 85.7334L32.539 86.3679Z" fill="white"/>
<path d="M26.5952 83.8877C26.422 83.7723 26.2489 83.7147 26.018 83.5993C25.7872 83.4839 25.614 83.4263 25.4986 83.4263L26.0757 82.561C26.1912 82.561 26.422 82.6764 26.6529 82.7341C26.8837 82.8494 27.1723 82.9648 27.4032 83.1378C28.7883 84.0607 28.9615 85.2144 28.038 86.7141L25.3254 90.8094L26.3066 91.4439L25.9603 92.0207L24.6329 91.79L23.19 93.0013L22.4974 92.5399L23.594 90.9248L21.574 89.5981L22.1511 88.6752L24.1711 90.0019L26.8837 85.9065C27.1723 85.5028 27.2878 85.099 27.23 84.7529C27.1723 84.4068 26.9415 84.1184 26.5952 83.8877Z" fill="white"/>
<path d="M21.3424 78.062L20.7076 79.1002L20.7653 79.1579C21.4578 79.0426 21.9772 79.1002 22.4389 79.2733C22.9005 79.4463 23.3045 79.7347 23.7662 80.1385C24.3433 80.7153 24.6895 81.2921 24.7472 81.9843C24.8049 82.6188 24.5164 83.2533 23.997 83.8301C22.7851 85.0991 21.227 84.8107 19.2072 82.9649L18.1107 82.042L17.7645 82.3881C17.3028 82.8495 17.072 83.3109 17.072 83.7147C17.072 84.1185 17.3028 84.5223 17.7068 84.9837C18.053 85.2721 18.3993 85.5605 18.7455 85.7335C19.1495 85.9066 19.4957 86.0796 19.842 86.195L19.438 87.2333C18.9764 87.1179 18.5147 86.8872 18.053 86.6564C17.5914 86.4257 17.1874 86.0796 16.8412 85.7912C16.0909 85.0991 15.687 84.4069 15.6293 83.7147C15.5716 83.0225 15.9178 82.3304 16.5526 81.6382L20.5345 77.4275L21.3424 78.062ZM22.7274 80.773C22.1503 80.2539 21.5733 79.9654 20.9385 79.9654C20.3037 79.9654 19.7266 80.2539 19.2072 80.773L18.6878 81.3498L19.6112 82.1573C20.3614 82.7918 20.9385 83.1956 21.4578 83.3109C21.9772 83.4263 22.4389 83.2533 22.8428 82.8495C23.1314 82.5034 23.3045 82.215 23.2468 81.8112C23.3045 81.4652 23.0737 81.1191 22.7274 80.773Z" fill="white"/>
<path d="M17.4209 72.8706C18.1135 73.8511 18.3444 74.8317 18.1712 75.87C17.9981 76.9082 17.2478 77.7734 16.1512 78.581C14.9969 79.3885 13.9003 79.7346 12.8614 79.6192C11.8226 79.5039 10.9568 78.9271 10.2065 77.8888C9.97568 77.5427 9.74483 77.1966 9.6294 76.7929C9.45625 76.3891 9.34082 76.1007 9.34082 75.8123L10.5528 75.4662C10.726 76.2161 11.0146 76.7929 11.3031 77.1966C11.8226 77.8888 12.3997 78.2349 13.0346 78.2926C13.7272 78.2926 14.4775 78.0042 15.3432 77.3697C16.1512 76.7929 16.7283 76.1584 16.9015 75.5239C17.0746 74.8894 16.9592 74.2549 16.4975 73.5627C16.0935 72.9282 15.5163 72.4668 14.8237 72.063L15.8049 71.3708C16.382 71.6593 16.9015 72.1784 17.4209 72.8706Z" fill="white"/>
<path d="M13.2068 67.6791C13.1491 67.506 13.0336 67.333 12.8605 67.16C12.7451 66.9869 12.6297 66.8139 12.5143 66.6985L13.4953 66.2371C13.6107 66.3524 13.7261 66.4678 13.8993 66.6985C14.0724 66.9292 14.1878 67.16 14.3609 67.3907C15.1111 68.8904 14.7072 69.9863 13.0913 70.7939L8.64779 72.9857L9.16716 74.0817L8.59008 74.3701L7.55132 73.5049L5.70465 73.7933L5.3584 73.0434L7.08965 72.1782L5.99319 69.9863L6.97424 69.5249L8.0707 71.7168L12.4565 69.5249C12.9182 69.2942 13.2068 69.0634 13.3222 68.7173C13.3799 68.3713 13.3799 68.0252 13.2068 67.6791Z" fill="white"/>
<path d="M3.22299 61.6228L8.58988 60.6423C9.28238 60.5269 9.74405 60.2962 10.0326 59.9501C10.3211 59.604 10.3788 59.0849 10.2634 58.4504C10.0903 57.5852 9.74405 57.0084 9.22468 56.72C8.7053 56.4316 7.89738 56.3739 6.80092 56.5469L2.47278 57.2968L2.24194 55.9124L10.6097 54.4127L10.7828 55.5087L9.74405 55.9124V55.9701C10.2057 56.1432 10.552 56.4316 10.8405 56.8353C11.1291 57.2391 11.3599 57.7582 11.4753 58.3927C11.6484 59.3733 11.533 60.1808 11.1868 60.8153C10.8405 61.4498 10.0903 61.7959 8.99384 61.9689L3.51153 62.9495L3.22299 61.6228Z" fill="white"/>
<path d="M8.30175 46.6835C9.10976 46.6835 9.68691 47.0296 10.0909 47.6064C10.4949 48.1832 10.7258 49.0484 10.6681 50.1443C10.6103 51.2403 10.4372 52.1632 10.0909 52.7977L8.8789 52.74C9.34062 51.8171 9.62919 50.9519 9.62919 50.0867C9.62919 49.3945 9.57148 48.8754 9.34062 48.5293C9.10976 48.1832 8.82118 48.0101 8.41718 48.0101C8.07089 48.0101 7.78232 48.1255 7.55146 48.4716C7.3206 48.8177 7.03202 49.3368 6.68573 50.0867C6.33944 50.8942 6.05087 51.4133 5.87772 51.7594C5.64686 52.1055 5.416 52.3362 5.12743 52.4516C4.83885 52.5669 4.49256 52.6823 4.14627 52.6246C3.4537 52.6246 2.93426 52.3362 2.53026 51.7594C2.12625 51.1826 1.95311 50.3751 2.01082 49.3945C2.01082 48.4139 2.24168 47.5487 2.64569 46.6835L3.68455 47.2026C3.28055 48.0678 3.10741 48.8177 3.10741 49.5098C3.10741 50.0867 3.16512 50.5481 3.33827 50.8365C3.51141 51.1249 3.74227 51.298 4.08856 51.298C4.37713 51.298 4.66571 51.1826 4.83885 50.9519C5.06971 50.7211 5.35829 50.0867 5.70458 49.1638C5.99315 48.4716 6.22401 47.9525 6.45487 47.6064C6.68573 47.2603 6.97431 47.0296 7.26288 46.8565C7.60917 46.7412 7.95546 46.6835 8.30175 46.6835Z" fill="white"/>
</g>
<defs>
<clipPath id="clip0_1_47">
<rect width="100" height="100" fill="white"/>
</clipPath>
</defs>
</svg>
