<svg width="103" height="103" viewBox="0 0 103 103" fill="none" xmlns="http://www.w3.org/2000/svg">
<circle cx="51" cy="52" r="5" fill="white"/>
<g clip-path="url(#clip0_411_4)">
<path d="M14.318 33.2668L13.7139 34.414L4.65234 29.7047L7.25 24.6332L8.27698 25.1766L6.22302 29.1009L9.42478 30.7311L11.3579 27.0482L12.3245 27.5916L10.3913 31.2744L14.318 33.2668Z" fill="white"/>
<path d="M20.9648 23.4258L17.7027 22.4598L15.2258 25.6597L16.9777 28.5577L16.1924 29.584L10.5742 20.1655L11.2991 19.2599L21.7502 22.339L20.9648 23.4258ZM16.6153 22.0371L13.4739 21.0108L11.9637 20.4674C12.3261 20.89 12.6282 21.373 12.8698 21.7353L14.5613 24.5729L16.6153 22.0371Z" fill="white"/>
<path d="M26.038 12.3167C26.8233 13.3431 27.3066 14.3091 27.4879 15.2751C27.6087 16.2411 27.4274 17.2071 26.8838 18.0523L30.3876 18.475L28.9377 19.6221L25.9776 19.0787L25.6755 19.3202C24.5277 20.2862 23.3195 20.6485 22.1113 20.4673C20.9031 20.2862 19.7553 19.5013 18.7283 18.2335C17.7013 16.9656 17.2181 15.6977 17.2785 14.4902C17.3389 13.2827 17.943 12.1959 19.1512 11.2299C20.299 10.3243 21.5072 9.96206 22.7154 10.1432C23.8632 10.3243 25.011 11.0488 26.038 12.3167ZM19.7553 17.3882C20.6011 18.4146 21.4468 19.0787 22.353 19.2598C23.2591 19.441 24.1049 19.1995 24.9506 18.5353C25.7964 17.8712 26.2192 17.0863 26.2192 16.1807C26.2192 15.2751 25.7964 14.3091 24.9506 13.2223C24.1049 12.1959 23.2591 11.5318 22.353 11.3507C21.5072 11.1696 20.6011 11.4111 19.7553 12.0752C18.9096 12.7393 18.4867 13.5846 18.4867 14.4902C18.4867 15.3354 18.9096 16.3014 19.7553 17.3882Z" fill="white"/>
<path d="M38.4241 12.196L37.2158 12.5582L34.1953 2.83784L39.6323 1.14734L39.9343 2.23409L35.7056 3.50197L36.793 6.94335L40.7197 5.73585L41.0217 6.8226L37.095 8.03011L38.4241 12.196Z" fill="white"/>
<path d="M50.0823 9.96207L48.5116 6.94331L44.5245 7.36594L43.6788 10.6262L42.4102 10.7469L45.189 0.181297L46.3368 0.0605469L51.4113 9.78095L50.0823 9.96207ZM48.0283 5.85656L46.5181 2.95855L45.8536 1.50955C45.7932 2.05293 45.6723 2.5963 45.6119 3.0793L44.8266 6.27919L48.0283 5.85656Z" fill="white"/>
<path d="M61.558 5.79607C61.4372 7.06395 61.0143 8.09033 60.4102 8.8752C59.8061 9.66008 59.0208 10.2035 58.0542 10.3846L60.1686 13.1618L58.3563 12.9807L56.6648 10.5053H56.3023C54.792 10.3242 53.7047 9.78083 52.9797 8.75445C52.2548 7.72808 52.0132 6.39982 52.1944 4.76969C52.3756 3.13956 52.9193 1.87169 53.8255 1.08681C54.7316 0.301933 55.9398 -0.0603177 57.4501 0.120808C58.9 0.301933 59.9873 0.905685 60.7123 1.87169C61.4372 2.83769 61.7393 4.16594 61.558 5.79607ZM53.5234 4.89044C53.3422 6.2187 53.5234 7.30545 54.0067 8.02995C54.49 8.81483 55.2753 9.23745 56.3627 9.3582C57.4501 9.47895 58.2959 9.23745 58.9604 8.57333C59.6249 7.96958 59.9873 6.9432 60.1686 5.61495C60.3498 4.28669 60.1686 3.19994 59.6853 2.47544C59.202 1.75094 58.4167 1.26794 57.3293 1.14719C56.2419 1.02643 55.3357 1.26794 54.7316 1.93206C54.0671 2.53581 53.7047 3.50182 53.5234 4.89044Z" fill="white"/>
<path d="M70.3197 14.4903L69.1719 13.8866L74.0047 4.95105L79.0188 7.66793L78.4751 8.63393L74.6088 6.5208L72.9173 9.72069L76.542 11.7131L75.9983 12.6791L72.3736 10.6867L70.3197 14.4903Z" fill="white"/>
<path d="M80.1075 21.2524L81.1344 18.0525L77.9931 15.5168L75.0934 17.2073L74.0664 16.4224L83.6113 10.9886L84.5174 11.7131L81.1949 22.1581L80.1075 21.2524ZM81.5573 16.9054L82.5843 13.7659L83.1884 12.2565C82.7051 12.6188 82.2822 12.9207 81.8594 13.1622L79.0201 14.8527L81.5573 16.9054Z" fill="white"/>
<path d="M91.1016 26.505C90.0746 27.2899 89.108 27.7729 88.0811 27.8936C87.1145 28.0144 86.1479 27.8332 85.3022 27.2295L84.8189 30.7313L83.6711 29.2822L84.2752 26.3239L84.0336 26.0824C83.1274 24.8749 82.7649 23.7277 83.0066 22.5202C83.2482 21.3127 83.9731 20.1656 85.3022 19.1392C86.6312 18.1128 87.8998 17.6298 89.108 17.7506C90.3163 17.811 91.4036 18.4751 92.3098 19.6826C93.216 20.8297 93.5784 22.0372 93.3368 23.2447C93.1556 24.3919 92.4306 25.539 91.1016 26.505ZM86.1479 20.1656C85.0605 21.0109 84.4564 21.8561 84.2752 22.7617C84.094 23.6674 84.2752 24.5126 85.0001 25.3579C85.6646 26.2031 86.45 26.6257 87.3561 26.6861C88.2623 26.6861 89.2289 26.2635 90.3163 25.4786C91.4036 24.6334 92.0077 23.7881 92.2494 22.9429C92.491 22.0976 92.189 21.192 91.5245 20.3467C90.86 19.5015 90.0746 19.0185 89.1685 19.0185C88.2019 18.9581 87.2353 19.3807 86.1479 20.1656Z" fill="white"/>
<path d="M91.0382 38.8819L90.6758 37.6744L100.462 34.8368L102.033 40.2706L100.946 40.5724L99.7374 36.3462L96.294 37.3725L97.4418 41.3573L96.3544 41.6592L95.2066 37.6744L91.0382 38.8819Z" fill="white"/>
<path d="M93.0921 50.5944L96.1126 49.085L95.7502 45.0398L92.488 44.1342L92.3672 42.8663L102.939 45.8247L103.06 46.9718L93.2129 51.9226L93.0921 50.5944ZM97.2 48.602L100.16 47.153L101.61 46.5492C101.066 46.4888 100.523 46.3681 100.039 46.2473L96.8376 45.4021L97.2 48.602Z" fill="white"/>
<path d="M97.081 62.1261C95.8124 61.945 94.7854 61.5828 94.0001 60.9186C93.2148 60.3149 92.7315 59.4696 92.5502 58.5036L89.7109 60.6168L89.9526 58.8055L92.4898 57.1754L92.5502 56.8131C92.7315 55.3037 93.3356 54.217 94.3625 53.5529C95.3895 52.8887 96.7186 52.6472 98.3497 52.8284C99.9807 53.0699 101.189 53.6132 102.035 54.5189C102.88 55.4245 103.122 56.632 102.941 58.1414C102.76 59.5904 102.156 60.6771 101.129 61.4016C99.9807 62.1261 98.7121 62.3676 97.081 62.1261ZM98.108 54.1566C96.779 53.9755 95.6916 54.1566 94.9667 54.5792C94.1813 55.0622 93.7584 55.8471 93.5772 56.9339C93.4564 58.0206 93.698 58.8659 94.3021 59.53C94.9062 60.1941 95.9332 60.6168 97.2623 60.7979C98.5913 60.979 99.6787 60.8583 100.404 60.3753C101.189 59.8923 101.612 59.1074 101.733 58.081C101.853 56.9942 101.612 56.0886 101.008 55.4849C100.404 54.7604 99.437 54.3377 98.108 54.1566Z" fill="white"/>
<path d="M89.6523 67.6203L90.196 66.4731L99.4389 70.6994L97.0828 75.8917L96.0559 75.4087L97.8682 71.4239L94.606 69.9145L92.9145 73.6578L91.8875 73.1748L93.579 69.4315L89.6523 67.6203Z" fill="white"/>
<path d="M83.6114 77.8236L86.8735 78.6085L89.1691 75.2878L87.2964 72.5106L88.0213 71.4238L94.0624 80.5405L93.3979 81.5065L82.7656 78.85L83.6114 77.8236ZM88.0213 78.9707L91.2231 79.816L92.7334 80.299C92.3709 79.8763 92.0084 79.4537 91.7668 79.0915L89.8941 76.3746L88.0213 78.9707Z" fill="white"/>
<path d="M79.0774 89.1141C78.2316 88.1481 77.688 87.1821 77.5067 86.2161C77.3255 85.2501 77.4463 84.2841 77.9296 83.4388L74.4258 83.1973L75.8152 81.9898L78.8358 82.4124L79.0774 82.1709C80.1648 81.1446 81.373 80.7219 82.5812 80.9031C83.7894 81.0238 84.9976 81.7483 86.085 82.9558C87.1724 84.1633 87.7161 85.4312 87.7765 86.6387C87.7765 87.8462 87.2328 88.9933 86.085 89.9593C84.9976 90.9253 83.8498 91.348 82.5812 91.2272C81.3126 91.0461 80.1648 90.382 79.0774 89.1141ZM85.058 83.8011C84.1519 82.7747 83.2457 82.2313 82.3396 82.1106C81.4334 81.9898 80.5877 82.2313 79.8023 83.0162C79.017 83.7407 78.5941 84.5256 78.6545 85.4312C78.7149 86.3368 79.1982 87.3028 80.1044 88.2688C81.0105 89.2952 81.9167 89.8386 82.7624 90.0197C83.6082 90.2008 84.5143 89.8386 85.2997 89.1141C86.1454 88.3896 86.5079 87.5443 86.4475 86.6387C86.4475 85.7331 85.9642 84.7671 85.058 83.8011Z" fill="white"/>
<path d="M66.7547 89.8989L67.9629 89.4763L71.4667 99.0156L66.1506 100.948L65.7882 99.8608L69.9565 98.3515L68.7483 94.9705L64.882 96.3591L64.5195 95.3327L68.3858 93.9441L66.7547 89.8989Z" fill="white"/>
<path d="M55.2178 92.7363L56.9697 95.6343L60.9568 94.9701L61.6214 91.6495L62.89 91.4684L60.6548 102.215L59.507 102.396L53.9492 92.9778L55.2178 92.7363ZM57.453 96.721L59.0841 99.5587L59.809 101.008C59.8694 100.464 59.9299 99.9209 59.9903 99.4379L60.6548 96.238L57.453 96.721Z" fill="white"/>
<path d="M43.9216 97.4457C43.982 96.1778 44.3445 95.091 44.8882 94.3062C45.4318 93.4609 46.2172 92.9175 47.1838 92.676L44.8882 90.0195L46.7005 90.1403L48.5128 92.5553H48.8752C50.3855 92.676 51.4729 93.159 52.2582 94.125C53.0436 95.091 53.3456 96.4193 53.2248 98.0494C53.104 99.6795 52.6207 100.947 51.775 101.793C50.9292 102.638 49.721 103.061 48.2107 102.94C46.7609 102.819 45.6131 102.336 44.8882 101.31C44.1632 100.404 43.8612 99.0758 43.9216 97.4457ZM51.9562 97.9891C52.0166 96.6608 51.8354 95.6344 51.2917 94.8495C50.748 94.0647 49.9626 93.7024 48.8752 93.642C47.7879 93.5817 46.9421 93.8835 46.338 94.5477C45.7339 95.2118 45.3714 96.2382 45.311 97.5664C45.2506 98.8947 45.4318 99.9814 45.9755 100.706C46.5192 101.43 47.3046 101.853 48.392 101.913C49.4794 101.974 50.3251 101.672 50.9896 101.008C51.6541 100.344 51.8958 99.3173 51.9562 97.9891Z" fill="white"/>
<path d="M34.739 89.1744L35.8868 89.7178L31.5372 98.8948L26.4023 96.4195L26.8856 95.3931L30.8727 97.2647L32.4434 94.0045L28.6979 92.2536L29.1812 91.2272L32.9267 92.9781L34.739 89.1744Z" fill="white"/>
<path d="M24.6475 82.9557L23.8018 86.216L27.0639 88.5706L29.9032 86.7593L30.9302 87.5442L21.6874 93.461L20.7812 92.7969L23.6205 82.2312L24.6475 82.9557ZM23.3789 87.3631L22.4727 90.5026L21.9895 92.012C22.4123 91.6497 22.8352 91.3479 23.2581 91.046L26.037 89.2347L23.3789 87.3631Z" fill="white"/>
<path d="M13.3528 78.2464C14.3193 77.4012 15.2859 76.9181 16.3129 76.737C17.3399 76.5559 18.246 76.737 19.0918 77.22L19.3938 73.7183L20.602 75.1069L20.1791 78.1256L20.4208 78.3672C21.3874 79.5143 21.8102 80.6614 21.629 81.8689C21.4478 83.0764 20.7833 84.2235 19.5146 85.3103C18.246 86.3971 17.0378 86.9404 15.8296 86.88C14.6214 86.88 13.4736 86.2763 12.507 85.1292C11.5404 84.0424 11.1176 82.8349 11.2988 81.6274C11.4196 80.4803 12.0841 79.3332 13.3528 78.2464ZM18.6085 84.3443C19.6355 83.4387 20.2396 82.5934 20.3604 81.6878C20.5416 80.7822 20.2396 79.9369 19.5146 79.0917C18.7897 78.2464 18.0044 77.8841 17.0982 77.8841C16.1921 77.8841 15.2255 78.3672 14.1985 79.2728C13.1715 80.1784 12.5674 81.0237 12.4466 81.9293C12.2654 82.7745 12.5674 83.6802 13.2923 84.465C14.0173 85.3103 14.8026 85.7329 15.7088 85.6725C16.6753 85.6725 17.5815 85.1895 18.6085 84.3443Z" fill="white"/>
<path d="M12.809 65.8695L13.2319 67.077L3.62663 70.3976L1.75391 65.0242L2.8413 64.662L4.23074 68.8279L7.61373 67.6204L6.2847 63.696L7.37209 63.3337L8.70112 67.2581L12.809 65.8695Z" fill="white"/>
<path d="M10.1519 54.338L7.25217 55.9681L7.85628 59.9529L11.1789 60.6774L11.3601 61.9452L0.607013 59.5302L0.425781 58.3831L9.97065 52.9493L10.1519 54.338ZM6.16478 56.5115L3.26508 58.0812L1.81522 58.8057C2.35892 58.8661 2.90261 58.9265 3.3859 58.9869L6.58766 59.651L6.16478 56.5115Z" fill="white"/>
<path d="M5.61949 42.9872C6.88811 43.108 7.9755 43.4099 8.76084 44.0136C9.54617 44.6174 10.0899 45.3419 10.3315 46.3683L13.05 44.1344L12.9292 45.9456L10.5127 47.7569V48.1191C10.3919 49.6285 9.84823 50.7153 8.88166 51.5001C7.91509 52.2246 6.58606 52.5265 4.89456 52.4058C3.26348 52.285 1.99485 51.7416 1.14911 50.8964C0.303359 49.9908 -0.0591046 48.8436 0.0617165 47.2739C0.182538 45.8249 0.726232 44.6778 1.6928 43.9533C2.65937 43.1684 3.9884 42.8665 5.61949 42.9872ZM4.95497 51.0171C6.284 51.1379 7.37139 50.8964 8.09632 50.4134C8.82125 49.9304 9.24412 49.0851 9.36494 47.9984C9.42535 46.9116 9.18371 46.0664 8.51919 45.4626C7.85468 44.8589 6.88811 44.4966 5.49867 44.3759C4.16963 44.2551 3.08224 44.4966 2.35732 44.9796C1.63239 45.4626 1.20952 46.3079 1.14911 47.3946C1.0887 48.4814 1.33034 49.387 1.99485 49.9908C2.65937 50.5945 3.62594 50.8964 4.95497 51.0171Z" fill="white"/>
</g>
<defs>
<clipPath id="clip0_411_4">
<rect width="103" height="103" fill="white"/>
</clipPath>
</defs>
</svg>
