<svg width="101" height="102" viewBox="0 0 101 102" fill="none" xmlns="http://www.w3.org/2000/svg">
<path d="M5.29333 40.4801L4.80932 42.6166L12.3117 44.162L12.0389 45.5948L4.53657 44.0495L4.21868 45.5671L3.53485 45.4207L3.33849 43.847L2.93433 43.6862C1.88601 43.5091 1.1878 43.0829 0.729597 42.5125C0.271395 41.9421 0.183132 41.1877 0.399846 40.2692C0.520849 39.7351 0.706814 39.1811 1.04254 38.6524L2.07995 39.2591C1.78935 39.703 1.62867 40.1072 1.59793 40.4717C1.52205 40.921 1.5761 41.3307 1.87016 41.5961C2.09926 41.8813 2.58821 42.0872 3.27205 42.2336L3.80613 42.3547L4.29014 40.2181L5.29333 40.4801Z" fill="white"/>
<path d="M11.7331 32.2638C13.0304 32.7911 13.9775 33.5674 14.405 34.5024C14.8523 35.5023 14.89 36.5563 14.3881 37.7039C14.1119 38.4275 13.6462 38.9958 13.0759 39.454C12.5057 39.9122 11.856 40.1106 11.0819 40.1338C10.3079 40.157 9.49409 40.0503 8.66595 39.6638C7.3687 39.1365 6.42155 38.3601 5.99409 37.4252C5.56664 36.4902 5.50913 35.3713 6.01098 34.2237C6.44787 33.0959 7.19867 32.2985 8.23806 31.9812C9.27746 31.6639 10.4359 31.7364 11.7331 32.2638ZM9.2779 38.4116C10.3208 38.8035 11.1345 38.9102 11.8689 38.7571C12.5835 38.5389 13.0889 38.1005 13.4102 37.2921C13.7315 36.4837 13.683 35.8593 13.3348 35.1842C13.0066 34.5742 12.2885 34.0831 11.2258 33.6261C10.183 33.2342 9.36919 33.1275 8.71956 33.3258C8.06994 33.5241 7.51949 34.0473 7.24327 34.7709C6.51578 36.3425 7.2373 37.5429 9.2779 38.4116Z" fill="white"/>
<path d="M11.6155 24.2024C11.796 23.8632 12.0613 23.5691 12.2165 23.3797L13.2683 24.2661C13.0481 24.4754 12.8478 24.7496 12.6474 25.0239C12.402 25.3829 12.2611 25.8521 12.2502 26.2816C12.2591 26.7761 12.3782 27.1659 12.6018 27.6659C12.8706 28.0811 13.2043 28.4764 13.6481 28.7671L17.5577 31.3381L16.796 32.5651L9.44047 27.7786L10.0668 26.8061L11.5083 27.5735L11.5535 27.4887C11.2252 26.8786 11.1315 26.339 11.1027 25.7795C11.1191 25.1353 11.2599 24.6661 11.6155 24.2024Z" fill="white"/>
<path d="M28.1447 19.7244L24.3834 15.5454C23.4417 14.5543 22.5431 14.4024 21.6624 15.2395C21.047 15.7826 20.7961 16.3564 20.8447 16.9808C20.8933 17.6052 21.2216 18.2153 21.8692 18.941L25.0875 22.5044L24.0317 23.466L20.2704 19.287C19.832 18.7816 19.3882 18.4909 18.9389 18.4149C18.4897 18.339 18.0548 18.5428 17.6144 18.9613C16.999 19.5044 16.7481 20.0782 16.7967 20.7026C16.8453 21.327 17.2782 22.0472 18.0304 22.883L21.0395 26.2262L19.9837 27.1878L14.1099 20.7415L14.9455 19.9892L15.8926 20.7655L15.9576 20.7457C15.8837 20.271 15.8748 19.7765 16.0806 19.2875C16.2864 18.7985 16.577 18.3547 16.9722 18.0209C17.963 17.0792 18.9573 16.8467 19.955 17.3234L20.02 17.3036C19.9263 16.764 19.9823 16.2496 20.1683 15.6957C20.3741 15.2067 20.6449 14.6978 21.17 14.3244C21.8955 13.6768 22.6552 13.3738 23.2994 13.3902C24.0284 13.4518 24.7266 13.8779 25.4788 14.7137L29.325 18.9379L28.1447 19.7244Z" fill="white"/>
<path d="M35.1598 13.3922C35.5278 14.1322 35.5313 14.8415 35.1702 15.5199C34.8092 16.1984 34.1289 16.7612 33.149 17.2734C32.1041 17.8055 31.2398 17.9983 30.4657 18.0215L29.8939 16.8465C30.9477 16.8089 31.8968 16.6613 32.6818 16.2085C33.2918 15.8803 33.752 15.5267 33.9325 15.1875C34.113 14.8482 34.1437 14.4837 33.9598 14.1137C33.7956 13.8086 33.5214 13.6082 33.1371 13.5125C32.7528 13.4167 32.1284 13.4652 31.2894 13.5083C30.3854 13.5712 29.761 13.6197 29.3767 13.5239C29.0122 13.4932 28.6081 13.3324 28.3537 13.197C28.0795 12.9966 27.8702 12.7763 27.6862 12.4063C27.358 11.7962 27.3743 11.152 27.7353 10.4735C28.0964 9.79508 28.7316 9.31704 29.5816 8.84447C30.4514 8.43688 31.3608 8.15924 32.3497 8.1415L32.4468 9.39037C31.4779 9.47309 30.6785 9.64609 30.0685 9.97435C29.5037 10.2178 29.1734 10.5317 28.9731 10.806C28.7727 11.0802 28.742 11.4448 28.8863 11.6848C29.0053 12.0747 29.2597 12.2101 29.5791 12.3257C29.8786 12.3763 30.5877 12.3729 31.6216 12.2704C32.3759 12.1822 33.0002 12.1337 33.3846 12.2294C33.8338 12.3054 34.1532 12.421 34.4274 12.6214C34.6818 12.7568 34.9759 13.0222 35.1598 13.3922Z" fill="white"/>
<path d="M48.6708 5.07675L46.473 5.32151L47.2907 12.8852L45.8471 13.0417L45.0295 5.47808L43.521 5.65447L43.4525 4.96506L44.8871 4.31401L44.8133 3.83936C44.7106 2.80525 44.8173 1.99137 45.2631 1.35806C45.7089 0.724758 46.3387 0.461468 47.2878 0.313776C47.8472 0.285073 48.4065 0.256372 49.0254 0.422593L48.7383 1.57569C48.2042 1.45462 47.7748 1.44366 47.4301 1.47784C46.9556 1.55169 46.5856 1.73565 46.4051 2.07487C46.2246 2.4141 46.1686 2.92841 46.237 3.61782L46.2657 4.17728L48.5483 3.97767L48.6708 5.07675Z" fill="white"/>
<path d="M58.4608 8.76464C58.3378 10.2228 57.946 11.2658 57.1104 12.0181C56.3398 12.7505 55.3004 13.0678 54.077 13.0151C53.2831 12.9734 52.5794 12.762 52.0112 12.2962C51.4627 11.8954 51.0045 11.325 50.7213 10.6301C50.4382 9.93522 50.3301 9.11586 50.397 8.17203C50.52 6.71389 50.9118 5.6709 51.6824 4.93844C52.4531 4.20597 53.4925 3.88867 54.7357 4.00636C55.9789 4.12405 56.8918 4.55565 57.5791 5.41128C58.2664 6.26691 58.5387 7.3913 58.4608 8.76464ZM51.855 8.2952C51.7627 9.3888 51.9556 10.2533 52.3489 10.8436C52.7421 11.4338 53.3357 11.7498 54.2144 11.8367C55.0083 11.8785 55.7229 11.6603 56.1886 11.092C56.6542 10.5237 56.9106 9.73508 57.0029 8.64147C57.0951 7.54787 56.9022 6.68337 56.509 6.09311C56.1157 5.50286 55.5221 5.18686 54.6434 5.09997C52.9906 5.03629 52.0395 6.10798 51.855 8.2952Z" fill="white"/>
<path d="M66.1121 6.14514C66.4964 6.24091 66.8158 6.35651 67.0702 6.49193L66.5232 7.72436C66.2688 7.58893 65.9495 7.47334 65.6301 7.35774C65.161 7.21683 64.7514 7.27084 64.2966 7.40966C63.8419 7.54848 63.4268 7.81725 63.1164 8.19614C62.806 8.57503 62.5154 9.01889 62.3944 9.55304L61.1412 14.0553L59.7537 13.6976L62.0741 5.24697L63.227 5.53427L62.929 7.11688L63.0138 7.16203C63.4993 6.65867 63.9793 6.37007 64.499 6.21142C65.0638 5.96796 65.5582 5.95909 66.1121 6.14514Z" fill="white"/>
<path d="M75.4143 20.5655L78.2464 15.6522C78.9432 14.4451 78.7503 13.5806 77.7129 12.9739C77.0147 12.5478 76.3507 12.4664 75.7858 12.7099C75.221 12.9533 74.6706 13.4765 74.2193 14.3246L71.7933 18.4746L70.5863 17.7776L73.4184 12.8643C73.7343 12.2707 73.9203 11.7167 73.8013 11.3269C73.6823 10.937 73.4135 10.5218 72.8849 10.186C72.1867 9.75989 71.5227 9.67848 70.9578 9.92194C70.393 10.1654 69.7974 10.7734 69.2361 11.7261L66.9455 15.6217L65.7385 14.9247L70.0995 7.34278L71.117 7.8845L70.6801 9.01229L70.7649 9.05744C71.18 8.78867 71.6546 8.71482 72.149 8.70595C72.6434 8.69708 73.1973 8.88313 73.6411 9.17382C74.8481 9.8708 75.3207 10.721 75.2285 11.8146L75.3133 11.8597C75.7933 11.5711 76.3328 11.4774 76.8471 11.5335C77.4263 11.5698 77.9603 11.6909 78.489 12.0267C79.3568 12.5431 79.8799 13.0937 80.0332 13.8283C80.1666 14.4978 79.995 15.3315 79.4336 16.2842L76.6015 21.1975L75.4143 20.5655Z" fill="white"/>
<path d="M83.5891 25.2438C82.9936 25.8518 82.3439 26.0501 81.5951 25.9236C80.8463 25.797 80.0633 25.3257 79.3309 24.5549C78.5137 23.739 77.996 22.9736 77.7579 22.1939L78.6838 21.272C79.0012 22.3116 79.5189 23.0769 80.1467 23.7377C80.65 24.2233 81.0938 24.514 81.4781 24.6097C81.8624 24.7055 82.1873 24.6063 82.5175 24.2924C82.8027 24.0633 82.8532 23.7638 82.7992 23.3541C82.7451 22.9444 82.5666 22.3596 82.1789 21.5546C81.856 20.7298 81.6126 20.1648 81.5585 19.7552C81.5045 19.3455 81.4702 19.0008 81.5858 18.6814C81.7013 18.362 81.9017 18.0877 82.167 17.7937C82.6525 17.2903 83.3021 17.092 83.9859 17.2384C84.6698 17.3848 85.4329 17.7911 86.0806 18.5167C86.7932 19.2226 87.3109 19.9879 87.5886 20.8976L86.4391 21.3195C86.0964 20.4297 85.6635 19.7095 85.1602 19.2239C84.7417 18.7834 84.3826 18.5379 83.9983 18.4421C83.614 18.3463 83.3541 18.4257 83.134 18.6349C82.9138 18.8442 82.7983 19.1636 82.8325 19.5083C82.8667 19.853 83.13 20.4829 83.4925 21.4377C83.7756 22.1326 84.0191 22.6975 84.0732 23.1072C84.1272 23.5169 84.1614 23.8616 84.0459 24.181C84.0548 24.6755 83.8544 24.9497 83.5891 25.2438Z" fill="white"/>
<path d="M95.6172 35.5651L94.7226 33.5652L87.7895 36.6762L87.178 35.3712L94.1112 32.2602L93.4799 30.8903L94.1097 30.627L95.1758 31.7932L95.6107 31.5894C96.6105 31.1421 97.4297 31.0341 98.0684 31.2653C98.7721 31.4767 99.2952 32.0272 99.7029 32.8972C99.9265 33.3972 100.105 33.982 100.134 34.5414L98.9501 34.6187C98.8564 34.079 98.8023 33.6693 98.6382 33.3643C98.4344 32.9293 98.1403 32.6639 97.756 32.5682C97.3717 32.4724 96.8321 32.5661 96.2222 32.8943L95.7223 33.118L96.6169 35.1178L95.6172 35.5651Z" fill="white"/>
<path d="M95.115 46.0174C93.7309 46.3689 92.5725 46.2964 91.6199 45.7348C90.6871 45.2382 90.0648 44.3628 89.7529 43.1084C89.5798 42.3089 89.5764 41.5997 89.8074 40.9609C90.0187 40.2571 90.4194 39.7086 90.9897 39.2504C91.56 38.7922 92.2998 38.4243 93.2291 38.2116C94.6132 37.8601 95.7716 37.9327 96.7044 38.4292C97.6372 38.9258 98.2595 39.8013 98.5714 41.0556C98.8635 42.245 98.6864 43.2935 98.1052 44.1812C97.4591 45.0887 96.499 45.6659 95.115 46.0174ZM93.5807 39.5959C92.5215 39.8482 91.7365 40.301 91.316 40.7845C90.8503 41.3528 90.769 42.0169 90.942 42.8164C91.1151 43.616 91.5733 44.1864 92.2319 44.4826C92.8904 44.7787 93.7493 44.8007 94.8085 44.5483C95.8678 44.296 96.5878 43.8631 97.0534 43.2948C97.5191 42.7264 97.6004 42.0623 97.4075 41.1978C96.9965 39.6186 95.6992 39.0912 93.5807 39.5959Z" fill="white"/>
<path d="M100 52.4815C100.054 52.8912 100.004 53.1907 99.9529 53.4903L98.6448 53.3924C98.6953 53.0929 98.7261 52.7283 98.7117 52.4486C98.7028 51.9541 98.5188 51.5841 98.25 51.169C97.9813 50.7538 97.6222 50.5083 97.1333 50.3024C96.6443 50.0965 96.1951 50.0206 95.6357 50.0493L90.946 50.2734L90.8741 48.8747L99.6291 48.475L99.7065 49.6589L98.133 49.8551L98.1529 49.9201C98.7464 50.2361 99.2101 50.5918 99.4987 51.0719C99.7873 51.552 99.9713 51.922 100 52.4815Z" fill="white"/>
<path d="M89.135 65.7428L94.6057 66.9139C95.9733 67.2067 96.7583 66.754 96.9805 65.6207C97.1719 64.852 97.0385 64.1824 96.685 63.7221C96.3314 63.2618 95.653 62.9006 94.6697 62.7036L89.9478 61.659L90.2404 60.2912L95.7111 61.4623C96.3949 61.6087 96.9543 61.58 97.3242 61.396C97.7591 61.1922 97.9847 60.7682 98.0859 60.1691C98.2773 59.4004 98.1439 58.7308 97.7254 58.2903C97.3069 57.8498 96.5437 57.4435 95.4755 57.2014L91.073 56.2724L91.3656 54.9046L99.891 56.7768L99.6688 57.9101L98.4454 57.8574L98.4003 57.9422C98.7792 58.2527 98.983 58.6877 99.1417 59.2075C99.3004 59.7273 99.3093 60.2218 99.1883 60.756C98.8957 62.1238 98.2748 62.8816 97.1958 63.0689L97.1506 63.1537C97.5493 63.5292 97.8181 63.9444 97.9966 64.5292C98.1553 65.049 98.1191 65.6283 98.0179 66.2274C97.821 67.2109 97.3752 67.8442 96.7851 68.2374C96.195 68.6307 95.3559 68.6737 94.2228 68.4514L88.6673 67.2351L89.135 65.7428Z" fill="white"/>
<path d="M87.2023 74.9983C86.4589 74.657 86.0657 74.0667 85.9774 73.3124C85.8892 72.558 86.0607 71.7243 86.6023 70.7066C87.1438 69.6889 87.6997 68.951 88.3548 68.5379L89.5221 69.1049C88.6469 69.7273 88.026 70.4851 87.6198 71.2483C87.3238 71.9069 87.118 72.3959 87.172 72.8056C87.2261 73.2153 87.4552 73.5005 87.7944 73.6811C88.1336 73.8616 88.4132 73.8473 88.7832 73.6633C89.1531 73.4794 89.6133 73.1258 90.2937 72.5629C90.9741 72.0001 91.4794 71.5617 91.7844 71.3976C92.0893 71.2334 92.4791 71.1145 92.8238 71.0803C93.1684 71.0461 93.4878 71.1617 93.827 71.3423C94.4855 71.6384 94.7939 72.1835 94.9472 72.9181C95.1004 73.6526 94.844 74.4412 94.4126 75.3542C93.9613 76.2023 93.3404 76.9601 92.5951 77.5428L91.8032 76.577C92.5485 75.9943 93.0593 75.3412 93.4401 74.7277C93.7109 74.2189 93.8517 73.7497 93.8175 73.405C93.7833 73.0603 93.639 72.8202 93.3648 72.6198C93.1104 72.4844 92.8109 72.4338 92.5059 72.5979C92.2009 72.762 91.6757 73.1355 90.8853 73.8029C90.3348 74.3261 89.8097 74.6995 89.4397 74.8835C89.0698 75.0675 88.745 75.1666 88.4003 75.2008C87.9258 75.2746 87.5415 75.1789 87.2023 74.9983Z" fill="white"/>
<path d="M81.0735 89.5836L82.6797 88.0989L77.5383 82.4234L78.5941 81.4618L83.7355 87.1373L84.8364 86.0909L85.2747 86.5964L84.4878 87.9731L84.8215 88.3684C85.5539 89.1392 85.8569 89.8991 85.9253 90.5885C85.9288 91.2977 85.5678 91.9762 84.8423 92.6239C84.447 92.9576 83.9219 93.331 83.422 93.5546L82.9549 92.4897C83.4548 92.2661 83.8049 92.0172 84.09 91.7881C84.4203 91.4742 84.6008 91.1349 84.5467 90.7252C84.4927 90.3156 84.2889 89.8806 83.7856 89.395L83.367 88.9545L81.7608 90.4392L81.0735 89.5836Z" fill="white"/>
<path d="M70.99 92.3778C70.2684 91.1774 69.9764 89.988 70.1534 88.9396C70.3305 87.8911 70.9766 86.9836 72.0666 86.3667C72.7217 85.9536 73.4363 85.7355 74.1454 85.7321C74.8545 85.7287 75.5582 85.9401 76.1716 86.321C76.8049 86.767 77.393 87.2977 77.8457 88.0829C78.5672 89.2832 78.8395 90.4077 78.6624 91.4561C78.4854 92.5046 77.8194 93.3472 76.7493 94.029C75.6791 94.7108 74.6452 94.8134 73.642 94.5514C72.5738 94.3092 71.7115 93.5781 70.99 92.3778ZM76.6005 88.8892C76.0233 87.929 75.4154 87.3332 74.7117 87.1219C74.008 86.9105 73.3837 86.959 72.6637 87.3919C71.9436 87.8248 71.5627 88.4383 71.4814 89.1024C71.4199 89.8315 71.6579 90.6112 72.2352 91.5714C72.8124 92.5317 73.4203 93.1274 74.124 93.3388C74.7627 93.57 75.452 93.5016 76.1721 93.0687C77.6121 92.2029 77.755 90.8098 76.6005 88.8892Z" fill="white"/>
<path d="M66.3313 98.9851C65.9415 99.1041 65.6167 99.2033 65.3568 99.2826L65.0251 97.9633C65.3698 97.9291 65.6946 97.8299 65.9544 97.7506C66.4092 97.6118 66.7394 97.2979 67.0499 96.919C67.3603 96.5401 67.5011 96.0709 67.577 95.6216C67.6529 95.1722 67.5592 94.6326 67.4005 94.1128L65.772 89.7089L67.1164 89.2275L70.175 97.3856L69.0905 97.7877L68.3744 96.3726L68.3094 96.3924C68.2281 97.0565 67.9772 97.6303 67.6667 98.0092C67.2462 98.4927 66.8311 98.7615 66.3313 98.9851Z" fill="white"/>
<path d="M50.3546 92.7106L50.9219 98.2908C51.0588 99.6697 51.7515 100.311 52.9154 100.168C53.7346 100.06 54.2994 99.8168 54.6352 99.2882C54.9709 98.7595 55.0973 98.0106 54.9496 97.0613L54.4706 92.2354L55.9141 92.0789L56.4814 97.6591C56.5498 98.3485 56.7735 98.8485 57.0873 99.1788C57.4012 99.5092 57.8704 99.6501 58.4749 99.5366C59.2941 99.4286 59.8391 99.1201 60.1748 98.5915C60.5105 98.0628 60.6171 97.2489 60.4947 96.1498L60.0499 91.6687L61.4934 91.5121L62.3235 100.28L61.1596 100.422L60.8026 99.2522L60.7376 99.272C60.512 99.696 60.2016 100.075 59.7865 100.344C59.3714 100.612 58.8517 100.771 58.3122 100.865C56.9336 101.002 56.0405 100.635 55.5283 99.6548L55.4633 99.6746C55.2575 100.164 54.8821 100.562 54.4021 100.851C53.922 101.14 53.4222 101.363 52.7978 101.412C51.8289 101.494 51.0602 101.303 50.5118 100.902C49.9435 100.436 49.6405 99.6765 49.518 98.5774L48.9309 92.9321L50.3546 92.7106Z" fill="white"/>
<path d="M41.0043 93.7186C41.1109 92.9047 41.5766 92.3364 42.2515 91.9883C42.9264 91.6402 43.8304 91.5773 44.8787 91.7545C46.0119 91.9768 46.8851 92.2784 47.4534 92.7442L47.206 94.0273C46.3183 93.4459 45.4703 92.9945 44.5718 92.8426C43.8879 92.6962 43.3286 92.7249 42.9586 92.9089C42.5887 93.0928 42.3883 93.3671 42.2926 93.7514C42.2619 94.116 42.3412 94.3759 42.5902 94.7261C42.8391 95.0763 43.3677 95.4121 44.1309 95.8184C44.9139 96.2896 45.4425 96.6255 45.6716 96.9107C45.9007 97.1959 46.1298 97.4811 46.294 97.7861C46.3931 98.111 46.4274 98.4557 46.3316 98.8401C46.1854 99.524 45.8496 100.053 45.1747 100.401C44.5648 100.729 43.7257 100.772 42.6774 100.595C41.694 100.398 40.8208 100.096 40.0179 99.56L40.6894 98.5027C41.4922 99.0389 42.2157 99.3153 42.9645 99.4418C43.5636 99.5431 43.993 99.554 44.3629 99.3701C44.6878 99.2709 44.8881 98.9967 44.9387 98.6971C44.9893 98.3975 44.8901 98.0727 44.6808 97.8524C44.4517 97.5672 43.9231 97.2314 42.9705 96.6698C42.2921 96.3087 41.8285 95.953 41.5146 95.6227C41.2205 95.3573 40.9716 95.0071 40.8922 94.7472C40.9428 94.4476 40.9086 94.1029 41.0043 93.7186Z" fill="white"/>
<path d="M25.1816 92.3694L27.0868 93.4925L30.9062 86.9282L32.1132 87.6252L28.2938 94.1894L29.5856 94.9316L29.2697 95.5252L27.6675 95.162L27.4418 95.586C26.9454 96.5189 26.33 97.0619 25.6155 97.28C24.9658 97.4784 24.217 97.3518 23.3691 96.9004C22.8603 96.6295 22.4616 96.254 22.043 95.8135L22.9436 95.0414C23.2773 95.4367 23.6363 95.6823 23.9106 95.8827C24.3346 96.1084 24.699 96.1392 25.0888 96.0202C25.4588 95.8362 25.789 95.5223 26.1699 94.9089L26.4406 94.4L24.5354 93.2769L25.1816 92.3694Z" fill="white"/>
<path d="M19.4525 83.6055C20.4036 82.5338 21.3438 81.8916 22.4427 81.7692C23.5416 81.6468 24.5647 81.9738 25.5316 82.8151C26.1198 83.3459 26.578 83.9163 26.7763 84.566C26.9747 85.2158 26.998 85.99 26.7867 86.6937C26.5953 87.4625 26.1693 88.1608 25.5936 88.8337C24.6424 89.9054 23.7022 90.5476 22.6033 90.67C21.5694 90.7725 20.5463 90.4456 19.5144 89.6241C18.5672 88.8478 18.055 87.8677 18.0823 86.7939C18.1294 85.7851 18.5663 84.6573 19.4525 83.6055ZM24.457 87.9022C25.1879 87.0397 25.5291 86.2963 25.5906 85.5672C25.6521 84.8382 25.3238 84.2281 24.6509 83.6522C23.9978 83.1413 23.3591 82.9101 22.6247 83.0632C21.8903 83.2164 21.1901 83.7143 20.5241 84.5569C19.7931 85.4193 19.4519 86.1627 19.3904 86.8918C19.3289 87.6208 19.6572 88.2309 20.3103 88.7419C21.7211 89.8738 23.06 89.6071 24.457 87.9022Z" fill="white"/>
<path d="M11.7574 81.1957C11.5283 80.9104 11.3642 80.6054 11.2 80.3004L12.3351 79.5987C12.4993 79.9037 12.6436 80.1438 12.8727 80.429C13.0765 80.864 13.4355 81.1095 13.9046 81.2505C14.3737 81.3914 14.8032 81.4023 15.2777 81.3285C15.7523 81.2546 16.2323 80.966 16.6474 80.6973L20.3091 77.8037L21.2255 78.9445L14.3623 84.3781L13.6552 83.4575L14.8012 82.3263L14.7813 82.2614C14.1119 82.3947 13.5128 82.2934 13.0437 82.1525C12.4898 81.9665 12.046 81.6758 11.7574 81.1957Z" fill="white"/>
<path d="M12.7929 64.1166L7.66438 66.3925C6.40481 66.9191 6.0185 67.7474 6.48562 68.8123C6.78861 69.5721 7.2721 69.9928 7.82601 70.1788C8.37993 70.3649 9.11435 70.2117 10.0689 69.8492L14.5226 67.9214L15.0691 69.2462L9.9405 71.5221C9.31071 71.7854 8.91548 72.1192 8.68984 72.5432C8.4642 72.9672 8.53809 73.4419 8.78157 74.0068C9.08455 74.7667 9.56805 75.1873 10.1869 75.3536C10.8058 75.5198 11.6052 75.3468 12.6049 74.8995L16.7337 73.0708L17.2802 74.3957L9.22288 77.7787L8.75576 76.7138L9.76094 76.0518L9.74111 75.9869C9.22687 75.9308 8.80288 75.705 8.42402 75.3945C8.04516 75.084 7.71142 74.6887 7.46794 74.1237C6.94131 72.8639 6.98843 71.8551 7.73922 71.0577L7.71939 70.9927C7.20515 70.9366 6.7162 70.7307 6.25254 70.375C5.78888 70.0194 5.50027 69.5392 5.25679 68.9743C4.84918 68.1043 4.80604 67.2651 5.03713 66.6263C5.33319 65.9677 5.9486 65.4247 6.94832 64.9774L12.1418 62.6817L12.7929 64.1166Z" fill="white"/>
<path d="M8.9514 55.4871C9.77062 55.3791 10.4093 55.6103 10.9975 56.141C11.5206 56.6916 11.9084 57.4966 12.0309 58.5957C12.1732 59.7598 12.1712 60.6838 11.895 61.4074L10.6012 61.5892C10.928 60.5661 10.9949 59.6223 10.867 58.7379C10.7986 58.0485 10.5749 57.5485 10.261 57.2182C9.96698 56.9528 9.64763 56.8372 9.23802 56.8912C8.89337 56.9254 8.60823 57.1545 8.42772 57.4937C8.29234 57.7482 8.12621 58.3671 7.88966 59.2207C7.71807 60.0544 7.48698 60.6932 7.30647 61.0324C7.12597 61.3716 6.92562 61.6458 6.64048 61.875C6.35534 62.1041 6.03053 62.2032 5.68588 62.2374C4.99659 62.3058 4.37771 62.1395 3.85455 61.589C3.41618 61.0835 3.1132 60.3237 2.94559 59.3094C2.79782 58.3601 2.84494 57.3513 3.14645 56.4779L4.31924 56.8302C4.10253 57.7487 3.9959 58.5626 4.14913 59.2971C4.26268 59.9017 4.38169 60.2916 4.61079 60.5768C4.8399 60.862 5.09429 60.9974 5.4191 60.8983C5.76375 60.8641 5.98393 60.6548 6.11931 60.4004C6.31965 60.1261 6.46595 59.4422 6.72779 58.4389C6.91921 57.6701 7.04021 57.136 7.26585 56.712C7.42652 56.3078 7.69183 56.0137 7.93184 55.8694C8.21698 55.6403 8.5418 55.5411 8.9514 55.4871Z" fill="white"/>
</svg>
