<svg width="99" height="99" viewBox="0 0 99 99" fill="none" xmlns="http://www.w3.org/2000/svg">
<g clip-path="url(#clip0_1_688)">
<path d="M1.08519 60.3709C0.98017 59.9839 0.910156 59.6321 0.910156 59.2803L2.31044 59.0692C2.31044 59.421 2.38045 59.7377 2.45047 60.0543C2.5905 60.5116 2.83555 60.9338 3.18562 61.2505C3.57069 61.5671 3.99078 61.8134 4.51588 61.8837C5.04099 61.9893 5.5661 61.9541 6.12621 61.8134L10.8522 60.5116L11.2722 61.9541L2.41546 64.4168L2.1004 63.2206L3.67571 62.6225L3.64071 62.5522C2.97557 62.3763 2.41546 62.0948 1.96037 61.7078C1.54028 61.3912 1.22522 60.9338 1.08519 60.3709Z" fill="white"/>
<path d="M9.48681 51.8923C9.59183 53.2644 9.27676 54.3902 8.50661 55.2345C7.73645 56.0789 6.61623 56.5714 5.18094 56.677C3.71064 56.7825 2.5204 56.5362 1.57521 55.8678C0.630017 55.1993 0.139918 54.2495 0.0348971 53.0181C-0.0701241 51.8571 0.24494 50.9072 0.945081 50.1684C1.64522 49.4296 2.62542 49.0074 3.88568 48.9019L4.79586 48.8315L5.28596 55.129C6.33617 55.0234 7.10633 54.6716 7.59643 54.1439C8.08652 53.581 8.29657 52.8774 8.22655 51.9275C8.19155 51.435 8.12153 50.9776 7.9815 50.5202C7.87648 50.0981 7.66644 49.5703 7.35138 49.0074L8.68164 48.9019C8.92669 49.3944 9.13674 49.8518 9.24176 50.3092C9.34678 50.7665 9.4518 51.2942 9.48681 51.8923ZM1.26014 52.9477C1.33016 53.6866 1.61022 54.2143 2.10031 54.6013C2.59041 54.9883 3.25555 55.1642 4.09572 55.1993L3.71064 50.5202C2.87047 50.5906 2.20534 50.8369 1.82026 51.259C1.36517 51.6812 1.19013 52.2441 1.26014 52.9477Z" fill="white"/>
<path d="M7.45619 40.4233C8.29636 40.5288 8.92649 40.951 9.31156 41.6546C9.69664 42.3582 9.80166 43.2729 9.66164 44.4339C9.52161 45.6301 9.20654 46.58 8.71644 47.2484L7.35117 47.0725C7.9813 46.1226 8.33137 45.1727 8.43639 44.258C8.54141 43.484 8.47139 42.9211 8.29636 42.5693C8.08632 42.1823 7.80626 41.9712 7.38618 41.936C7.0361 41.9009 6.68603 42.0064 6.40598 42.323C6.12592 42.6397 5.74084 43.1674 5.32076 43.9766C4.86567 44.7857 4.51559 45.3838 4.23554 45.7004C3.95548 46.0171 3.67543 46.2282 3.36036 46.3689C3.0453 46.5096 2.69523 46.5448 2.24013 46.4744C1.50499 46.3689 0.944873 45.9819 0.594802 45.3134C0.244732 44.645 0.13971 43.7655 0.279739 42.71C0.419767 41.6546 0.734831 40.7047 1.25994 39.8604L2.38016 40.5288C1.89006 41.4083 1.575 42.2175 1.46998 42.9563C1.39996 43.5896 1.43497 44.0821 1.575 44.3987C1.71503 44.7505 1.99509 44.9265 2.31015 44.9968C2.62521 45.032 2.94028 44.9264 3.18533 44.6802C3.43038 44.4339 3.81545 43.8358 4.34056 42.8508C4.72564 42.112 5.0407 41.5842 5.35576 41.2676C5.63582 40.951 5.95088 40.7047 6.26595 40.564C6.65103 40.4233 7.0361 40.3881 7.45619 40.4233Z" fill="white"/>
<path d="M8.64683 30.0448C10.0471 30.5373 11.0273 31.3113 11.5874 32.2964C12.1125 33.3166 12.1825 34.4424 11.7274 35.709C11.4474 36.483 11.0273 37.1162 10.4322 37.6088C9.83707 38.1013 9.17193 38.3828 8.36677 38.4531C7.56161 38.5235 6.72144 38.4179 5.81125 38.1013C4.41097 37.6088 3.43077 36.87 2.90566 35.8497C2.38056 34.8294 2.31054 33.7388 2.76564 32.4371C3.18572 31.2058 3.95588 30.3614 5.00609 29.9392C6.0563 29.5171 7.24654 29.5523 8.64683 30.0448ZM6.30135 36.6237C7.38657 37.0107 8.29675 37.081 8.9969 36.87C9.69704 36.6237 10.2221 36.096 10.5022 35.2516C10.7823 34.4073 10.7472 33.7036 10.3272 33.0704C9.90708 32.4371 9.17193 31.9094 8.08671 31.5224C7.00149 31.1354 6.09131 31.065 5.39117 31.3113C4.69103 31.5576 4.20093 32.0853 3.88586 32.9297C3.32575 34.6184 4.13091 35.8497 6.30135 36.6237Z" fill="white"/>
<path d="M6.93114 23.7823L11.8671 27.0541C12.4973 27.4763 13.0224 27.617 13.5125 27.5467C14.0026 27.4763 14.4227 27.1245 14.8077 26.5616C15.3328 25.7876 15.4729 25.0488 15.2978 24.4156C15.0878 23.7471 14.5277 23.1138 13.5475 22.4806L9.55667 19.8068L10.3968 18.5403L18.0634 23.6416L17.3632 24.697L16.243 24.2045L16.208 24.2748C16.4181 24.7322 16.4881 25.2599 16.4181 25.8228C16.348 26.3857 16.103 26.9486 15.7529 27.4763C15.1578 28.391 14.4577 28.9539 13.7225 29.1298C12.9874 29.3057 12.1122 29.0595 11.132 28.4262L6.12598 25.084L6.93114 23.7823Z" fill="white"/>
<path d="M16.1033 12.2077C16.3834 11.9262 16.6635 11.6799 16.9435 11.504L17.7837 12.6298C17.5036 12.8057 17.2236 13.0168 16.9785 13.2631C16.6284 13.6149 16.4184 14.0371 16.3134 14.4944C16.2084 14.987 16.2434 15.4795 16.3834 15.972C16.5584 16.4646 16.8385 16.9219 17.2236 17.3441L20.6893 20.8622L19.604 21.9177L13.1978 15.374L14.0729 14.4944L15.3682 15.5851L15.4032 15.5499C15.2282 14.8814 15.1932 14.2482 15.3332 13.6853C15.4382 13.0872 15.7183 12.6298 16.1033 12.2077Z" fill="white"/>
<path d="M27.4455 15.5148C26.3602 16.2888 25.275 16.5351 24.2248 16.2888C23.1396 16.0426 22.1944 15.3038 21.3192 14.0372C20.444 12.7707 20.059 11.5745 20.199 10.4487C20.339 9.32294 20.9691 8.37305 22.0894 7.59906C22.4394 7.35279 22.8595 7.14171 23.2446 6.9658C23.6647 6.78989 24.0148 6.68435 24.3298 6.64917L24.6799 7.95088C23.8747 8.16196 23.2446 8.40823 22.7895 8.72486C22.0194 9.25258 21.6343 9.88584 21.5993 10.6246C21.5643 11.3635 21.8793 12.2078 22.5445 13.1577C23.1746 14.0724 23.8397 14.6353 24.5399 14.8816C25.24 15.1278 25.9401 14.9871 26.6403 14.4946C27.3054 14.0372 27.8655 13.4391 28.2856 12.6652L29.0558 13.7558C28.7757 14.389 28.2156 14.9871 27.4455 15.5148Z" fill="white"/>
<path d="M34.342 11.8911C33.0818 12.4188 31.9265 12.454 30.8763 11.9966C29.8261 11.5393 29.021 10.6246 28.4608 9.25251C27.9007 7.88044 27.7607 6.64909 28.1108 5.55848C28.4258 4.46786 29.196 3.65869 30.3162 3.16615C31.3664 2.70879 32.3816 2.70879 33.2918 3.13097C34.202 3.55314 34.9372 4.36231 35.4273 5.52329L35.7773 6.36764L29.9662 8.83033C30.3862 9.78022 30.9464 10.4135 31.6115 10.7301C32.2766 11.0467 33.0468 11.0116 33.8869 10.6598C34.342 10.4838 34.7621 10.2376 35.1122 9.99131C35.4973 9.74504 35.8824 9.39323 36.3374 8.90069L36.8625 10.132C36.4775 10.519 36.0924 10.8708 35.7073 11.1171C35.3572 11.3986 34.9022 11.6448 34.342 11.8911ZM30.7713 4.36231C30.1062 4.64376 29.6861 5.06594 29.4761 5.66402C29.266 6.2621 29.301 6.96572 29.5461 7.73971L33.8519 5.91029C33.5019 5.1363 33.0818 4.60858 32.5217 4.32713C31.9966 4.08086 31.4014 4.08086 30.7713 4.36231Z" fill="white"/>
<path d="M44.5288 6.33254C44.7038 7.17689 44.4938 7.9157 43.9687 8.4786C43.4436 9.07668 42.6034 9.46367 41.4482 9.70994C40.2579 9.95621 39.2777 9.92103 38.5076 9.70994L38.2275 8.33788C39.3127 8.61932 40.3279 8.68969 41.2381 8.51378C41.9733 8.37306 42.4984 8.12679 42.7784 7.84534C43.0585 7.52871 43.1635 7.17689 43.0935 6.75472C43.0235 6.40291 42.8134 6.12146 42.4284 5.94555C42.0433 5.76964 41.4132 5.59374 40.538 5.45301C39.6278 5.27711 38.9627 5.13638 38.5776 4.96048C38.1925 4.78457 37.8774 4.57348 37.6674 4.32721C37.4574 4.08094 37.2823 3.72913 37.2123 3.30696C37.0723 2.56815 37.2473 1.93489 37.7724 1.37199C38.2975 0.809089 39.0677 0.457277 40.1179 0.246189C41.1331 0.035102 42.1483 0.0702833 43.1285 0.281371L42.8485 1.5479C41.8683 1.33681 40.9931 1.30163 40.2579 1.44235C39.6278 1.5479 39.2077 1.75898 38.9277 2.00525C38.6476 2.25152 38.5426 2.56815 38.6126 2.91996C38.6826 3.23659 38.8576 3.48286 39.1727 3.65877C39.4878 3.83468 40.1879 4.01058 41.2731 4.18649C42.0783 4.32721 42.6734 4.46794 43.0935 4.64384C43.5136 4.81975 43.8287 5.03084 44.0387 5.31229C44.2837 5.55856 44.4588 5.91037 44.5288 6.33254Z" fill="white"/>
<path d="M61.0173 0.63314C61.4023 0.703503 61.7524 0.809046 62.0675 0.949771L61.6124 2.28666C61.2973 2.14593 60.9823 2.04039 60.6672 1.97003C60.1771 1.86448 59.722 1.93485 59.2669 2.11075C58.8118 2.28666 58.4267 2.60329 58.1117 3.02546C57.7966 3.44764 57.5866 3.94018 57.4816 4.50308L56.5714 9.35809L55.1011 9.07664L56.8514 -0.00012207L58.0767 0.246147L57.9366 1.93485H58.0067C58.4618 1.40713 58.9519 1.02013 59.477 0.809046C59.932 0.597959 60.4572 0.527596 61.0173 0.63314Z" fill="white"/>
<path d="M64.8679 11.9966C63.5727 11.4688 62.7325 10.6948 62.3124 9.60423C61.8923 8.54879 61.9624 7.31745 62.4875 5.94538C63.0476 4.57331 63.8177 3.62342 64.7979 3.06052C65.8131 2.5328 66.8983 2.46244 68.0536 2.95497C69.1388 3.37715 69.8389 4.08077 70.224 5.03067C70.6091 5.98056 70.5391 7.036 70.049 8.23216L69.6989 9.07651L63.8527 6.71937C63.5027 7.70444 63.4327 8.54879 63.7127 9.25241C63.9928 9.95604 64.5529 10.4486 65.393 10.8004C65.8481 10.9763 66.3032 11.117 66.7233 11.1874C67.1784 11.2577 67.7035 11.2929 68.3336 11.2929L67.8435 12.5243C67.2834 12.5243 66.7933 12.4891 66.3382 12.4187C65.9182 12.3484 65.4281 12.2076 64.8679 11.9966ZM67.5985 4.08077C66.9334 3.79932 66.3032 3.79932 65.7431 4.08077C65.183 4.36222 64.7279 4.85476 64.3428 5.59357L68.6837 7.35263C68.9988 6.54346 69.0338 5.87502 68.8587 5.31212C68.6487 4.7844 68.2286 4.36222 67.5985 4.08077Z" fill="white"/>
<path d="M75.9652 15.2686C75.4751 15.9722 74.8449 16.3592 74.0398 16.3944C73.2346 16.4296 72.3594 16.1129 71.3792 15.4797C70.364 14.8112 69.6639 14.1076 69.2788 13.404L70.049 12.243C70.6091 13.2281 71.3092 13.9669 72.0794 14.4946C72.7095 14.9168 73.2346 15.1279 73.6547 15.0927C74.0748 15.0927 74.3898 14.9168 74.6349 14.565C74.8449 14.2483 74.8799 13.8965 74.7399 13.5095C74.5999 13.1225 74.2848 12.5596 73.7597 11.7856C73.2346 11.0116 72.8845 10.4487 72.7095 10.0618C72.5345 9.67476 72.4645 9.28777 72.4995 8.97114C72.5345 8.61932 72.6745 8.26751 72.8845 7.9157C73.3046 7.28244 73.8997 6.96581 74.6349 6.93063C75.37 6.89544 76.2102 7.21208 77.0854 7.81016C77.9606 8.40824 78.6607 9.11186 79.1858 9.95621L78.1006 10.6598C77.5405 9.81549 76.9454 9.18222 76.3152 8.76005C75.7901 8.40824 75.335 8.23233 74.95 8.23233C74.5649 8.23233 74.2848 8.33788 74.1098 8.65451C73.9348 8.93596 73.8997 9.25259 74.0048 9.56922C74.1098 9.92103 74.4949 10.5191 75.125 11.4338C75.6151 12.1023 75.9302 12.63 76.1052 13.0522C76.2802 13.4743 76.3502 13.8261 76.3152 14.2131C76.3502 14.5298 76.2102 14.8816 75.9652 15.2686Z" fill="white"/>
<path d="M84.7171 20.9328C83.6319 21.9883 82.5117 22.516 81.3915 22.5512C80.2713 22.5864 79.221 22.129 78.3109 21.1439C77.7508 20.5459 77.3657 19.8774 77.1906 19.1386C77.0156 18.3998 77.0856 17.661 77.3657 16.887C77.6457 16.113 78.1358 15.4094 78.836 14.7409C79.9212 13.6855 81.0064 13.1578 82.1266 13.1226C83.2469 13.0874 84.2621 13.5448 85.2072 14.5299C86.1174 15.4798 86.5025 16.5 86.4325 17.661C86.3625 18.822 85.7674 19.9126 84.7171 20.9328ZM79.8862 15.9371C79.046 16.7463 78.5909 17.5203 78.4509 18.2591C78.3459 18.9979 78.5909 19.7015 79.186 20.3348C79.7812 20.968 80.4813 21.2495 81.2164 21.1439C81.9516 21.0736 82.7568 20.6162 83.5969 19.807C84.4371 18.9979 84.8922 18.2239 84.9972 17.4851C85.1022 16.7463 84.8572 16.0427 84.2271 15.4094C83.0018 14.1429 81.5665 14.3188 79.8862 15.9371Z" fill="white"/>
<path d="M91.0531 22.1641L85.9421 25.1545C85.312 25.5415 84.8919 25.9637 84.7519 26.4211C84.6118 26.8784 84.7168 27.4413 85.0669 28.0394C85.557 28.8486 86.1171 29.3411 86.7823 29.4466C87.4474 29.5522 88.2876 29.3059 89.3028 28.743L93.4336 26.3155L94.2038 27.6172L86.2572 32.2611L85.627 31.1705L86.5722 30.3614L86.5372 30.291C86.0121 30.291 85.522 30.1151 85.0669 29.7985C84.6118 29.4818 84.2268 29.0245 83.8767 28.4616C83.3166 27.5117 83.1415 26.6321 83.3166 25.8933C83.4916 25.1545 84.0867 24.4509 85.1019 23.888L90.318 20.8624L91.0531 22.1641Z" fill="white"/>
<path d="M97.2494 35.5681C97.3894 35.9551 97.4594 36.3069 97.4945 36.6235L96.1292 36.9049C96.0942 36.5531 96.0242 36.2365 95.9191 35.9199C95.7791 35.4625 95.4991 35.0755 95.114 34.7589C94.7289 34.4423 94.2738 34.2664 93.7487 34.196C93.2236 34.1256 92.6985 34.1608 92.1384 34.3719L87.5174 35.8847L87.0273 34.4423L95.7441 31.5222L96.1292 32.7184L94.5889 33.422L94.6239 33.4924C95.324 33.6331 95.8841 33.8794 96.3392 34.2312C96.7593 34.583 97.0744 35.0403 97.2494 35.5681Z" fill="white"/>
<path d="M89.2679 44.2931C89.0579 42.9914 89.3379 41.9008 90.0381 41.0565C90.7382 40.2121 91.8234 39.6844 93.3287 39.4381C94.8691 39.227 96.0943 39.4029 97.0045 40.0362C97.9497 40.6695 98.5098 41.6545 98.7198 43.0266C98.7898 43.484 98.7898 43.9061 98.7898 44.3635C98.7548 44.8209 98.6848 45.1727 98.5798 45.4893L97.2845 45.2079C97.4596 44.3987 97.4946 43.7302 97.4246 43.1673C97.2845 42.2526 96.8995 41.6194 96.2693 41.2676C95.6392 40.9157 94.729 40.8102 93.6088 40.9861C92.5236 41.162 91.6834 41.4786 91.1933 42.0064C90.6682 42.5341 90.4932 43.2377 90.5982 44.0821C90.7032 44.8912 91.0183 45.6652 91.4734 46.3688L90.1431 46.5799C89.688 46.017 89.408 45.243 89.2679 44.2931Z" fill="white"/>
<path d="M89.4432 52.1384C89.5132 50.7663 90.0033 49.7109 90.8785 48.9721C91.7537 48.2333 92.9439 47.9166 94.3792 47.987C95.8495 48.0925 97.0047 48.5147 97.8099 49.2887C98.6501 50.0627 99.0002 51.0829 98.9301 52.3495C98.8601 53.5104 98.44 54.4251 97.6349 55.0584C96.8647 55.6917 95.8145 55.9731 94.5543 55.9028L93.6441 55.8324L94.0291 49.4998C92.9789 49.4646 92.1738 49.6757 91.6137 50.1682C91.0535 50.6256 90.7385 51.3292 90.6685 52.2439C90.6335 52.7365 90.6685 53.1938 90.7035 53.6512C90.7735 54.1085 90.9135 54.6362 91.1235 55.2343L89.7933 55.164C89.6182 54.6362 89.4782 54.1437 89.4082 53.6863C89.4082 53.2994 89.4082 52.7716 89.4432 52.1384ZM97.7399 52.2791C97.7749 51.5403 97.5999 50.9774 97.1448 50.52C96.7247 50.0627 96.0946 49.7812 95.2544 49.6405L94.9743 54.3196C95.8495 54.3548 96.5146 54.2141 96.9697 53.8271C97.4598 53.5104 97.7049 52.9827 97.7399 52.2791Z" fill="white"/>
<path d="M89.8633 63.7834C89.0231 63.5723 88.463 63.0797 88.1829 62.3058C87.9029 61.5669 87.9029 60.6171 88.2179 59.4913C88.533 58.3303 88.9881 57.4507 89.5482 56.8527L90.8785 57.2045C90.1433 58.0488 89.6532 58.9284 89.4082 59.8431C89.1981 60.5819 89.1631 61.1448 89.3381 61.5318C89.4782 61.9188 89.7582 62.2002 90.1433 62.3058C90.4934 62.4113 90.8434 62.3057 91.1585 62.0595C91.4736 61.8132 91.9287 61.3207 92.4538 60.5819C93.0139 59.8431 93.434 59.3153 93.749 59.0339C94.0641 58.7524 94.3792 58.5765 94.7292 58.5062C95.0443 58.4358 95.4294 58.4358 95.8495 58.5414C96.5846 58.7524 97.0747 59.2098 97.3198 59.9134C97.5648 60.6171 97.5648 61.4966 97.2847 62.552C97.0047 63.5723 96.5496 64.4518 95.9195 65.2258L94.9043 64.4166C95.5344 63.6075 95.9545 62.8687 96.1295 62.1298C96.3046 61.5318 96.3396 61.0392 96.2345 60.6874C96.1295 60.3356 95.9195 60.0893 95.5694 59.9838C95.2543 59.8782 94.9393 59.9486 94.6592 60.1597C94.3792 60.3708 93.8891 60.9337 93.2589 61.8132C92.7688 62.4817 92.3838 62.9742 92.0337 63.2556C91.6836 63.5371 91.3686 63.7482 91.0185 63.8185C90.6684 63.8889 90.2833 63.8889 89.8633 63.7834Z" fill="white"/>
<path d="M87.6225 81.1631C87.3775 81.4797 87.1324 81.7612 86.8874 81.9723L85.9072 80.9872C86.1872 80.7761 86.3973 80.5298 86.6073 80.2484C86.8874 79.8614 87.0624 79.404 87.0974 78.9115C87.1324 78.419 87.0274 77.9264 86.8173 77.4691C86.5723 77.0117 86.2222 76.5895 85.7671 76.2377L81.8813 73.2473L82.7915 72.0511L90.108 77.645L89.3729 78.63L87.8676 77.7505L87.8326 77.8209C88.1126 78.4893 88.2176 79.0874 88.1826 79.6503C88.1476 80.2132 87.9376 80.7057 87.6225 81.1631Z" fill="white"/>
<path d="M75.7902 79.5448C76.8054 78.6301 77.8907 78.2079 79.0459 78.3135C80.2011 78.419 81.2513 79.0171 82.2315 80.1077C83.2117 81.1983 83.7368 82.3241 83.7719 83.4851C83.8069 84.6461 83.3518 85.6312 82.4416 86.4403C81.5664 87.2143 80.6562 87.5661 79.641 87.4606C78.6258 87.3551 77.7156 86.8273 76.8405 85.8774L76.2453 85.209L80.9363 80.9872C80.2361 80.2133 79.501 79.7911 78.7658 79.7207C78.0307 79.6504 77.3306 79.9318 76.6304 80.5299C76.2803 80.8465 75.9303 81.1983 75.6852 81.5501C75.4052 81.902 75.1251 82.3945 74.8801 82.9574L74.0049 81.9723C74.2499 81.4798 74.495 81.0224 74.775 80.6706C74.9851 80.354 75.3352 79.967 75.7902 79.5448ZM81.6014 85.5256C82.1265 85.0331 82.4066 84.5054 82.4066 83.8721C82.4066 83.2388 82.1615 82.6056 81.6714 81.9371L78.1707 85.0683C78.7658 85.7015 79.326 86.0533 79.9211 86.1237C80.5162 86.1941 81.0763 86.0182 81.6014 85.5256Z" fill="white"/>
<path d="M67.9485 88.1289C67.5284 87.3901 67.4584 86.6513 67.7734 85.9125C68.0885 85.1737 68.7536 84.5052 69.7688 83.9423C70.819 83.3442 71.7642 83.0276 72.5694 82.9924L73.2695 84.1886C72.1493 84.259 71.1691 84.5404 70.364 85.0329C69.6988 85.4199 69.2787 85.8069 69.1037 86.1939C68.9287 86.5809 68.9287 86.9679 69.1387 87.3197C69.3137 87.6364 69.6288 87.8123 70.0139 87.8826C70.434 87.9178 71.0991 87.8826 71.9743 87.7419C72.8845 87.6012 73.5496 87.5308 73.9697 87.566C74.3898 87.6012 74.7398 87.7067 75.0549 87.8826C75.335 88.0585 75.58 88.34 75.8251 88.6918C76.2101 89.3602 76.2451 90.0287 75.9301 90.6971C75.615 91.4007 74.9849 91.9988 74.0747 92.5265C73.1645 93.0543 72.2193 93.3709 71.2391 93.4764L71.0991 92.1747C72.1143 92.034 72.9195 91.7877 73.5846 91.4007C74.1097 91.0841 74.4948 90.7675 74.6698 90.4157C74.8449 90.0639 74.8449 89.7472 74.6698 89.4658C74.4948 89.1843 74.2497 89.0084 73.8997 88.9381C73.5496 88.9029 72.8145 88.9381 71.7642 89.114C70.9591 89.2547 70.3289 89.2899 69.9089 89.2899C69.4538 89.2547 69.1037 89.1491 68.7886 88.9732C68.4036 88.7622 68.1585 88.4807 67.9485 88.1289Z" fill="white"/>
<path d="M58.987 93.4412C58.5319 91.9988 58.5319 90.7675 59.022 89.712C59.4771 88.6566 60.3522 87.953 61.6475 87.5308C62.4527 87.2845 63.1878 87.2493 63.923 87.4252C64.6581 87.6012 65.2882 87.9881 65.8484 88.5862C66.4085 89.1843 66.8285 89.9231 67.1086 90.8378C67.5637 92.2803 67.5637 93.5116 67.1086 94.5319C66.6535 95.5521 65.7783 96.2909 64.4831 96.6779C63.2578 97.0649 62.1376 96.9594 61.1574 96.3965C60.1422 95.8687 59.4071 94.8485 58.987 93.4412ZM65.6033 91.3655C65.2532 90.2749 64.7631 89.5009 64.168 89.0436C63.5729 88.5862 62.8377 88.5159 61.9626 88.7973C61.1224 89.0788 60.5973 89.5361 60.3172 90.2749C60.0722 90.9786 60.1072 91.8933 60.4573 93.0191C60.8073 94.1097 61.2974 94.8837 61.8926 95.3058C62.5227 95.728 63.2228 95.7984 64.098 95.5169C65.8133 94.954 66.3034 93.582 65.6033 91.3655Z" fill="white"/>
<path d="M55.0661 98.6129L54.681 92.6672C54.646 91.9284 54.436 91.3655 54.0859 91.0489C53.7359 90.6971 53.2107 90.5564 52.5106 90.5916C51.5654 90.6619 50.9003 90.9434 50.5152 91.5063C50.1301 92.0692 49.9551 92.9135 50.0251 94.1097L50.3402 98.9295L48.8349 99.035L48.2397 89.8176L49.465 89.7472L49.7451 90.9434H49.8151C50.0601 90.486 50.4102 90.1342 50.9003 89.8527C51.3904 89.5713 51.9505 89.4306 52.6156 89.3954C53.7359 89.325 54.576 89.5361 55.1711 90.0287C55.7663 90.5212 56.0813 91.3655 56.1864 92.5265L56.5714 98.5777L55.0661 98.6129Z" fill="white"/>
<path d="M40.3632 98.2261C39.9431 98.1557 39.593 98.0853 39.313 97.9798L39.6981 96.6077C40.0131 96.7485 40.3632 96.8188 40.6783 96.854C41.1684 96.9244 41.6235 96.854 42.0785 96.6429C42.5336 96.4318 42.9187 96.1152 43.1988 95.693C43.5138 95.2708 43.6889 94.7431 43.7589 94.1802L44.459 89.29L45.9643 89.5011L44.6691 98.6482L43.4088 98.5075L43.4788 96.8188H43.4088C42.9887 97.3817 42.4986 97.7687 41.9735 98.015C41.4484 98.2261 40.9233 98.2964 40.3632 98.2261Z" fill="white"/>
<path d="M36.1272 87.179C37.3874 87.6012 38.2276 88.3048 38.6827 89.2899C39.1378 90.3101 39.1378 91.5063 38.6477 92.9839C38.1576 94.4615 37.4575 95.4817 36.4773 96.0446C35.4971 96.6075 34.3768 96.6779 33.0466 96.2557C32.6265 96.115 32.2064 95.9391 31.8213 95.728C31.4362 95.5169 31.1212 95.2707 30.9111 95.0596L31.7513 94.0041C32.4164 94.5319 32.9765 94.8485 33.5017 95.0244C34.3768 95.3058 35.112 95.2355 35.7071 94.8133C36.3022 94.3911 36.7923 93.6171 37.1424 92.5265C37.4925 91.4711 37.5275 90.5916 37.2824 89.8879C37.0374 89.1843 36.5123 88.6918 35.7071 88.4455C34.9369 88.1992 34.1318 88.1289 33.2566 88.2344L33.6767 86.9679C34.4118 86.792 35.217 86.8624 36.1272 87.179Z" fill="white"/>
<path d="M29.0557 83.8368C30.2459 84.5404 30.981 85.4199 31.2611 86.5457C31.5412 87.6715 31.2961 88.8677 30.561 90.1342C29.8258 91.4359 28.9156 92.2451 27.8654 92.6673C26.7802 93.0543 25.73 92.9487 24.6448 92.3155C23.6296 91.7526 23.0344 90.9434 22.7894 89.9583C22.5443 88.9732 22.7544 87.9178 23.4195 86.792L23.8746 85.9828L29.3357 89.1492C29.8258 88.2344 30.0008 87.3901 29.8258 86.6865C29.6508 85.9477 29.1607 85.3848 28.3905 84.8922C27.9704 84.646 27.5504 84.4349 27.1303 84.2941C26.7102 84.1534 26.1851 84.0479 25.5199 83.9775L26.1851 82.8165C26.7452 82.8869 27.2353 82.9924 27.6554 83.1332C28.0405 83.3091 28.5306 83.5553 29.0557 83.8368ZM25.2399 91.26C25.87 91.6118 26.4651 91.7174 27.0603 91.5063C27.6554 91.2952 28.1805 90.873 28.6706 90.2046L24.6098 87.8474C24.1897 88.5863 24.0496 89.2547 24.1547 89.8528C24.2597 90.4509 24.6448 90.9082 25.2399 91.26Z" fill="white"/>
<path d="M18.5188 79.017C19.0789 78.3838 19.779 78.1023 20.5842 78.1727C21.3894 78.243 22.1945 78.6652 23.0697 79.4392C23.9799 80.2484 24.575 81.0575 24.8551 81.7963L23.9449 82.8166C23.5248 81.7611 22.9647 80.952 22.2645 80.3187C21.7044 79.8262 21.2143 79.5447 20.7942 79.4744C20.3742 79.4392 20.0241 79.5447 19.744 79.8614C19.499 80.1428 19.429 80.4594 19.499 80.8816C19.569 81.3038 19.814 81.9019 20.2341 82.711C20.6542 83.5554 20.9343 84.1535 21.0393 84.5757C21.1443 84.9978 21.1443 85.3496 21.0743 85.7015C21.0043 86.0181 20.8293 86.3699 20.5492 86.6865C20.0591 87.2494 19.429 87.4957 18.6588 87.3902C17.9237 87.3198 17.1535 86.8976 16.3483 86.194C15.5782 85.4904 14.9831 84.6812 14.563 83.7665L15.7532 83.2036C16.1733 84.1183 16.6984 84.8219 17.2585 85.3145C17.7136 85.7366 18.1337 85.9829 18.5188 86.0533C18.9039 86.1236 19.1839 86.0181 19.429 85.7718C19.639 85.5255 19.744 85.2089 19.674 84.8571C19.604 84.5053 19.3239 83.8368 18.8338 82.8518C18.4488 82.113 18.2037 81.5501 18.0987 81.1279C17.9937 80.7057 17.9587 80.3187 18.0637 79.9669C18.0287 79.6855 18.2037 79.3688 18.5188 79.017Z" fill="white"/>
</g>
<defs>
<clipPath id="clip0_1_688">
<rect width="99" height="99" fill="white"/>
</clipPath>
</defs>
</svg>
