<svg width="100" height="100" viewBox="0 0 100 100" fill="none" xmlns="http://www.w3.org/2000/svg">
<g clip-path="url(#clip0_2_5231)">
<path d="M13.6594 30.9766C13.718 30.8568 13.7767 30.6771 13.8353 30.4374C13.8939 30.2576 13.9525 30.0779 13.9525 29.9581L14.7731 30.3775C14.7731 30.4973 14.7145 30.6771 14.6559 30.9167C14.5973 31.1564 14.5387 31.3961 14.4214 31.5758C13.7767 32.894 12.8388 33.1935 11.4906 32.5345L7.68053 30.6771L7.2116 31.6357L6.68405 31.3961V30.2576L5.51172 29.1192L5.8048 28.4602L7.27022 29.1792L8.20808 27.2618L9.02872 27.6813L8.20808 29.5986L11.9595 31.456C12.3112 31.6357 12.6629 31.6956 12.956 31.6357C13.2491 31.5758 13.4836 31.3361 13.6594 30.9766Z" fill="white"/>
<path d="M17.1745 26.9624C16.5883 27.8611 15.8263 28.4003 14.947 28.5801C14.0678 28.6999 13.1299 28.4603 12.1921 27.8012C11.2542 27.1421 10.6094 26.3632 10.3749 25.4645C10.1405 24.5657 10.2577 23.7269 10.8439 22.8881C11.3714 22.1092 12.0162 21.6897 12.7782 21.5699C13.5402 21.4501 14.3609 21.6897 15.1815 22.229L15.7677 22.6484L12.9541 26.8425C13.6575 27.3219 14.3023 27.5016 14.8298 27.3818C15.416 27.3219 15.8849 26.9624 16.2952 26.3033C16.5297 26.0037 16.7055 25.6442 16.8228 25.3446C16.94 24.9851 17.0572 24.5657 17.1745 24.0864L18.0537 24.6856C17.9951 25.105 17.8779 25.5244 17.702 25.824C17.6434 26.1835 17.4676 26.5429 17.1745 26.9624ZM11.6645 23.4273C11.3714 23.9066 11.2542 24.386 11.3714 24.8653C11.4887 25.3446 11.7817 25.824 12.3093 26.2434L14.3609 23.1277C13.7747 22.7682 13.3058 22.5885 12.8368 22.6484C12.3679 22.7083 11.9576 22.948 11.6645 23.4273Z" fill="white"/>
<path d="M21.3964 18.5739C21.8653 19.0533 22.0998 19.5925 21.9826 20.2516C21.8653 20.9107 21.5722 21.5698 20.9275 22.2288C20.2827 22.9478 19.6379 23.3672 19.0517 23.6069L18.2897 22.828C19.1103 22.5284 19.8137 22.109 20.2827 21.5698C20.693 21.1503 20.9275 20.7309 20.9861 20.4313C21.0447 20.0719 20.9275 19.8322 20.693 19.5925C20.4585 19.4128 20.2241 19.2929 19.8724 19.3529C19.5207 19.4128 19.0517 19.5925 18.4069 19.8921C17.7622 20.1917 17.2346 20.4313 16.9415 20.4913C16.5898 20.5512 16.2967 20.5512 16.0623 20.4913C15.8278 20.4313 15.5347 20.2516 15.3003 20.0119C14.8899 19.5925 14.7141 19.1132 14.7727 18.514C14.8313 17.9149 15.183 17.3157 15.7692 16.6566C16.3554 16.0575 17.0001 15.5781 17.7035 15.2786L18.1139 16.2372C17.4105 16.5368 16.8243 16.9562 16.414 17.3756C16.0623 17.7351 15.8864 18.0946 15.8278 18.3942C15.7692 18.6938 15.8278 18.9334 16.0037 19.1132C16.1795 19.2929 16.414 19.3529 16.7071 19.3529C17.0001 19.2929 17.5277 19.1132 18.2897 18.7537C18.8759 18.4541 19.3448 18.2744 19.6379 18.2145C19.931 18.1545 20.2827 18.1545 20.5758 18.2145C20.9275 18.2145 21.1619 18.3343 21.3964 18.5739Z" fill="white"/>
<path d="M25.3228 16.8364C25.4401 16.7166 25.5573 16.5968 25.7332 16.4769C25.8504 16.2972 25.9676 16.1773 26.0262 16.1174L26.6124 16.8364C26.5538 16.9563 26.4366 17.0761 26.3193 17.2558C26.2021 17.4356 26.0262 17.6153 25.7918 17.7352C24.6781 18.6339 23.6816 18.5141 22.7437 17.3158L20.1059 13.9604L19.2853 14.6195L18.9336 14.1402L19.4612 13.1216L18.875 11.5638L19.4025 11.0845L20.4577 12.4026L22.0989 11.0845L22.6851 11.8035L21.0438 13.1815L23.623 16.5368C23.8574 16.8963 24.1505 17.0761 24.4436 17.136C24.7953 17.1959 25.0884 17.0761 25.3228 16.8364Z" fill="white"/>
<path d="M22.566 8.38841C22.4488 8.14874 22.3902 7.96899 22.4488 7.78924C22.5074 7.6095 22.6246 7.48966 22.7419 7.36983C22.9177 7.25 23.0349 7.25 23.2694 7.25C23.5039 7.25 23.6211 7.36983 23.7383 7.6095C23.8556 7.84916 23.9142 8.02891 23.8556 8.20866C23.797 8.38841 23.6797 8.50824 23.5625 8.62807C23.3866 8.7479 23.2108 8.7479 23.0349 8.7479C22.8591 8.7479 22.7419 8.62807 22.566 8.38841ZM28.6621 15.5783L27.6657 16.2374L23.7383 10.0661L24.7348 9.40698L28.6621 15.5783Z" fill="white"/>
<path d="M38.6294 10.725L36.8709 6.29119C36.4606 5.2127 35.7572 4.85321 34.8779 5.2127C34.2331 5.45237 33.8814 5.87178 33.7056 6.35111C33.5884 6.83044 33.647 7.48951 33.9401 8.20851L35.4641 11.9832L34.3504 12.4626L32.5919 8.08868C32.3574 7.54943 32.1229 7.18993 31.7712 7.01019C31.4195 6.83044 31.0678 6.83044 30.5989 7.01019C29.9541 7.24985 29.6024 7.66926 29.4852 8.14859C29.368 8.62792 29.4852 9.34691 29.8369 10.2457L31.2437 13.7807L30.13 14.26L27.375 7.4296L28.2542 7.0701L28.7818 7.90893H28.8404C28.899 7.48951 29.0749 7.13002 29.3093 6.77052C29.6024 6.41102 29.9541 6.17136 30.3644 5.99161C31.4195 5.5722 32.2402 5.63211 32.885 6.29119H32.9436C33.0022 5.81186 33.178 5.45237 33.4711 5.09287C33.7642 4.73337 34.1159 4.43379 34.6435 4.25404C35.4055 3.95446 36.0503 3.89455 36.5778 4.13421C37.1054 4.37388 37.5743 4.91312 37.926 5.81186L39.6845 10.2457L38.6294 10.725Z" fill="white"/>
<path d="M47.128 5.51242C47.3039 6.71074 47.128 7.6694 46.6591 8.44831C46.1902 9.22722 45.3695 9.64663 44.3731 9.82638C43.7283 9.94621 43.1421 9.82638 42.6146 9.58671C42.087 9.34705 41.6181 8.98755 41.2664 8.44831C40.9147 7.90906 40.6802 7.24998 40.563 6.47107C40.3871 5.27275 40.563 4.31409 41.0319 3.53519C41.5009 2.81619 42.2629 2.33686 43.318 2.15711C44.3145 2.03728 45.1937 2.21703 45.8385 2.81619C46.5419 3.47527 46.9522 4.37401 47.128 5.51242ZM41.7353 6.29133C41.8525 7.19007 42.1456 7.90906 42.5559 8.32847C42.9663 8.74789 43.5524 8.92764 44.1972 8.8078C44.9006 8.68797 45.3696 8.38839 45.6626 7.84915C45.9557 7.3099 46.0143 6.59091 45.8971 5.69217C45.7799 4.79342 45.4868 4.13435 45.0765 3.71493C44.6662 3.29552 44.08 3.17569 43.3766 3.2356C42.0284 3.41535 41.5008 4.43393 41.7353 6.29133Z" fill="white"/>
<path d="M53.9863 9.40683L54.2208 4.67346C54.2794 4.0743 54.1621 3.59497 53.8691 3.29539C53.576 2.99581 53.2243 2.81606 52.6381 2.81606C51.8761 2.75614 51.3485 2.93589 50.9969 3.3553C50.6452 3.77472 50.4107 4.43379 50.4107 5.39245L50.2348 9.22708L49.0625 9.16717L49.4728 1.79749H50.4107L50.5279 2.81606H50.5865C50.821 2.45656 51.1727 2.2169 51.583 2.03715C51.9933 1.8574 52.4623 1.79749 52.9312 1.79749C53.8104 1.8574 54.4552 2.09707 54.8655 2.5764C55.2759 3.05572 55.4517 3.7148 55.3931 4.67346L55.1586 9.46675L53.9863 9.40683Z" fill="white"/>
<path d="M58.2075 10.1256L57.0352 9.88598L58.3833 2.63613L59.5557 2.8758L58.2075 10.1256ZM58.6764 0.658903C58.735 0.419239 58.8523 0.23949 58.9695 0.119658C59.0867 -0.000174215 59.3212 -0.000174215 59.4971 0.0597419C59.6729 0.119658 59.8488 0.179574 59.966 0.359322C60.0832 0.479155 60.0832 0.718819 60.0832 0.958484C60.0246 1.19815 59.9074 1.3779 59.7901 1.49773C59.6143 1.61756 59.4384 1.61756 59.2626 1.61756C59.0867 1.55764 58.9109 1.49773 58.7937 1.31798C58.6764 1.07832 58.6178 0.898567 58.6764 0.658903Z" fill="white"/>
<path d="M64.4207 11.9234L64.5379 10.8449H64.4793C64.0104 11.1445 63.5415 11.3242 63.1898 11.3841C62.7794 11.444 62.3691 11.3841 61.8416 11.2044C61.1382 10.9647 60.6692 10.6052 60.4348 10.1259C60.1417 9.64656 60.1417 9.0474 60.3762 8.38832C60.8451 6.95033 62.1933 6.59084 64.4207 7.24991L65.593 7.60941L65.6516 7.19C65.8275 6.65075 65.8275 6.23134 65.7103 5.87184C65.593 5.51234 65.2413 5.27268 64.7724 5.15285C64.4207 5.03302 64.069 4.9731 63.7173 4.9731C63.3656 4.9731 63.0139 4.9731 62.6622 5.03302L62.6036 4.07436C63.0139 4.01444 63.4242 3.95453 63.8932 4.01444C64.3621 4.07436 64.7724 4.13427 65.1827 4.25411C66.0033 4.55369 66.5895 4.91318 66.824 5.45243C67.1171 5.99167 67.1171 6.65075 66.824 7.42966L65.3 12.2229L64.4207 11.9234ZM62.3691 10.3056C63.0139 10.5453 63.5415 10.4854 64.0104 10.3056C64.4793 10.066 64.831 9.64656 65.0069 8.98748L65.1827 8.3284L64.1276 8.02882C63.307 7.78916 62.7208 7.72924 62.3105 7.84907C61.9002 7.96891 61.6071 8.26849 61.4313 8.74782C61.314 9.10731 61.314 9.40689 61.4899 9.70647C61.6657 10.0061 61.9588 10.1858 62.3691 10.3056Z" fill="white"/>
<path d="M68.0551 13.6011L67 13.0619L71.4549 3.65503L72.51 4.19427L68.0551 13.6011Z" fill="white"/>
<path d="M74.8536 15.3984C74.5019 15.9975 73.9744 16.2971 73.3882 16.357C72.7434 16.417 72.04 16.1773 71.278 15.698C70.4574 15.1587 69.9298 14.6195 69.5781 14.0802L70.1643 13.1216C70.6332 13.9005 71.1608 14.4996 71.8056 14.8591C72.3331 15.1587 72.7434 15.3385 73.0365 15.3385C73.3882 15.3385 73.6227 15.1587 73.7985 14.9191C73.9744 14.6794 73.9744 14.3798 73.8571 14.0802C73.7399 13.7806 73.4468 13.3013 73.0365 12.7022C72.6262 12.103 72.3331 11.6237 72.2159 11.3241C72.0986 11.0245 72.04 10.7249 72.04 10.4253C72.04 10.1258 72.1573 9.8861 72.3331 9.58652C72.6262 9.04728 73.0951 8.80761 73.6813 8.7477C74.2675 8.68778 74.9122 8.92744 75.6156 9.40677C76.319 9.8861 76.8466 10.4253 77.3155 11.0844L76.4949 11.6836C76.026 11.0245 75.557 10.5452 75.0881 10.1857C74.6778 9.8861 74.3261 9.76627 74.033 9.76627C73.7399 9.76627 73.5054 9.8861 73.3882 10.1258C73.271 10.3654 73.2124 10.6051 73.3296 10.8448C73.4468 11.1443 73.7399 11.6237 74.2088 12.2827C74.6192 12.822 74.8536 13.2414 74.9709 13.541C75.0881 13.8406 75.1467 14.1401 75.1467 14.4397C75.1467 14.7992 75.0881 15.0988 74.8536 15.3984Z" fill="white"/>
<path d="M83.9993 26.7226C84.1165 26.8425 84.2338 26.9623 84.351 27.1421C84.4682 27.3218 84.6441 27.3817 84.7027 27.4416L83.9407 27.9809C83.8235 27.921 83.7062 27.8011 83.5304 27.6214C83.3545 27.4416 83.1787 27.2619 83.0614 27.0821C82.2408 25.8838 82.4167 24.8652 83.6476 23.9665L87.0474 21.45L86.4612 20.6112L86.9301 20.2517L87.9266 20.8509L89.4507 20.3116L89.861 20.9108L88.5128 21.9294L89.7437 23.6669L88.9817 24.2062L87.7508 22.4686L84.351 24.9851C83.9993 25.2247 83.8235 25.5243 83.7648 25.8239C83.7062 26.1834 83.7648 26.483 83.9993 26.7226Z" fill="white"/>
<path d="M85.8162 31.8755C85.2887 30.9169 85.23 29.9582 85.5231 29.1194C85.8162 28.2805 86.461 27.5615 87.5161 27.0223C88.5712 26.4831 89.5091 26.3033 90.3883 26.4831C91.2676 26.6628 91.9124 27.202 92.3813 28.1008C92.7916 28.9396 92.8502 29.7185 92.6158 30.4974C92.3813 31.2764 91.7365 31.8755 90.8573 32.3548L90.2125 32.7143L87.9264 28.2206C87.223 28.64 86.7541 29.1194 86.5782 29.6586C86.4024 30.1979 86.461 30.797 86.8127 31.4561C86.9886 31.8156 87.1644 32.1152 87.3989 32.4148C87.6333 32.7143 87.9264 33.0139 88.3367 33.3135L87.3989 33.7928C87.0472 33.4932 86.8127 33.2536 86.5782 32.954C86.2265 32.6544 86.0507 32.2949 85.8162 31.8755ZM91.4434 28.5801C91.209 28.0409 90.7986 27.7413 90.3297 27.6215C89.8608 27.5016 89.3332 27.5615 88.6884 27.8012L90.3883 31.1565C90.9745 30.8569 91.3848 30.4375 91.5607 30.0181C91.7365 29.5388 91.7365 29.0595 91.4434 28.5801Z" fill="white"/>
<path d="M90.9748 39.6045C90.33 39.8442 89.7438 39.7243 89.2749 39.3648C88.7474 39.0053 88.3957 38.3463 88.1026 37.4475C87.8095 36.5488 87.7509 35.7099 87.8095 35.1108L88.8646 34.7513C88.7474 35.65 88.806 36.4289 89.0404 37.1479C89.2163 37.7471 89.4508 38.1066 89.7438 38.3463C90.0369 38.526 90.2714 38.5859 90.6231 38.526C90.9162 38.4661 91.092 38.2264 91.2093 37.9268C91.3265 37.6273 91.3851 37.088 91.4437 36.369C91.5023 35.65 91.5609 35.1108 91.6196 34.7513C91.7368 34.4517 91.854 34.1521 92.0299 33.9724C92.2057 33.7926 92.4402 33.6129 92.7919 33.4931C93.3781 33.3133 93.847 33.3732 94.3745 33.7327C94.8435 34.0922 95.1952 34.6914 95.4883 35.5302C95.7227 36.3091 95.84 37.1479 95.7227 37.9268L94.7262 37.807C94.7849 36.9682 94.7262 36.3091 94.5504 35.7099C94.3745 35.2306 94.1987 34.8711 93.9642 34.6914C93.7298 34.5116 93.4953 34.4517 93.2608 34.5116C93.0264 34.5715 92.8505 34.7513 92.7333 35.0509C92.616 35.2905 92.5574 35.8897 92.4988 36.7884C92.4988 37.4475 92.3816 37.9268 92.323 38.2863C92.2057 38.6458 92.0885 38.8855 91.9126 39.1252C91.5609 39.3648 91.3265 39.5446 90.9748 39.6045Z" fill="white"/>
<path d="M90.6208 43.9785C90.6208 44.1582 90.6794 44.338 90.738 44.5177C90.7966 44.6975 90.8553 44.8772 90.9139 44.997L90.0346 45.1768C89.976 45.057 89.9174 44.9371 89.8001 44.6975C89.7415 44.4578 89.6243 44.2181 89.6243 43.9785C89.3898 42.5405 89.976 41.7017 91.4414 41.462L95.6032 40.6831L95.4274 39.6645L96.0135 39.5447L96.6583 40.5033L98.241 40.6831L98.3582 41.4021L96.7169 41.7017L97.0686 43.7987L96.1894 43.9785L95.8377 41.8814L91.7345 42.6603C91.3242 42.7202 91.0311 42.9 90.8552 43.1396C90.6208 43.3194 90.5622 43.619 90.6208 43.9785Z" fill="white"/>
<path d="M90.1524 47.5734L90.0352 46.3751L97.245 45.7759L97.3622 46.9742L90.1524 47.5734ZM99.1794 45.5363C99.4138 45.5363 99.6483 45.5962 99.7655 45.716C99.8828 45.8358 99.9414 46.0156 100 46.1953C100 46.3751 99.9414 46.5548 99.8828 46.6747C99.7655 46.8544 99.5897 46.9143 99.3552 46.9143C99.1207 46.9143 98.8863 46.8544 98.769 46.7346C98.6518 46.6147 98.5346 46.435 98.5346 46.2552C98.5346 46.0755 98.5932 45.8958 98.6518 45.716C98.7104 45.5363 98.9449 45.5962 99.1794 45.5363Z" fill="white"/>
<path d="M89.5665 58.8375L94.1972 59.3768C95.3109 59.4966 95.9557 59.0772 96.0729 58.0586C96.1316 57.3996 96.0143 56.8603 95.6626 56.5008C95.3109 56.1413 94.7248 55.9016 93.9041 55.8417L89.9182 55.4223L90.0354 54.224L94.6661 54.7632C95.2523 54.8232 95.6626 54.7632 95.9557 54.5236C96.2488 54.2839 96.4246 53.9244 96.4833 53.4451C96.5419 52.786 96.4246 52.2468 96.0143 51.8873C95.604 51.5278 95.0178 51.2881 94.08 51.1683L90.3285 50.7489L90.4458 49.5505L97.6556 50.3294L97.5384 51.2881L96.5419 51.348V51.4079C96.8936 51.6476 97.128 52.0071 97.2453 52.3666C97.4211 52.786 97.4797 53.2054 97.4211 53.6848C97.3039 54.8232 96.835 55.5422 95.9557 55.7818V55.8417C96.3074 56.1413 96.6005 56.5008 96.7177 56.9202C96.8936 57.3396 96.9522 57.819 96.8936 58.3582C96.835 59.197 96.5419 59.7962 96.0729 60.1557C95.604 60.5152 94.9006 60.635 94.0214 60.5751L89.332 60.0359L89.5665 58.8375Z" fill="white"/>
<path d="M89.9762 68.9637C88.8625 68.5442 88.1005 67.9451 87.6902 67.1063C87.2799 66.3274 87.2212 65.3687 87.6316 64.41C87.866 63.8109 88.2177 63.2716 88.6867 62.9121C89.1556 62.5526 89.6831 62.313 90.3279 62.2531C90.9727 62.1931 91.6175 62.313 92.3209 62.5526C93.4346 62.9721 94.1966 63.5712 94.6069 64.3501C95.0172 65.129 95.0172 66.0278 94.6655 67.0463C94.3138 68.005 93.7277 68.6641 92.907 69.0236C92.0278 69.443 91.0899 69.3831 89.9762 68.9637ZM91.8519 63.751C90.9727 63.4514 90.2693 63.3316 89.7418 63.5113C89.1556 63.691 88.7453 64.1105 88.5108 64.7695C88.2763 65.4286 88.335 66.0278 88.628 66.5071C88.9211 67.0463 89.5073 67.4058 90.3865 67.7653C91.2658 68.0649 91.9692 68.1248 92.4967 67.9451C93.0243 67.7653 93.4346 67.3459 93.6691 66.6869C94.1966 65.3687 93.6104 64.41 91.8519 63.751Z" fill="white"/>
<path d="M83.3518 73.2774L87.2791 75.7339C87.8067 76.0335 88.217 76.1533 88.6273 76.0934C89.0376 76.0335 89.3307 75.7339 89.6238 75.2546C90.0341 74.5955 90.0927 74.0563 89.9169 73.517C89.741 72.9778 89.2721 72.4985 88.4515 72.0191L85.2276 70.0419L85.8724 69.0233L92.0271 72.8579L91.5582 73.6968L90.6203 73.3373L90.5617 73.3972C90.7375 73.7567 90.7961 74.1761 90.7961 74.6554C90.7375 75.1348 90.6203 75.5542 90.3272 75.9736C89.8583 76.7525 89.3307 77.2318 88.7446 77.3517C88.1584 77.4715 87.455 77.3517 86.693 76.8723L82.6484 74.3559L83.3518 73.2774Z" fill="white"/>
<path d="M80.7734 76.7526L81.5355 75.7939L87.104 80.4674L86.342 81.4261L80.7734 76.7526ZM88.6867 81.6657C88.8625 81.8455 88.9798 82.0252 88.9798 82.205C88.9798 82.3847 88.9211 82.5645 88.8039 82.6843C88.6867 82.8042 88.5108 82.924 88.335 82.924C88.1591 82.9839 87.9833 82.8641 87.7488 82.7442C87.573 82.5645 87.4557 82.3847 87.4557 82.205C87.4557 82.0252 87.5143 81.8455 87.6316 81.7257C87.7488 81.5459 87.9247 81.486 88.1005 81.4261C88.2764 81.4261 88.4522 81.5459 88.6867 81.6657Z" fill="white"/>
<path d="M76.262 81.486L77.1412 82.0851L77.1998 82.0252C77.1412 81.426 77.1998 80.9467 77.3757 80.5872C77.5515 80.2277 77.786 79.8682 78.1963 79.4488C78.7239 78.9695 79.2514 78.6699 79.779 78.6699C80.3065 78.6699 80.8341 78.9096 81.303 79.4488C82.2995 80.5273 82.0064 81.9054 80.3651 83.583L79.4859 84.4818L79.779 84.7813C80.1307 85.2008 80.541 85.3805 80.8927 85.4404C81.2444 85.4404 81.5961 85.3206 82.0064 84.9611C82.2995 84.7214 82.534 84.4219 82.6512 84.0624C82.827 83.7628 82.9443 83.4033 83.0615 83.1037L83.9408 83.5231C83.8235 83.9425 83.6477 84.302 83.4132 84.7214C83.1787 85.0809 82.8856 85.4404 82.5926 85.74C81.9478 86.3392 81.3616 86.6387 80.7755 86.6987C80.1893 86.7586 79.6031 86.3991 79.0756 85.7999L75.6172 82.0851L76.262 81.486ZM78.6066 80.3476C78.1377 80.8269 77.8446 81.3062 77.8446 81.8455C77.786 82.3847 78.0205 82.864 78.4894 83.4033L78.9583 83.8826L79.7204 83.1037C80.3065 82.5045 80.6582 81.9653 80.7755 81.5459C80.8927 81.1265 80.7755 80.7071 80.4238 80.3476C80.1893 80.048 79.8962 79.9282 79.6031 79.9282C79.1928 79.9282 78.8997 80.048 78.6066 80.3476Z" fill="white"/>
<path d="M73.0938 83.9426L74.0316 83.2236L80.0105 91.7317L79.0727 92.4507L73.0938 83.9426Z" fill="white"/>
<path d="M68.2885 89.2152C67.9368 88.616 67.9368 88.0168 68.1712 87.4177C68.4057 86.8185 68.9332 86.3392 69.7539 85.8599C70.5745 85.3805 71.3365 85.1409 71.9813 85.1409L72.5088 86.0995C71.6296 86.1594 70.8676 86.3392 70.2228 86.6987C69.6953 86.9983 69.3435 87.2978 69.2263 87.5974C69.1091 87.897 69.1091 88.1966 69.2263 88.4962C69.3435 88.7358 69.578 88.9156 69.9297 88.9755C70.2814 89.0354 70.7503 88.9755 71.4537 88.9156C72.1571 88.7957 72.6847 88.7957 73.0364 88.7957C73.3881 88.7957 73.6226 88.9156 73.857 89.0354C74.0915 89.1553 74.2673 89.3949 74.4432 89.6945C74.7363 90.2337 74.7363 90.773 74.5018 91.3122C74.2673 91.8515 73.7398 92.3308 73.0364 92.7502C72.333 93.1696 71.571 93.4093 70.809 93.4692L70.6917 92.4506C71.4537 92.3308 72.1571 92.1511 72.6261 91.8515C73.0364 91.6118 73.3295 91.3721 73.5053 91.0726C73.6226 90.8329 73.6812 90.5333 73.5053 90.2937C73.3881 90.054 73.1536 89.9342 72.9192 89.8742C72.6261 89.8143 72.0985 89.8742 71.2193 89.9941C70.5745 90.1139 70.1056 90.1139 69.7539 90.1139C69.4022 90.1139 69.1091 89.9941 68.8746 89.8742C68.6402 89.7544 68.4643 89.5747 68.2885 89.2152Z" fill="white"/>
<path d="M54.1606 92.0314C53.9847 92.0314 53.8089 92.0913 53.633 92.1512C53.4572 92.2111 53.2813 92.271 53.1641 92.331L53.0469 91.4322C53.1641 91.3723 53.34 91.3124 53.5158 91.2525C53.7503 91.1925 53.9847 91.1326 54.2192 91.0727C55.626 90.893 56.388 91.552 56.6225 93.0499L57.15 97.304L58.1465 97.1841L58.2051 97.7833L57.2673 98.3825L56.9742 100L56.2708 100.12L56.0363 98.4424L53.9847 98.742L53.9261 97.6635L55.9777 97.3639L55.4502 93.1099C55.3915 92.6904 55.2743 92.3909 55.0398 92.1512C54.8054 92.0314 54.5123 91.9715 54.1606 92.0314Z" fill="white"/>
<path d="M48.8878 91.1923C49.9429 91.1923 50.8222 91.5518 51.4083 92.2708C51.9945 92.9298 52.2876 93.8885 52.2876 95.0269C52.2876 96.2252 51.9359 97.124 51.3497 97.8429C50.7636 98.5619 50.0015 98.8615 49.0051 98.8615C48.1258 98.8615 47.3638 98.5619 46.8362 97.9029C46.3087 97.3037 46.0742 96.4649 46.0742 95.4463V94.7273L50.998 94.8471C50.998 94.0083 50.8222 93.3492 50.4119 92.9298C50.0015 92.5104 49.474 92.2708 48.7706 92.2708C48.3603 92.2708 48.0086 92.2708 47.6569 92.3307C47.3052 92.3906 46.8949 92.5104 46.4259 92.6902V91.6117C46.8362 91.4319 47.1879 91.3121 47.5396 91.2522C47.8913 91.1923 48.4189 91.1923 48.8878 91.1923ZM49.0637 97.8429C49.6498 97.8429 50.0602 97.6632 50.4119 97.3037C50.7636 96.9442 50.9394 96.405 50.998 95.7459L47.3052 95.686C47.3052 96.405 47.4224 96.8843 47.7155 97.2438C48.1258 97.6632 48.5361 97.8429 49.0637 97.8429Z" fill="white"/>
<path d="M39.7425 92.1512C39.8597 91.4921 40.2114 91.0128 40.7976 90.7132C41.3837 90.4136 42.0871 90.3537 42.9664 90.5335C43.9042 90.7132 44.6076 91.0128 45.1352 91.4322L44.9593 92.5107C44.2559 91.9715 43.5525 91.612 42.7905 91.4921C42.2044 91.3723 41.7354 91.3723 41.4423 91.5521C41.1493 91.6719 40.9734 91.9116 40.9148 92.271C40.8562 92.5706 40.9734 92.8103 41.1493 93.05C41.3837 93.2896 41.794 93.5892 42.3802 94.0086C43.025 94.428 43.4353 94.7276 43.6698 94.9673C43.9042 95.2069 44.0801 95.4466 44.1387 95.6863C44.1973 95.9259 44.2559 96.2255 44.1973 96.585C44.0801 97.1842 43.787 97.6036 43.2595 97.8433C42.7319 98.0829 42.0285 98.1428 41.2079 97.9631C40.3872 97.7833 39.6838 97.4838 39.0391 97.0643L39.6252 96.1656C40.27 96.585 40.9148 96.8846 41.501 97.0044C41.9699 97.1243 42.3802 97.0643 42.6147 97.0044C42.9078 96.8846 43.0836 96.7048 43.0836 96.4053C43.1422 96.1656 43.0836 95.9259 42.9078 95.6863C42.7319 95.4466 42.263 95.147 41.5596 94.6677C41.032 94.3082 40.6217 94.0685 40.3872 93.769C40.1528 93.4694 39.9769 93.2896 39.8597 92.99C39.7425 92.6905 39.6838 92.5107 39.7425 92.1512Z" fill="white"/>
<path d="M36.2238 89.7543C36.1065 89.6944 35.9307 89.6344 35.6962 89.6344C35.4617 89.5745 35.3445 89.5745 35.2273 89.5745L35.5204 88.6758C35.6376 88.6758 35.8134 88.6758 36.0479 88.6758C36.2824 88.6758 36.5168 88.7357 36.7513 88.8555C38.0995 89.3349 38.5098 90.2336 38.0409 91.6716L36.7513 95.7459L37.7478 96.0455L37.5719 96.5847L36.4582 96.7045L35.5204 98.0227L34.8756 97.783L35.4031 96.1653L33.4102 95.5062L33.7032 94.6075L35.6962 95.2666L36.9858 91.1923C37.103 90.7728 37.103 90.4733 36.9858 90.1737C36.7513 90.0539 36.5168 89.8741 36.2238 89.7543Z" fill="white"/>
<path d="M30.7734 96.7045C30.6561 96.9442 30.5389 97.124 30.3631 97.1839C30.1872 97.2438 30.0114 97.2438 29.8355 97.124C29.6597 97.064 29.5424 96.9442 29.4838 96.7645C29.4252 96.5847 29.4252 96.405 29.5424 96.1653C29.6597 95.9256 29.7769 95.7459 29.9527 95.686C30.1286 95.6261 30.3044 95.6261 30.4803 95.686C30.6561 95.7459 30.7734 95.8657 30.832 96.0455C30.8906 96.2851 30.8906 96.4649 30.7734 96.7045ZM33.2939 87.5973L34.349 88.0766L31.4182 94.8471L30.3631 94.3678L33.2939 87.5973Z" fill="white"/>
<path d="M23.9141 81.7255L21.2763 85.62C20.6316 86.5787 20.6902 87.3576 21.5108 87.8968C22.0384 88.3162 22.5659 88.4361 23.0348 88.2563C23.5038 88.1365 23.9727 87.7171 24.4416 86.9981L26.7277 83.6428L27.7242 84.3019L25.0864 88.1964C24.7347 88.6757 24.6175 89.0951 24.6761 89.4546C24.7347 89.8141 24.9106 90.1736 25.3795 90.4732C25.9071 90.8327 26.4346 90.9525 26.9035 90.8327C27.3725 90.653 27.9 90.1736 28.4276 89.3947L30.5378 86.2192L31.5343 86.9382L27.4311 92.9897L26.6691 92.4504L26.9622 91.6715L26.9035 91.6116C26.5518 91.7914 26.1415 91.8513 25.7312 91.7914C25.3209 91.7314 24.9106 91.5517 24.5003 91.312C23.5624 90.653 23.2107 89.874 23.3865 89.0352L23.3279 88.9753C22.9176 89.1551 22.5073 89.215 22.0384 89.1551C21.5694 89.0951 21.1591 88.9154 20.7488 88.6158C20.104 88.1365 19.6937 87.5972 19.5765 86.9981C19.4592 86.3989 19.6937 85.7398 20.2212 84.9609L22.9176 81.0065L23.9141 81.7255Z" fill="white"/>
<path d="M15.004 77.2917C15.8833 76.5128 16.7625 76.0934 17.6418 76.0934C18.521 76.0934 19.3417 76.5128 20.0451 77.2917C20.4554 77.771 20.7484 78.3702 20.8657 78.9094C20.9829 79.4487 20.9243 80.1078 20.6312 80.7069C20.3968 81.3061 19.9864 81.8453 19.4003 82.3846C18.521 83.1635 17.6418 83.5829 16.7625 83.5829C15.8833 83.5829 15.0626 83.1635 14.3592 82.3247C13.7145 81.5457 13.4214 80.7069 13.48 79.8082C13.6558 78.9094 14.1248 78.0706 15.004 77.2917ZM18.5796 81.4858C19.283 80.8867 19.6347 80.2875 19.752 79.6884C19.8692 79.0892 19.6934 78.5499 19.2244 78.0107C18.7555 77.4715 18.2279 77.2318 17.6418 77.2917C17.0556 77.3516 16.4108 77.6512 15.7074 78.2504C15.004 78.8495 14.6523 79.4487 14.5351 80.0479C14.4178 80.647 14.5937 81.1863 15.0626 81.7255C16.0591 82.804 17.2315 82.7441 18.5796 81.4858Z" fill="white"/>
<path d="M14.4198 69.2631L10.4339 71.6597C9.90634 71.9593 9.61325 72.3188 9.49602 72.6783C9.37879 73.0378 9.4374 73.5171 9.73049 73.9964C10.0822 74.6555 10.5511 75.015 11.0787 75.1349C11.6062 75.1948 12.251 75.015 13.0716 74.5357L16.2955 72.6184L16.8817 73.6369L10.6684 77.3518L10.1994 76.5129L10.9614 75.8538L10.9028 75.7939C10.4925 75.7939 10.0822 75.6741 9.73049 75.3745C9.37879 75.1349 9.02709 74.7754 8.79262 74.3559C8.32369 73.577 8.20645 72.858 8.3823 72.2589C8.55815 71.6597 9.02709 71.1205 9.7891 70.6411L13.8337 68.1846L14.4198 69.2631Z" fill="white"/>
<path d="M4.63027 70.1019C4.3958 70.2217 4.16133 70.2217 4.0441 70.1618C3.86825 70.1019 3.75102 69.9221 3.6924 69.7424C3.63378 69.5626 3.63378 69.3829 3.6924 69.2031C3.75102 69.0234 3.92687 68.9036 4.16133 68.7837C4.3958 68.6639 4.63027 68.6639 4.7475 68.7837C4.92335 68.8436 5.04058 69.0234 5.0992 69.1432C5.15782 69.323 5.15782 69.5027 5.0992 69.6825C5.04058 69.8622 4.92335 69.982 4.63027 70.1019ZM12.6607 65.3086L13.1297 66.447L6.44738 69.263L5.97845 68.1246L12.6607 65.3086Z" fill="white"/>
<path d="M10.7846 59.0174L9.84677 59.4967V59.5566C10.3743 59.7963 10.7846 60.0959 11.0191 60.3955C11.2536 60.6951 11.4294 61.1145 11.6053 61.6537C11.7811 62.3727 11.7225 62.9719 11.488 63.4512C11.2536 63.9305 10.7846 64.29 10.1399 64.4698C8.73306 64.8293 7.67796 63.9305 7.03317 61.6537L6.68147 60.4554L6.27116 60.5752C5.74361 60.6951 5.39191 60.9347 5.21606 61.2343C5.04021 61.5339 4.98159 61.9533 5.15744 62.4326C5.27467 62.7921 5.39191 63.1516 5.62637 63.4512C5.80222 63.7508 6.03669 64.0504 6.21254 64.29L5.45052 64.8892C5.15744 64.5896 4.92297 64.2301 4.68851 63.8107C4.45404 63.3913 4.33681 63.0318 4.21957 62.6124C3.98511 61.7735 4.04372 61.0545 4.27819 60.5153C4.57127 59.9761 5.09882 59.6166 5.91946 59.3769L10.6674 58.1187L10.7846 59.0174ZM10.6088 61.6537C10.4329 60.9946 10.1399 60.5153 9.67092 60.2756C9.20199 59.9761 8.67444 59.9161 8.02966 60.0959L7.38487 60.2756L7.67796 61.2942C7.91242 62.133 8.20551 62.6723 8.49859 62.9719C8.79167 63.2714 9.20199 63.3913 9.72954 63.2714C10.0812 63.1516 10.3157 62.9719 10.4916 62.7322C10.6674 62.3727 10.726 62.0731 10.6088 61.6537Z" fill="white"/>
<path d="M10.1407 55.0031L10.3165 56.2014L0.17585 57.5195L0 56.3212L10.1407 55.0031Z" fill="white"/>
<path d="M7.8536 48.1727C8.557 48.1727 9.08455 48.4124 9.43625 48.8917C9.78795 49.431 10.0224 50.15 10.0224 51.0487C10.0224 52.0074 9.90518 52.7863 9.6121 53.3854H8.557C8.9087 52.5466 9.08455 51.7677 9.08455 51.0487C9.08455 50.4495 8.96732 49.9702 8.79147 49.7305C8.61562 49.431 8.32253 49.3111 8.02945 49.3111C7.73637 49.3111 7.5019 49.431 7.32605 49.7305C7.1502 50.0301 6.91573 50.4495 6.68127 51.1685C6.4468 51.8875 6.21233 52.3669 6.03648 52.6664C5.86063 52.966 5.62617 53.1458 5.3917 53.3255C5.15723 53.4454 4.86415 53.5053 4.57107 53.5652C3.9849 53.5652 3.51597 53.3255 3.16427 52.8462C2.81257 52.3669 2.63672 51.7078 2.63672 50.809C2.63672 49.9702 2.75395 49.1913 3.10565 48.4723L4.04352 48.8917C3.6332 49.5508 3.51597 50.2099 3.51597 50.809C3.51597 51.2884 3.6332 51.7078 3.75043 51.9474C3.92629 52.1871 4.10213 52.3069 4.39522 52.3069C4.62968 52.3069 4.86415 52.1871 5.04 51.9474C5.21585 51.7078 5.45032 51.1685 5.7434 50.3896C5.97787 49.7905 6.15372 49.3111 6.32957 49.0116C6.50542 48.712 6.73988 48.4723 6.97435 48.3525C7.26743 48.2326 7.56052 48.1727 7.8536 48.1727Z" fill="white"/>
</g>
<defs>
<clipPath id="clip0_2_5231">
<rect width="100" height="100" fill="white"/>
</clipPath>
</defs>
</svg>
