<svg width="65" height="66" viewBox="0 0 65 66" fill="none" xmlns="http://www.w3.org/2000/svg">
<path d="M63.9167 52.8008H61.0025C61.825 52.25 62.5134 51.5165 63.0157 50.6557C63.5179 49.795 63.8209 48.8296 63.9016 47.8326C63.9823 46.8355 63.8388 45.8328 63.4817 44.9004C63.1246 43.9679 62.5635 43.1301 61.8406 42.4502C61.1177 41.7704 60.2521 41.2663 59.3091 40.976C58.3662 40.6858 57.3706 40.6171 56.3976 40.775C55.4246 40.9328 54.4997 41.3133 53.6928 41.8875C52.8859 42.4617 52.2181 43.2146 51.74 44.0894C50.9167 41.5046 48.1108 39.6017 44.785 39.6017H30.3333V19.8029C30.3333 19.5112 30.2192 19.2315 30.016 19.0252C29.8129 18.8189 29.5373 18.703 29.25 18.703H22.75C22.4627 18.703 22.1871 18.8189 21.984 19.0252C21.7808 19.2315 21.6667 19.5112 21.6667 19.8029V19.9459L10.6275 12.4334C11.8629 11.77 12.8548 10.7199 13.4561 9.43898C14.0574 8.15803 14.2361 6.71443 13.9656 5.32227C13.6951 3.93011 12.9898 2.66354 11.9545 1.71042C10.9191 0.757293 9.60874 0.168374 8.21773 0.0310045C6.82671 -0.106365 5.42913 0.215133 4.23227 0.947815C3.0354 1.6805 2.103 2.78534 1.57334 4.09848C1.04369 5.41162 0.944996 6.86312 1.2919 8.23771C1.6388 9.61229 2.41282 10.8367 3.49917 11.7295C1.40833 13.2034 0 16.8551 0 21.3319V66H2.16667V55.0007H62.8333V66H65V53.9008C65 53.6091 64.8859 53.3293 64.6827 53.123C64.4795 52.9167 64.204 52.8008 63.9167 52.8008ZM57.4167 42.9015C58.2737 42.9015 59.1115 43.1595 59.8241 43.643C60.5368 44.1264 61.0922 44.8135 61.4201 45.6175C61.7481 46.4214 61.8339 47.3061 61.6667 48.1595C61.4995 49.013 61.0868 49.797 60.4808 50.4123C59.8748 51.0276 59.1026 51.4466 58.2621 51.6164C57.4215 51.7861 56.5502 51.699 55.7584 51.366C54.9666 51.033 54.2898 50.4691 53.8136 49.7455C53.3375 49.022 53.0833 48.1714 53.0833 47.3012C53.0833 46.1343 53.5399 45.0152 54.3525 44.1901C55.1652 43.365 56.2674 42.9015 57.4167 42.9015ZM7.58333 2.20407C8.44039 2.20407 9.27819 2.46211 9.9908 2.94556C10.7034 3.42901 11.2588 4.11615 11.5868 4.92009C11.9148 5.72404 12.0006 6.60867 11.8334 7.46214C11.6662 8.3156 11.2535 9.09955 10.6475 9.71486C10.0414 10.3302 9.26931 10.7492 8.42873 10.919C7.58814 11.0887 6.71685 11.0016 5.92504 10.6686C5.13323 10.3356 4.45645 9.77168 3.9803 9.04815C3.50415 8.32462 3.25 7.47398 3.25 6.60379C3.25 5.43691 3.70655 4.31783 4.5192 3.49272C5.33186 2.66761 6.43406 2.20407 7.58333 2.20407ZM2.16667 21.3319C2.16667 16.6791 4.00833 13.2034 5.655 13.2034H7.87583L21.6667 22.5858V25.5226L14.6575 21.0679C14.4934 20.9637 14.3047 20.9061 14.1112 20.901C13.9177 20.896 13.7264 20.9436 13.5572 21.0391C13.388 21.1345 13.2471 21.2743 13.1491 21.4437C13.0511 21.6132 12.9996 21.8063 13 22.0028V46.2013H8.66667V34.102H6.5V46.2013H2.16667V21.3319ZM21.6667 28.1074V46.2013H15.1667V23.9827L21.6667 28.1074ZM2.16667 52.8008V48.4011H22.75C23.0373 48.4011 23.3129 48.2852 23.516 48.079C23.7192 47.8727 23.8333 47.5929 23.8333 47.3012V20.9029H28.1667V40.7016C28.1667 40.9933 28.2808 41.2731 28.484 41.4794C28.6871 41.6857 28.9627 41.8015 29.25 41.8015H44.785C47.5692 41.8015 49.8333 43.5394 49.8333 45.6733V48.9731C49.8333 51.063 47.5692 52.8008 44.785 52.8008H2.16667ZM51.74 50.513C52.2468 51.4344 52.9638 52.2189 53.8308 52.8008H50.3425C50.98 52.1612 51.459 51.3771 51.74 50.513Z" fill="white"/>
</svg>
