<svg width="46" height="66" viewBox="0 0 46 66" fill="none" xmlns="http://www.w3.org/2000/svg">
<path d="M20.8975 35.1597C22.2087 34.9841 23.468 34.5395 24.5943 33.8546C30.45 33.2992 36.1062 31.4619 41.1501 28.4766C41.3485 28.3592 41.5059 28.185 41.6015 27.9773C41.6972 27.7696 41.7265 27.5381 41.6857 27.3135C41.6449 27.089 41.5358 26.882 41.3729 26.72C41.21 26.558 41.001 26.4486 40.7736 26.4064C37.3506 25.7539 36.7117 22.4686 36.8714 20.5334C36.9137 17.6446 36.2101 14.7927 34.8269 12.2459C33.4436 9.69906 31.4262 7.54099 28.9643 5.97462L30.0026 1.37296C30.0408 1.20602 30.04 1.03269 30 0.86614C29.9601 0.699593 29.8821 0.544227 29.7721 0.411868C29.6621 0.279508 29.5229 0.173643 29.3651 0.10233C29.2073 0.0310166 29.0351 -0.00386501 28.8616 0.000339646H11.7467C11.5732 -0.00386501 11.401 0.0310166 11.2432 0.10233C11.0854 0.173643 10.9462 0.279508 10.8362 0.411868C10.7262 0.544227 10.6482 0.699593 10.6083 0.86614C10.5683 1.03269 10.5674 1.20602 10.6057 1.37296L11.7467 6.63843C9.55865 8.2704 7.79209 10.3885 6.59062 12.8205C5.38916 15.2525 4.7867 17.9298 4.83222 20.6347C4.99196 22.4686 4.353 25.7539 0.930016 26.4064C0.702648 26.4486 0.493658 26.558 0.330762 26.72C0.167866 26.882 0.058762 27.089 0.0179202 27.3135C-0.0229216 27.5381 0.00642823 27.7696 0.102078 27.9773C0.197728 28.185 0.355157 28.3592 0.553487 28.4766C5.59906 31.4584 11.2544 33.2955 17.1093 33.8546C18.2632 34.5511 19.5548 34.9962 20.8975 35.1597ZM18.1362 31.7844C15.2039 30.1305 11.7695 27.014 11.7695 23.7175C11.895 21.2085 11.4842 19.7909 12.1346 16.9669C13.9602 15.9543 16.3563 16.4718 18.8323 18.317C20.8321 19.8108 23.2508 20.6595 25.7581 20.7472C27.2257 20.7383 28.6766 20.4399 30.0254 19.8696V23.6724C30.0254 26.969 26.6024 30.0855 23.6701 31.7394C22.8276 32.2864 21.8863 32.6683 20.8975 32.8645C19.9167 32.6779 18.9801 32.3115 18.1362 31.7844ZM27.4696 2.25054L25.6896 10.1262H14.9757L13.1957 2.25054H27.4696ZM7.2055 20.5334C7.1809 18.3679 7.63221 16.2228 8.52839 14.2457C9.42457 12.2685 10.7444 10.5062 12.397 9.0799L12.9447 11.4989C13.0027 11.7527 13.148 11.9788 13.3561 12.1388C13.5641 12.2988 13.8219 12.3828 14.0857 12.3764H26.6367C26.9004 12.3828 27.1583 12.2988 27.3663 12.1388C27.5743 11.9788 27.7197 11.7527 27.7777 11.4989L28.4965 8.32608C30.4227 9.71832 31.9858 11.542 33.0571 13.6468C34.1283 15.7516 34.677 18.0772 34.6579 20.4322C34.4793 21.8167 34.6853 23.2231 35.254 24.5012C35.8227 25.7793 36.7327 26.8811 37.8869 27.6891C34.9361 29.1849 31.7979 30.2895 28.5535 30.9743C29.6368 30.073 30.5254 28.9661 31.1663 27.7195C31.8072 26.4728 32.1875 25.1119 32.2846 23.7175C32.2161 20.9947 32.4215 20.916 32.1819 17.9569C32.1567 17.7669 32.0827 17.5863 31.9669 17.4324C31.8511 17.2784 31.6973 17.1562 31.5201 17.0773C31.343 16.9984 31.1483 16.9655 30.9546 16.9816C30.7609 16.9977 30.5746 17.0623 30.4134 17.1694C28.8283 18.1246 26.9818 18.5715 25.1283 18.4486C23.2748 18.3257 21.5056 17.6389 20.0645 16.4831C18.0336 15.1329 13.9146 12.7702 10.4231 15.358C10.2585 15.5174 10.1234 15.704 10.0238 15.9093C9.39621 17.1131 9.45326 22.0298 9.46467 23.6724C9.46467 26.4177 11.0963 28.9379 13.2185 30.9293C9.96857 30.2515 6.82558 29.1466 3.87379 27.6441C5.03284 26.8701 5.95567 25.7988 6.54278 24.5458C7.1299 23.2927 7.35904 21.9054 7.2055 20.5334Z" fill="white"/>
<path d="M42.577 47.4009V46.1295H43.718C44.0206 46.1295 44.3108 46.011 44.5248 45.8C44.7387 45.589 44.8589 45.3028 44.8589 45.0044V40.504C44.8589 40.2056 44.7387 39.9194 44.5248 39.7084C44.3108 39.4974 44.0206 39.3789 43.718 39.3789H33.449C33.1464 39.3789 32.8562 39.4974 32.6422 39.7084C32.4282 39.9194 32.308 40.2056 32.308 40.504V45.0044C32.308 45.3028 32.4282 45.589 32.6422 45.8C32.8562 46.011 33.1464 46.1295 33.449 46.1295H34.59V47.4009C33.6109 47.6502 32.7434 48.213 32.1239 49.0011C31.5043 49.7892 31.1677 50.7579 31.167 51.755V64.1311C31.167 64.4295 31.2872 64.7157 31.5012 64.9267C31.7152 65.1377 32.0054 65.2562 32.308 65.2562H44.8589C45.1616 65.2562 45.4518 65.1377 45.6658 64.9267C45.8797 64.7157 45.9999 64.4295 45.9999 64.1311V51.755C45.9992 50.7579 45.6626 49.7892 45.0431 49.0011C44.4235 48.213 43.5561 47.6502 42.577 47.4009ZM34.59 41.6291H42.577V43.8793H34.59V41.6291ZM43.718 63.006H33.449V51.755C33.449 51.1582 33.6894 50.5859 34.1174 50.1639C34.5453 49.7419 35.1258 49.5048 35.731 49.5048C36.0336 49.5048 36.3238 49.3863 36.5378 49.1753C36.7518 48.9643 36.872 48.6781 36.872 48.3797V46.1295H40.295V48.3797C40.295 48.6781 40.4152 48.9643 40.6292 49.1753C40.8431 49.3863 41.1333 49.5048 41.436 49.5048C42.0412 49.5048 42.6216 49.7419 43.0496 50.1639C43.4775 50.5859 43.718 51.1582 43.718 51.755V63.006Z" fill="white"/>
<path d="M40.8642 55.1301H39.7232V54.005C39.7232 53.7066 39.603 53.4204 39.389 53.2094C39.175 52.9984 38.8848 52.8799 38.5822 52.8799C38.2796 52.8799 37.9893 52.9984 37.7754 53.2094C37.5614 53.4204 37.4412 53.7066 37.4412 54.005V55.1301H36.3002C35.9976 55.1301 35.7073 55.2486 35.4934 55.4596C35.2794 55.6706 35.1592 55.9568 35.1592 56.2552C35.1592 56.5536 35.2794 56.8398 35.4934 57.0508C35.7073 57.2617 35.9976 57.3803 36.3002 57.3803H37.4412V58.5054C37.4412 58.8038 37.5614 59.09 37.7754 59.301C37.9893 59.5119 38.2796 59.6305 38.5822 59.6305C38.8848 59.6305 39.175 59.5119 39.389 59.301C39.603 59.09 39.7232 58.8038 39.7232 58.5054V57.3803H40.8642C41.1668 57.3803 41.457 57.2617 41.671 57.0508C41.8849 56.8398 42.0052 56.5536 42.0052 56.2552C42.0052 55.9568 41.8849 55.6706 41.671 55.4596C41.457 55.2486 41.1668 55.1301 40.8642 55.1301Z" fill="white"/>
<path d="M28.4284 37.6347C28.2309 37.4886 27.9907 37.4097 27.7438 37.4097H14.0519C13.805 37.4097 13.5648 37.4886 13.3673 37.6347L6.52129 42.6976C5.66894 43.3253 4.97665 44.1401 4.49934 45.0775C4.02202 46.015 3.77281 47.0492 3.77148 48.0981V64.1308C3.77148 64.4292 3.8917 64.7154 4.10567 64.9264C4.31965 65.1374 4.60987 65.2559 4.91248 65.2559H27.7324C28.035 65.2559 28.3252 65.1374 28.5392 64.9264C28.7532 64.7154 28.8734 64.4292 28.8734 64.1308C28.8734 63.8324 28.7532 63.5462 28.5392 63.3352C28.3252 63.1242 28.035 63.0057 27.7324 63.0057H12.8995V53.1611C12.8995 52.8627 12.7792 52.5765 12.5653 52.3655C12.3513 52.1545 12.0611 52.036 11.7585 52.036C11.4558 52.036 11.1656 52.1545 10.9517 52.3655C10.7377 52.5765 10.6175 52.8627 10.6175 53.1611V63.0057H6.05348V48.0981C6.0548 47.3985 6.22153 46.7088 6.54041 46.0839C6.85929 45.4589 7.32155 44.9158 7.89048 44.4978L14.4284 39.6599H27.3673L28.3371 40.3687C28.4557 40.4706 28.5943 40.5472 28.7444 40.5937C28.8944 40.6403 29.0525 40.6557 29.2089 40.6391C29.3653 40.6225 29.5165 40.5743 29.653 40.4973C29.7895 40.4203 29.9085 40.3164 30.0023 40.1919C30.0962 40.0675 30.1629 39.9253 30.1984 39.7742C30.2339 39.6231 30.2373 39.4664 30.2084 39.314C30.1795 39.1615 30.119 39.0166 30.0307 38.8883C29.9423 38.7601 29.828 38.6512 29.6949 38.5685L28.4284 37.6347Z" fill="white"/>
<path d="M18.6137 7.31334H19.1842V7.87589C19.1842 8.17428 19.3044 8.46046 19.5183 8.67145C19.7323 8.88245 20.0225 9.00099 20.3251 9.00099C20.6278 9.00099 20.918 8.88245 21.132 8.67145C21.3459 8.46046 21.4661 8.17428 21.4661 7.87589V7.31334H22.0366C22.3393 7.31334 22.6295 7.1948 22.8434 6.9838C23.0574 6.77281 23.1776 6.48663 23.1776 6.18824C23.1776 5.88984 23.0574 5.60367 22.8434 5.39267C22.6295 5.18168 22.3393 5.06314 22.0366 5.06314H21.4661V4.50059C21.4661 4.20219 21.3459 3.91602 21.132 3.70502C20.918 3.49403 20.6278 3.37549 20.3251 3.37549C20.0225 3.37549 19.7323 3.49403 19.5183 3.70502C19.3044 3.91602 19.1842 4.20219 19.1842 4.50059V5.06314H18.6137C18.311 5.06314 18.0208 5.18168 17.8068 5.39267C17.5929 5.60367 17.4727 5.88984 17.4727 6.18824C17.4727 6.48663 17.5929 6.77281 17.8068 6.9838C18.0208 7.1948 18.311 7.31334 18.6137 7.31334Z" fill="white"/>
</svg>
