<svg width="65" height="52" viewBox="0 0 65 52" fill="none" xmlns="http://www.w3.org/2000/svg">
<mask id="path-1-inside-1_730_845" fill="white">
<path d="M16.6199 24.9341C16.6199 25.5533 16.4339 26.1585 16.0855 26.6733C15.737 27.1881 15.2418 27.5894 14.6624 27.8263C14.0829 28.0633 13.4454 28.1253 12.8302 28.0045C12.2151 27.8837 11.6501 27.5855 11.2066 27.1477C10.7631 26.7099 10.4611 26.1521 10.3388 25.5449C10.2164 24.9376 10.2792 24.3082 10.5192 23.7362C10.7592 23.1641 11.1656 22.6752 11.6871 22.3312C12.2086 21.9872 12.8217 21.8036 13.4488 21.8036C14.2898 21.8036 15.0964 22.1334 15.6911 22.7205C16.2858 23.3076 16.6199 24.1038 16.6199 24.9341ZM25.0924 21.8036C24.4652 21.8036 23.8521 21.9872 23.3307 22.3312C22.8092 22.6752 22.4027 23.1641 22.1627 23.7361C21.9227 24.3082 21.8599 24.9376 21.9823 25.5449C22.1046 26.1521 22.4066 26.71 22.8501 27.1478C23.2936 27.5856 23.8586 27.8837 24.4738 28.0045C25.0889 28.1253 25.7265 28.0633 26.3059 27.8264C26.8854 27.5894 27.3806 27.1882 27.729 26.6733C28.0775 26.1585 28.2635 25.5533 28.2634 24.9341C28.2634 24.523 28.1814 24.1159 28.0221 23.7361C27.8627 23.3563 27.6291 23.0112 27.3347 22.7205C27.0402 22.4298 26.6906 22.1992 26.3059 22.0419C25.9212 21.8846 25.5088 21.8036 25.0924 21.8036ZM36.736 21.8036C36.1088 21.8036 35.4957 21.9872 34.9742 22.3312C34.4528 22.6752 34.0463 23.1641 33.8063 23.7361C33.5663 24.3082 33.5035 24.9376 33.6258 25.5449C33.7482 26.1521 34.0502 26.7099 34.4937 27.1478C34.9372 27.5856 35.5022 27.8837 36.1173 28.0045C36.7325 28.1253 37.37 28.0633 37.9495 27.8264C38.5289 27.5894 39.0242 27.1882 39.3726 26.6733C39.721 26.1585 39.907 25.5533 39.907 24.9341C39.907 24.1038 39.5729 23.3076 38.9782 22.7205C38.3836 22.1334 37.577 21.8036 36.736 21.8036ZM65 5.30428V28.9138C64.9984 30.2099 64.5168 31.4607 63.6459 32.4307C62.775 33.4006 61.5749 34.0227 60.2717 34.1798L62.1012 41.9906C62.1868 42.3562 62.1534 42.7392 62.0057 43.0849C61.858 43.4307 61.6036 43.7216 61.2786 43.9163C60.9537 44.1109 60.5748 44.1994 60.1959 44.1691C59.8171 44.1387 59.4576 43.9912 59.1686 43.7474L50.1853 36.1652V36.7386C50.1838 38.1449 49.6172 39.4932 48.6099 40.4876C47.6026 41.4821 46.2369 42.0414 44.8123 42.0429H17.1203L5.83067 51.5722C5.54176 51.8161 5.18224 51.9638 4.80334 51.9941C4.42443 52.0245 4.04548 51.9361 3.72048 51.7414C3.39548 51.5467 3.14102 51.2557 2.99334 50.9099C2.84567 50.5641 2.81233 50.1811 2.89806 49.8154L4.72759 42.0046C3.42449 41.8473 2.22457 41.2252 1.35382 40.2553C0.483067 39.2854 0.00156792 38.0346 0 36.7386V13.1298C0.0015084 11.7235 0.568068 10.3752 1.57536 9.38075C2.58266 8.38633 3.94841 7.827 5.37294 7.82551H14.814V5.30428C14.8155 3.89796 15.3821 2.54966 16.3894 1.55523C17.3967 0.56081 18.7624 0.00148913 20.187 0H59.6271C61.0516 0.00148913 62.4173 0.56081 63.4246 1.55523C64.4319 2.54966 64.9985 3.89796 65 5.30428ZM46.5742 13.1298C46.5735 12.6687 46.3877 12.2266 46.0574 11.9006C45.7272 11.5745 45.2794 11.3911 44.8123 11.3905H5.37294C4.90586 11.3911 4.4581 11.5745 4.12783 11.9006C3.79756 12.2266 3.61174 12.6687 3.61111 13.1298V36.7386C3.61174 37.1997 3.79756 37.6417 4.12783 37.9678C4.4581 38.2938 4.90586 38.4773 5.37294 38.4779H6.98947C7.26117 38.4779 7.52937 38.5384 7.77408 38.655C8.01878 38.7715 8.23369 38.9411 8.40277 39.1511C8.57185 39.361 8.69076 39.6059 8.75061 39.8676C8.81047 40.1292 8.80974 40.4008 8.74848 40.6621L7.65175 45.3446L15.2802 38.9054C15.6074 38.6296 16.0236 38.478 16.4538 38.4779H44.8123C45.2794 38.4773 45.7272 38.2938 46.0574 37.9678C46.3877 37.6417 46.5735 37.1997 46.5742 36.7386V13.1298ZM61.3889 5.30428C61.3883 4.84318 61.2024 4.40113 60.8722 4.07508C60.5419 3.74902 60.0941 3.56558 59.6271 3.56496H20.187C19.7199 3.56558 19.2721 3.74902 18.9418 4.07507C18.6116 4.40112 18.4258 4.84316 18.4251 5.30427V7.82551H44.8123C46.2369 7.827 47.6026 8.38633 48.6099 9.38075C49.6172 10.3752 50.1838 11.7235 50.1853 13.1298V31.4742L57.3475 37.5198L56.2508 32.8373C56.1896 32.576 56.1888 32.3044 56.2487 32.0428C56.3085 31.7811 56.4274 31.5362 56.5965 31.3263C56.7656 31.1163 56.9805 30.9467 57.2252 30.8302C57.4699 30.7136 57.7381 30.6531 58.0098 30.6531H59.6271C60.0941 30.6525 60.5419 30.469 60.8722 30.143C61.2024 29.8169 61.3883 29.3749 61.3889 28.9138V5.30428Z"/>
</mask>
<path d="M16.6199 24.9341C16.6199 25.5533 16.4339 26.1585 16.0855 26.6733C15.737 27.1881 15.2418 27.5894 14.6624 27.8263C14.0829 28.0633 13.4454 28.1253 12.8302 28.0045C12.2151 27.8837 11.6501 27.5855 11.2066 27.1477C10.7631 26.7099 10.4611 26.1521 10.3388 25.5449C10.2164 24.9376 10.2792 24.3082 10.5192 23.7362C10.7592 23.1641 11.1656 22.6752 11.6871 22.3312C12.2086 21.9872 12.8217 21.8036 13.4488 21.8036C14.2898 21.8036 15.0964 22.1334 15.6911 22.7205C16.2858 23.3076 16.6199 24.1038 16.6199 24.9341ZM25.0924 21.8036C24.4652 21.8036 23.8521 21.9872 23.3307 22.3312C22.8092 22.6752 22.4027 23.1641 22.1627 23.7361C21.9227 24.3082 21.8599 24.9376 21.9823 25.5449C22.1046 26.1521 22.4066 26.71 22.8501 27.1478C23.2936 27.5856 23.8586 27.8837 24.4738 28.0045C25.0889 28.1253 25.7265 28.0633 26.3059 27.8264C26.8854 27.5894 27.3806 27.1882 27.729 26.6733C28.0775 26.1585 28.2635 25.5533 28.2634 24.9341C28.2634 24.523 28.1814 24.1159 28.0221 23.7361C27.8627 23.3563 27.6291 23.0112 27.3347 22.7205C27.0402 22.4298 26.6906 22.1992 26.3059 22.0419C25.9212 21.8846 25.5088 21.8036 25.0924 21.8036ZM36.736 21.8036C36.1088 21.8036 35.4957 21.9872 34.9742 22.3312C34.4528 22.6752 34.0463 23.1641 33.8063 23.7361C33.5663 24.3082 33.5035 24.9376 33.6258 25.5449C33.7482 26.1521 34.0502 26.7099 34.4937 27.1478C34.9372 27.5856 35.5022 27.8837 36.1173 28.0045C36.7325 28.1253 37.37 28.0633 37.9495 27.8264C38.5289 27.5894 39.0242 27.1882 39.3726 26.6733C39.721 26.1585 39.907 25.5533 39.907 24.9341C39.907 24.1038 39.5729 23.3076 38.9782 22.7205C38.3836 22.1334 37.577 21.8036 36.736 21.8036ZM65 5.30428V28.9138C64.9984 30.2099 64.5168 31.4607 63.6459 32.4307C62.775 33.4006 61.5749 34.0227 60.2717 34.1798L62.1012 41.9906C62.1868 42.3562 62.1534 42.7392 62.0057 43.0849C61.858 43.4307 61.6036 43.7216 61.2786 43.9163C60.9537 44.1109 60.5748 44.1994 60.1959 44.1691C59.8171 44.1387 59.4576 43.9912 59.1686 43.7474L50.1853 36.1652V36.7386C50.1838 38.1449 49.6172 39.4932 48.6099 40.4876C47.6026 41.4821 46.2369 42.0414 44.8123 42.0429H17.1203L5.83067 51.5722C5.54176 51.8161 5.18224 51.9638 4.80334 51.9941C4.42443 52.0245 4.04548 51.9361 3.72048 51.7414C3.39548 51.5467 3.14102 51.2557 2.99334 50.9099C2.84567 50.5641 2.81233 50.1811 2.89806 49.8154L4.72759 42.0046C3.42449 41.8473 2.22457 41.2252 1.35382 40.2553C0.483067 39.2854 0.00156792 38.0346 0 36.7386V13.1298C0.0015084 11.7235 0.568068 10.3752 1.57536 9.38075C2.58266 8.38633 3.94841 7.827 5.37294 7.82551H14.814V5.30428C14.8155 3.89796 15.3821 2.54966 16.3894 1.55523C17.3967 0.56081 18.7624 0.00148913 20.187 0H59.6271C61.0516 0.00148913 62.4173 0.56081 63.4246 1.55523C64.4319 2.54966 64.9985 3.89796 65 5.30428ZM46.5742 13.1298C46.5735 12.6687 46.3877 12.2266 46.0574 11.9006C45.7272 11.5745 45.2794 11.3911 44.8123 11.3905H5.37294C4.90586 11.3911 4.4581 11.5745 4.12783 11.9006C3.79756 12.2266 3.61174 12.6687 3.61111 13.1298V36.7386C3.61174 37.1997 3.79756 37.6417 4.12783 37.9678C4.4581 38.2938 4.90586 38.4773 5.37294 38.4779H6.98947C7.26117 38.4779 7.52937 38.5384 7.77408 38.655C8.01878 38.7715 8.23369 38.9411 8.40277 39.1511C8.57185 39.361 8.69076 39.6059 8.75061 39.8676C8.81047 40.1292 8.80974 40.4008 8.74848 40.6621L7.65175 45.3446L15.2802 38.9054C15.6074 38.6296 16.0236 38.478 16.4538 38.4779H44.8123C45.2794 38.4773 45.7272 38.2938 46.0574 37.9678C46.3877 37.6417 46.5735 37.1997 46.5742 36.7386V13.1298ZM61.3889 5.30428C61.3883 4.84318 61.2024 4.40113 60.8722 4.07508C60.5419 3.74902 60.0941 3.56558 59.6271 3.56496H20.187C19.7199 3.56558 19.2721 3.74902 18.9418 4.07507C18.6116 4.40112 18.4258 4.84316 18.4251 5.30427V7.82551H44.8123C46.2369 7.827 47.6026 8.38633 48.6099 9.38075C49.6172 10.3752 50.1838 11.7235 50.1853 13.1298V31.4742L57.3475 37.5198L56.2508 32.8373C56.1896 32.576 56.1888 32.3044 56.2487 32.0428C56.3085 31.7811 56.4274 31.5362 56.5965 31.3263C56.7656 31.1163 56.9805 30.9467 57.2252 30.8302C57.4699 30.7136 57.7381 30.6531 58.0098 30.6531H59.6271C60.0941 30.6525 60.5419 30.469 60.8722 30.143C61.2024 29.8169 61.3883 29.3749 61.3889 28.9138V5.30428Z" fill="white" stroke="#7EA903" stroke-width="1.4" mask="url(#path-1-inside-1_730_845)"/>
</svg>
