<svg width="67" height="67" viewBox="0 0 67 67" fill="none" xmlns="http://www.w3.org/2000/svg">
<mask id="path-1-outside-1_730_851" maskUnits="userSpaceOnUse" x="0" y="0" width="67" height="67" fill="black">
<rect fill="white" width="67" height="67"/>
<path d="M65.5632 45.6452L56.1344 38.3089L55.1294 33.2833C55.0876 33.0785 54.9871 32.8903 54.8402 32.7417L53.4453 31.3225L55.9167 28.8503C56.1197 28.6472 56.2338 28.3717 56.2338 28.0844C56.2338 27.7972 56.1197 27.5217 55.9167 27.3185L47.2525 18.6518C47.1521 18.551 47.0328 18.471 46.9014 18.4164C46.77 18.3617 46.6291 18.3335 46.4869 18.3333H29.6199L15.0511 3.15583L14.9883 3.08975C14.7752 2.81868 14.537 2.5684 14.2767 2.34225L14.1847 2.24583C14.1331 2.2014 14.0772 2.16221 14.0179 2.12883C13.0823 1.40145 11.9322 1.00451 10.7472 1C9.31154 1.00172 7.93518 1.57296 6.92003 2.58841C5.90487 3.60385 5.3338 4.98061 5.33208 6.41667V50.8333H2.08302C1.79579 50.8333 1.52031 50.9475 1.31721 51.1506C1.1141 51.3538 1 51.6293 1 51.9167V64.9167C1 65.204 1.1141 65.4795 1.31721 65.6827C1.52031 65.8859 1.79579 66 2.08302 66H10.7472C11.0344 66 11.3099 65.8859 11.513 65.6827C11.7161 65.4795 11.8302 65.204 11.8302 64.9167V51.9167C11.8302 51.6293 11.7161 51.3538 11.513 51.1506C11.3099 50.9475 11.0344 50.8333 10.7472 50.8333H7.49812V10.7218C8.42994 11.4388 9.5716 11.8293 10.7472 11.8333C12.0211 11.83 13.2531 11.3775 14.2265 10.5554C15.1999 9.73334 15.8523 8.5943 16.0691 7.33858L28.0755 19.85V36.75C28.0756 37.0373 28.1897 37.3128 28.3928 37.5159L37.057 46.1826C37.2601 46.3857 37.5355 46.4998 37.8227 46.4998C38.1099 46.4998 38.3853 46.3857 38.5884 46.1826L41.0717 43.6985L42.4721 45.0993C42.6234 45.2503 42.8159 45.3532 43.0255 45.395L48.0843 46.4079L56.507 55.886C56.6977 56.1015 56.9662 56.2324 57.2534 56.2498C57.5405 56.2673 57.8229 56.1699 58.0383 55.9792C58.2538 55.7884 58.3846 55.5198 58.4021 55.2325C58.4195 54.9453 58.3222 54.6628 58.1315 54.4473L49.4673 44.6973C49.3106 44.5212 49.1007 44.401 48.8695 44.355L43.7793 43.3356L34.9408 34.4934L41.7216 25.7596L44.1605 24.9666L53.0684 34.0287L54.0896 39.1333C54.1399 39.3883 54.2807 39.6165 54.486 39.7757L64.2332 47.3591C64.3451 47.4502 64.474 47.518 64.6124 47.5586C64.7508 47.5991 64.8959 47.6117 65.0392 47.5954C65.1825 47.5791 65.3211 47.5343 65.4469 47.4637C65.5727 47.3931 65.6831 47.2981 65.7717 47.1843C65.8603 47.0704 65.9252 46.94 65.9627 46.8007C66.0002 46.6614 66.0096 46.516 65.9901 46.3731C65.9707 46.2301 65.9229 46.0925 65.8496 45.9682C65.7763 45.844 65.6789 45.7357 65.5632 45.6496V45.6452ZM9.66416 63.8333H3.16604V53H9.66416V63.8333ZM51.9269 29.7766L47.5385 25.3133L49.1944 23.6568L53.6196 28.0833L51.9269 29.7766ZM13.9962 6.41667C13.9962 7.05946 13.8057 7.68781 13.4487 8.22227C13.0917 8.75673 12.5842 9.17329 11.9905 9.41928C11.3969 9.66526 10.7436 9.72962 10.1133 9.60422C9.48307 9.47882 8.90414 9.16928 8.44975 8.71476C7.99536 8.26024 7.68592 7.68115 7.56055 7.05071C7.43518 6.42027 7.49953 5.76681 7.74544 5.17295C7.99135 4.57909 8.4078 4.07151 8.9421 3.71439C9.47641 3.35728 10.1046 3.16667 10.7472 3.16667C11.472 3.16979 12.1745 3.41752 12.741 3.86975L13.4298 4.588C13.7991 5.12628 13.9966 5.76386 13.9962 6.41667ZM37.8227 43.8848L33.3975 39.4583L35.1151 37.7402L39.5404 42.1667L37.8227 43.8848ZM44.128 22.6981L40.736 23.8031C40.5304 23.8705 40.3494 23.9976 40.2162 24.1682L32.635 33.9182C32.4731 34.1267 32.3928 34.3872 32.4094 34.6507C32.4259 34.9142 32.5381 35.1626 32.7249 35.3493L33.5837 36.2083L31.8661 37.9265L30.2415 36.3015V20.5H46.0385L47.663 22.125L46.0201 23.7684L45.2349 22.9689C45.0938 22.8254 44.9155 22.724 44.7199 22.6761C44.5244 22.6283 44.3195 22.6359 44.128 22.6981Z"/>
</mask>
<path d="M65.5632 45.6452L56.1344 38.3089L55.1294 33.2833C55.0876 33.0785 54.9871 32.8903 54.8402 32.7417L53.4453 31.3225L55.9167 28.8503C56.1197 28.6472 56.2338 28.3717 56.2338 28.0844C56.2338 27.7972 56.1197 27.5217 55.9167 27.3185L47.2525 18.6518C47.1521 18.551 47.0328 18.471 46.9014 18.4164C46.77 18.3617 46.6291 18.3335 46.4869 18.3333H29.6199L15.0511 3.15583L14.9883 3.08975C14.7752 2.81868 14.537 2.5684 14.2767 2.34225L14.1847 2.24583C14.1331 2.2014 14.0772 2.16221 14.0179 2.12883C13.0823 1.40145 11.9322 1.00451 10.7472 1C9.31154 1.00172 7.93518 1.57296 6.92003 2.58841C5.90487 3.60385 5.3338 4.98061 5.33208 6.41667V50.8333H2.08302C1.79579 50.8333 1.52031 50.9475 1.31721 51.1506C1.1141 51.3538 1 51.6293 1 51.9167V64.9167C1 65.204 1.1141 65.4795 1.31721 65.6827C1.52031 65.8859 1.79579 66 2.08302 66H10.7472C11.0344 66 11.3099 65.8859 11.513 65.6827C11.7161 65.4795 11.8302 65.204 11.8302 64.9167V51.9167C11.8302 51.6293 11.7161 51.3538 11.513 51.1506C11.3099 50.9475 11.0344 50.8333 10.7472 50.8333H7.49812V10.7218C8.42994 11.4388 9.5716 11.8293 10.7472 11.8333C12.0211 11.83 13.2531 11.3775 14.2265 10.5554C15.1999 9.73334 15.8523 8.5943 16.0691 7.33858L28.0755 19.85V36.75C28.0756 37.0373 28.1897 37.3128 28.3928 37.5159L37.057 46.1826C37.2601 46.3857 37.5355 46.4998 37.8227 46.4998C38.1099 46.4998 38.3853 46.3857 38.5884 46.1826L41.0717 43.6985L42.4721 45.0993C42.6234 45.2503 42.8159 45.3532 43.0255 45.395L48.0843 46.4079L56.507 55.886C56.6977 56.1015 56.9662 56.2324 57.2534 56.2498C57.5405 56.2673 57.8229 56.1699 58.0383 55.9792C58.2538 55.7884 58.3846 55.5198 58.4021 55.2325C58.4195 54.9453 58.3222 54.6628 58.1315 54.4473L49.4673 44.6973C49.3106 44.5212 49.1007 44.401 48.8695 44.355L43.7793 43.3356L34.9408 34.4934L41.7216 25.7596L44.1605 24.9666L53.0684 34.0287L54.0896 39.1333C54.1399 39.3883 54.2807 39.6165 54.486 39.7757L64.2332 47.3591C64.3451 47.4502 64.474 47.518 64.6124 47.5586C64.7508 47.5991 64.8959 47.6117 65.0392 47.5954C65.1825 47.5791 65.3211 47.5343 65.4469 47.4637C65.5727 47.3931 65.6831 47.2981 65.7717 47.1843C65.8603 47.0704 65.9252 46.94 65.9627 46.8007C66.0002 46.6614 66.0096 46.516 65.9901 46.3731C65.9707 46.2301 65.9229 46.0925 65.8496 45.9682C65.7763 45.844 65.6789 45.7357 65.5632 45.6496V45.6452ZM9.66416 63.8333H3.16604V53H9.66416V63.8333ZM51.9269 29.7766L47.5385 25.3133L49.1944 23.6568L53.6196 28.0833L51.9269 29.7766ZM13.9962 6.41667C13.9962 7.05946 13.8057 7.68781 13.4487 8.22227C13.0917 8.75673 12.5842 9.17329 11.9905 9.41928C11.3969 9.66526 10.7436 9.72962 10.1133 9.60422C9.48307 9.47882 8.90414 9.16928 8.44975 8.71476C7.99536 8.26024 7.68592 7.68115 7.56055 7.05071C7.43518 6.42027 7.49953 5.76681 7.74544 5.17295C7.99135 4.57909 8.4078 4.07151 8.9421 3.71439C9.47641 3.35728 10.1046 3.16667 10.7472 3.16667C11.472 3.16979 12.1745 3.41752 12.741 3.86975L13.4298 4.588C13.7991 5.12628 13.9966 5.76386 13.9962 6.41667ZM37.8227 43.8848L33.3975 39.4583L35.1151 37.7402L39.5404 42.1667L37.8227 43.8848ZM44.128 22.6981L40.736 23.8031C40.5304 23.8705 40.3494 23.9976 40.2162 24.1682L32.635 33.9182C32.4731 34.1267 32.3928 34.3872 32.4094 34.6507C32.4259 34.9142 32.5381 35.1626 32.7249 35.3493L33.5837 36.2083L31.8661 37.9265L30.2415 36.3015V20.5H46.0385L47.663 22.125L46.0201 23.7684L45.2349 22.9689C45.0938 22.8254 44.9155 22.724 44.7199 22.6761C44.5244 22.6283 44.3195 22.6359 44.128 22.6981Z" fill="white"/>
<path d="M65.5632 45.6452L56.1344 38.3089L55.1294 33.2833C55.0876 33.0785 54.9871 32.8903 54.8402 32.7417L53.4453 31.3225L55.9167 28.8503C56.1197 28.6472 56.2338 28.3717 56.2338 28.0844C56.2338 27.7972 56.1197 27.5217 55.9167 27.3185L47.2525 18.6518C47.1521 18.551 47.0328 18.471 46.9014 18.4164C46.77 18.3617 46.6291 18.3335 46.4869 18.3333H29.6199L15.0511 3.15583L14.9883 3.08975C14.7752 2.81868 14.537 2.5684 14.2767 2.34225L14.1847 2.24583C14.1331 2.2014 14.0772 2.16221 14.0179 2.12883C13.0823 1.40145 11.9322 1.00451 10.7472 1C9.31154 1.00172 7.93518 1.57296 6.92003 2.58841C5.90487 3.60385 5.3338 4.98061 5.33208 6.41667V50.8333H2.08302C1.79579 50.8333 1.52031 50.9475 1.31721 51.1506C1.1141 51.3538 1 51.6293 1 51.9167V64.9167C1 65.204 1.1141 65.4795 1.31721 65.6827C1.52031 65.8859 1.79579 66 2.08302 66H10.7472C11.0344 66 11.3099 65.8859 11.513 65.6827C11.7161 65.4795 11.8302 65.204 11.8302 64.9167V51.9167C11.8302 51.6293 11.7161 51.3538 11.513 51.1506C11.3099 50.9475 11.0344 50.8333 10.7472 50.8333H7.49812V10.7218C8.42994 11.4388 9.5716 11.8293 10.7472 11.8333C12.0211 11.83 13.2531 11.3775 14.2265 10.5554C15.1999 9.73334 15.8523 8.5943 16.0691 7.33858L28.0755 19.85V36.75C28.0756 37.0373 28.1897 37.3128 28.3928 37.5159L37.057 46.1826C37.2601 46.3857 37.5355 46.4998 37.8227 46.4998C38.1099 46.4998 38.3853 46.3857 38.5884 46.1826L41.0717 43.6985L42.4721 45.0993C42.6234 45.2503 42.8159 45.3532 43.0255 45.395L48.0843 46.4079L56.507 55.886C56.6977 56.1015 56.9662 56.2324 57.2534 56.2498C57.5405 56.2673 57.8229 56.1699 58.0383 55.9792C58.2538 55.7884 58.3846 55.5198 58.4021 55.2325C58.4195 54.9453 58.3222 54.6628 58.1315 54.4473L49.4673 44.6973C49.3106 44.5212 49.1007 44.401 48.8695 44.355L43.7793 43.3356L34.9408 34.4934L41.7216 25.7596L44.1605 24.9666L53.0684 34.0287L54.0896 39.1333C54.1399 39.3883 54.2807 39.6165 54.486 39.7757L64.2332 47.3591C64.3451 47.4502 64.474 47.518 64.6124 47.5586C64.7508 47.5991 64.8959 47.6117 65.0392 47.5954C65.1825 47.5791 65.3211 47.5343 65.4469 47.4637C65.5727 47.3931 65.6831 47.2981 65.7717 47.1843C65.8603 47.0704 65.9252 46.94 65.9627 46.8007C66.0002 46.6614 66.0096 46.516 65.9901 46.3731C65.9707 46.2301 65.9229 46.0925 65.8496 45.9682C65.7763 45.844 65.6789 45.7357 65.5632 45.6496V45.6452ZM9.66416 63.8333H3.16604V53H9.66416V63.8333ZM51.9269 29.7766L47.5385 25.3133L49.1944 23.6568L53.6196 28.0833L51.9269 29.7766ZM13.9962 6.41667C13.9962 7.05946 13.8057 7.68781 13.4487 8.22227C13.0917 8.75673 12.5842 9.17329 11.9905 9.41928C11.3969 9.66526 10.7436 9.72962 10.1133 9.60422C9.48307 9.47882 8.90414 9.16928 8.44975 8.71476C7.99536 8.26024 7.68592 7.68115 7.56055 7.05071C7.43518 6.42027 7.49953 5.76681 7.74544 5.17295C7.99135 4.57909 8.4078 4.07151 8.9421 3.71439C9.47641 3.35728 10.1046 3.16667 10.7472 3.16667C11.472 3.16979 12.1745 3.41752 12.741 3.86975L13.4298 4.588C13.7991 5.12628 13.9966 5.76386 13.9962 6.41667ZM37.8227 43.8848L33.3975 39.4583L35.1151 37.7402L39.5404 42.1667L37.8227 43.8848ZM44.128 22.6981L40.736 23.8031C40.5304 23.8705 40.3494 23.9976 40.2162 24.1682L32.635 33.9182C32.4731 34.1267 32.3928 34.3872 32.4094 34.6507C32.4259 34.9142 32.5381 35.1626 32.7249 35.3493L33.5837 36.2083L31.8661 37.9265L30.2415 36.3015V20.5H46.0385L47.663 22.125L46.0201 23.7684L45.2349 22.9689C45.0938 22.8254 44.9155 22.724 44.7199 22.6761C44.5244 22.6283 44.3195 22.6359 44.128 22.6981Z" stroke="white" stroke-width="0.6" mask="url(#path-1-outside-1_730_851)"/>
</svg>
