<svg width="57" height="56" viewBox="0 0 57 56" fill="none" xmlns="http://www.w3.org/2000/svg">
<path d="M54.4106 17.0603C55.7406 16.4858 56.6465 15.1792 56.6465 13.6769C56.6465 11.6693 55.0419 10.0282 53.0479 9.97122C52.027 8.04285 49.8461 6.93242 47.5926 7.40027C42.4064 2.6284 35.696 0 28.6466 0C13.2078 0 0.64652 12.56 0.64652 28.0001C0.64652 29.4007 0.760923 30.8252 0.977555 32.24C0.351986 32.9225 0 33.8109 0 34.7315C0 36.357 1.07248 37.7703 2.59575 38.2518C6.78349 48.8801 17.2059 56 28.6479 56C36.2327 56 43.3241 53.0138 48.637 47.592C49.229 47.9698 49.9183 48.1742 50.6267 48.1742C52.6703 48.1742 54.3324 46.5117 54.3324 44.4686C54.3324 43.3824 53.8611 42.3879 53.0564 41.6907C55.3995 37.5186 56.6477 32.8036 56.6477 28.0004C56.6467 24.2056 55.8877 20.5319 54.4107 17.0609L54.4106 17.0603ZM51.7798 40.9589C51.6586 40.9175 51.5354 40.8849 51.4127 40.8572C51.3611 40.8455 51.311 40.8314 51.2584 40.8221C51.0841 40.79 50.9089 40.7676 50.7321 40.7622C49.8627 39.1201 48.1632 38.0837 46.2767 38.0837C46.0898 38.0837 45.9052 38.0979 45.7217 38.1178C45.6643 38.1242 45.6078 38.1344 45.5513 38.1431C45.4238 38.1621 45.2972 38.185 45.1726 38.2137C45.1103 38.2283 45.0484 38.2429 44.9871 38.259C44.861 38.2931 44.7378 38.3325 44.6151 38.3753C44.564 38.3934 44.5124 38.4094 44.4618 38.4289C44.2924 38.4951 44.1259 38.5686 43.9643 38.6528C43.9482 38.6621 43.9321 38.6718 43.917 38.6806C43.772 38.758 43.6308 38.8432 43.494 38.9347C43.4468 38.9669 43.4005 39.0009 43.3543 39.035C43.2496 39.1095 43.1469 39.1898 43.0481 39.2731C43.0013 39.313 42.9546 39.3519 42.9093 39.3938C42.8772 39.423 42.8421 39.4488 42.811 39.479C41.7614 37.9289 40.4415 36.5576 38.9577 35.4296C39.3409 34.7734 39.762 34.0883 40.205 33.3722C42.3733 29.8681 45.0723 25.5066 45.0723 20.7798C45.0723 19.6149 44.9423 18.4665 44.6955 17.3501C44.7997 17.3369 44.9019 17.315 45.0042 17.2941C45.0168 17.2912 45.0285 17.2888 45.0417 17.2858C45.2301 17.244 45.4131 17.189 45.5923 17.1189C45.6225 17.1072 45.6522 17.0979 45.6819 17.0853C45.8737 17.0045 46.0621 16.912 46.2393 16.799C46.7748 17.0818 47.3595 17.2581 47.9583 17.3321C47.9666 17.3335 47.9743 17.3355 47.9826 17.3369C48.1141 17.3515 48.2455 17.3545 48.3774 17.3598C48.4495 17.3627 48.5206 17.373 48.5931 17.373C48.6403 17.373 48.6885 17.3652 48.7362 17.3637C49.5035 17.3428 50.2654 17.1588 50.9474 16.7985C51.0968 16.8939 51.2531 16.9777 51.4128 17.0507C51.5238 17.1008 51.6396 17.1388 51.7541 17.1777C51.8057 17.1953 51.8558 17.2191 51.9084 17.2337C52.015 17.2654 52.126 17.2834 52.2355 17.3058C52.3032 17.3189 52.3679 17.3364 52.4366 17.3462C52.5252 17.3588 52.6157 17.3603 52.7068 17.3652C52.7852 17.3705 52.8626 17.3817 52.9414 17.3817C52.9609 17.3817 52.9828 17.3788 53.0028 17.3783C53.0154 17.3783 53.0271 17.3812 53.0403 17.3803C54.5085 20.7423 55.2519 24.3122 55.2519 27.9984C55.2519 32.5502 54.0835 37.0262 51.8675 40.9821C51.8378 40.9724 51.8086 40.968 51.7799 40.9578L51.7798 40.9589ZM18.2113 32.4842C16.2771 29.4518 14.1195 26.0552 13.6969 22.1358H20.7506C20.8796 25.7587 21.9643 29.1617 22.9393 32.1839C23.7251 34.6175 24.4714 36.9305 24.6136 39.0267H21.3587C21.0953 37.0073 19.7472 34.8925 18.2113 32.4842V32.4842ZM40.7502 12.4865C40.7089 12.6023 40.6719 12.7196 40.6436 12.8375C40.6271 12.9095 40.612 12.9806 40.5998 13.0536C40.5628 13.2595 40.5375 13.4674 40.5375 13.6782C40.5375 13.8992 40.5584 14.1159 40.5959 14.3271C40.6003 14.35 40.6057 14.3724 40.6105 14.3968C40.6212 14.4484 40.6392 14.4971 40.6519 14.5482C40.684 14.6806 40.7162 14.814 40.7614 14.941C40.777 14.9858 40.797 15.0291 40.815 15.073C40.833 15.1177 40.8554 15.1601 40.8758 15.2044C40.9226 15.3086 40.9703 15.4123 41.0268 15.5106C41.0604 15.569 41.0993 15.6245 41.1358 15.6815C41.1597 15.7185 41.1821 15.755 41.2069 15.7905C41.2643 15.8714 41.3228 15.9502 41.386 16.0271C41.4299 16.0797 41.4761 16.1289 41.5228 16.1795C41.5418 16.2004 41.5603 16.2233 41.5808 16.2438C41.6012 16.2652 41.6192 16.289 41.6402 16.311C41.7015 16.3703 41.7677 16.4234 41.833 16.4789C41.8797 16.5193 41.9284 16.5578 41.978 16.5953C42.0379 16.6415 42.0924 16.6931 42.1552 16.735C42.22 16.7798 42.2935 16.8119 42.3612 16.8523C42.4098 16.881 42.459 16.9098 42.5096 16.936C42.5739 16.9696 42.6352 17.0071 42.7015 17.0373C42.8042 17.0845 42.9118 17.1215 43.0189 17.16C43.0491 17.1707 43.0802 17.178 43.1104 17.1887C43.1119 17.1887 43.1123 17.1892 43.1138 17.1892C43.1557 17.2023 43.1932 17.2228 43.236 17.234C43.5242 18.3673 43.6703 19.545 43.6737 20.7396H36.5548C36.4258 14.5218 34.2984 10.1657 32.5097 7.07919C35.8946 7.86736 38.7947 9.67394 40.8156 12.2722C40.7883 12.3408 40.7747 12.4168 40.7503 12.4864L40.7502 12.4865ZM35.1581 20.7392H22.1395C22.3132 14.1797 24.8705 9.74714 26.6674 6.74972C27.9653 6.60172 29.3431 6.5988 30.7023 6.76237C32.4938 9.75543 35.0131 14.1749 35.1587 20.7394L35.1581 20.7392ZM20.7411 20.7392H13.6193C13.6383 13.9353 18.2597 8.54947 24.8626 7.05505C23.0628 10.1483 20.8944 14.5181 20.7411 20.7392ZM24.2677 31.7552C23.2799 28.6941 22.2732 25.533 22.1466 22.1359H35.1415C34.9979 25.4916 34.0009 28.6155 33.0248 31.6421C32.1865 34.2384 31.3911 36.7013 31.2723 39.0268H26.0126C25.8744 36.7343 25.0916 34.309 24.2673 31.755L24.2677 31.7552ZM34.3524 32.0706C35.3177 29.0805 36.3903 25.7171 36.5377 22.1359H43.5904C43.1522 25.9463 40.9703 29.4807 39.0172 32.6387C37.5265 35.0465 36.2169 37.1633 35.9414 39.0268H32.6704C32.794 36.9008 33.5535 34.549 34.3524 32.0706V32.0706ZM51.9672 10.9524C52.0846 11.2377 52.3699 11.4091 52.6824 11.3818C52.7666 11.3726 52.8528 11.3672 52.9394 11.3672C54.213 11.3672 55.2504 12.4037 55.2504 13.6787C55.2504 14.7969 54.4501 15.7501 53.346 15.9463C52.6888 16.0622 51.9648 15.882 51.442 15.4361C51.3792 15.383 51.3096 15.3431 51.2356 15.3154C51.2132 15.3061 51.1894 15.3056 51.165 15.2998C51.1125 15.2852 51.0609 15.2735 51.0059 15.272C50.9995 15.272 50.9932 15.2686 50.9878 15.2686C50.9508 15.2686 50.9143 15.2793 50.8783 15.2842C50.852 15.2891 50.8252 15.2886 50.7994 15.2959C50.7313 15.3149 50.6646 15.3431 50.6032 15.3845C49.4061 16.1751 47.7772 16.1751 46.5806 15.3845C46.3212 15.2126 45.9784 15.2336 45.7423 15.4361C45.3251 15.7929 44.793 15.9886 44.2443 15.9886C44.1362 15.9886 44.0315 15.9711 43.9025 15.9512C43.7604 15.9302 43.6236 15.8966 43.4917 15.8518C43.4912 15.8514 43.4912 15.8514 43.4902 15.8514C43.3758 15.8124 43.2682 15.7618 43.1635 15.7077C43.1333 15.6917 43.1036 15.6761 43.0749 15.6595C42.9961 15.6143 42.9216 15.5617 42.8495 15.5072C42.7994 15.4687 42.7497 15.4288 42.7035 15.3864C42.6524 15.3416 42.6037 15.2949 42.5574 15.2462C42.5 15.1839 42.4464 15.1177 42.3963 15.051C42.3646 15.0087 42.332 14.9673 42.3043 14.9225C42.2512 14.8407 42.2064 14.7545 42.1645 14.6664C42.1456 14.625 42.1227 14.5871 42.1061 14.5442C42.0662 14.4464 42.038 14.3441 42.0112 14.24C42.0015 14.201 41.9873 14.1645 41.9791 14.1246C41.9503 13.9795 41.9343 13.8305 41.9343 13.6777C41.9343 13.4898 41.9606 13.3043 42.0097 13.1207C42.0141 13.1052 42.0204 13.0901 42.0243 13.074C42.0759 12.8953 42.147 12.7186 42.2449 12.5463C42.6202 11.8827 43.3115 11.4636 44.0359 11.3876C44.086 11.3828 44.1362 11.373 44.1873 11.373C44.2915 11.3686 44.3961 11.3711 44.4998 11.3823C44.8119 11.4061 45.0981 11.2377 45.216 10.9539C45.6361 9.93348 46.5226 9.1419 47.5882 8.83719C49.4801 8.29486 51.2783 9.27679 51.9673 10.9525L51.9672 10.9524ZM1.39454 34.7314C1.39454 34.0713 1.67349 33.4598 2.18027 33.0104C2.67733 32.5699 3.34087 32.3698 3.96058 32.4355C4.27118 32.4598 4.55938 32.2919 4.67671 32.0061C5.24192 30.6313 6.56756 29.7434 8.05238 29.7434C9.53819 29.7434 10.8624 30.6313 11.4275 32.0061C11.5449 32.2914 11.8331 32.4632 12.1427 32.4355C12.2269 32.4262 12.3131 32.4209 12.3997 32.4209C13.6733 32.4209 14.7107 33.4573 14.7107 34.7324C14.7107 36.0059 13.6743 37.0423 12.3997 37.0423C11.8506 37.0423 11.3185 36.8461 10.9017 36.4898C10.8389 36.4367 10.7698 36.3978 10.6958 36.3695C10.6715 36.3598 10.6447 36.3583 10.6198 36.352C10.5697 36.3389 10.5196 36.3267 10.467 36.3257C10.4606 36.3257 10.4543 36.3223 10.448 36.3223C10.4095 36.3223 10.3735 36.333 10.3351 36.3384C10.3097 36.3428 10.2849 36.3428 10.2606 36.3496C10.1914 36.3686 10.1257 36.3968 10.0639 36.4382C8.86678 37.2288 7.23783 37.2288 6.04128 36.4382C5.7818 36.2663 5.43908 36.2873 5.20296 36.4898C4.74631 36.8812 4.17429 37.0676 3.54827 37.0224C3.44896 37.0146 3.35306 37.017 3.25034 36.9966H3.24888C2.17445 36.7794 1.39454 35.8292 1.39454 34.7313L1.39454 34.7314ZM4.16215 38.4084C4.21862 38.4016 4.27363 38.3875 4.32962 38.3778C4.37782 38.3695 4.4265 38.3622 4.47421 38.352C4.66358 38.3116 4.84955 38.257 5.03065 38.1879C5.07106 38.1733 5.10952 38.1543 5.14944 38.1378C5.33929 38.0574 5.52478 37.9669 5.69956 37.8549C7.14636 38.6192 8.95932 38.6207 10.4076 37.8549C10.9996 38.2332 11.6919 38.4377 12.4007 38.4377C14.4448 38.4377 16.1073 36.7751 16.1073 34.732C16.1073 32.7243 14.5028 31.0832 12.5087 31.0263C11.6397 29.3842 9.94026 28.3478 8.05328 28.3478C6.16678 28.3478 4.46686 29.3842 3.59684 31.0263C3.37289 31.0331 3.1509 31.0633 2.93378 31.1105C2.86611 31.1251 2.80233 31.1519 2.7371 31.1704C2.58911 31.2118 2.44257 31.2527 2.30091 31.3121C2.2863 31.3189 2.26878 31.3213 2.25417 31.3276C2.11396 30.2138 2.04289 29.0994 2.04289 27.9992C2.04289 13.3293 13.978 1.39615 28.6459 1.39615C35.1066 1.39615 41.2707 3.71535 46.12 7.94983C46.0898 7.96638 46.0635 7.98975 46.0343 8.00728C45.8873 8.09393 45.7447 8.18789 45.6079 8.28915C45.566 8.31982 45.5241 8.34854 45.4837 8.3797C45.3177 8.51017 45.1585 8.64989 45.01 8.79934C44.9808 8.82855 44.955 8.8602 44.9268 8.88989C44.8056 9.01744 44.6916 9.15181 44.585 9.29055C44.5485 9.33728 44.513 9.38353 44.4799 9.43075C44.3557 9.60455 44.2384 9.7837 44.1381 9.97211C43.9254 9.97844 43.7165 10.0106 43.5121 10.0524C43.4449 10.0666 43.3801 10.0802 43.3154 10.0972C43.1572 10.1396 43.0028 10.1907 42.8519 10.2535C42.7502 10.2954 42.6538 10.3436 42.5569 10.3937C42.459 10.4448 42.3636 10.4969 42.2706 10.5563C42.1777 10.6147 42.0891 10.6765 42.0019 10.7432C41.9425 10.7885 41.8865 10.8401 41.8301 10.8893C41.759 10.9506 41.6821 11.0047 41.6164 11.0714C39.0878 8.01512 35.4434 6.01123 31.225 5.42174H31.2231C30.3687 5.30247 29.5021 5.24259 28.6478 5.24259C19.2836 5.24259 12.2231 11.9224 12.2231 20.7812C12.2231 25.6884 14.7794 29.6969 17.0353 33.2347C17.5149 33.9864 17.9676 34.703 18.3761 35.3933C14.5433 38.3215 11.9874 43.2477 11.6111 48.3745C8.42578 45.7208 5.8344 42.3378 4.16127 38.4092L4.16215 38.4084ZM28.6465 54.6038C22.9014 54.6038 17.4344 52.7017 12.9596 49.4308C13.0351 44.4276 15.3899 39.5121 19.06 36.6215C19.6364 37.7461 20.0093 38.7811 20.0093 39.7236C20.0093 40.1097 20.3214 40.4217 20.7075 40.4217H36.5863C36.9723 40.4217 37.2844 40.1097 37.2844 39.7236C37.2844 38.8532 37.6768 37.8206 38.2731 36.6669C39.6869 37.7715 40.9342 39.1166 41.8996 40.635C41.8752 40.6784 41.8509 40.7193 41.827 40.7621C39.831 40.8166 38.223 42.4587 38.223 44.4688C38.223 46.5124 39.8856 48.1745 41.9297 48.1745C42.6395 48.1745 43.3318 47.9695 43.9238 47.5903C44.0391 47.6501 44.157 47.7061 44.2777 47.7577C44.3098 48.2694 44.3322 48.9743 44.339 49.486C39.8154 52.811 34.379 54.6039 28.6471 54.6039L28.6465 54.6038ZM45.7068 48.4099C45.7034 48.3194 45.699 48.2284 45.6956 48.1393C45.7949 48.1509 45.8933 48.1597 45.9931 48.1656C45.8981 48.2478 45.8032 48.3296 45.7068 48.4099V48.4099ZM50.6253 46.7781C50.0766 46.7781 49.544 46.5814 49.1269 46.2245C48.9969 46.1136 48.8357 46.0571 48.6741 46.0571C48.5402 46.0571 48.4054 46.0955 48.288 46.1734C48.1741 46.2479 48.0519 46.3107 47.9302 46.3735C47.4969 46.5945 47.0369 46.7265 46.568 46.7649C46.3344 46.7839 46.0978 46.7795 45.8612 46.7518C45.6246 46.724 45.3885 46.6724 45.1548 46.596C44.831 46.4913 44.5321 46.3482 44.2678 46.1729C44.0088 46.0006 43.6661 46.0215 43.429 46.2241C43.0108 46.5809 42.4792 46.7776 41.9309 46.7776C40.6574 46.7776 39.62 45.7421 39.62 44.4676C39.62 43.193 40.6564 42.1551 41.9309 42.1551C42.0152 42.1551 42.0999 42.1615 42.1821 42.1697C42.4961 42.2053 42.7843 42.0281 42.9022 41.7413C42.9927 41.5223 43.1212 41.2934 43.297 41.0427C43.9829 40.0637 45.0977 39.478 46.2778 39.478C47.7631 39.478 49.0878 40.3665 49.653 41.7413C49.7708 42.028 50.0614 42.2052 50.373 42.1697C50.8491 42.1195 51.3467 42.2198 51.7945 42.4866C52.5087 42.9097 52.9351 43.6501 52.9351 44.4666C52.9351 45.7425 51.8987 46.778 50.6252 46.778L50.6253 46.7781Z" fill="white"/>
<path d="M35.7496 41.3047H21.5458C21.1597 41.3047 20.8477 41.6167 20.8477 42.0028V48.4669C20.8477 49.756 21.8958 50.8041 23.1849 50.8041H34.1113C35.3994 50.8041 36.4481 49.756 36.4481 48.4669V42.0028C36.4476 41.6172 36.1355 41.3047 35.7499 41.3047H35.7496ZM22.2424 42.7004H35.0517V43.362H22.2424V42.7004ZM35.0504 48.4673C35.0504 48.9858 34.6288 49.4088 34.1099 49.4088H23.1835C22.665 49.4088 22.242 48.9867 22.242 48.4673V44.7586H35.0512V48.4673H35.0504Z" fill="white"/>
</svg>
