<svg width="28" height="49" viewBox="0 0 28 49" fill="none" xmlns="http://www.w3.org/2000/svg">
<path d="M24.6644 0H2.82133C1.26565 0 0 1.26565 0 2.82133V46.1787C0 47.7343 1.26565 49 2.82133 49H24.6653C26.221 49 27.4866 47.7343 27.4866 46.1787L27.4863 2.82133C27.4863 1.26602 26.2206 0 24.6649 0H24.6644ZM19.9995 1.53149L19.5047 3.05466H7.98113L7.48626 1.53149H19.9995ZM25.9545 46.1788C25.9545 46.8897 25.3759 47.469 24.6643 47.469L2.82124 47.4686C2.11032 47.4686 1.53103 46.8901 1.53103 46.1784V2.82106C1.53103 2.11015 2.10957 1.53085 2.82124 1.53085H5.87627L6.69647 4.05643C6.79891 4.37203 7.09287 4.5852 7.4247 4.5852L20.0609 4.58556C20.3927 4.58556 20.6867 4.37239 20.7891 4.05679L21.6093 1.53121H24.6644C25.3753 1.53121 25.9546 2.10975 25.9546 2.82142L25.9545 46.1788ZM13.743 39.7813C12.2757 39.7813 11.0826 40.9748 11.0826 42.4416C11.0826 43.909 12.2762 45.102 13.743 45.102C15.2103 45.102 16.4038 43.9085 16.4038 42.4416C16.4038 40.9751 15.2103 39.7813 13.743 39.7813ZM13.743 43.571C13.1205 43.571 12.6134 43.0646 12.6134 42.4414C12.6134 41.8188 13.1202 41.3117 13.743 41.3117C14.3656 41.3117 14.8727 41.8181 14.8727 42.4414C14.8727 43.065 14.3655 43.571 13.743 43.571ZM22.8695 28.2765L18.6805 26.7046C18.1146 26.4918 17.5223 26.556 17.0145 26.885L15.6039 27.7986C15.4881 27.874 15.3647 27.8747 15.2479 27.8007C14.287 27.1933 13.3896 26.4734 12.5806 25.6633L12.5795 25.6623C11.769 24.8532 11.0498 23.9555 10.4421 22.995C10.3681 22.8781 10.3689 22.7551 10.4435 22.6389L11.3575 21.2276C11.6861 20.7197 11.7503 20.1282 11.5379 19.5623L9.96601 15.3729C9.76728 14.8431 9.34672 14.4369 8.81218 14.2592C8.278 14.0813 7.69842 14.1542 7.22123 14.4586L5.02862 15.8596C3.75253 16.6751 3.15484 18.1536 3.50655 19.6266C4.37472 23.2638 6.26361 26.6019 8.9638 29.2729C11.6408 31.9792 14.9787 33.8681 18.6166 34.7363C18.8972 34.803 19.1778 34.8358 19.4538 34.8358C20.6286 34.8358 21.7236 34.2476 22.3833 33.2145L23.7842 31.0219C24.089 30.5447 24.1619 29.9651 23.9841 29.4309C23.807 28.8968 23.4001 28.4754 22.8703 28.2767L22.8695 28.2765ZM22.4937 30.1968L21.0928 32.3894C20.6264 33.119 19.8135 33.4473 18.9715 33.2464C15.6128 32.4449 12.5286 30.6981 10.0463 28.1899C7.54383 25.7138 5.79702 22.6295 4.99563 19.2707C4.79473 18.4289 5.12331 17.6155 5.85299 17.1495L8.04561 15.7486C8.11017 15.7071 8.17257 15.6948 8.22487 15.6948C8.26743 15.6948 8.3035 15.7035 8.32838 15.7114C8.38321 15.7298 8.48348 15.7803 8.53253 15.9109L10.1044 20.1003C10.1451 20.2096 10.1357 20.2979 10.0726 20.3953L9.15865 21.8063C8.75937 22.4231 8.75504 23.1917 9.14783 23.8128C9.81582 24.8689 10.6057 25.8553 11.4967 26.7444C12.3858 27.6353 13.3726 28.426 14.4295 29.0943C15.0506 29.4871 15.8192 29.4828 16.4359 29.0835L17.8465 28.1699C17.9446 28.1064 18.033 28.0966 18.1423 28.1381L22.3317 29.71C22.4619 29.759 22.5127 29.8586 22.5311 29.9141C22.5492 29.9693 22.569 30.0789 22.4936 30.1965L22.4937 30.1968ZM14.7089 15.6252C14.7089 15.2025 15.0516 14.8598 15.4743 14.8598C17.5869 14.8598 19.5728 15.6822 21.0664 17.1765C22.56 18.6702 23.3823 20.6561 23.3823 22.7686C23.3823 23.1913 23.0397 23.534 22.617 23.534C22.1942 23.534 21.8516 23.1913 21.8516 22.7686C21.8516 21.0651 21.1879 19.4636 19.9836 18.2593C18.7793 17.0549 17.1774 16.3913 15.4743 16.3913C15.0512 16.391 14.7089 16.0479 14.7089 15.6252H14.7089ZM14.7089 21.2155C14.7089 20.7928 15.0516 20.4501 15.4743 20.4501C16.0936 20.4501 16.6754 20.6914 17.114 21.1293C17.5519 21.5672 17.7932 22.1493 17.7932 22.769C17.7932 23.1917 17.4505 23.5344 17.0278 23.5344C16.6051 23.5344 16.2624 23.1917 16.2624 22.769C16.2624 22.5591 16.1806 22.3614 16.0319 22.2125C15.8833 22.0639 15.6857 21.982 15.4751 21.982C15.0512 21.9809 14.7089 21.6383 14.7089 21.2155L14.7089 21.2155ZM14.7089 18.4205C14.7089 17.9978 15.0516 17.6544 15.4743 17.6544C16.8402 17.6544 18.1243 18.186 19.0902 19.1524C20.0561 20.1183 20.5882 21.4023 20.5882 22.7682C20.5882 23.191 20.2455 23.5336 19.8228 23.5336C19.4 23.5336 19.0574 23.191 19.0574 22.7675C19.0574 21.811 18.6848 20.9114 18.0082 20.2344C17.3315 19.5577 16.4324 19.1852 15.475 19.1852C15.0512 19.1859 14.7089 18.8436 14.7089 18.4205V18.4205Z" fill="white"/>
</svg>
