<svg width="48" height="53" viewBox="0 0 48 53" fill="none" xmlns="http://www.w3.org/2000/svg">
<path d="M26.3984 28.0508H28.0484V29.7008H26.3984V28.0508Z" fill="white"/>
<path d="M26.3984 31.3496H28.0484V32.9996H26.3984V31.3496Z" fill="white"/>
<path d="M26.3984 34.6504H28.0484V36.3004H26.3984V34.6504Z" fill="white"/>
<path d="M19.8008 28.0508H21.4508V29.7008H19.8008V28.0508Z" fill="white"/>
<path d="M19.8008 31.3496H21.4508V32.9996H19.8008V31.3496Z" fill="white"/>
<path d="M19.8008 34.6504H21.4508V36.3004H19.8008V34.6504Z" fill="white"/>
<path d="M24.75 1.67065V0H23.1V1.67065C10.2885 2.10782 0 12.6596 0 25.5749H1.65C1.65 25.3687 1.65994 25.1657 1.66584 24.9609C2.67979 23.2557 4.45981 22.2749 6.6 22.2749C8.7549 22.2749 10.5475 23.2682 11.5574 24.9974C11.5548 25.1897 11.55 25.3812 11.55 25.5749H13.2C13.2 25.3735 13.2048 25.1739 13.2074 24.9735C14.2198 23.2601 16.005 22.2749 18.15 22.2749C20.3016 22.2749 22.0901 23.2649 23.1 24.986V47.0253C23.1 48.5674 23.7014 50.0174 24.792 51.1084C25.8828 52.1989 27.3329 52.8003 28.875 52.8003C30.4171 52.8003 31.8671 52.1989 32.958 51.1084C34.0485 50.0175 34.65 48.5675 34.65 47.0253H33C33 48.1266 32.5702 49.163 31.7913 49.9416C31.0127 50.7205 29.9763 51.1503 28.875 51.1503C27.7737 51.1503 26.7374 50.7205 25.9587 49.9416C25.1798 49.163 24.75 48.1266 24.75 47.0253V24.987C25.7614 23.2651 27.5509 22.2751 29.7 22.2751C31.8465 22.2751 33.632 23.2611 34.6426 24.9744C34.6452 25.1752 34.65 25.3737 34.65 25.5751H36.3C36.3 25.3814 36.2952 25.1906 36.2926 24.9984C37.3014 23.2692 39.0943 22.2751 41.25 22.2751C43.3909 22.2751 45.1721 23.2559 46.1842 24.9623C46.19 25.1659 46.2 25.3696 46.2 25.5751H47.85C47.85 12.6599 37.5606 2.10835 24.75 1.67087L24.75 1.67065ZM6.6 20.6249C4.81479 20.6249 3.18365 21.1965 1.9041 22.2138C3.25729 13.3079 9.90471 6.11924 18.5257 3.96575C14.8099 7.3689 12.1732 14.2288 11.6495 22.5278C10.3236 21.319 8.55718 20.6251 6.60038 20.6251L6.6 20.6249ZM18.15 20.6249C16.2996 20.6249 14.6198 21.2444 13.3204 22.332C14.0614 12.2858 18.1746 4.19798 23.0997 3.37581V22.4385C21.7856 21.286 20.0586 20.6254 18.1497 20.6254L18.15 20.6249ZM29.7 20.6249C27.7918 20.6249 26.0652 21.2856 24.75 22.4392V3.37552C29.6753 4.19795 33.7885 12.2848 34.5293 22.3317C33.23 21.2445 31.5501 20.6249 29.6997 20.6249H29.7ZM41.25 20.6249C39.2921 20.6249 37.5268 21.3188 36.2009 22.5265C35.6772 14.2278 33.0404 7.36815 29.3246 3.96443C37.9441 6.11933 44.5923 13.3068 45.9463 22.2125C44.6676 21.196 43.0356 20.6243 41.2504 20.6243L41.25 20.6249Z" fill="white"/>
<path d="M39.7906 34.6501H41.2469V33.0001H40.2296L42.2855 29.5723L39.8204 27.1066L37.1219 28.0056L34.4233 27.1055L31.9582 29.5712L34.0141 33.0001H32.9969V34.6501H34.4531C34.0992 35.4604 33.2996 36.3274 32.408 37.2927C30.4648 39.3946 28.0469 42.0118 28.0469 46.2001C28.0469 47.2133 28.1938 48.1388 28.4826 48.9514L30.0375 48.3986C29.8114 47.7636 29.6969 47.0237 29.6969 46.2002C29.6969 42.6567 31.78 40.402 33.619 38.4131C34.8145 37.1204 35.8737 35.9727 36.1971 34.6502H38.0467C38.3701 35.9727 39.4293 37.1193 40.6249 38.4131C42.4638 40.402 44.547 42.6567 44.547 46.2002C44.547 49.4843 42.8811 51.1502 39.597 51.1502H34.647V52.8002H39.597C43.7912 52.8002 46.197 50.3944 46.197 46.2002C46.197 42.0118 43.779 39.3946 41.837 37.2927C40.945 36.3274 40.1447 35.4604 39.7907 34.6502L39.7906 34.6501ZM35.9389 33.0001L34.0348 29.8278L34.8697 28.9936L37.1219 29.7446L39.3734 28.9947L40.2083 29.8289L38.3049 33.0001L35.9389 33.0001Z" fill="white"/>
<path d="M12.3758 34.6504C7.37204 34.6504 3.30078 38.7216 3.30078 43.7254C3.30078 48.7291 7.37204 52.8004 12.3758 52.8004C17.3795 52.8004 21.4508 48.7291 21.4508 43.7254C21.4508 38.7216 17.3795 34.6504 12.3758 34.6504ZM12.3758 51.1504C8.28208 51.1504 4.95078 47.8198 4.95078 43.7254C4.95078 39.6309 8.28208 36.3004 12.3758 36.3004C16.4695 36.3004 19.8008 39.6309 19.8008 43.7254C19.8008 47.8198 16.4695 51.1504 12.3758 51.1504Z" fill="white"/>
<path d="M13.1993 42.8992H11.5493C11.329 42.8992 11.122 42.8134 10.9651 42.6565C10.8101 42.5015 10.7243 42.2952 10.7243 42.0742C10.7243 41.8532 10.8101 41.647 10.9651 41.4919C11.122 41.335 11.329 41.2492 11.5493 41.2492H14.8493V39.5992H13.1993V37.9492H11.5493V39.5992C10.8893 39.5992 10.2672 39.8567 9.79941 40.3237C9.33167 40.7907 9.07422 41.4128 9.07422 42.0742C9.07422 42.7356 9.3324 43.3577 9.79941 43.8247C10.2664 44.2917 10.8893 44.5491 11.5493 44.5491H13.1993C13.4195 44.5491 13.6265 44.635 13.7834 44.7919C13.9384 44.9469 14.0243 45.1532 14.0243 45.3741C14.0243 45.5951 13.9384 45.8014 13.7834 45.9564C13.6265 46.1133 13.4195 46.1991 13.1993 46.1991H9.89926V47.8491H11.5493V49.4991H13.1993V47.8491C13.8593 47.8491 14.4814 47.5917 14.9491 47.1247C15.4168 46.6577 15.6743 46.0356 15.6743 45.3742C15.6743 44.7128 15.4161 44.0907 14.9491 43.6237C14.4821 43.1567 13.8593 42.8992 13.1993 42.8992V42.8992Z" fill="white"/>
</svg>
