<svg width="47" height="47" viewBox="0 0 47 47" fill="none" xmlns="http://www.w3.org/2000/svg">
<path d="M45.423 23.4131C45.4067 22.8784 45.1306 22.3648 44.6152 21.9833L38.125 17.1732V3.29102C38.125 1.94709 37.0314 0.853516 35.6875 0.853516H11.3125C9.96854 0.853516 8.87496 1.94709 8.87496 3.29102V17.1732L2.38406 21.9825C1.86899 22.3645 1.5926 22.8777 1.57628 23.4123C1.07354 23.8592 0.75 24.5034 0.75 25.2281V43.9156C0.75 45.2596 1.84358 46.3531 3.1875 46.3531H43.8125C45.1564 46.3531 46.25 45.2596 46.25 43.9156V25.2281C46.25 24.5034 45.9265 23.8592 45.423 23.4131V23.4131ZM38.125 19.1953L42.9764 22.7906H38.125V19.1953ZM38.125 24.4156H41.8748L38.125 26.222V24.4156ZM10.5 3.29064C10.5 2.84305 10.8649 2.47814 11.3125 2.47814H35.6875C36.1351 2.47814 36.5 2.84305 36.5 3.29064V27.0045L34.875 27.7869V7.88111C34.875 7.87204 34.8703 7.86406 34.8703 7.855C34.8688 7.79406 34.85 7.73784 34.8354 7.68016C34.8231 7.63482 34.8184 7.5884 34.7995 7.54704C34.7785 7.49917 34.7433 7.46108 34.7136 7.41792C34.6835 7.37584 34.6584 7.33086 34.6211 7.29532C34.587 7.26267 34.5438 7.24345 34.505 7.21661C34.4553 7.18324 34.4092 7.14914 34.353 7.12738C34.344 7.12411 34.3385 7.11686 34.3302 7.11359C33.1847 6.71641 32.2641 5.79474 31.8658 4.64926C31.8626 4.64019 31.8553 4.63475 31.8521 4.62641C31.8303 4.56946 31.7944 4.5223 31.761 4.47188C31.7349 4.4338 31.7157 4.39136 31.6845 4.35798C31.6471 4.31881 31.6 4.29306 31.5561 4.26223C31.5154 4.23285 31.4781 4.19984 31.4328 4.17844C31.3896 4.15885 31.3417 4.15414 31.2953 4.14181C31.2383 4.1273 31.1839 4.10916 31.1248 4.10771C31.1139 4.10771 31.1059 4.10299 31.0969 4.10299H15.9036C15.8938 4.10299 15.8865 4.10771 15.8767 4.1088C15.8173 4.11025 15.7628 4.12838 15.7063 4.14289C15.6598 4.15523 15.612 4.15994 15.5688 4.17953C15.5216 4.20057 15.4835 4.23539 15.4411 4.26549C15.399 4.2956 15.3533 4.32063 15.3178 4.35799C15.2851 4.39208 15.2659 4.43525 15.2391 4.47515C15.2057 4.52484 15.1716 4.5709 15.1498 4.62713C15.1466 4.63619 15.1393 4.64163 15.1361 4.64998C14.7389 5.79546 13.8172 6.71605 12.6717 7.11431C12.6627 7.11758 12.6572 7.12483 12.6489 7.1281C12.5927 7.14986 12.5466 7.18504 12.4969 7.21733C12.4577 7.24344 12.4142 7.26375 12.3808 7.29604C12.3435 7.33195 12.3184 7.37656 12.2883 7.41864C12.2582 7.4618 12.2234 7.49989 12.2024 7.54776C12.1835 7.58911 12.1788 7.63554 12.1665 7.68088C12.1509 7.73928 12.1331 7.79478 12.1316 7.85572C12.1316 7.86478 12.1269 7.87276 12.1269 7.88183V27.7876L10.5019 27.0052L10.5012 3.29044L10.5 3.29064ZM13.75 8.42314C14.9274 7.86672 15.8886 6.90548 16.445 5.72814H30.5546C31.111 6.90557 32.0723 7.86674 33.2496 8.42314V28.5685L24.611 32.7286C24.0292 33.0097 22.9689 33.0097 22.3879 32.7286L13.7497 28.5685L13.75 8.42314ZM8.87498 19.1955V22.7908H4.02282L8.87498 19.1955ZM8.87498 24.4158V26.2222L5.12439 24.4158H8.87498ZM44.625 43.9158C44.625 44.3642 44.2601 44.7283 43.8125 44.7283H3.18748C2.73988 44.7283 2.37498 44.3642 2.37498 43.9158V25.2283C2.37498 25.1104 2.40255 25.0009 2.44716 24.8993C2.52261 24.9472 2.59008 24.9994 2.67386 25.0401L21.6827 34.1945C22.2003 34.444 22.8495 34.5681 23.4985 34.5681C24.1477 34.5674 24.797 34.4437 25.3153 34.1945L44.3241 25.0401C44.4079 24.9994 44.4761 24.9465 44.5508 24.8993C44.5972 25.0002 44.6248 25.1104 44.6248 25.2283L44.625 43.9158ZM30.8125 18.7283C30.8125 14.6959 27.5317 11.4158 23.5 11.4158C19.4683 11.4158 16.1875 14.6967 16.1875 18.7283C16.1875 22.76 19.4683 26.0408 23.5 26.0408C27.5317 26.0408 30.8125 22.76 30.8125 18.7283ZM17.8125 18.7283C17.8125 15.5923 20.3646 13.0408 23.5 13.0408C26.6354 13.0408 29.1875 15.5929 29.1875 18.7283C29.1875 21.8637 26.6354 24.4158 23.5 24.4158C20.3646 24.4158 17.8125 21.8637 17.8125 18.7283Z" fill="white"/>
</svg>
