<svg width="46" height="46" viewBox="0 0 46 46" fill="none" xmlns="http://www.w3.org/2000/svg">
<path d="M2.3 36.0333C1.03189 36.0333 0 37.0652 0 38.3333C0 39.6014 1.03189 40.6333 2.3 40.6333H3.06667V45.2333C3.06667 45.6564 3.40927 46 3.83333 46H36.8C37.2241 46 37.5667 45.6564 37.5667 45.2333V0.766667C37.5667 0.343633 37.2241 0 36.8 0H3.83333C3.40927 0 3.06667 0.343633 3.06667 0.766667V5.36667H2.3C1.03189 5.36667 0 6.39856 0 7.66667C0 8.93478 1.03189 9.96667 2.3 9.96667H3.06667V13.0333H2.3C1.03189 13.0333 0 14.0652 0 15.3333C0 16.6014 1.03189 17.6333 2.3 17.6333H3.06667V20.7H2.3C1.03189 20.7 0 21.7319 0 23C0 24.2681 1.03189 25.3 2.3 25.3H3.06667V28.3667H2.3C1.03189 28.3667 0 29.3986 0 30.6667C0 31.9348 1.03189 32.9667 2.3 32.9667H3.06667V36.0333H2.3ZM2.3 39.1C1.87697 39.1 1.53333 38.7557 1.53333 38.3333C1.53333 37.911 1.87697 37.5667 2.3 37.5667H3.06667V39.1H2.3ZM4.6 37.5667H6.9C7.32303 37.5667 7.66667 37.911 7.66667 38.3333C7.66667 38.7557 7.32303 39.1 6.9 39.1H4.6V37.5667ZM2.3 8.43333C1.87697 8.43333 1.53333 8.08902 1.53333 7.66667C1.53333 7.24432 1.87697 6.9 2.3 6.9H3.06667V8.43333H2.3ZM4.6 6.9H6.9C7.32303 6.9 7.66667 7.24432 7.66667 7.66667C7.66667 8.08902 7.32303 8.43333 6.9 8.43333H4.6V6.9ZM2.3 16.1C1.87697 16.1 1.53333 15.7557 1.53333 15.3333C1.53333 14.911 1.87697 14.5667 2.3 14.5667H3.06667V16.1H2.3ZM4.6 14.5667H6.9C7.32303 14.5667 7.66667 14.911 7.66667 15.3333C7.66667 15.7557 7.32303 16.1 6.9 16.1H4.6V14.5667ZM2.3 23.7667C1.87697 23.7667 1.53333 23.4224 1.53333 23C1.53333 22.5777 1.87697 22.2333 2.3 22.2333H3.06667V23.7667H2.3ZM4.6 22.2333H6.9C7.32303 22.2333 7.66667 22.5777 7.66667 23C7.66667 23.4224 7.32303 23.7667 6.9 23.7667H4.6V22.2333ZM2.3 31.4333C1.87697 31.4333 1.53333 31.089 1.53333 30.6667C1.53333 30.2443 1.87697 29.9 2.3 29.9H3.06667V31.4333H2.3ZM4.6 29.9H6.9C7.32303 29.9 7.66667 30.2443 7.66667 30.6667C7.66667 31.089 7.32303 31.4333 6.9 31.4333H4.6V29.9ZM4.6 32.9667H6.9C8.16811 32.9667 9.2 31.9348 9.2 30.6667C9.2 29.3986 8.16811 28.3667 6.9 28.3667H4.6V25.3H6.9C8.16811 25.3 9.2 24.2681 9.2 23C9.2 21.7319 8.16811 20.7 6.9 20.7H4.6V17.6333H6.9C8.16811 17.6333 9.2 16.6014 9.2 15.3333C9.2 14.0652 8.16811 13.0333 6.9 13.0333H4.6V9.96667H6.9C8.16811 9.96667 9.2 8.93478 9.2 7.66667C9.2 6.39856 8.16811 5.36667 6.9 5.36667H4.6V1.53333H36.0333V44.4667H4.6V40.6333H6.9C8.16811 40.6333 9.2 39.6014 9.2 38.3333C9.2 37.0652 8.16811 36.0333 6.9 36.0333H4.6V32.9667Z" fill="white"/>
<path d="M42.9339 0C41.2427 0 39.8672 1.37553 39.8672 3.06667V42.9333C39.8672 43.1366 39.9476 43.3321 40.0917 43.4755L42.3917 45.7755C42.5413 45.9247 42.7377 46 42.9339 46C43.13 46 43.3264 45.9247 43.476 45.7755L45.776 43.4755C45.9201 43.3321 46.0005 43.1366 46.0005 42.9333V3.06667C46.0005 1.37553 44.625 0 42.9339 0ZM42.9339 1.53333C43.7796 1.53333 44.4672 2.22094 44.4672 3.06667V18.4H41.4005V3.06667C41.4005 2.22094 42.0881 1.53333 42.9339 1.53333ZM44.4672 19.9333V21.4667H41.4005V19.9333H44.4672ZM42.9339 44.1495L41.4005 42.6162V23H44.4672V42.6162L42.9339 44.1495Z" fill="white"/>
<path d="M42.1641 4.59961H43.6974V13.0329H42.1641V4.59961Z" fill="white"/>
<path d="M22.9997 26.0659C27.6497 26.0659 31.4331 22.2825 31.4331 17.6326C31.4331 12.9826 27.6497 9.19922 22.9997 9.19922C18.3498 9.19922 14.5664 12.9826 14.5664 17.6326C14.5664 22.2825 18.3498 26.0659 22.9997 26.0659ZM22.9997 10.7326C26.8047 10.7326 29.8997 13.8283 29.8997 17.6326C29.8997 21.4368 26.8047 24.5326 22.9997 24.5326C19.1948 24.5326 16.0997 21.4368 16.0997 17.6326C16.0997 13.8283 19.1948 10.7326 22.9997 10.7326Z" fill="white"/>
<path d="M22.2336 22.1943V23.7667H23.7669V22.1943C25.0641 22.0064 26.0669 20.8978 26.0669 19.55C26.0669 18.0704 24.8632 16.8667 23.3836 16.8667H22.6169C21.9831 16.8667 21.4669 16.3505 21.4669 15.7167C21.4669 15.0828 21.9831 14.5667 22.6169 14.5667H23.3836C24.0175 14.5667 24.5336 15.0828 24.5336 15.7167V15.9083H26.0669V15.7167C26.0669 14.3688 25.0641 13.2603 23.7669 13.0723V11.5H22.2336V13.0723C20.9364 13.2602 19.9336 14.3688 19.9336 15.7167C19.9336 17.1963 21.1373 18.4 22.6169 18.4H23.3836C24.0175 18.4 24.5336 18.9161 24.5336 19.55C24.5336 20.1839 24.0175 20.7 23.3836 20.7H22.6169C21.9831 20.7 21.4669 20.1839 21.4669 19.55V19.3583H19.9336V19.55C19.9336 20.8978 20.9364 22.0064 22.2336 22.1943Z" fill="white"/>
<path d="M13.8008 29.1328H32.2008V30.6661H13.8008V29.1328Z" fill="white"/>
<path d="M14 31H32.4V32.5333H14V31Z" fill="white"/>
</svg>
