<svg width="16" height="15" viewBox="0 0 16 15" fill="none" xmlns="http://www.w3.org/2000/svg">
<path d="M12.8625 4.03343C12.8625 3.76605 12.6438 3.5501 12.375 3.5501H3.625C3.35621 3.5501 3.1375 3.76605 3.1375 4.03343C3.1375 4.30082 3.35621 4.51676 3.625 4.51676H12.375C12.6438 4.51676 12.8625 4.30082 12.8625 4.03343Z" fill="#06849B" stroke="#06849B" stroke-width="0.1"/>
<path d="M3.1375 7.49997C3.1375 8.00669 3.55209 8.41663 4.0625 8.41663C4.57291 8.41663 4.9875 8.00669 4.9875 7.49997C4.9875 6.99324 4.57291 6.5833 4.0625 6.5833C3.55209 6.5833 3.1375 6.99324 3.1375 7.49997Z" fill="#06849B" stroke="#06849B" stroke-width="0.1"/>
<path d="M3.1375 10.1001C3.1375 10.6068 3.55209 11.0167 4.0625 11.0167C4.57291 11.0167 4.9875 10.6068 4.9875 10.1001C4.9875 9.59334 4.57291 9.1834 4.0625 9.1834C3.55209 9.1834 3.1375 9.59334 3.1375 10.1001Z" fill="#06849B" stroke="#06849B" stroke-width="0.1"/>
<path d="M5.7625 7.49997C5.7625 8.00669 6.17708 8.41663 6.6875 8.41663C7.19792 8.41663 7.6125 8.00669 7.6125 7.49997C7.6125 6.99324 7.19792 6.5833 6.6875 6.5833C6.17708 6.5833 5.7625 6.99324 5.7625 7.49997Z" fill="#06849B" stroke="#06849B" stroke-width="0.1"/>
<path d="M5.7625 10.1001C5.7625 10.6068 6.17708 11.0167 6.6875 11.0167C7.19792 11.0167 7.6125 10.6068 7.6125 10.1001C7.6125 9.59334 7.19792 9.1834 6.6875 9.1834C6.17708 9.1834 5.7625 9.59334 5.7625 10.1001Z" fill="#06849B" stroke="#06849B" stroke-width="0.1"/>
<path d="M8.3875 7.49997C8.3875 8.00669 8.80208 8.41663 9.3125 8.41663C9.82292 8.41663 10.2375 8.00669 10.2375 7.49997C10.2375 6.99324 9.82292 6.5833 9.3125 6.5833C8.80208 6.5833 8.3875 6.99324 8.3875 7.49997Z" fill="#06849B" stroke="#06849B" stroke-width="0.1"/>
<path d="M8.3875 10.1001C8.3875 10.6068 8.80208 11.0167 9.3125 11.0167C9.82292 11.0167 10.2375 10.6068 10.2375 10.1001C10.2375 9.59334 9.82292 9.1834 9.3125 9.1834C8.80208 9.1834 8.3875 9.59334 8.3875 10.1001Z" fill="#06849B" stroke="#06849B" stroke-width="0.1"/>
<path d="M11.0125 7.49997C11.0125 8.00669 11.4271 8.41663 11.9375 8.41663C12.4479 8.41663 12.8625 8.00669 12.8625 7.49997C12.8625 6.99324 12.4479 6.5833 11.9375 6.5833C11.4271 6.5833 11.0125 6.99324 11.0125 7.49997Z" fill="#06849B" stroke="#06849B" stroke-width="0.1"/>
<path d="M3.1375 1.81667H2.3125C1.56047 1.81667 0.95 2.42063 0.95 3.16667V12.7C0.95 13.4461 1.56047 14.05 2.3125 14.05H13.6875C14.4396 14.05 15.05 13.4461 15.05 12.7V3.16667C15.05 2.42063 14.4396 1.81667 13.6875 1.81667H12.8625V1.43333C12.8625 1.16595 12.6438 0.95 12.375 0.95C12.1062 0.95 11.8875 1.16595 11.8875 1.43333V1.81667H4.1125V1.43333C4.1125 1.16595 3.89378 0.95 3.625 0.95C3.35622 0.95 3.1375 1.16595 3.1375 1.43333V1.81667ZM1.925 3.16667C1.925 2.95541 2.09804 2.78333 2.3125 2.78333H13.6875C13.902 2.78333 14.075 2.95541 14.075 3.16667V12.7C14.075 12.9113 13.902 13.0833 13.6875 13.0833H2.3125C2.09804 13.0833 1.925 12.9113 1.925 12.7V3.16667Z" fill="#06849B" stroke="#06849B" stroke-width="0.1"/>
</svg>
