<svg width="56" height="46" viewBox="0 0 56 46" fill="none" xmlns="http://www.w3.org/2000/svg">
<path d="M38.2957 33.1516C37.8211 33.0618 37.3633 33.3731 37.2723 33.8473C36.8118 36.2625 35.6344 40.5407 32.8606 42.1004C32.4239 42.3996 30.6083 43.1836 29.7692 42.7485C29.4239 42.5692 29.2411 42.1098 29.2259 41.384C29.5149 38.5543 29.3489 35.6969 28.7349 32.9199C29.6614 32.2558 30.5896 31.575 31.5165 30.864C32.2754 30.2808 33.0177 29.698 33.7415 29.1062C34.1153 28.8003 34.1708 28.2491 33.8649 27.8753C33.559 27.501 33.0083 27.446 32.634 27.7518C31.9238 28.3323 31.1949 28.9041 30.4508 29.4756C29.6777 30.0686 28.9016 30.6401 28.125 31.2014C27.8609 30.5999 27.5086 30.0409 27.0797 29.5432C26.2195 28.5483 24.9637 27.9842 23.6485 28.0022C24.9516 27.0288 26.4911 26.4213 28.1079 26.2428C28.3384 26.2147 28.5481 26.0956 28.6911 25.9124C28.8337 25.7292 28.8977 25.4967 28.8688 25.2663C28.8403 25.0358 28.7208 24.826 28.5376 24.6835C28.354 24.5413 28.1212 24.4776 27.8907 24.5065C25.7477 24.7639 23.7286 25.6483 22.0864 27.0491C20.4446 28.4495 19.2524 30.3042 18.6606 32.3796C18.1723 34.0878 17.9161 35.8538 17.8989 37.6304C16.1071 38.5937 14.2645 39.4589 12.3786 40.2214C11.0876 38.1355 10.2395 35.8062 9.88758 33.3788C10.1313 33.6085 10.3696 33.8444 10.6224 34.0655C10.7966 34.221 11.0255 34.3003 11.2587 34.2858C11.4915 34.2718 11.7091 34.1647 11.863 33.9894C12.0169 33.814 12.0942 33.5843 12.0778 33.3515C12.0614 33.1187 11.9528 32.9019 11.7759 32.7495C10.92 31.9987 10.113 31.194 9.35947 30.3405C8.34777 29.2425 7.46967 28.0284 6.74307 26.7241C2.38407 19.1319 5.31067 14.2761 5.45717 14.0411C10.1107 5.92982 18.1022 7.67632 21.5612 8.92352L20.7916 9.31922C20.3619 9.53992 20.1928 10.0673 20.4135 10.4969C20.6346 10.9266 21.162 11.0961 21.5916 10.875L24.0252 9.62384C24.0979 9.58712 31.3053 5.95974 37.2132 9.28517C37.6339 9.52033 38.166 9.37033 38.4023 8.95001C38.6386 8.5297 38.4906 7.99728 38.0711 7.75981C32.0934 4.39501 25.3061 7.10551 23.6201 7.87856C21.349 6.86916 10.0431 2.53476 3.96107 13.1345C3.8099 13.3716 0.31067 19.0353 5.20167 27.5505C5.94151 28.888 6.83216 30.1367 7.85516 31.2727L7.87704 31.5645C7.89852 31.8548 8.32899 37.1731 10.6844 40.8434C9.41764 41.2907 8.11454 41.6259 6.78914 41.8458C6.43523 41.0055 5.66844 40.411 4.76644 40.2774C3.86444 40.1438 2.95824 40.4906 2.37584 41.1926C2.29107 41.1176 2.21295 41.0348 2.14264 40.9457C1.07704 39.4262 2.22389 36.009 5.21024 31.8047C5.49032 31.4106 5.39774 30.8645 5.0036 30.5844C4.60946 30.3047 4.06337 30.3973 3.7833 30.7914C0.195395 35.8422 -0.867504 39.7008 0.709896 41.9504C0.989976 42.3461 1.34545 42.6821 1.7564 42.9391C1.77397 43.7809 2.19546 44.5625 2.8896 45.0395C3.58335 45.5165 4.4646 45.6297 5.2564 45.3442C6.04859 45.059 6.6548 44.4094 6.8849 43.5997C8.5697 43.3329 10.2232 42.8985 11.8212 42.3036C12.2837 42.7923 12.8161 43.2102 13.4009 43.5438C13.9435 43.9161 16.5224 45.2219 18.2876 44.3C18.9548 43.9532 19.7548 43.1598 19.7743 41.3523C19.7743 41.3168 19.7727 41.2809 19.7692 41.2457C19.702 40.6488 19.643 39.7395 19.6364 38.6957C22.2337 37.2574 24.7571 35.6902 27.1977 33.9996C27.6329 36.3894 27.7278 38.8289 27.4801 41.2457C27.4766 41.2813 27.475 41.3172 27.475 41.3523C27.4946 43.1597 28.2946 43.9531 28.9618 44.3C29.411 44.5227 29.9074 44.6332 30.4086 44.6227C31.6027 44.5668 32.7637 44.2098 33.7828 43.5848C36.9426 41.8129 38.3594 37.4891 38.9918 34.1746C39.0821 33.7 38.7703 33.2426 38.2957 33.1516ZM4.37473 43.7496C4.02082 43.7496 3.70168 43.5363 3.56653 43.2094C3.43098 42.8824 3.50559 42.5063 3.75598 42.2559C4.00637 42.0055 4.38254 41.9309 4.7095 42.0664C5.03645 42.2016 5.24973 42.5207 5.24973 42.8746C5.24934 43.3578 4.85793 43.7492 4.37473 43.7496ZM18.0237 41.3836C18.0085 42.1094 17.8257 42.5688 17.4804 42.7481C16.6429 43.1856 14.8265 42.3985 14.323 42.0591C14.0859 41.9239 13.8601 41.7692 13.6484 41.5966C15.0101 41.0348 16.4296 40.3751 17.907 39.6169C17.9402 40.5266 18.0022 41.1785 18.0237 41.3836ZM19.6979 36.643C19.8514 34.3899 20.3225 31.9969 21.4733 30.7094C22.0218 30.0989 22.8034 29.7496 23.6241 29.7496C24.4448 29.7493 25.2272 30.0981 25.7757 30.7082C26.1597 31.1618 26.4632 31.6774 26.6738 32.2328C24.3121 33.8766 21.9643 35.357 19.6979 36.643ZM28.7467 12.3C28.8678 12.4981 28.9049 12.736 28.8503 12.9617C28.7956 13.1871 28.6534 13.382 28.4553 13.5028C27.0412 14.3914 25.4069 14.868 23.7369 14.8786C22.0119 14.8504 20.3224 14.3836 18.8275 13.522C18.6244 13.4098 18.474 13.222 18.4092 12.9989C18.3447 12.7762 18.3713 12.5368 18.4834 12.3333C18.7166 11.9098 19.2486 11.7559 19.6721 11.9891C20.8494 12.7321 22.2127 13.1282 23.6053 13.1317C24.9979 13.1349 26.3631 12.7458 27.5444 12.0083C27.9569 11.7568 28.4952 11.8875 28.7467 12.3ZM38.0537 5.69652C38.1698 5.69652 38.2846 5.67308 38.3912 5.62816C40.2127 4.84144 42.1049 4.23086 44.0424 3.80436C44.3264 4.37624 44.8104 4.82386 45.4026 5.06216C45.9948 5.30005 46.6538 5.31255 47.2546 5.09654C47.8554 4.88052 48.3558 4.45123 48.6605 3.89034C48.9871 4.03448 49.2695 4.26182 49.4801 4.54972C50.1816 5.56142 49.8066 7.21572 49.3672 8.42552C49.2043 8.87943 49.4394 9.37982 49.893 9.54431C50.3465 9.70876 50.8473 9.47517 51.0133 9.02243C51.8558 6.69823 51.8234 4.85793 50.9191 3.55483C50.4347 2.87671 49.7433 2.37363 48.9492 2.12083C48.7941 1.32474 48.2793 0.645026 47.5547 0.280226C46.8305 -0.0846144 45.9781 -0.0936044 45.2461 0.255617C44.5141 0.605227 43.9848 1.27362 43.8129 2.06612C41.7215 2.513 39.6797 3.16572 37.7164 4.01412C37.3316 4.17467 37.1137 4.58482 37.1957 4.99342C37.2777 5.4024 37.6369 5.69652 38.0537 5.69652ZM46.3748 1.75002C46.7287 1.75002 47.0479 1.9633 47.183 2.29025C47.3186 2.6172 47.244 2.99337 46.9936 3.24377C46.7432 3.49417 46.367 3.56877 46.0401 3.43322C45.7131 3.29806 45.4998 2.97892 45.4998 2.62502C45.5002 2.14182 45.8916 1.75041 46.3748 1.75002ZM53.8951 12.98C50.7787 12.2327 47.901 10.7109 45.5287 8.55582C45.0408 8.1152 44.4068 7.87144 43.749 7.87184C43.0916 7.87184 42.4576 8.11598 41.9697 8.557C39.5978 10.7117 36.7205 12.2332 33.6045 12.98C32.9483 13.1109 32.3674 13.4882 31.9815 14.0343C31.5952 14.5808 31.4331 15.2542 31.528 15.9163C32.1597 20.1702 34.5827 30.4543 43.419 34.0593C43.6307 34.1456 43.8686 34.1456 44.0807 34.0593C52.917 30.4542 55.3407 20.1703 55.9717 15.9163C56.067 15.2538 55.9045 14.5808 55.5182 14.0343C55.1323 13.4882 54.5513 13.1109 53.8951 12.98ZM43.7501 32.299C36.0161 28.9088 33.8388 19.561 33.2591 15.659C33.2048 15.195 33.5224 14.7692 33.983 14.6887C37.3935 13.8746 40.5439 12.2129 43.1416 9.85751C43.4884 9.55009 44.0099 9.5497 44.3572 9.85673C46.9549 12.2126 50.1056 13.8747 53.5166 14.6887C53.9767 14.7692 54.2947 15.1954 54.2404 15.659C53.6611 19.5613 51.4845 28.909 43.7501 32.299ZM49.0001 18.375H46.3751V15.75C46.3751 15.518 46.2829 15.2953 46.1189 15.1313C45.9548 14.9672 45.7322 14.875 45.5001 14.875H42.0001C41.7681 14.875 41.5454 14.9672 41.3814 15.1313C41.2173 15.2953 41.1251 15.518 41.1251 15.75V18.375H38.5001C38.2681 18.375 38.0454 18.4672 37.8814 18.6313C37.7173 18.7953 37.6251 19.018 37.6251 19.25V22.75C37.6251 22.982 37.7173 23.2047 37.8814 23.3688C38.0454 23.5328 38.2681 23.625 38.5001 23.625H41.1251V26.25C41.1251 26.482 41.2173 26.7047 41.3814 26.8688C41.5454 27.0328 41.7681 27.125 42.0001 27.125H45.5001C45.7322 27.125 45.9548 27.0328 46.1189 26.8688C46.2829 26.7047 46.3751 26.482 46.3751 26.25V23.625H49.0001C49.2322 23.625 49.4548 23.5328 49.6189 23.3688C49.7829 23.2047 49.8751 22.982 49.8751 22.75V19.25C49.8751 19.018 49.7829 18.7953 49.6189 18.6313C49.4548 18.4672 49.2322 18.375 49.0001 18.375ZM48.1251 21.875H45.5001C45.2681 21.875 45.0454 21.9672 44.8814 22.1313C44.7173 22.2953 44.6251 22.518 44.6251 22.75V25.375H42.8751V22.75C42.8751 22.518 42.7829 22.2953 42.6189 22.1313C42.4548 21.9672 42.2322 21.875 42.0001 21.875H39.3751V20.125H42.0001C42.2322 20.125 42.4548 20.0328 42.6189 19.8688C42.7829 19.7047 42.8751 19.482 42.8751 19.25V16.625H44.6251V19.25C44.6251 19.482 44.7173 19.7047 44.8814 19.8688C45.0454 20.0328 45.2681 20.125 45.5001 20.125H48.1251V21.875Z" fill="white"/>
</svg>
