<svg width="50" height="52" viewBox="0 0 50 52" fill="none" xmlns="http://www.w3.org/2000/svg">
<path d="M25.8049 2.2248V0.611451C25.6991 0.249052 25.367 0 24.9899 0C24.6123 0 24.2802 0.249052 24.1745 0.611451V2.2248C9.44232 2.53033 0 10.8943 0 23.716V23.7585C0.0435938 24.122 0.314634 24.4169 0.673238 24.4901C1.03184 24.5633 1.39727 24.3987 1.5796 24.0811C2.0125 22.6459 3.48185 21.7884 5.5281 21.7884C6.9887 21.7884 8.85679 22.1959 9.48485 24.0982C9.62018 24.4245 9.94354 24.633 10.2965 24.6217C10.6494 24.6103 10.9587 24.3817 11.0728 24.0474C11.4974 22.6122 12.975 21.7547 15.0213 21.7547C16.4648 21.7547 18.3075 22.1539 18.9527 24.0219C19.0877 24.4685 19.5581 24.7228 20.0058 24.5905C20.2181 24.5162 20.3921 24.3604 20.4899 24.1576C20.4937 24.1125 20.4937 24.067 20.4899 24.0219C20.9315 22.7824 22.2307 21.9757 24.0733 21.7971V28.1402H24.073C24.1738 28.5098 24.5093 28.7664 24.8925 28.7664C25.2758 28.7664 25.6112 28.5098 25.7121 28.1402V21.8308C27.1727 21.9665 28.7435 22.5018 29.3379 24.1405H29.3375C29.4869 24.4385 29.7966 24.6216 30.1294 24.6087C30.4626 24.5962 30.7572 24.3896 30.883 24.081C31.3159 22.6458 32.819 21.7884 34.9081 21.7884C37.7019 21.7884 38.4319 23.0366 38.7463 23.9707C38.8679 24.3065 39.1871 24.5302 39.5442 24.5302C39.9017 24.5302 40.2205 24.3065 40.3426 23.9707C40.7755 22.5355 42.0408 21.8054 44.1466 21.8054C45.6921 21.8054 47.6534 22.1875 48.2478 23.9878C48.3517 24.2527 48.5818 24.4483 48.86 24.5078C49.1386 24.5677 49.4283 24.484 49.6318 24.2849C49.7603 24.1276 49.8373 23.9351 49.8528 23.733C49.9123 10.8942 40.4699 2.53001 25.8055 2.22432L25.8049 2.2248ZM5.53639 20.1584C4.20088 20.1178 2.88478 20.4886 1.76645 21.2199C2.66637 12.7793 8.17733 6.90306 16.9489 4.75549C12.7032 7.88019 9.99437 13.7221 9.5273 21.3984C8.37792 20.5413 6.96933 20.1039 5.53639 20.1589V20.1584ZM15.0466 20.1584C13.6657 20.1091 12.3063 20.5113 11.1748 21.3047C11.7521 12.3123 15.4205 6.19892 21.2198 4.41526C19.1735 7.37887 19.012 13.2037 18.9613 21.3474C17.8248 20.5267 16.4473 20.1081 15.0465 20.1586L15.0466 20.1584ZM24.9557 20.1584C23.4076 20.0989 21.8814 20.5363 20.5998 21.4063C20.5998 10.1299 21.0497 4.55956 24.8454 3.88899H25.0494C28.8704 4.55996 29.295 10.13 29.295 21.415H29.2946C28.0225 20.5375 26.5001 20.0966 24.9557 20.1584H24.9557ZM34.9667 20.1584C33.5407 20.1152 32.1392 20.5386 30.9758 21.3639C30.9758 13.2206 30.7635 7.3877 28.7086 4.38129C34.4656 6.19863 38.1169 12.2274 38.6944 21.1601C37.5875 20.4436 36.2834 20.0934 34.9669 20.1582L34.9667 20.1584ZM44.2052 20.1584C42.8318 20.0989 41.4774 20.4928 40.3499 21.279C39.9 13.6368 37.3272 7.89669 33.1407 4.80586C41.8018 6.98817 47.245 12.8218 48.1358 21.1945H48.1362C46.9595 20.4625 45.5896 20.1016 44.2048 20.1589L44.2052 20.1584Z" fill="white"/>
<path d="M31.5588 28.2583C29.6459 28.2602 27.8124 29.024 26.464 30.3811L24.9526 31.8417L23.4496 30.3387C22.1206 28.8584 20.2408 27.9907 18.2521 27.9399C16.2635 27.8887 14.3411 28.659 12.9382 30.0691C11.5348 31.4793 10.7744 33.405 10.8354 35.3936C10.8961 37.3818 11.7733 39.2575 13.26 40.5794L24.3753 51.7617C24.5304 51.9115 24.737 51.9967 24.9527 51.9998C25.1683 51.9967 25.3749 51.9114 25.53 51.7617L36.6793 40.6124C38.0367 39.2576 38.8006 37.4195 38.8029 35.5021C38.8055 33.5843 38.0466 31.7443 36.6934 30.3857C35.3397 29.0275 33.5023 28.2621 31.5845 28.2575L31.5588 28.2583ZM35.5242 39.4843L24.9523 50.0309L14.3727 39.4843C12.9588 38.0692 12.4075 36.007 12.9261 34.0753C13.4451 32.1435 14.9549 30.6352 16.8875 30.1185C18.82 29.6019 20.8814 30.1553 22.295 31.5704L24.3754 33.6425C24.701 33.9446 25.2045 33.9446 25.53 33.6425L27.6021 31.5704C29.0156 30.1553 31.0771 29.6019 33.0097 30.1185C34.9418 30.6352 36.4521 32.1435 36.9706 34.0753C37.4895 36.007 36.938 38.0692 35.5244 39.4843H35.5242Z" fill="white"/>
<path d="M27.9958 39.4848H25.8051V37.2516C25.7046 36.8816 25.3688 36.625 24.9855 36.625C24.6027 36.625 24.2668 36.8816 24.1664 37.2516V39.4848H21.9075C21.5379 39.5852 21.2812 39.9211 21.2812 40.3043C21.2812 40.6872 21.5379 41.0231 21.9075 41.1235H24.1069V43.3483C24.2073 43.7179 24.5432 43.9749 24.9264 43.9749C25.3093 43.9749 25.6452 43.7179 25.7456 43.3483V41.1152H27.9704C28.34 41.0147 28.597 40.6789 28.597 40.2956C28.597 39.9124 28.34 39.5769 27.9704 39.4764L27.9958 39.4848Z" fill="white"/>
</svg>
