<svg width="48" height="53" viewBox="0 0 48 53" fill="none" xmlns="http://www.w3.org/2000/svg">
<path d="M26.4727 28.0498H28.1227V29.6998H26.4727V28.0498Z" fill="white"/>
<path d="M26.4727 31.3496H28.1227V32.9996H26.4727V31.3496Z" fill="white"/>
<path d="M26.4727 34.6504H28.1227V36.3004H26.4727V34.6504Z" fill="white"/>
<path d="M19.875 28.0498H21.525V29.6998H19.875V28.0498Z" fill="white"/>
<path d="M19.875 31.3496H21.525V32.9996H19.875V31.3496Z" fill="white"/>
<path d="M19.875 34.6504H21.525V36.3004H19.875V34.6504Z" fill="white"/>
<path d="M24.8242 1.67065V0H23.1742V1.67065C10.3627 2.10782 0.0742188 12.6596 0.0742188 25.5749H1.72422C1.72422 25.3687 1.73416 25.1657 1.74006 24.9609C2.754 23.2557 4.53402 22.2749 6.67422 22.2749C8.82912 22.2749 10.6217 23.2682 11.6316 24.9974C11.629 25.1897 11.6242 25.3812 11.6242 25.5749H13.2742C13.2742 25.3735 13.279 25.1739 13.2816 24.9735C14.294 23.2601 16.0792 22.2749 18.2242 22.2749C20.3758 22.2749 22.1643 23.2649 23.1742 24.986V47.0253C23.1742 48.5674 23.7757 50.0174 24.8662 51.1084C25.9571 52.1989 27.4071 52.8003 28.9492 52.8003C30.4914 52.8003 31.9413 52.1989 33.0323 51.1084C34.1228 50.0175 34.7242 48.5675 34.7242 47.0253H33.0742C33.0742 48.1266 32.6444 49.163 31.8655 49.9416C31.0869 50.7205 30.0505 51.1503 28.9492 51.1503C27.848 51.1503 26.8116 50.7205 26.033 49.9416C25.254 49.163 24.8242 48.1266 24.8242 47.0253V24.987C25.8356 23.2651 27.6252 22.2751 29.7742 22.2751C31.9207 22.2751 33.7062 23.2611 34.7169 24.9744C34.7194 25.1752 34.7242 25.3737 34.7242 25.5751H36.3742C36.3742 25.3814 36.3694 25.1906 36.3669 24.9984C37.3756 23.2692 39.1686 22.2751 41.3242 22.2751C43.4652 22.2751 45.2463 23.2559 46.2584 24.9623C46.2643 25.1659 46.2742 25.3696 46.2742 25.5751H47.9242C47.9242 12.6599 37.6348 2.10835 24.8242 1.67087L24.8242 1.67065ZM6.67422 20.6249C4.88901 20.6249 3.25787 21.1965 1.97832 22.2138C3.33151 13.3079 9.97893 6.11924 18.5999 3.96575C14.8841 7.3689 12.2474 14.2288 11.7237 22.5278C10.3978 21.319 8.6314 20.6251 6.6746 20.6251L6.67422 20.6249ZM18.2242 20.6249C16.3739 20.6249 14.6941 21.2444 13.3946 22.3319C14.1356 12.2858 18.2488 4.19798 23.1739 3.37581V22.4385C21.8598 21.286 20.1328 20.6254 18.2239 20.6254L18.2242 20.6249ZM29.7742 20.6249C27.8661 20.6249 26.1394 21.2856 24.8242 22.4392V3.37552C29.7495 4.19795 33.8627 12.2848 34.6035 22.3317C33.3042 21.2445 31.6243 20.6249 29.7739 20.6249H29.7742ZM41.3242 20.6249C39.3663 20.6249 37.6011 21.3188 36.2751 22.5265C35.7514 14.2278 33.1147 7.36815 29.3989 3.96443C38.0183 6.11933 44.6666 13.3068 46.0205 22.2125C44.7418 21.196 43.1098 20.6243 41.3246 20.6243L41.3242 20.6249Z" fill="white"/>
<path d="M39.8688 34.6501H41.325V33.0001H40.3078L42.3637 29.5723L39.8986 27.1066L37.2 28.0056L34.5014 27.1055L32.0363 29.5712L34.0922 33.0001H33.075V34.6501H34.5312C34.1773 35.4604 33.3778 36.3274 32.4861 37.2927C30.543 39.3946 28.125 42.0118 28.125 46.2001C28.125 47.2133 28.272 48.1388 28.5607 48.9514L30.1157 48.3986C29.8895 47.7636 29.775 47.0237 29.775 46.2002C29.775 42.6567 31.8581 40.402 33.6971 38.4131C34.8926 37.1204 35.9518 35.9727 36.2752 34.6502H38.1248C38.4482 35.9727 39.5074 37.1193 40.703 38.4131C42.5419 40.402 44.6251 42.6567 44.6251 46.2002C44.6251 49.4843 42.9592 51.1502 39.6751 51.1502H34.7251V52.8002H39.6751C43.8693 52.8002 46.2751 50.3944 46.2751 46.2002C46.2751 42.0118 43.8571 39.3946 41.9151 37.2927C41.0231 36.3274 40.2228 35.4604 39.8688 34.6502L39.8688 34.6501ZM36.017 33.0001L34.1129 29.8278L34.9478 28.9936L37.2 29.7446L39.4515 28.9947L40.2864 29.8289L38.383 33.0001L36.017 33.0001Z" fill="white"/>
<path d="M12.45 34.6504C7.44626 34.6504 3.375 38.7216 3.375 43.7254C3.375 48.7291 7.44626 52.8004 12.45 52.8004C17.4537 52.8004 21.525 48.7291 21.525 43.7254C21.525 38.7216 17.4537 34.6504 12.45 34.6504ZM12.45 51.1504C8.3563 51.1504 5.025 47.8198 5.025 43.7254C5.025 39.6309 8.3563 36.3004 12.45 36.3004C16.5437 36.3004 19.875 39.6309 19.875 43.7254C19.875 47.8198 16.5437 51.1504 12.45 51.1504Z" fill="white"/>
<path d="M13.2735 42.9002H11.6235C11.4032 42.9002 11.1962 42.8144 11.0393 42.6575C10.8843 42.5024 10.7985 42.2962 10.7985 42.0752C10.7985 41.8542 10.8843 41.648 11.0393 41.4929C11.1962 41.336 11.4032 41.2502 11.6235 41.2502H14.9235V39.6002H13.2735V37.9502H11.6235V39.6002C10.9635 39.6002 10.3414 39.8576 9.87363 40.3246C9.40588 40.7917 9.14844 41.4137 9.14844 42.0752C9.14844 42.7366 9.40662 43.3587 9.87363 43.8257C10.3406 44.2927 10.9635 44.5501 11.6235 44.5501H13.2735C13.4937 44.5501 13.7007 44.6359 13.8576 44.7928C14.0127 44.9479 14.0985 45.1541 14.0985 45.3751C14.0985 45.5961 14.0127 45.8023 13.8576 45.9574C13.7007 46.1143 13.4937 46.2001 13.2735 46.2001H9.97347V47.8501H11.6235V49.5001H13.2735V47.8501C13.9335 47.8501 14.5556 47.5927 15.0233 47.1257C15.4911 46.6587 15.7485 46.0366 15.7485 45.3752C15.7485 44.7137 15.4903 44.0916 15.0233 43.6246C14.5563 43.1577 13.9335 42.9002 13.2735 42.9002Z" fill="white"/>
</svg>
