<svg width="47" height="46" viewBox="0 0 47 46" fill="none" xmlns="http://www.w3.org/2000/svg">
<path d="M45.423 22.8096C45.4067 22.2749 45.1306 21.7613 44.6152 21.3797L38.125 16.5696V2.6875C38.125 1.34358 37.0314 0.25 35.6875 0.25H11.3125C9.96854 0.25 8.87496 1.34358 8.87496 2.6875V16.5696L2.38406 21.379C1.86899 21.7609 1.5926 22.2742 1.57628 22.8088C1.07354 23.2557 0.75 23.8999 0.75 24.6246V43.3121C0.75 44.6561 1.84358 45.7496 3.1875 45.7496H43.8125C45.1564 45.7496 46.25 44.6561 46.25 43.3121V24.6246C46.25 23.8999 45.9264 23.2557 45.423 22.8096ZM38.125 18.5918L42.9764 22.1871H38.125V18.5918ZM38.125 23.8121H41.8748L38.125 25.6185V23.8121ZM10.5 2.68713C10.5 2.23953 10.8649 1.87463 11.3125 1.87463H35.6875C36.1351 1.87463 36.5 2.23953 36.5 2.68713V26.401L34.875 27.1834V7.2776C34.875 7.26853 34.8703 7.26055 34.8703 7.25148C34.8688 7.19054 34.85 7.13432 34.8354 7.07665C34.8231 7.03131 34.8184 6.98488 34.7995 6.94353C34.7785 6.89565 34.7433 6.85756 34.7136 6.8144C34.6835 6.77233 34.6584 6.72735 34.6211 6.6918C34.587 6.65916 34.5438 6.63993 34.505 6.61309C34.4553 6.57972 34.4092 6.54562 34.353 6.52386C34.344 6.5206 34.3385 6.51334 34.3302 6.51008C33.1847 6.1129 32.2641 5.19123 31.8658 4.04574C31.8626 4.03667 31.8553 4.03123 31.8521 4.02289C31.8303 3.96594 31.7944 3.91879 31.761 3.86837C31.7349 3.83028 31.7157 3.78784 31.6845 3.75447C31.6471 3.71529 31.6 3.68954 31.5561 3.65871C31.5154 3.62933 31.4781 3.59632 31.4328 3.57492C31.3896 3.55534 31.3417 3.55062 31.2953 3.53829C31.2383 3.52378 31.1839 3.50564 31.1248 3.50419C31.1139 3.50419 31.1059 3.49948 31.0969 3.49948H15.9036C15.8938 3.49948 15.8865 3.50419 15.8767 3.50528C15.8173 3.50673 15.7628 3.52487 15.7063 3.53938C15.6598 3.55171 15.612 3.55643 15.5688 3.57601C15.5216 3.59705 15.4835 3.63187 15.4411 3.66198C15.399 3.69208 15.3533 3.71711 15.3178 3.75447C15.2851 3.78857 15.2659 3.83173 15.2391 3.87163C15.2057 3.92132 15.1716 3.96738 15.1498 4.02361C15.1466 4.03268 15.1393 4.03812 15.1361 4.04646C14.7389 5.19195 13.8172 6.11253 12.6717 6.5108C12.6627 6.51406 12.6572 6.52132 12.6489 6.52458C12.5927 6.54634 12.5466 6.58153 12.4969 6.61381C12.4577 6.63993 12.4142 6.66024 12.3808 6.69252C12.3435 6.72843 12.3184 6.77305 12.2883 6.81512C12.2582 6.85828 12.2234 6.89637 12.2024 6.94425C12.1835 6.9856 12.1788 7.03203 12.1665 7.07737C12.1509 7.13577 12.1331 7.19127 12.1316 7.2522C12.1316 7.26127 12.1269 7.26925 12.1269 7.27832V27.1841L10.5019 26.4017L10.5012 2.68692L10.5 2.68713ZM13.75 7.81962C14.9274 7.2632 15.8886 6.30196 16.445 5.12463H30.5546C31.111 6.30206 32.0723 7.26322 33.2496 7.81962V27.965L24.611 32.1251C24.0292 32.4062 22.9689 32.4062 22.3879 32.1251L13.7497 27.965L13.75 7.81962ZM8.87498 18.592V22.1873H4.02282L8.87498 18.592ZM8.87498 23.8123V25.6187L5.12439 23.8123H8.87498ZM44.625 43.3123C44.625 43.7606 44.2601 44.1248 43.8125 44.1248H3.18748C2.73988 44.1248 2.37498 43.7606 2.37498 43.3123V24.6248C2.37498 24.5069 2.40255 24.3974 2.44716 24.2958C2.52261 24.3437 2.59008 24.3959 2.67386 24.4366L21.6827 33.591C22.2003 33.8405 22.8495 33.9646 23.4985 33.9646C24.1477 33.9638 24.797 33.8402 25.3153 33.591L44.3241 24.4366C44.4079 24.3959 44.4761 24.343 44.5508 24.2958C44.5972 24.3967 44.6248 24.5069 44.6248 24.6248L44.625 43.3123ZM30.8125 18.1248C30.8125 14.0924 27.5317 10.8123 23.5 10.8123C19.4683 10.8123 16.1875 14.0931 16.1875 18.1248C16.1875 22.1565 19.4683 25.4373 23.5 25.4373C27.5317 25.4373 30.8125 22.1565 30.8125 18.1248ZM17.8125 18.1248C17.8125 14.9887 20.3646 12.4373 23.5 12.4373C26.6354 12.4373 29.1875 14.9894 29.1875 18.1248C29.1875 21.2602 26.6354 23.8123 23.5 23.8123C20.3646 23.8123 17.8125 21.2602 17.8125 18.1248Z" fill="white"/>
</svg>
