<svg width="50" height="42" viewBox="0 0 50 42" fill="none" xmlns="http://www.w3.org/2000/svg">
<path d="M43.1428 17.4005V3.05347C43.1428 1.36959 41.8263 0 40.2093 0H2.93357C1.31658 0 0 1.36959 0 3.05347V27.5714C0 29.2553 1.31658 30.6249 2.93357 30.6249H6.17049V42H49.3054V17.3996L43.1428 17.4005ZM1.77874 7.4975H41.3647V10.3382L1.77874 10.3378V7.4975ZM2.93347 1.85575H40.2081C40.8456 1.85575 41.3641 2.39339 41.3641 3.05368V5.64207H1.77811V3.05368C1.77811 2.39335 2.2966 1.85575 2.93284 1.85575H2.93347ZM2.93347 28.7685C2.29596 28.7685 1.77749 28.2309 1.77749 27.5713V12.1933H41.3635V17.3994H6.1706V28.7672H2.93368L2.93347 28.7685ZM47.5261 40.1447H7.9485V19.257H47.5261V40.1447Z" fill="white"/>
<path d="M26.8473 24.7139C24.1338 24.7139 21.9258 27.0185 21.9258 29.8507C21.9258 32.6828 24.1334 34.9858 26.8473 34.9858C29.5608 34.9858 31.7688 32.6832 31.7688 29.8507C31.7688 27.0185 29.5608 24.7139 26.8473 24.7139ZM26.8473 33.1303C25.1142 33.1303 23.7046 31.6592 23.7046 29.8506C23.7046 28.042 25.1146 26.5689 26.8473 26.5689C28.5805 26.5689 29.99 28.0407 29.99 29.8506C29.9912 31.6596 28.5813 33.1303 26.8473 33.1303Z" fill="white"/>
<path d="M17.6797 29.4463H19.5689V31.5692H17.6797V29.4463Z" fill="white"/>
<path d="M34.0742 29.4463H35.9635V31.5692H34.0742V29.4463Z" fill="white"/>
</svg>
