<svg width="28" height="49" viewBox="0 0 28 49" fill="none" xmlns="http://www.w3.org/2000/svg">
<path d="M24.7855 0H2.94242C1.38675 0 0.121094 1.26565 0.121094 2.82133V46.1787C0.121094 47.7343 1.38675 49 2.94242 49H24.7864C26.3421 49 27.6077 47.7343 27.6077 46.1787L27.6073 2.82133C27.6073 1.26602 26.3417 0 24.786 0H24.7855ZM20.1206 1.53149L19.6258 3.05466H8.10222L7.60736 1.53149H20.1206ZM26.0756 46.1788C26.0756 46.8897 25.497 47.469 24.7854 47.469L2.94233 47.4686C2.23142 47.4686 1.65212 46.8901 1.65212 46.1784V2.82106C1.65212 2.11015 2.23066 1.53085 2.94233 1.53085H5.99736L6.81757 4.05643C6.92001 4.37203 7.21397 4.5852 7.54579 4.5852L20.182 4.58556C20.5138 4.58556 20.8078 4.37239 20.9102 4.05679L21.7304 1.53121H24.7855C25.4964 1.53121 26.0757 2.10975 26.0757 2.82142L26.0756 46.1788ZM13.8641 39.7813C12.3968 39.7813 11.2037 40.9748 11.2037 42.4416C11.2037 43.909 12.3973 45.102 13.8641 45.102C15.3314 45.102 16.5249 43.9085 16.5249 42.4416C16.5249 40.9751 15.3313 39.7813 13.8641 39.7813ZM13.8641 43.571C13.2416 43.571 12.7345 43.0646 12.7345 42.4414C12.7345 41.8188 13.2413 41.3117 13.8641 41.3117C14.4867 41.3117 14.9938 41.8181 14.9938 42.4414C14.9938 43.065 14.4866 43.571 13.8641 43.571ZM22.9906 28.2765L18.8016 26.7046C18.2357 26.4918 17.6434 26.556 17.1356 26.885L15.725 27.7986C15.6092 27.874 15.4858 27.8747 15.369 27.8007C14.4081 27.1933 13.5107 26.4734 12.7017 25.6633L12.7006 25.6623C11.8901 24.8532 11.1709 23.9555 10.5632 22.9949C10.4892 22.8781 10.49 22.7551 10.5646 22.6389L11.4786 21.2276C11.8072 20.7197 11.8714 20.1282 11.6589 19.5623L10.0871 15.3729C9.88837 14.8431 9.46781 14.4369 8.93328 14.2592C8.39909 14.0813 7.81952 14.1542 7.34232 14.4586L5.14971 15.8596C3.87363 16.6751 3.27593 18.1536 3.62764 19.6266C4.49581 23.2638 6.38471 26.6019 9.08489 29.2729C11.7619 31.9792 15.0998 33.8681 18.7377 34.7363C19.0183 34.803 19.2989 34.8358 19.5749 34.8358C20.7497 34.8358 21.8447 34.2476 22.5044 33.2145L23.9053 31.0219C24.2101 30.5447 24.283 29.9651 24.1052 29.4309C23.9281 28.8968 23.5212 28.4755 22.9914 28.2767L22.9906 28.2765ZM22.6148 30.1968L21.2139 32.3894C20.7475 33.119 19.9345 33.4473 19.0926 33.2464C15.7339 32.4449 12.6497 30.6981 10.1674 28.1899C7.66493 25.7138 5.91811 22.6295 5.11673 19.2707C4.91582 18.4289 5.24441 17.6155 5.97409 17.1495L8.1667 15.7486C8.23126 15.7071 8.29366 15.6948 8.34596 15.6948C8.38852 15.6948 8.42459 15.7035 8.44948 15.7114C8.5043 15.7298 8.60458 15.7803 8.65362 15.9109L10.2255 20.1003C10.2662 20.2096 10.2568 20.2979 10.1937 20.3953L9.27974 21.8063C8.88046 22.4231 8.87613 23.1917 9.26892 23.8128C9.93692 24.8689 10.7268 25.8553 11.6178 26.7444C12.5069 27.6353 13.4937 28.426 14.5505 29.0943C15.1717 29.4871 15.9403 29.4828 16.557 29.0835L17.9676 28.1699C18.0657 28.1064 18.1541 28.0966 18.2634 28.1381L22.4528 29.71C22.583 29.759 22.6338 29.8586 22.6522 29.9141C22.6703 29.9693 22.6901 30.0789 22.6147 30.1965L22.6148 30.1968ZM14.83 15.6252C14.83 15.2025 15.1727 14.8598 15.5954 14.8598C17.708 14.8598 19.6939 15.6822 21.1875 17.1765C22.6811 18.6702 23.5034 20.6561 23.5034 22.7686C23.5034 23.1913 23.1608 23.534 22.7381 23.534C22.3153 23.534 21.9727 23.1913 21.9727 22.7686C21.9727 21.0651 21.309 19.4636 20.1047 18.2593C18.9004 17.0549 17.2985 16.3913 15.5954 16.3913C15.1723 16.391 14.83 16.0479 14.83 15.6252H14.83ZM14.83 21.2155C14.83 20.7928 15.1727 20.4501 15.5954 20.4501C16.2147 20.4501 16.7965 20.6914 17.2351 21.1293C17.673 21.5672 17.9143 22.1493 17.9143 22.769C17.9143 23.1917 17.5716 23.5344 17.1489 23.5344C16.7262 23.5344 16.3835 23.1917 16.3835 22.769C16.3835 22.5591 16.3016 22.3614 16.153 22.2125C16.0044 22.0639 15.8068 21.982 15.5961 21.982C15.1723 21.9809 14.83 21.6383 14.83 21.2155L14.83 21.2155ZM14.83 18.4205C14.83 17.9978 15.1727 17.6544 15.5954 17.6544C16.9613 17.6544 18.2454 18.186 19.2113 19.1524C20.1772 20.1183 20.7093 21.4023 20.7093 22.7682C20.7093 23.191 20.3666 23.5336 19.9439 23.5336C19.5211 23.5336 19.1785 23.191 19.1785 22.7675C19.1785 21.811 18.8059 20.9114 18.1293 20.2344C17.4526 19.5577 16.5535 19.1852 15.5961 19.1852C15.1723 19.1859 14.83 18.8436 14.83 18.4205V18.4205Z" fill="white"/>
</svg>
