<svg width="44" height="48" viewBox="0 0 44 48" fill="none" xmlns="http://www.w3.org/2000/svg">
<path d="M43.1573 14.8748H1.0184C0.552804 14.8748 0.175781 15.2522 0.175781 15.7178V46.6197C0.175781 47.0849 0.552804 47.4623 1.0184 47.4623H43.1573C43.6229 47.4623 43.9999 47.0849 43.9999 46.6197V15.7178C43.9999 15.2522 43.6229 14.8748 43.1573 14.8748ZM42.3146 45.7766H1.86134V16.5604H42.3146V45.7766Z" fill="white"/>
<path d="M13.0639 34.8483L10.2884 37.6238L9.1985 36.5339C8.86655 36.2243 8.34922 36.2333 8.02824 36.5543C7.70727 36.8753 7.69786 37.393 8.00747 37.725L9.69313 39.4106C10.0219 39.7391 10.5549 39.7391 10.8842 39.4106L14.2555 36.0393C14.4224 35.8833 14.5192 35.6662 14.5235 35.4377C14.5275 35.2089 14.4385 34.9886 14.2766 34.8267C14.1152 34.6653 13.8945 34.5759 13.666 34.5802C13.4372 34.5841 13.22 34.6809 13.064 34.8483L13.0639 34.8483Z" fill="white"/>
<path d="M31.6061 28.1733C31.9353 28.5017 32.4683 28.5017 32.7971 28.1733L36.1684 24.802C36.478 24.4701 36.4686 23.9523 36.1477 23.6318C35.8267 23.3108 35.3093 23.3014 34.9774 23.611L32.2018 26.3865L31.112 25.2966C30.956 25.1293 30.7388 25.0325 30.51 25.0286C30.2815 25.0243 30.0608 25.1136 29.8994 25.2751C29.7375 25.4369 29.6485 25.6572 29.6525 25.8861C29.6568 26.1146 29.7536 26.3317 29.9205 26.4877L31.6061 28.1733Z" fill="white"/>
<path d="M43.1572 4.1995H35.0104V1.10922C35.0104 0.644016 34.633 0.266602 34.1674 0.266602C33.7022 0.266602 33.3248 0.644016 33.3248 1.10922V4.1995H10.8508V1.10922C10.8508 0.644016 10.4734 0.266602 10.0082 0.266602C9.54256 0.266602 9.16514 0.644016 9.16514 1.10922V4.1995H1.0184C0.552803 4.1995 0.175781 4.57692 0.175781 5.04212V11.7846C0.175781 12.2498 0.552803 12.6273 1.0184 12.6273C1.48399 12.6273 1.86101 12.2498 1.86101 11.7846V5.8851H9.16518V7.12669C8.20028 7.40025 7.42826 8.1249 7.09426 9.07099C6.76035 10.0167 6.90614 11.0655 7.48539 11.8842C8.06425 12.7033 9.0049 13.1901 10.0082 13.1901C11.0111 13.1901 11.9517 12.7033 12.531 11.8842C13.1103 11.0654 13.2561 10.0167 12.9218 9.07099C12.5878 8.12491 11.8158 7.40029 10.8508 7.12669V5.8851H33.3249V7.12669C32.36 7.40025 31.588 8.1249 31.254 9.07099C30.9197 10.0167 31.0654 11.0655 31.6447 11.8842C32.2239 12.7033 33.1645 13.1901 34.1675 13.1901C35.1708 13.1901 36.1114 12.7033 36.6903 11.8842C37.2696 11.0654 37.4154 10.0167 37.0815 9.07099C36.7475 8.12491 35.9755 7.40029 35.0105 7.12669V5.8851H42.3147V11.7846C42.3147 12.2498 42.6917 12.6273 43.1573 12.6273C43.6229 12.6273 43.9999 12.2498 43.9999 11.7846V5.04212C43.9999 4.57692 43.6229 4.1995 43.1573 4.1995H43.1572ZM11.4126 10.099C11.4126 10.6669 11.0701 11.1792 10.5453 11.3967C10.0205 11.6142 9.41616 11.4939 9.01444 11.0922C8.61272 10.6905 8.4928 10.0866 8.70991 9.56135C8.92743 9.03657 9.43966 8.69443 10.008 8.69443C10.3803 8.69443 10.7377 8.84219 11.0011 9.10595C11.2645 9.36932 11.4126 9.72635 11.4126 10.0991L11.4126 10.099ZM35.5722 10.099H35.5718C35.5718 10.6669 35.2297 11.1792 34.7049 11.3967C34.1801 11.6142 33.5758 11.4939 33.174 11.0922C32.7723 10.6905 32.652 10.0866 32.8695 9.56135C33.087 9.03657 33.5993 8.69443 34.1672 8.69443C34.5399 8.69443 34.8973 8.84219 35.1607 9.10595C35.4241 9.36932 35.5718 9.72635 35.5718 10.0991L35.5722 10.099Z" fill="white"/>
<path d="M5.79223 43.2487H38.3796C38.8452 43.2487 39.2226 42.8713 39.2226 42.4061V20.5721C39.2226 20.1065 38.8452 19.7295 38.3796 19.7295H5.79223C5.32663 19.7295 4.94922 20.1065 4.94922 20.5721V42.4061C4.94922 42.8713 5.32663 43.2487 5.79223 43.2487ZM6.63484 32.3317H15.81V41.5629H6.63484V32.3317ZM17.4956 32.3317H26.6767V41.5629H17.4956V32.3317ZM37.5367 41.5629H28.3615V32.3317H37.5367V41.5629ZM37.5367 30.6459L28.3615 30.6463V21.4151H37.5367V30.6459ZM26.6759 30.6459L17.4948 30.6463V21.4151H26.6759V30.6459ZM6.63484 21.4151H15.81V30.6463H6.63484V21.4151Z" fill="white"/>
</svg>
