<svg width="110" height="120" viewBox="0 0 110 120" fill="none" xmlns="http://www.w3.org/2000/svg">
<path d="M8.46094 19.3556H71.9223V23.2266H8.46094V19.3556Z" fill="white"/>
<path d="M8.46094 27.0977H71.9223V30.9687H8.46094V27.0977Z" fill="white"/>
<path d="M8.46094 34.8399H71.9223V38.7109H8.46094V34.8399Z" fill="white"/>
<path d="M8.46094 42.582H71.9223V46.4531H8.46094V42.582Z" fill="white"/>
<path d="M8.46094 50.3242H71.9223V54.1952H8.46094V50.3242Z" fill="white"/>
<path d="M8.46094 58.0654H71.9223V61.9365H8.46094V58.0654Z" fill="white"/>
<path d="M8.46094 65.8076H71.9223V69.6786H8.46094V65.8076Z" fill="white"/>
<path d="M108.441 85.2293L88.8459 80.3403V1.93551C88.8459 0.867529 87.9006 0 86.7306 0H10.5769C9.40684 0 8.46152 0.867529 8.46152 1.93551V7.74204H2.11538C0.945319 7.74204 0 8.60957 0 9.67755V102.582C0 103.65 0.945319 104.518 2.11538 104.518H67.8058L71.9959 118.575C72.2311 119.361 72.9799 119.93 73.8677 119.994C73.9243 119.997 73.9819 120 74.0367 120C74.8621 120 75.6166 119.561 75.9613 118.865L86.2123 98.2349L108.76 88.8556C109.572 88.5186 110.063 87.7521 109.993 86.939C109.922 86.126 109.302 85.4408 108.441 85.2265L108.441 85.2293ZM12.6925 3.87146H84.6154V79.2856L80.3847 78.2306V9.67811C80.3847 8.61013 79.4393 7.7426 78.2693 7.7426H12.6925V3.87146ZM4.231 100.647V11.6135H76.1539V77.1753L61.9025 73.6198C61.1707 73.4374 60.3878 73.6275 59.8504 74.1192C59.3131 74.6108 59.1034 75.3271 59.3046 75.9968L66.6518 100.647L4.231 100.647ZM74.5341 112.384L65.4786 82.0062L82.0806 97.1965L74.5332 112.384L74.5341 112.384ZM85.0733 94.4587L68.4742 79.271L101.675 87.553L85.0757 94.4587H85.0733Z" fill="white"/>
<path d="M8.46094 73.5497H54.9993V77.4207H8.46094V73.5497Z" fill="white"/>
<path d="M8.46094 81.292H54.9993V85.163H8.46094V81.292Z" fill="white"/>
<path d="M8.46094 89.034H46.5378V92.905H8.46094V89.034Z" fill="white"/>
<path d="M50.7695 89.034H55.0003V92.905H50.7695V89.034Z" fill="white"/>
</svg>
