<svg width="59" height="57" viewBox="0 0 59 57" fill="none" xmlns="http://www.w3.org/2000/svg">
<path d="M57.5165 16.5566L55.6587 14.6988C54.7061 13.7492 53.4164 13.2158 52.0718 13.2158C50.7272 13.2158 49.4375 13.7492 48.4854 14.6988L44.0507 19.1331V1.69077C44.0507 0.756819 43.2938 0 42.3599 0H19.9632C19.9295 0 19.8988 0.0161022 19.865 0.0181144H19.8656C19.7317 0.0266688 19.5999 0.0508232 19.472 0.0910796C19.4182 0.104666 19.3659 0.120769 19.314 0.139387C19.1389 0.209333 18.9769 0.307962 18.835 0.431243L0.563087 16.7979H0.562584C0.45037 16.902 0.352748 17.0208 0.272236 17.1516C0.250598 17.1853 0.231476 17.2201 0.211851 17.2558L0.212354 17.2553C0.150964 17.3675 0.102656 17.4858 0.0684358 17.609C0.0618942 17.6322 0.0518294 17.6543 0.0457916 17.6765C0.0161024 17.8013 0.000503688 17.9286 0 18.0569V54.5556C0 55.4895 0.756821 56.2463 1.69077 56.2463H42.3594C43.2933 56.2463 44.0501 55.4895 44.0501 54.5556V37.1957L57.517 23.7301C58.4666 22.7776 59 21.4879 59 20.1428C58.9995 18.7981 58.4661 17.5085 57.5165 16.5564V16.5566ZM53.267 17.0895L55.1243 18.9479V18.9474C55.784 19.6081 55.784 20.678 55.1253 21.3391L53.9609 22.5045L49.7114 18.255L50.8768 17.0895C51.538 16.4314 52.6063 16.4314 53.2676 17.089L53.267 17.0895ZM33.904 42.5612L28.2057 44.0033L29.6545 38.3126L47.3196 20.6461L51.5691 24.8957L33.904 42.5612ZM15.8575 7.63927L18.2729 5.47496V16.3674H6.11343L15.8575 7.63927ZM40.6696 52.8655H3.38257V19.7497H19.963C20.897 19.7497 21.6538 18.9924 21.6538 18.0589V3.3824H40.669V22.5148L26.9342 36.2496C26.7188 36.464 26.5658 36.7332 26.4908 37.0276L24.2269 45.9223C24.0795 46.4999 24.2476 47.1123 24.6688 47.5341C25.0899 47.9557 25.7023 48.1248 26.2806 47.9784L35.1848 45.7251H35.1843C35.4796 45.6506 35.7494 45.4971 35.9647 45.2817L40.6682 40.5782L40.6696 52.8655Z" fill="white"/>
</svg>
