<svg width="62" height="75" viewBox="0 0 62 75" fill="none" xmlns="http://www.w3.org/2000/svg">
<path d="M44.7769 61.3031C44.2316 60.6478 43.2587 60.5586 42.6033 61.1031C41.948 61.6484 41.8588 62.6213 42.4034 63.2767L44.7498 66.1026L44.7449 66.1068C45.2916 66.7655 46.2694 66.8562 46.9273 66.3095C46.9502 66.2901 46.973 66.2708 46.9945 66.2507L55.0828 59.9081C55.7547 59.3829 55.8744 58.4128 55.3492 57.7402C54.824 57.0683 53.8539 56.9486 53.1813 57.4738L46.1649 62.9757L44.7761 61.3032L44.7769 61.3031Z" fill="white"/>
<path d="M48.861 49.0078C52.4219 49.0078 55.6458 50.4512 57.9798 52.7852C60.3131 55.1192 61.7572 58.3431 61.7572 61.904C61.7572 65.4649 60.3138 68.6887 57.9798 71.0228C55.6458 73.3561 52.4219 74.8002 48.861 74.8002C45.3001 74.8002 42.0763 73.3567 39.7422 71.0228C37.4082 68.6887 35.9648 65.4649 35.9648 61.904C35.9648 58.3431 37.4083 55.1192 39.7422 52.7852C42.0763 50.4519 45.3001 49.0078 48.861 49.0078ZM55.7877 54.9766C54.0148 53.2038 51.566 52.1078 48.861 52.1078C46.156 52.1078 43.7065 53.2046 41.9344 54.9766C40.1615 56.7495 39.0656 59.1983 39.0656 61.9033C39.0656 64.6083 40.1623 67.0578 41.9344 68.8299C43.7072 70.6028 46.156 71.6987 48.861 71.6987C51.566 71.6987 54.0155 70.602 55.7877 68.8299C57.5605 67.0571 58.6565 64.6083 58.6565 61.9033C58.6565 59.1983 57.5597 56.7488 55.7877 54.9766Z" fill="white"/>
<path d="M1.9602 46.9422C2.24044 46.3042 2.54284 45.6987 2.8646 45.1272C3.19674 44.5383 3.55934 43.9633 3.95098 43.4049C5.34529 41.4168 7.08216 39.6863 9.07218 38.301C11.0262 36.9406 13.2336 35.9103 15.6119 35.2925L15.6106 35.2876C16.2707 35.116 16.9419 35.3969 17.2962 35.9367C18.2546 37.1532 19.4786 38.1503 20.8805 38.8415C22.2561 39.5196 23.8117 39.9002 25.4626 39.9002C27.1144 39.9002 28.6693 39.5189 30.0455 38.8415C31.4827 38.1336 32.7331 37.1033 33.7019 35.8453L33.6984 35.8425C34.1185 35.2966 34.8305 35.1083 35.4464 35.327C39.0135 36.2791 42.2028 38.173 44.7283 40.7215C47.2885 43.3053 49.17 46.5596 50.0764 50.187L50.0785 50.1863C50.2861 51.0166 49.7809 51.8581 48.9506 52.0656C48.7949 52.1043 48.6385 52.1182 48.4863 52.1099C45.8858 52.2067 43.5443 53.3187 41.8448 55.0618C40.1246 56.8256 39.0646 59.2399 39.0646 61.9046C39.0646 62.3966 39.0985 62.8678 39.1628 63.3176C39.2306 63.7895 39.3317 64.2476 39.4618 64.6891L39.4652 64.6877C39.7081 65.5084 39.2396 66.3713 38.419 66.6134C38.2619 66.6598 38.1041 66.6799 37.9485 66.6771H1.78828C0.932327 66.6771 0.238281 65.9831 0.238281 65.1271V55.1283C0.238281 54.5782 0.261117 54.0239 0.306786 53.4662C0.350379 52.9292 0.419576 52.3777 0.512307 51.8124C0.652084 50.964 0.843067 50.1365 1.08109 49.3331C1.32467 48.5138 1.61805 47.7153 1.95781 46.9424L1.9602 46.9422ZM5.56541 46.6405C5.27617 47.1546 5.01807 47.6674 4.79386 48.1774C4.50532 48.8333 4.25691 49.5101 4.0507 50.2048C3.84588 50.8933 3.68396 51.5956 3.56632 52.3083C3.49366 52.7484 3.43692 53.2148 3.39678 53.7075C3.35942 54.1662 3.34005 54.6402 3.34005 55.1274V63.5762H36.076C36.0034 63.0192 35.9653 62.4601 35.9653 61.903C35.9653 58.4052 37.3624 55.2304 39.6294 52.9054C41.4596 51.0281 43.8586 49.7078 46.5484 49.2207C45.6772 46.8271 44.2953 44.6759 42.5364 42.9002C40.581 40.9267 38.1631 39.4162 35.466 38.5505C34.327 39.8106 32.9534 40.8548 31.4145 41.6131C29.6133 42.5002 27.5929 42.9991 25.4636 42.9991C23.3338 42.9991 21.3138 42.5002 19.5127 41.6131C17.9737 40.8547 16.6003 39.8112 15.4612 38.5505C13.8053 39.0826 12.2505 39.8604 10.8403 40.8424C9.14427 42.0229 7.66694 43.4954 6.4822 45.1838C6.15559 45.6488 5.84975 46.1352 5.56535 46.6397L5.56541 46.6405Z" fill="white"/>
<path fill-rule="evenodd" clip-rule="evenodd" d="M25.2294 46.5664C25.9428 46.5664 26.5213 47.1449 26.5213 47.8583C26.5213 48.5717 25.9428 49.1502 25.2294 49.1502C24.516 49.1502 23.9375 48.5717 23.9375 47.8583C23.9375 47.1449 24.516 46.5664 25.2294 46.5664Z" fill="white"/>
<path fill-rule="evenodd" clip-rule="evenodd" d="M25.2294 50.7139C25.9428 50.7139 26.5213 51.2923 26.5213 52.0058C26.5213 52.7192 25.9428 53.2977 25.2294 53.2977C24.516 53.2977 23.9375 52.7192 23.9375 52.0058C23.9375 51.2924 24.516 50.7139 25.2294 50.7139Z" fill="white"/>
<path fill-rule="evenodd" clip-rule="evenodd" d="M25.2294 54.8604C25.9428 54.8604 26.5213 55.4388 26.5213 56.1523C26.5213 56.8657 25.9428 57.4442 25.2294 57.4442C24.516 57.4442 23.9375 56.8657 23.9375 56.1523C23.9375 55.4388 24.516 54.8604 25.2294 54.8604Z" fill="white"/>
<path d="M11.8122 11.8732C11.8122 8.71654 13.1027 5.84824 15.1814 3.76965C17.26 1.69105 20.1291 0.400391 23.285 0.400391H25.6896C29.3577 0.400391 32.6915 1.89987 35.1072 4.31613C37.5229 6.73183 39.0229 10.0657 39.0229 13.7338C39.0229 13.8853 39.0174 14.2168 39.0063 14.706C39.0022 14.881 38.998 15.0457 38.9932 15.2028C39.326 15.8076 39.5973 16.4795 39.7938 17.1997C40.0277 18.0571 40.1557 18.967 40.1557 19.8976C40.1557 21.566 39.7633 23.1229 39.0949 24.4093L39.0956 24.41C39.0769 24.4466 39.0568 24.4812 39.0354 24.5158C38.4237 25.652 37.5892 26.5792 36.608 27.1958C35.2379 30.4391 33.3716 32.8818 31.273 34.4608C29.4094 35.8627 27.3606 36.5858 25.2958 36.5949C23.2199 36.6032 21.1627 35.8897 19.2972 34.4172C17.332 32.8659 15.5841 30.4627 14.2777 27.1689C13.2751 26.5281 12.4294 25.5656 11.8227 24.3899C11.1591 23.1049 10.7695 21.5549 10.7695 19.899C10.7695 18.9572 10.8941 18.0514 11.1224 17.2106C11.3127 16.5097 11.5798 15.8482 11.9106 15.2428C11.8864 14.8082 11.8663 14.3411 11.8497 13.8374C11.8255 13.0949 11.8123 12.4369 11.8123 11.875L11.8122 11.8732ZM17.3729 5.96108C15.8547 7.47925 14.9122 9.57249 14.9122 11.8732C14.9122 12.6185 14.9212 13.2357 14.9378 13.7387C14.9551 14.2653 14.9835 14.8272 15.0208 15.4195C15.0644 15.7634 14.9938 16.1239 14.7953 16.4401L14.7911 16.4381C14.5074 16.8892 14.2763 17.4241 14.1144 18.0213C13.9566 18.6025 13.8701 19.235 13.8701 19.8986C13.8701 21.0577 14.1296 22.1165 14.5717 22.973C14.9689 23.7431 15.5011 24.3361 16.1024 24.6641C16.4919 24.8219 16.8172 25.136 16.9749 25.5616L16.9694 25.5637C18.0883 28.5737 19.5692 30.7001 21.2111 31.9961C22.5058 33.0181 23.9015 33.5136 25.284 33.508C26.6783 33.5025 28.0961 32.9884 29.4206 31.9919C31.1726 30.6738 32.753 28.5203 33.9239 25.5781C34.0582 25.2142 34.328 24.8993 34.7052 24.718L34.7065 24.7215C35.3342 24.4191 35.8891 23.8365 36.3043 23.0691C36.3174 23.04 36.3306 23.0116 36.3458 22.9833H36.3472C36.7942 22.1231 37.0565 21.0597 37.0565 19.8999C37.0565 19.2183 36.9713 18.5838 36.8156 18.013C36.6655 17.4636 36.4503 16.9584 36.1818 16.5142C35.9818 16.2409 35.8697 15.8997 35.885 15.5351H35.8898C35.9036 15.2106 35.9133 14.9123 35.9195 14.6473C35.9223 14.5158 35.9237 14.2197 35.9237 13.7353C35.9237 10.9224 34.7723 8.36503 32.9163 6.5091C31.0611 4.65388 28.503 3.50175 25.6902 3.50175H23.2856C20.9849 3.50175 18.8916 4.4442 17.3735 5.96244L17.3729 5.96108Z" fill="white"/>
</svg>
