<svg width="54" height="62" viewBox="0 0 54 62" fill="none" xmlns="http://www.w3.org/2000/svg">
<path d="M26.8005 34.7997C24.6137 34.7997 22.5162 33.9308 20.9695 32.3845C19.4232 30.8381 18.5547 28.7407 18.5547 26.5538C18.5547 24.3666 19.4232 22.2692 20.9695 20.7228C22.5162 19.1765 24.6137 18.3076 26.8005 18.3076C28.9874 18.3076 31.0848 19.1765 32.6316 20.7228C34.1779 22.2692 35.0464 24.3666 35.0464 26.5538C35.0464 28.7407 34.1779 30.8381 32.6316 32.3845C31.0848 33.9308 28.9874 34.7997 26.8005 34.7997ZM26.8005 22.4307C25.7069 22.4307 24.6582 22.8652 23.885 23.6383C23.1119 24.4115 22.6774 25.4602 22.6774 26.5538C22.6774 27.6471 23.1119 28.6958 23.885 29.469C24.6582 30.2422 25.7069 30.6766 26.8005 30.6766C27.8942 30.6766 28.9429 30.2421 29.716 29.469C30.4892 28.6958 30.9237 27.6471 30.9237 26.5538C30.9237 25.4602 30.4892 24.4115 29.716 23.6383C28.9429 22.8652 27.8942 22.4307 26.8005 22.4307Z" fill="white"/>
<path d="M41.2311 49.2303C40.6845 49.2303 40.1599 49.013 39.7734 48.6264C39.3868 48.2398 39.1695 47.7153 39.1695 47.1687C39.1695 45.5285 38.5179 43.9557 37.3581 42.7955C36.1983 41.6358 34.6254 40.9844 32.9852 40.9844H20.6162C18.976 40.9844 17.4031 41.6357 16.2433 42.7955C15.0835 43.9557 14.4318 45.5286 14.4318 47.1687C14.4318 47.9053 14.0389 48.5858 13.401 48.954C12.7631 49.3222 11.9773 49.3222 11.3394 48.954C10.7016 48.5857 10.3086 47.9052 10.3086 47.1687C10.312 44.436 11.3989 41.8163 13.3314 39.8837C15.2636 37.9515 17.8834 36.8647 20.616 36.8613H32.985C35.7177 36.8647 38.3374 37.9516 40.2696 39.8837C42.2021 41.8163 43.289 44.436 43.2924 47.1687C43.2924 47.7153 43.0752 48.2399 42.6886 48.6264C42.302 49.013 41.7774 49.2303 41.2309 49.2303H41.2311Z" fill="white"/>
<path d="M41.6665 12C41.1033 12 40.5628 11.7893 40.1645 11.4142C39.7662 11.0391 39.5424 10.5302 39.5424 9.99997C39.5424 8.40866 38.8709 6.88273 37.6759 5.7572C36.4809 4.63204 34.8602 4.00014 33.1701 4.00014H20.4254C18.7353 4.00014 17.1147 4.63201 15.9196 5.7572C14.7247 6.88273 14.0532 8.40876 14.0532 9.99997C14.0532 10.7145 13.6483 11.3747 12.991 11.732C12.3338 12.0892 11.524 12.0892 10.8668 11.732C10.2096 11.3747 9.80469 10.7145 9.80469 9.99997C9.80815 7.34878 10.9281 4.80717 12.9193 2.93227C14.9103 1.05765 17.6096 0.00325003 20.4252 0H33.1699C35.9856 0.00326461 38.6849 1.05775 40.6758 2.93227C42.667 4.80717 43.787 7.34878 43.7904 9.99997C43.7904 10.5303 43.5666 11.0391 43.1683 11.4142C42.7699 11.7893 42.2295 12 41.6663 12H41.6665Z" fill="white"/>
<path d="M47.4149 61.5996H6.18467C4.54406 61.5996 2.97121 60.9479 1.81146 59.7881C0.651709 58.6283 0 57.0554 0 55.4149V14.1847C0 12.5441 0.65167 10.9712 1.81146 9.81146C2.97121 8.65171 4.54416 8 6.18467 8H47.4149C49.0555 8 50.6283 8.65167 51.7881 9.81146C52.9478 10.9712 53.5996 12.5442 53.5996 14.1847V55.4149C53.5996 57.0555 52.9479 58.6283 51.7881 59.7881C50.6283 60.9478 49.0554 61.5996 47.4149 61.5996ZM6.18467 12.1237C5.63769 12.1237 5.11355 12.3409 4.72697 12.7275C4.34037 13.1141 4.12315 13.6383 4.12315 14.1852V55.4154C4.12315 55.9624 4.34037 56.4865 4.72697 56.8731C5.11356 57.2597 5.63773 57.4769 6.18467 57.4769H47.4149C47.9619 57.4769 48.486 57.2597 48.8726 56.8731C49.2592 56.4865 49.4764 55.9624 49.4764 55.4154V14.1852C49.4764 13.6382 49.2592 13.1141 48.8726 12.7275C48.486 12.3409 47.9618 12.1237 47.4149 12.1237H6.18467Z" fill="white"/>
</svg>
