<svg width="70" height="57" viewBox="0 0 70 57" fill="none" xmlns="http://www.w3.org/2000/svg">
<path d="M50 57H20C19.0798 57 18.3335 56.2457 18.3335 55.3237C18.3335 54.4016 19.0804 53.6468 20 53.6468H50C50.9167 53.6468 51.6665 54.4011 51.6665 55.3231C51.6665 56.2458 50.9167 57 50 57ZM70 5.02969V41.9118C70 44.6844 67.7569 46.9415 64.9997 46.9415H4.9997C2.2433 46.9415 0 44.6846 0 41.9118V5.02969C0 2.25649 2.24315 0 4.9997 0H64.9997C67.7567 0 70 2.25634 70 5.02969ZM3.33333 23.4708H8.90327L14.583 10.2302C14.8696 9.556 15.5433 9.15722 16.2833 9.22446C17.0099 9.30106 17.6 9.84424 17.747 10.5588L20.7906 25.6469L24.4108 19.6619C24.7608 19.0854 25.4339 18.7937 26.0844 18.8738C26.7476 18.9743 27.2876 19.4672 27.451 20.1245L30.0109 30.341L35.0542 10.4809C35.2478 9.72957 35.9343 9.37465 36.6911 9.22028C37.4614 9.23022 38.1281 9.76991 38.2943 10.5248L40.9676 22.3136L44.6745 15.9192C44.9878 15.3795 45.5679 15.041 46.191 15.0878C46.8112 15.1182 47.3646 15.49 47.6245 16.0537L51.0599 23.4701H66.667V5.02901C66.667 4.10343 65.9171 3.3521 65.0005 3.3521H5.00049C4.08031 3.3521 3.33338 4.10344 3.33338 5.02901L3.33333 23.4708ZM66.6667 26.8234H50C49.3565 26.8234 48.7636 26.4445 48.4899 25.8545L45.9467 20.3723L41.7167 27.6648C41.3702 28.2647 40.7064 28.5834 40.0199 28.4764C39.3468 28.3723 38.7998 27.863 38.6498 27.1889L36.5665 18.0289L31.6064 37.5732C31.4163 38.3175 30.7531 38.8338 29.9933 38.8338H29.9898C29.2266 38.8338 28.5633 38.3105 28.3767 37.5662L25.1831 24.8219L21.4199 31.0449C21.0665 31.6383 20.3997 31.967 19.7068 31.8225C19.0366 31.705 18.5029 31.1823 18.3663 30.5116L15.5366 16.4695L11.5297 25.8107C11.2664 26.4246 10.6665 26.8234 9.99982 26.8234H3.333V41.9115C3.333 42.8336 4.07995 43.5878 4.99952 43.5878H64.9995C65.9162 43.5878 66.666 42.8336 66.666 41.9115L66.6667 26.8234Z" fill="white"/>
</svg>
