<svg width="52" height="51" viewBox="0 0 52 51" fill="none" xmlns="http://www.w3.org/2000/svg">
<path d="M1.30995 33.7823L2.77997 34.9369C3.15072 35.2325 3.46261 35.5952 3.6994 36.006L7.44127 42.3458C8.92253 44.8566 11.0327 46.9378 13.5637 48.3842C16.0947 49.8306 18.9591 50.5923 21.8742 50.594H28.2888C28.6433 50.594 28.9832 50.4532 29.2338 50.2026C29.4844 49.9519 29.6252 49.612 29.6252 49.2576C29.6252 48.9032 29.4844 48.5632 29.2338 48.3126C28.9832 48.062 28.6433 47.9212 28.2888 47.9212H21.8742C19.4211 47.9189 17.011 47.2766 14.882 46.0579C12.753 44.8392 10.9787 43.0862 9.7345 40.972L5.99263 34.6322C5.58141 33.9419 5.04477 33.3346 4.41036 32.8415L2.91361 31.6815C2.83163 31.6168 2.76368 31.536 2.7139 31.4442C2.66412 31.3524 2.63355 31.2514 2.62405 31.1474C2.61455 31.0434 2.62631 30.9385 2.65863 30.8392C2.69095 30.7398 2.74315 30.6481 2.81204 30.5696C3.11212 30.2262 3.47834 29.9467 3.88882 29.7479C4.29931 29.5491 4.74565 29.4351 5.20118 29.4126C5.65671 29.3902 6.1121 29.4598 6.54014 29.6172C6.96819 29.7747 7.36011 30.0168 7.69251 30.3291L14.5027 37.8128C14.7449 38.0611 15.0741 38.2055 15.4208 38.2155C15.7675 38.2255 16.1045 38.1003 16.3605 37.8664C16.6166 37.6326 16.7718 37.3083 16.7932 36.9621C16.8146 36.6159 16.7006 36.275 16.4752 36.0114L9.62759 28.5276L9.56344 28.4635C8.97363 27.9012 8.27658 27.4634 7.5139 27.1764C6.75121 26.8894 5.93852 26.7589 5.12431 26.7929C4.31011 26.8268 3.51108 27.0244 2.77492 27.3739C2.03875 27.7233 1.38054 28.2176 0.839545 28.827C0.535095 29.1787 0.3051 29.5886 0.163452 30.0317C0.0218044 30.4748 -0.0285577 30.9421 0.0154076 31.4052C0.059373 31.8683 0.196753 32.3178 0.419252 32.7263C0.641751 33.1349 0.94475 33.4941 1.30995 33.7823Z" fill="white"/>
<path d="M31.2452 4.10409C30.5647 4.10439 29.8928 4.25594 29.278 4.54777C29.2369 3.34967 28.7404 2.21236 27.8897 1.36767C27.0391 0.52297 25.8983 0.0344758 24.6999 0.00175618C23.5016 -0.0309635 22.3358 0.394555 21.4404 1.19158C20.5449 1.9886 19.9871 3.09712 19.8806 4.29118C19.1613 3.93102 18.3617 3.76131 17.5582 3.79829C16.7546 3.83526 15.974 4.07767 15.2908 4.50236C14.6077 4.92705 14.0448 5.51984 13.6561 6.22407C13.2674 6.9283 13.0657 7.72045 13.0704 8.52484V28.7256C13.0704 29.08 13.2112 29.4199 13.4618 29.6706C13.7124 29.9212 14.0523 30.062 14.4068 30.062C14.7612 30.062 15.1011 29.9212 15.3517 29.6706C15.6024 29.4199 15.7432 29.08 15.7432 28.7256V8.52484C15.7432 7.98327 15.9583 7.46388 16.3412 7.08094C16.7242 6.69799 17.2436 6.48285 17.7851 6.48285C18.3267 6.48285 18.8461 6.69799 19.2291 7.08094C19.612 7.46388 19.8271 7.98327 19.8271 8.52484V23.1074C19.8271 23.4619 19.9679 23.8018 20.2186 24.0524C20.4692 24.303 20.8091 24.4438 21.1635 24.4438C21.5179 24.4438 21.8579 24.303 22.1085 24.0524C22.3591 23.8018 22.4999 23.4619 22.4999 23.1074V4.75625C22.4999 4.21468 22.715 3.69529 23.098 3.31234C23.4809 2.92939 24.0003 2.71425 24.5419 2.71425C25.0835 2.71425 25.6029 2.92939 25.9858 3.31234C26.3687 3.69529 26.5839 4.21468 26.5839 4.75625V23.0273C26.5839 23.3817 26.7247 23.7216 26.9753 23.9722C27.2259 24.2228 27.5658 24.3636 27.9203 24.3636C28.2747 24.3636 28.6146 24.2228 28.8652 23.9722C29.1159 23.7216 29.2566 23.3817 29.2566 23.0273V8.73332C29.2566 8.21443 29.4628 7.7168 29.8297 7.34989C30.1966 6.98298 30.6942 6.77685 31.2131 6.77685C31.732 6.77685 32.2296 6.98298 32.5965 7.34989C32.9634 7.7168 33.1696 8.21443 33.1696 8.73332V23.3801C33.1696 23.7345 33.3104 24.0744 33.561 24.325C33.8116 24.5756 34.1515 24.7164 34.506 24.7164C34.8604 24.7164 35.2003 24.5756 35.4509 24.325C35.7015 24.0744 35.8423 23.7345 35.8423 23.3801V13.0311C35.8423 12.5519 36.0327 12.0924 36.3715 11.7535C36.7104 11.4147 37.1699 11.2243 37.6491 11.2243C38.1283 11.2243 38.5879 11.4147 38.9267 11.7535C39.2656 12.0924 39.4559 12.5519 39.4559 13.0311V25.0532C39.4559 25.4076 39.5967 25.7476 39.8473 25.9982C40.0979 26.2488 40.4379 26.3896 40.7923 26.3896C41.1467 26.3896 41.4866 26.2488 41.7373 25.9982C41.9879 25.7476 42.1287 25.4076 42.1287 25.0532V13.0311C42.126 12.2895 41.939 11.5601 41.5845 10.9087C41.23 10.2573 40.7191 9.70419 40.0978 9.29919C39.4765 8.89418 38.7643 8.64997 38.0252 8.58852C37.2861 8.52706 36.5434 8.6503 35.8637 8.94714V8.73332C35.8623 7.50785 35.3756 6.33283 34.5101 5.46529C33.6445 4.59775 32.4706 4.10833 31.2452 4.10409Z" fill="white"/>
<path d="M19.689 30.4731H19.6195H18.3794C18.0249 30.4731 17.685 30.6139 17.4344 30.8646C17.1838 31.1152 17.043 31.4551 17.043 31.8095C17.043 32.164 17.1838 32.5039 17.4344 32.7545C17.685 33.0051 18.0249 33.1459 18.3794 33.1459H19.6195H19.6676C21.0218 33.1519 22.3297 33.639 23.3579 34.5203C24.386 35.4015 25.0674 36.6196 25.2804 37.9569C25.3027 38.1341 25.3603 38.305 25.4498 38.4595C25.5393 38.6141 25.6588 38.7491 25.8014 38.8567C25.9439 38.9643 26.1066 39.0422 26.2797 39.0858C26.4529 39.1295 26.633 39.138 26.8095 39.1108C26.9861 39.0837 27.1553 39.0214 27.3074 38.9277C27.4594 38.834 27.5911 38.7109 27.6947 38.5654C27.7984 38.42 27.8718 38.2552 27.9107 38.0809C27.9495 37.9066 27.9531 37.7263 27.9211 37.5506C27.6086 35.5874 26.6098 33.7988 25.1025 32.5028C23.5951 31.2069 21.6768 30.4877 19.689 30.4731Z" fill="white"/>
<path d="M40.8135 28.9766C38.6366 28.9779 36.5089 29.6245 34.6993 30.8346C32.8897 32.0446 31.4793 33.7639 30.6464 35.7752C29.8135 37.7865 29.5955 39.9996 30.0198 42.1348C30.4441 44.2699 31.4918 46.2314 33.0305 47.7714C34.3107 49.0528 35.8874 49.9986 37.6206 50.525C39.3538 51.0513 41.1901 51.142 42.9668 50.7889C44.7434 50.4358 46.4056 49.6499 47.8058 48.5009C49.2061 47.3518 50.3013 45.875 50.9943 44.2014C51.6874 42.5279 51.9569 40.7092 51.7789 38.9066C51.601 37.1039 50.9811 35.373 49.9742 33.8673C48.9673 32.3615 47.6045 31.1274 46.0066 30.2743C44.4086 29.4212 42.6249 28.9754 40.8135 28.9766ZM46.6936 45.8845C45.9196 46.6593 45.0005 47.274 43.9888 47.6934C42.9771 48.1128 41.8927 48.3287 40.7975 48.3287C39.7023 48.3287 38.6179 48.1128 37.6062 47.6934C36.5945 47.274 35.6754 46.6593 34.9014 45.8845C33.735 44.7183 32.9407 43.2324 32.6188 41.6148C32.2969 39.9971 32.462 38.3204 33.0931 36.7965C33.7243 35.2727 34.7931 33.9702 36.1645 33.0539C37.5358 32.1375 39.1482 31.6484 40.7975 31.6484C42.4469 31.6484 44.0592 32.1375 45.4306 33.0539C46.8019 33.9702 47.8708 35.2727 48.5019 36.7965C49.133 38.3204 49.2981 39.9971 48.9762 41.6148C48.6543 43.2324 47.86 44.7183 46.6936 45.8845Z" fill="white"/>
<path d="M44.6087 36.2094C44.4845 36.085 44.3371 35.9863 44.1747 35.9189C44.0124 35.8515 43.8383 35.8168 43.6625 35.8168C43.4867 35.8168 43.3127 35.8515 43.1503 35.9189C42.988 35.9863 42.8405 36.085 42.7164 36.2094L40.8668 38.0483L39.0119 36.2094C38.7566 35.9901 38.4279 35.8753 38.0915 35.8878C37.7552 35.9003 37.4359 36.0393 37.1976 36.2769C36.9592 36.5146 36.8194 36.8335 36.8059 37.1698C36.7924 37.5061 36.9064 37.8351 37.1249 38.0911L38.9745 39.9513L37.1249 41.7848C36.8719 42.0351 36.7286 42.3756 36.7266 42.7314C36.7246 43.0873 36.864 43.4294 37.1143 43.6825C37.3645 43.9356 37.705 44.0788 38.0609 44.0809C38.4168 44.0829 38.7589 43.9434 39.0119 43.6932L40.8668 41.8276L42.711 43.6932C42.8363 43.8178 42.9849 43.9165 43.1484 43.9837C43.3118 44.0508 43.4869 44.0851 43.6636 44.0846C43.8403 44.0841 44.0152 44.0488 44.1783 43.9808C44.3414 43.9127 44.4894 43.8131 44.614 43.6878C44.7386 43.5625 44.8373 43.4139 44.9045 43.2505C44.9717 43.087 45.006 42.9119 45.0055 42.7352C45.005 42.5585 44.9697 42.3836 44.9016 42.2206C44.8335 42.0575 44.734 41.9094 44.6087 41.7848L42.7538 39.9513L44.6087 38.0911C44.8568 37.8408 44.996 37.5027 44.996 37.1503C44.996 36.7979 44.8568 36.4597 44.6087 36.2094Z" fill="white"/>
</svg>
