<svg width="58" height="53" viewBox="0 0 58 53" fill="none" xmlns="http://www.w3.org/2000/svg">
<path d="M30.0004 50.459H4.99992V26.459H38.9999V31.2254C38.9999 31.7776 39.4477 32.2254 39.9999 32.2254C40.5522 32.2254 40.9999 31.7776 40.9999 31.2254V26.459H42.9999C43.0072 26.459 43.0131 26.459 43.0199 26.459C43.5722 26.459 44.0199 25.8944 44.0199 25.3422C44.0199 25.1137 43.9433 24.8443 43.8139 24.6759L35.8945 8.92412C35.725 8.58525 35.3788 8.45898 34.9999 8.45898H21.9999V4.22538C21.9999 3.67314 21.5522 3.45898 20.9999 3.45898H12.9999C12.4477 3.45898 11.9999 3.67314 11.9999 4.22538V8.45898H8.99992C8.62101 8.45898 8.27482 8.55605 8.10539 8.89492L0.10539 24.8365C-0.0493955 25.1466 -0.0327939 25.6023 0.149335 25.8973C0.331464 26.1917 0.653241 26.459 0.999921 26.459H2.99992V51.2254C2.99992 51.7776 3.44767 52.459 3.99992 52.459H30.0004C30.5527 52.459 31.0004 52.0112 31.0004 51.459C31.0004 50.9067 30.5527 50.459 30.0004 50.459ZM13.9999 5.45898H19.9999V8.45898H13.9999V5.45898ZM9.61808 10.459H12.9999H20.9999H34.3818L41.3818 24.459H39.9999H3.99992H2.61808L9.61808 10.459Z" fill="white"/>
<path d="M29 32.459C29 31.9067 28.5523 31.459 28 31.459H16C15.4477 31.459 15 31.9067 15 32.459V44.459C15 45.0113 15.4477 45.459 16 45.459H28C28.5523 45.459 29 45.0113 29 44.459V32.459ZM27 37.459H23V33.459H27V37.459ZM21 33.459V37.459H17V33.459H21ZM17 39.459H21V43.459H17V39.459ZM23 43.459V39.459H27V43.459H23Z" fill="white"/>
<path d="M43.8559 34.3506L52.2049 1.24422C52.3397 0.70858 52.0155 0.165123 51.4798 0.0298689C50.9461 -0.102944 50.4002 0.219322 50.2655 0.754967L41.9186 33.8529C38.682 33.888 35.8129 37.6178 34.9027 41.2271C34.8623 41.3874 34.8742 41.5442 34.9094 41.6947L32.0238 48.5987C31.9115 48.8673 31.9222 49.1715 32.0521 49.4317C32.1825 49.6925 32.4198 49.8829 32.702 49.9542L35.7767 50.7296C36.0023 50.7857 36.2396 50.7623 36.4496 50.6637L37.847 50.0011L37.7948 50.2071C37.66 50.7428 37.9847 51.2862 38.5199 51.4215L44.3373 52.8883C44.4183 52.9088 44.5003 52.9185 44.5819 52.9185C44.786 52.9185 44.9872 52.856 45.1571 52.7364C45.3954 52.5689 45.5487 52.3062 45.577 52.0167L46.3106 44.5684C46.4145 44.4502 46.4992 44.3169 46.5384 44.1617C47.4778 40.4367 46.5616 35.8485 43.8559 34.3506ZM43.7005 50.6651L39.9784 49.7266L40.3045 48.4337C40.3993 48.0582 40.2684 47.6617 39.9696 47.4161C39.6698 47.17 39.2557 47.1197 38.9066 47.2852L35.9173 48.7022L34.3172 48.2989L36.6565 42.701L40.4759 43.6641L44.2953 44.6275L43.7005 50.6651ZM44.7958 42.6908L37.1367 40.7591C38.2125 37.8026 40.6459 35.4547 42.432 35.9068C44.2395 36.3624 45.2738 39.5072 44.7958 42.6908Z" fill="white"/>
<path d="M27 18.2256C28.6543 18.2256 30 19.5713 30 21.2256C30 21.7778 30.4478 22.2256 31 22.2256C31.5522 22.2256 32 21.7778 32 21.2256C32 19.5713 33.3457 18.2256 35 18.2256C35.5522 18.2256 36 17.7778 36 17.2256C36 16.6733 35.5522 16.2256 35 16.2256C33.3457 16.2256 32 14.8799 32 13.2256C32 12.6733 31.5522 12.2256 31 12.2256C30.4478 12.2256 30 12.6733 30 13.2256C30 14.8799 28.6543 16.2256 27 16.2256C26.4478 16.2256 26 16.6733 26 17.2256C26 17.7778 26.4478 18.2256 27 18.2256ZM31 16.2227C31.2852 16.6021 31.6235 16.9404 32.0029 17.2256C31.6235 17.5107 31.2852 17.8491 31 18.2285C30.7148 17.8491 30.3765 17.5107 29.9971 17.2256C30.3765 16.9404 30.7148 16.6021 31 16.2227Z" fill="white"/>
<path d="M57 40.2256C55.3457 40.2256 54 38.8799 54 37.2256C54 36.6733 53.5522 36.2256 53 36.2256C52.4478 36.2256 52 36.6733 52 37.2256C52 38.8799 50.6543 40.2256 49 40.2256C48.4478 40.2256 48 40.6733 48 41.2256C48 41.7778 48.4478 42.2256 49 42.2256C50.6543 42.2256 52 43.5713 52 45.2256C52 45.7778 52.4478 46.2256 53 46.2256C53.5522 46.2256 54 45.7778 54 45.2256C54 43.5713 55.3457 42.2256 57 42.2256C57.5522 42.2256 58 41.7778 58 41.2256C58 40.6733 57.5522 40.2256 57 40.2256ZM53 42.2285C52.7148 41.8491 52.3765 41.5107 51.9971 41.2256C52.3765 40.9404 52.7148 40.6021 53 40.2227C53.2852 40.6021 53.6235 40.9404 54.0029 41.2256C53.6235 41.5107 53.2852 41.8491 53 42.2285Z" fill="white"/>
</svg>
