<svg width="58" height="51" viewBox="0 0 58 51" fill="none" xmlns="http://www.w3.org/2000/svg">
<path d="M57.5647 24.1893L48.4259 16.3361V5.73436C48.4259 5.42194 48.302 5.12231 48.0815 4.9014C47.8611 4.68049 47.562 4.55638 47.2502 4.55638H41.1368C40.825 4.55638 40.5259 4.68049 40.3055 4.9014C40.085 5.12231 39.9611 5.42194 39.9611 5.73436V9.04839L29.772 0.299965C29.5565 0.106795 29.2774 0 28.9882 0C28.6991 0 28.42 0.106795 28.2045 0.299965L0.41177 24.1893C0.227777 24.3469 0.096813 24.5575 0.0367594 24.7925C-0.0232942 25.0274 -0.00950968 25.2752 0.0762309 25.502C0.161971 25.7288 0.315488 25.9235 0.515819 26.0597C0.71615 26.1958 0.953531 26.2666 1.19555 26.2625H9.5506V48.3142C9.5506 48.6266 9.67446 48.9263 9.89494 49.1472C10.1154 49.3681 10.4145 49.4922 10.7263 49.4922H19.5829C19.8947 49.4922 20.1938 49.3681 20.4143 49.1472C20.6347 48.9263 20.7586 48.6266 20.7586 48.3142C20.7586 48.0018 20.6347 47.7022 20.4143 47.4813C20.1938 47.2604 19.8947 47.1362 19.5829 47.1362H11.9019V25.0846C11.9019 24.7721 11.7781 24.4725 11.5576 24.2516C11.3371 24.0307 11.0381 23.9066 10.7263 23.9066H4.35416L28.9882 2.76586L53.6223 23.9066H47.2502C46.9384 23.9066 46.6394 24.0307 46.4189 24.2516C46.1984 24.4725 46.0746 24.7721 46.0746 25.0846V47.1362H38.3936C38.0818 47.1362 37.7827 47.2604 37.5622 47.4813C37.3418 47.7022 37.2179 48.0018 37.2179 48.3142C37.2179 48.6266 37.3418 48.9263 37.5622 49.1472C37.7827 49.3681 38.0818 49.4922 38.3936 49.4922H47.2502C47.562 49.4922 47.8611 49.3681 48.0815 49.1472C48.302 48.9263 48.4259 48.6266 48.4259 48.3142V26.2625H56.8045C57.0465 26.2666 57.2839 26.1958 57.4842 26.0597C57.6845 25.9235 57.838 25.7288 57.9238 25.502C58.0095 25.2752 58.0233 25.0274 57.9632 24.7925C57.9032 24.5575 57.7722 24.3469 57.5882 24.1893H57.5647ZM42.3124 6.91233H46.0746V14.3179L42.3124 11.0824V6.91233ZM42.7122 41.1835V33.3304C42.7122 33.018 42.5883 32.7183 42.3678 32.4974C42.1473 32.2765 41.8483 32.1524 41.5365 32.1524H34.0828V24.6919C34.0828 24.3795 33.9589 24.0799 33.7384 23.8589C33.518 23.638 33.2189 23.5139 32.9071 23.5139H25.0694C24.7576 23.5139 24.4585 23.638 24.238 23.8589C24.0176 24.0799 23.8937 24.3795 23.8937 24.6919V32.1524H16.4478C16.136 32.1524 15.837 32.2765 15.6165 32.4974C15.396 32.7183 15.2722 33.018 15.2722 33.3304V41.1835C15.2722 41.496 15.396 41.7956 15.6165 42.0165C15.837 42.2374 16.136 42.3615 16.4478 42.3615H23.8937V49.822C23.8937 50.1344 24.0176 50.4341 24.238 50.655C24.4585 50.8759 24.7576 51 25.0694 51H32.9071C33.2189 51 33.518 50.8759 33.7384 50.655C33.9589 50.4341 34.0828 50.1344 34.0828 49.822V42.3615H41.5287C41.8405 42.3615 42.1395 42.2374 42.36 42.0165C42.5805 41.7956 42.7043 41.496 42.7043 41.1835H42.7122ZM40.3608 40.0056H32.9071C32.5953 40.0056 32.2963 40.1297 32.0758 40.3506C31.8553 40.5715 31.7315 40.8711 31.7315 41.1835V48.6441H26.245V41.1835C26.245 40.8711 26.1212 40.5715 25.9007 40.3506C25.6802 40.1297 25.3812 40.0056 25.0694 40.0056H17.6235V34.5084H25.0694C25.3812 34.5084 25.6802 34.3842 25.9007 34.1633C26.1212 33.9424 26.245 33.6428 26.245 33.3304V25.8699H31.7315V33.3304C31.7315 33.6428 31.8553 33.9424 32.0758 34.1633C32.2963 34.3842 32.5953 34.5084 32.9071 34.5084H40.353L40.3608 40.0056Z" fill="white"/>
</svg>
