<svg width="21" height="20" viewBox="0 0 21 20" fill="none" xmlns="http://www.w3.org/2000/svg">
<path opacity="0.8" fill-rule="evenodd" clip-rule="evenodd" d="M2.90625 0C1.80168 0 0.90625 0.895431 0.90625 2V18C0.90625 19.1046 1.80168 20 2.90625 20H18.9062C20.0108 20 20.9062 19.1046 20.9062 18V2C20.9062 0.895431 20.0108 0 18.9062 0H2.90625ZM6.04276 5.40532C6.7833 5.40532 7.3833 4.80045 7.3833 4.05397C7.3833 3.30802 6.7833 2.70261 6.04276 2.70261C5.30222 2.70261 4.70222 3.30802 4.70222 4.05397C4.70222 4.80045 5.30222 5.40532 6.04276 5.40532ZM4.69141 15.135V6.4864H7.39411V15.135H4.69141ZM9.0233 6.4864H11.7087V7.65126C12.8417 5.55451 17.6644 5.39937 17.6644 9.65883V15.135H14.9682V10.595C14.9682 7.86424 11.7092 8.07072 11.7092 10.595V15.135H9.0233V6.4864Z" fill="white"/>
</svg>
