<svg width="21" height="20" viewBox="0 0 21 20" fill="none" xmlns="http://www.w3.org/2000/svg">
<path d="M6.75313 0H15.1531C18.3531 0 20.9531 2.6 20.9531 5.8V14.2C20.9531 15.7383 20.3421 17.2135 19.2543 18.3012C18.1666 19.3889 16.6914 20 15.1531 20H6.75313C3.55313 20 0.953125 17.4 0.953125 14.2V5.8C0.953125 4.26174 1.56419 2.78649 2.65191 1.69878C3.73962 0.61107 5.21487 0 6.75313 0ZM6.55312 2C5.59835 2 4.68267 2.37928 4.00754 3.05442C3.33241 3.72955 2.95312 4.64522 2.95312 5.6V14.4C2.95312 16.39 4.56312 18 6.55312 18H15.3531C16.3079 18 17.2236 17.6207 17.8987 16.9456C18.5738 16.2705 18.9531 15.3548 18.9531 14.4V5.6C18.9531 3.61 17.3431 2 15.3531 2H6.55312ZM16.2031 3.5C16.5346 3.5 16.8526 3.6317 17.087 3.86612C17.3214 4.10054 17.4531 4.41848 17.4531 4.75C17.4531 5.08152 17.3214 5.39946 17.087 5.63388C16.8526 5.8683 16.5346 6 16.2031 6C15.8716 6 15.5537 5.8683 15.3192 5.63388C15.0848 5.39946 14.9531 5.08152 14.9531 4.75C14.9531 4.41848 15.0848 4.10054 15.3192 3.86612C15.5537 3.6317 15.8716 3.5 16.2031 3.5ZM10.9531 5C12.2792 5 13.551 5.52678 14.4887 6.46447C15.4263 7.40215 15.9531 8.67392 15.9531 10C15.9531 11.3261 15.4263 12.5979 14.4887 13.5355C13.551 14.4732 12.2792 15 10.9531 15C9.62704 15 8.35527 14.4732 7.41759 13.5355C6.47991 12.5979 5.95312 11.3261 5.95312 10C5.95312 8.67392 6.47991 7.40215 7.41759 6.46447C8.35527 5.52678 9.62704 5 10.9531 5ZM10.9531 7C10.1575 7 9.39441 7.31607 8.8318 7.87868C8.2692 8.44129 7.95312 9.20435 7.95312 10C7.95312 10.7956 8.2692 11.5587 8.8318 12.1213C9.39441 12.6839 10.1575 13 10.9531 13C11.7488 13 12.5118 12.6839 13.0744 12.1213C13.6371 11.5587 13.9531 10.7956 13.9531 10C13.9531 9.20435 13.6371 8.44129 13.0744 7.87868C12.5118 7.31607 11.7488 7 10.9531 7Z" fill="white"/>
</svg>
