<svg width="17" height="17" viewBox="0 0 17 17" fill="none" xmlns="http://www.w3.org/2000/svg">
<path d="M0.876423 0.15037C1.07692 -0.0501233 1.40198 -0.0501233 1.60248 0.15037L16.8496 15.3974C17.0501 15.5979 17.0501 15.923 16.8496 16.1235L16.1235 16.8495C15.923 17.05 15.598 17.05 15.3975 16.8495L0.15037 1.60247C-0.0501236 1.40198 -0.0501233 1.07691 0.150371 0.876421L0.876423 0.15037Z" fill="#C8414B"/>
<path d="M16.8496 0.876516C17.0501 1.07701 17.0501 1.40207 16.8496 1.60257L1.60252 16.8496C1.40203 17.0501 1.07697 17.0501 0.876472 16.8496L0.150419 16.1236C-0.0500745 15.9231 -0.0500745 15.598 0.150419 15.3975L15.3975 0.150465C15.598 -0.0500281 15.9231 -0.0500277 16.1236 0.150466L16.8496 0.876516Z" fill="#C8414B"/>
</svg>
