<svg width="52" height="64" viewBox="0 0 52 64" fill="none" xmlns="http://www.w3.org/2000/svg">
<path d="M11.7294 53H14.0974V48.792H15.6814C18.2254 48.792 20.2414 47.592 20.2414 44.888C20.2414 42.072 18.2254 41.16 15.6174 41.16H11.7294V53ZM14.0974 46.92V43.048H15.4414C17.0734 43.048 17.9374 43.496 17.9374 44.888C17.9374 46.232 17.1534 46.92 15.5214 46.92H14.0974ZM22.4013 53H25.7773C29.2653 53 31.4893 51.016 31.4893 47.032C31.4893 43.032 29.2653 41.16 25.6493 41.16H22.4013V53ZM24.7693 51.096V43.048H25.4893C27.7133 43.048 29.0733 44.152 29.0733 47.032C29.0733 49.912 27.7133 51.096 25.4893 51.096H24.7693ZM33.8232 53H36.1912V48.2H40.3992V46.232H36.1912V43.128H41.1192V41.16H33.8232V53Z" fill="#06849B"/>
<path d="M14 31C12.8954 31 12 30.3284 12 29.5C12 28.6716 12.8954 28 14 28H22C23.1046 28 24 28.6716 24 29.5C24 30.3284 23.1046 31 22 31H14Z" fill="#06849B"/>
<path fill-rule="evenodd" clip-rule="evenodd" d="M51.9999 22.0158V22C51.9999 21.958 51.9987 21.916 51.9959 21.8742C51.9989 21.9212 52.0003 21.9686 51.9999 22.0158L30.2678 0.0180155C30.1796 0.00608114 30.0902 0 30 0H9.99999C4.47715 0 0 4.47716 0 10V54C0 59.5228 4.47715 64 9.99999 64H41.9999C47.5227 64 51.9999 59.5228 51.9999 54V22.0158ZM28 14C28 19.5228 32.4772 24 38 24H47.9999V54C47.9999 57.3138 45.3137 60 41.9999 60H9.99999C6.68629 60 3.99999 57.3138 3.99999 54V10C3.99999 6.6863 6.68629 4 9.99999 4H28V14ZM32 6.82842L45.1715 20H38C34.6862 20 32 17.3137 32 14V6.82842Z" fill="#06849B"/>
</svg>
