<svg width="11" height="11" viewBox="0 0 11 11" fill="none" xmlns="http://www.w3.org/2000/svg">
<path d="M10.3567 10.0213H3.58291L6.95089 6.62248L7.52038 6.05184C7.71046 5.86134 7.71155 5.55156 7.52293 5.35971C7.33419 5.16775 7.02714 5.16664 6.83719 5.35714L2.78795 9.43956L1.14529 9.84429L1.54604 8.18866L8.56421 1.10258C8.66677 1.02562 9.07964 0.783003 9.69011 1.28806C9.69338 1.29075 9.69665 1.29344 9.70005 1.29601C9.75532 1.33945 10.2203 1.72619 9.92794 2.23382L9.01915 3.15107L8.32395 2.51375C8.12588 2.33206 7.81907 2.34675 7.63906 2.54691C7.45893 2.74695 7.47371 3.05649 7.67191 3.23818L8.70919 4.1892C8.90072 4.36489 9.19504 4.3578 9.37809 4.17305L10.6533 2.88594C10.6771 2.86196 10.6983 2.83553 10.7166 2.80702C11.376 1.78578 10.7358 0.872195 10.3006 0.527416C9.25553 -0.334166 8.28832 0.0457278 7.92247 0.367628C7.91411 0.374969 7.90599 0.382677 7.89811 0.390507L0.764294 7.59344C0.701623 7.65681 0.657256 7.73634 0.636164 7.82333L0.0136978 10.3946C0.0128492 10.398 0.0126069 10.4016 0.0118795 10.4051C0.0104249 10.4116 0.00957636 10.418 0.00848538 10.4246C0.00387901 10.4503 0.0012122 10.4761 0.000848538 10.5019C0.000848538 10.5049 0 10.5077 0 10.5107C0 10.5119 0.000242472 10.5129 0.000363692 10.514C0.000484913 10.5429 0.00375782 10.5715 0.00884907 10.5996C0.0101825 10.6066 0.0116371 10.6134 0.0132129 10.6204C0.0192739 10.6469 0.0267896 10.6732 0.0372145 10.6984C0.0379419 10.7002 0.0387905 10.702 0.0395178 10.7039C0.0499428 10.7284 0.0631557 10.7519 0.0775809 10.7745C0.08146 10.7806 0.085339 10.7866 0.0894604 10.7924C0.105219 10.815 0.122311 10.8368 0.141949 10.8566C0.164375 10.8792 0.188982 10.8994 0.215287 10.9173C0.2245 10.9235 0.234804 10.9277 0.24438 10.9332C0.262078 10.9436 0.279655 10.9544 0.298687 10.9623C0.311294 10.9676 0.324628 10.9703 0.33772 10.9746C0.354812 10.9801 0.371419 10.9867 0.389238 10.9903C0.420513 10.9967 0.452515 11 0.48476 11H10.3567C10.6245 11 10.8416 10.7809 10.8416 10.5106C10.8416 10.2403 10.6245 10.0213 10.3567 10.0213Z" fill="#06849B"/>
</svg>
