<svg width="24" height="24" viewBox="0 0 24 24" fill="none" xmlns="http://www.w3.org/2000/svg">
<g clip-path="url(#clip0_1_2633)">
<path d="M7.54 5C7.6 5.89 7.75 6.76 7.99 7.59L6.79 8.79C6.38 7.59 6.12 6.32 6.03 5H7.54ZM17.4 17.02C18.25 17.26 19.12 17.41 20 17.47V18.96C18.68 18.87 17.41 18.61 16.2 18.21L17.4 17.02ZM8.5 3H5C4.45 3 4 3.45 4 4C4 13.39 11.61 21 21 21C21.55 21 22 20.55 22 20V16.51C22 15.96 21.55 15.51 21 15.51C19.76 15.51 18.55 15.31 17.43 14.94C17.33 14.9 17.22 14.89 17.12 14.89C16.86 14.89 16.61 14.99 16.41 15.18L14.21 17.38C11.38 15.93 9.06 13.62 7.62 10.79L9.82 8.59C10.1 8.31 10.18 7.92 10.07 7.57C9.7 6.45 9.5 5.25 9.5 4C9.5 3.45 9.05 3 8.5 3Z" fill="#06849B"/>
</g>
<defs>
<clipPath id="clip0_1_2633">
<rect width="24" height="24" fill="white"/>
</clipPath>
</defs>
</svg>
