<svg width="60" height="41" viewBox="0 0 60 41" fill="none" xmlns="http://www.w3.org/2000/svg">
<mask id="path-1-outside-1_1_2305" maskUnits="userSpaceOnUse" x="0" y="0" width="60" height="41" fill="black">
<rect fill="white" width="60" height="41"/>
<path d="M55.366 25.4254C56.1185 23.413 56.5002 21.2967 56.5002 19.1298C56.5002 9.13259 48.2975 1 38.2156 1C35.3594 1 32.5365 1.66653 30 2.9328C27.4636 1.66653 24.6407 1 21.7845 1C11.7026 1 3.49992 9.13326 3.49992 19.1298C3.49992 21.2967 3.88093 23.413 4.63343 25.4261L1.05191 38.2122C0.906987 38.7304 1.07096 39.2849 1.47578 39.6424C1.74113 39.8779 2.07996 40 2.42287 40C2.60318 40 2.78484 39.9656 2.95765 39.8968L13.9036 35.4928C16.3496 36.6512 19.0595 37.2597 21.7845 37.2597C24.6414 37.2597 27.4643 36.5925 30 35.3269C32.5365 36.5925 35.3587 37.2597 38.2156 37.2597C40.9406 37.2597 43.6505 36.6505 46.0965 35.4922L57.0418 39.8968C57.2146 39.9663 57.3962 40 57.5765 40C57.9195 40 58.2583 39.8765 58.5236 39.6424C58.9285 39.2849 59.0931 38.7297 58.9482 38.2122L55.366 25.4254ZM21.7845 34.4384C19.2582 34.4384 16.8497 33.8521 14.6255 32.6952C14.2343 32.4921 13.7852 32.4854 13.4029 32.6493L4.56811 36.2046L7.50191 25.7317C7.5856 25.4335 7.56791 25.1158 7.45156 24.8284C6.71811 23.0163 6.34595 21.0997 6.34595 19.1305C6.34595 10.6889 13.2715 3.82195 21.7845 3.82195C23.5963 3.82195 25.3925 4.1397 27.0819 4.74956C27.0159 4.79948 26.9513 4.8521 26.8859 4.90405C26.8295 4.94722 26.773 4.99107 26.7172 5.0356C26.6084 5.1233 26.5015 5.21235 26.3947 5.30208C26.3559 5.33513 26.3165 5.36684 26.2784 5.3999C26.1362 5.52133 25.9953 5.64478 25.8572 5.77161C25.8157 5.80872 25.7762 5.84785 25.7354 5.88495C25.6381 5.97603 25.5408 6.0671 25.4456 6.15885C25.3925 6.21012 25.3408 6.26274 25.2891 6.31401C25.2075 6.39497 25.1258 6.47592 25.0462 6.5589C24.9911 6.61557 24.9373 6.67224 24.8836 6.72891C24.8074 6.80919 24.7319 6.89081 24.657 6.97244C24.604 7.03114 24.5509 7.08983 24.4985 7.1492C24.4243 7.23285 24.3509 7.31785 24.2781 7.40285C24.2284 7.46087 24.1787 7.51821 24.1297 7.57758C24.0515 7.67135 23.9753 7.7658 23.8991 7.86092C23.8583 7.91219 23.8168 7.96212 23.7766 8.01406C23.663 8.15911 23.5514 8.3055 23.4425 8.45392C23.4194 8.48428 23.3983 8.51666 23.3752 8.54769C23.2881 8.66777 23.2024 8.78853 23.1187 8.90996C23.0779 8.96933 23.0398 9.0287 23.0003 9.08739C22.9357 9.18386 22.8717 9.27966 22.8084 9.37748C22.7662 9.44292 22.7247 9.50903 22.6832 9.57582C22.6254 9.66824 22.5676 9.76134 22.5111 9.85511C22.4703 9.92392 22.4301 9.99206 22.39 10.0609C22.3342 10.156 22.2805 10.2504 22.2267 10.3469C22.1886 10.415 22.1505 10.4825 22.1138 10.5506C22.0587 10.6525 22.0049 10.7557 21.9518 10.8583C21.9192 10.9217 21.8858 10.9838 21.8539 11.0465C21.7885 11.176 21.7259 11.3076 21.6634 11.4385C21.6457 11.4762 21.6273 11.512 21.6096 11.5498C21.532 11.7164 21.4572 11.8844 21.3844 12.0544C21.3599 12.1111 21.3368 12.1691 21.313 12.2271C21.2653 12.3418 21.2177 12.4571 21.1721 12.5738C21.1449 12.6427 21.119 12.7121 21.0932 12.7816C21.053 12.8875 21.0136 12.9941 20.9755 13.1014C20.9496 13.1743 20.9245 13.2478 20.8993 13.3207C20.8632 13.4266 20.8278 13.5325 20.7938 13.6398C20.77 13.7126 20.7469 13.7861 20.7244 13.859C20.6904 13.9696 20.6577 14.0816 20.6258 14.1936C20.606 14.2624 20.5856 14.3312 20.5666 14.4007C20.5319 14.5289 20.4992 14.6578 20.4672 14.7866C20.4536 14.8399 20.4393 14.8932 20.4264 14.9465C20.3829 15.128 20.3421 15.3108 20.304 15.4943C20.2951 15.5361 20.2876 15.58 20.2788 15.6225C20.2502 15.7648 20.223 15.9078 20.1978 16.0502C20.1862 16.1183 20.176 16.1858 20.1652 16.2532C20.1454 16.3733 20.1264 16.4927 20.1094 16.6128C20.0985 16.6864 20.0889 16.7619 20.0794 16.8354C20.0645 16.9515 20.0508 17.0668 20.0379 17.1829C20.0298 17.2584 20.0223 17.334 20.0141 17.4102C20.0025 17.5276 19.993 17.6463 19.9842 17.7637C19.978 17.8366 19.9726 17.9094 19.9678 17.983C19.9597 18.1112 19.9536 18.2407 19.9481 18.3695C19.9454 18.4323 19.942 18.4943 19.9399 18.5564C19.9338 18.748 19.9304 18.9396 19.9304 19.1325C19.9304 19.3255 19.9338 19.5164 19.9399 19.7087C19.942 19.7714 19.9454 19.8335 19.9481 19.8949C19.9536 20.0237 19.9597 20.1539 19.9678 20.2828C19.9726 20.355 19.978 20.4278 19.9835 20.5C19.9923 20.6194 20.0025 20.7381 20.0141 20.8562C20.0216 20.9311 20.0291 21.006 20.0372 21.0802C20.0502 21.1976 20.0645 21.3149 20.0794 21.4317C20.0889 21.5038 20.0978 21.5767 20.108 21.6489C20.1257 21.773 20.1447 21.8951 20.1645 22.0172C20.1754 22.0827 20.1849 22.1468 20.1958 22.2115C20.2223 22.3613 20.2509 22.5097 20.2808 22.6581C20.2876 22.6952 20.2944 22.731 20.3019 22.7674C20.34 22.9529 20.3815 23.1378 20.4257 23.3206C20.4366 23.3665 20.4489 23.4117 20.4604 23.4576C20.4945 23.5945 20.5298 23.7314 20.5666 23.867C20.5843 23.9311 20.6026 23.9946 20.621 24.058C20.6543 24.176 20.689 24.2941 20.7251 24.4108C20.7462 24.4783 20.7673 24.5464 20.7897 24.6139C20.8258 24.7272 20.8632 24.8399 20.902 24.9525C20.9251 25.02 20.9476 25.0868 20.9721 25.1536C21.0129 25.2689 21.0558 25.3836 21.0993 25.4983C21.1224 25.559 21.1456 25.6211 21.1694 25.6818C21.2204 25.8113 21.2728 25.9395 21.3266 26.067C21.3449 26.1115 21.3626 26.1567 21.3824 26.2012C21.4565 26.3753 21.5334 26.548 21.613 26.7194C21.6198 26.7335 21.6273 26.7484 21.6334 26.7625C21.7062 26.917 21.7804 27.0708 21.8579 27.224C21.8838 27.2752 21.911 27.3265 21.9375 27.3785C21.9967 27.4931 22.0573 27.6085 22.1192 27.7225C22.1512 27.7819 22.1838 27.8399 22.2172 27.8986C22.2764 28.0045 22.3362 28.1104 22.3982 28.2157C22.4329 28.2757 22.4682 28.3358 22.5036 28.3944C22.5662 28.499 22.6309 28.6036 22.6955 28.7068C22.7309 28.7628 22.7662 28.8195 22.8016 28.8748C22.8731 28.9861 22.9459 29.0961 23.0193 29.2053C23.0506 29.2512 23.0813 29.2978 23.1126 29.3436C23.2146 29.4927 23.318 29.6391 23.4242 29.7835C23.4283 29.7902 23.433 29.7963 23.4371 29.8017C23.5494 29.9548 23.6643 30.106 23.7814 30.2551C23.8113 30.2935 23.8419 30.3313 23.8725 30.3684C23.959 30.4777 24.0467 30.5856 24.1359 30.6929C24.1774 30.7421 24.2202 30.7921 24.2624 30.8413C24.3427 30.9364 24.4237 31.0295 24.506 31.1219C24.5522 31.1746 24.5992 31.2258 24.6461 31.2771C24.7278 31.3668 24.8101 31.4559 24.8931 31.5443C24.9407 31.5949 24.989 31.6448 25.0374 31.6954C25.1244 31.7858 25.2136 31.8748 25.3034 31.9632C25.3483 32.0077 25.3932 32.0536 25.4388 32.0975C25.5449 32.2 25.6531 32.3019 25.762 32.4024C25.7919 32.43 25.8218 32.4591 25.8525 32.4867C25.9933 32.6142 26.1362 32.741 26.2818 32.8659C26.3103 32.8895 26.3389 32.9124 26.3675 32.9367C26.4838 33.0352 26.6015 33.1323 26.7206 33.2281C26.771 33.2693 26.8227 33.3084 26.8737 33.3482C26.9431 33.4029 27.0111 33.4575 27.0805 33.5115C25.3932 34.1213 23.5963 34.4384 21.7845 34.4384ZM32.6379 30.0129C32.5869 30.0628 32.5345 30.112 32.4828 30.162C32.4147 30.2274 32.3467 30.2922 32.2773 30.3563C32.2229 30.4055 32.1684 30.4547 32.1133 30.5033C32.0439 30.5654 31.9752 30.6275 31.9051 30.6875C31.8486 30.7361 31.7908 30.7846 31.7337 30.8325C31.6629 30.8919 31.5928 30.9499 31.5214 31.0079C31.4622 31.0558 31.4023 31.1031 31.3424 31.1496C31.271 31.2056 31.1989 31.2616 31.1261 31.3162C31.0642 31.3628 31.0022 31.4087 30.9403 31.4545C30.8675 31.5072 30.7941 31.5611 30.7192 31.6124C30.6559 31.6569 30.5913 31.7021 30.5273 31.7453C30.4525 31.7966 30.377 31.8465 30.3008 31.8971C30.2355 31.9403 30.1695 31.9828 30.1035 32.0246C30.0694 32.0462 30.0341 32.0671 30 32.0894C29.9653 32.0678 29.9307 32.0469 29.896 32.0246C29.83 31.9828 29.764 31.9403 29.6986 31.8971C29.6231 31.8472 29.5476 31.7972 29.4728 31.7453C29.4081 31.7021 29.3442 31.6569 29.2802 31.6124C29.2067 31.5605 29.1332 31.5078 29.0604 31.4545C28.9978 31.4087 28.9353 31.3621 28.8733 31.3162C28.8012 31.2616 28.7305 31.2063 28.659 31.151C28.5985 31.1031 28.5372 31.0552 28.4774 31.0073C28.4066 30.9499 28.3372 30.8926 28.2678 30.8346C28.2093 30.7853 28.1508 30.7361 28.0929 30.6861C28.0235 30.6268 27.9562 30.5661 27.8881 30.5053C27.8317 30.4554 27.7752 30.4055 27.7201 30.3549C27.6521 30.2915 27.5861 30.2281 27.5194 30.1653C27.4656 30.1141 27.4119 30.0641 27.3595 30.0115C27.2928 29.9461 27.2275 29.8793 27.1622 29.8118C27.1118 29.7606 27.0608 29.7106 27.0111 29.6573C26.9438 29.5872 26.8785 29.5157 26.8131 29.4442C26.7669 29.3942 26.7199 29.3457 26.675 29.2937C26.6049 29.2161 26.5362 29.1359 26.4682 29.0563C26.4294 29.0104 26.3893 28.9659 26.3512 28.9207C26.2661 28.8195 26.1831 28.7156 26.1008 28.6123C26.0804 28.5874 26.06 28.5624 26.0396 28.5375C25.9382 28.4086 25.8395 28.2771 25.7416 28.1448C25.7123 28.105 25.6851 28.0652 25.6565 28.0248C25.5891 27.931 25.5218 27.8379 25.4572 27.7434C25.4204 27.6901 25.3864 27.6362 25.3503 27.5829C25.2945 27.4999 25.2387 27.4176 25.185 27.3333C25.1476 27.2746 25.1115 27.2145 25.0748 27.1558C25.0244 27.0756 24.9748 26.996 24.9265 26.9143C24.889 26.8523 24.8537 26.7888 24.8176 26.7268C24.772 26.6478 24.7257 26.5682 24.6815 26.488C24.6455 26.4225 24.6108 26.3578 24.5761 26.2923C24.5339 26.2134 24.491 26.1345 24.4502 26.0535C24.4162 25.986 24.3828 25.9193 24.3495 25.8518C24.31 25.7715 24.2712 25.6926 24.2331 25.6123C24.2005 25.5435 24.1692 25.4747 24.1379 25.4052C24.1012 25.3249 24.0651 25.2446 24.0297 25.163C23.9998 25.0928 23.9705 25.0234 23.9413 24.9525C23.9072 24.8716 23.8739 24.7899 23.8419 24.7076C23.8134 24.6375 23.7861 24.566 23.7596 24.4944C23.7283 24.4121 23.6977 24.3292 23.6677 24.2462C23.6419 24.174 23.6167 24.1018 23.5922 24.0303C23.5637 23.9467 23.5358 23.863 23.5085 23.7787C23.4854 23.7065 23.4623 23.6323 23.4398 23.5601C23.414 23.4751 23.3888 23.3901 23.365 23.3058C23.3439 23.2322 23.3228 23.158 23.3031 23.0845C23.2799 22.9988 23.2582 22.9118 23.2364 22.8261C23.2173 22.7526 23.199 22.6784 23.1813 22.6035C23.1609 22.5164 23.1411 22.4287 23.1228 22.341C23.1064 22.2675 23.0901 22.1926 23.0751 22.1184C23.0574 22.0294 23.0411 21.9396 23.0248 21.8513C23.0112 21.7777 22.9976 21.7035 22.9846 21.63C22.9697 21.5382 22.9561 21.4472 22.9425 21.3547C22.9316 21.2826 22.92 21.2097 22.9105 21.1362C22.8976 21.0424 22.8874 20.948 22.8765 20.8528C22.8683 20.782 22.8595 20.7105 22.852 20.6396C22.8418 20.5398 22.8343 20.4393 22.8261 20.3394C22.8207 20.272 22.8139 20.2065 22.8098 20.1404C22.8023 20.0284 22.7975 19.9151 22.7928 19.8031C22.7907 19.7478 22.7867 19.6925 22.7846 19.6365C22.7792 19.4685 22.7758 19.2998 22.7758 19.1305C22.7758 18.9612 22.7792 18.7925 22.7846 18.6245C22.7867 18.5686 22.7907 18.5132 22.7928 18.4579C22.7975 18.3459 22.8023 18.2326 22.8098 18.1206C22.8139 18.0545 22.8207 17.989 22.8261 17.9216C22.8343 17.8217 22.8418 17.7212 22.852 17.6214C22.8595 17.5505 22.8676 17.479 22.8765 17.4082C22.8874 17.3131 22.8976 17.2186 22.9105 17.1242C22.92 17.0513 22.9316 16.9785 22.9425 16.9063C22.9561 16.8139 22.9697 16.7228 22.9846 16.631C22.9976 16.5575 23.0112 16.4833 23.0248 16.4098C23.0411 16.32 23.0574 16.2303 23.0751 16.1426C23.0901 16.0677 23.1064 15.9935 23.1228 15.92C23.1418 15.8316 23.1609 15.7446 23.1813 15.6569C23.1983 15.5827 23.2173 15.5085 23.2364 15.4349C23.2582 15.3486 23.2799 15.2622 23.3031 15.1765C23.3228 15.103 23.3439 15.0288 23.365 14.9553C23.3895 14.8709 23.414 14.7853 23.4398 14.7009C23.4623 14.6281 23.4854 14.5545 23.5085 14.4824C23.5358 14.398 23.5637 14.3144 23.5922 14.2307C23.6167 14.1585 23.6426 14.0864 23.6677 14.0148C23.6977 13.9319 23.7283 13.8489 23.7596 13.7659C23.7868 13.6951 23.814 13.6236 23.8419 13.5527C23.8739 13.4711 23.9079 13.3895 23.9413 13.3078C23.9705 13.2377 23.9998 13.1682 24.0297 13.098C24.0651 13.0164 24.1012 12.9361 24.1379 12.8558C24.1692 12.7857 24.2005 12.7175 24.2325 12.6487C24.2706 12.5684 24.31 12.4888 24.3495 12.4092C24.3828 12.3418 24.4155 12.275 24.4495 12.2075C24.4903 12.1272 24.5332 12.0483 24.5754 11.9687C24.6101 11.9026 24.6448 11.8378 24.6808 11.7724C24.7251 11.6928 24.7713 11.6132 24.8169 11.5336C24.853 11.4702 24.8884 11.4081 24.9258 11.346C24.9741 11.2651 25.0244 11.1848 25.0748 11.1045C25.1115 11.0451 25.1469 10.9858 25.1843 10.9278C25.2387 10.8434 25.2945 10.7605 25.3503 10.6768C25.3857 10.6235 25.4204 10.5702 25.4565 10.5176C25.5225 10.4218 25.5898 10.328 25.6579 10.2336C25.6864 10.1944 25.7137 10.1546 25.7416 10.1162C25.8388 9.98329 25.9382 9.85241 26.0396 9.72356C26.0586 9.69927 26.0783 9.67634 26.0974 9.65205C26.1811 9.54748 26.2648 9.44291 26.3512 9.34037C26.3893 9.2945 26.4287 9.25065 26.4668 9.20612C26.5356 9.12584 26.6043 9.04556 26.675 8.96663C26.7199 8.91671 26.7669 8.86814 26.8125 8.81754C26.8785 8.74536 26.9438 8.67385 27.0111 8.60301C27.0608 8.55174 27.1112 8.50182 27.1615 8.44987C27.2275 8.38241 27.2928 8.31562 27.3602 8.24951C27.4126 8.19823 27.4656 8.14831 27.5187 8.09704C27.5854 8.03295 27.6527 7.96954 27.7208 7.9068C27.7759 7.8562 27.8317 7.80695 27.8875 7.75636C27.9555 7.69564 28.0235 7.63492 28.0929 7.57421C28.1501 7.52496 28.2086 7.47571 28.2671 7.42714C28.3365 7.36845 28.4059 7.31043 28.4767 7.25376C28.5359 7.20586 28.5971 7.15797 28.6577 7.11074C28.7284 7.05475 28.7999 6.99943 28.8727 6.94546C28.9346 6.89823 28.9965 6.85236 29.0591 6.80716C29.1319 6.75319 29.2054 6.70057 29.2795 6.64863C29.3428 6.6041 29.4074 6.55957 29.4714 6.51572C29.5462 6.46513 29.6224 6.41386 29.698 6.36326C29.7633 6.32143 29.8286 6.27893 29.8946 6.23643C29.9293 6.21417 29.964 6.19325 29.9987 6.17167C30.0334 6.19258 30.0688 6.21349 30.1028 6.23643C30.1688 6.27826 30.2341 6.32076 30.2994 6.36326C30.3756 6.41318 30.4511 6.46445 30.526 6.5164C30.5899 6.55957 30.6539 6.60342 30.7172 6.64795C30.7913 6.70057 30.8648 6.75319 30.9383 6.80716C31.0002 6.85236 31.0621 6.89824 31.1234 6.94411C31.1962 6.99943 31.2683 7.05542 31.3397 7.11142C31.3996 7.15864 31.4595 7.20519 31.5187 7.25309C31.5901 7.31043 31.6602 7.3698 31.7309 7.42849C31.7881 7.47639 31.8459 7.52496 31.9031 7.57421C31.9732 7.63425 32.0419 7.69564 32.1106 7.75703C32.1657 7.80628 32.2208 7.85553 32.2752 7.90545C32.3446 7.96954 32.412 8.03363 32.48 8.09839C32.5317 8.14831 32.5848 8.19689 32.6358 8.24816C32.7046 8.31629 32.7719 8.38443 32.8393 8.45324C32.8876 8.50317 32.9366 8.55174 32.9842 8.60166C33.0543 8.67452 33.1216 8.74873 33.1897 8.82361C33.2332 8.87084 33.2774 8.91738 33.3203 8.96528C33.3938 9.04759 33.4659 9.13192 33.5373 9.21557C33.5727 9.2574 33.6088 9.2972 33.6442 9.33902C33.7367 9.44966 33.8272 9.56165 33.9163 9.67431C33.9292 9.6905 33.9429 9.70669 33.9551 9.72221C34.0572 9.85174 34.1572 9.98396 34.2545 10.1169C34.2783 10.1492 34.3014 10.183 34.3252 10.2154C34.3973 10.3159 34.4701 10.4164 34.5402 10.5183C34.5736 10.5662 34.6049 10.6168 34.6382 10.6653C34.6967 10.7524 34.7552 10.8401 34.8124 10.9291C34.8478 10.9844 34.8818 11.0411 34.9165 11.0964C34.9682 11.1801 35.0206 11.2637 35.0709 11.3481C35.1063 11.4074 35.1403 11.4681 35.175 11.5275C35.2226 11.6098 35.2703 11.6921 35.3159 11.7744C35.3499 11.8372 35.3839 11.9006 35.4172 11.9633C35.4608 12.0449 35.5043 12.1266 35.5472 12.2089C35.5798 12.2736 35.6118 12.3384 35.6445 12.4038C35.6853 12.4855 35.7254 12.5678 35.7642 12.6501C35.7955 12.7169 35.8261 12.7837 35.8568 12.8511C35.8942 12.9334 35.9309 13.0157 35.9677 13.0987C35.9969 13.1675 36.0255 13.2356 36.0541 13.3045C36.0888 13.3874 36.1228 13.4704 36.1555 13.5547C36.1833 13.6242 36.2099 13.6937 36.2364 13.7639C36.2684 13.8475 36.299 13.9319 36.3296 14.0162C36.3555 14.087 36.38 14.1585 36.4045 14.2294C36.433 14.3137 36.4609 14.3987 36.4888 14.4837C36.512 14.5559 36.5344 14.6274 36.5569 14.6996C36.5834 14.7853 36.6086 14.8709 36.6331 14.958C36.6535 15.0301 36.6746 15.103 36.6936 15.1752C36.7174 15.2622 36.7392 15.3492 36.7617 15.4369C36.78 15.5098 36.7984 15.5827 36.8161 15.6562C36.8365 15.7446 36.8562 15.833 36.8753 15.9213C36.8909 15.9949 36.9073 16.0677 36.9216 16.1413C36.9399 16.231 36.9563 16.3221 36.9726 16.4118C36.9862 16.4846 36.9998 16.5575 37.0121 16.631C37.0277 16.7228 37.0406 16.8145 37.0549 16.9076C37.0658 16.9791 37.0767 17.0513 37.0869 17.1235C37.0998 17.2193 37.11 17.3144 37.1209 17.4102C37.1291 17.4804 37.1379 17.5505 37.1447 17.6207C37.1549 17.7212 37.1624 17.8224 37.1706 17.9229C37.176 17.989 37.1821 18.0545 37.1862 18.1206C37.1937 18.2326 37.1985 18.3459 37.2032 18.4579C37.206 18.5132 37.2094 18.5686 37.2114 18.6239C37.2168 18.7925 37.2202 18.9612 37.2202 19.1305C37.2202 19.2998 37.2175 19.4685 37.2114 19.6365C37.2094 19.6925 37.206 19.7478 37.2032 19.8031C37.1985 19.9151 37.1937 20.0284 37.1862 20.1404C37.1821 20.2065 37.1753 20.272 37.1706 20.3381C37.1624 20.4386 37.1549 20.5398 37.1447 20.6396C37.1379 20.7105 37.1291 20.7806 37.1209 20.8508C37.11 20.9466 37.0991 21.0417 37.0869 21.1368C37.0767 21.2097 37.0658 21.2819 37.0549 21.3534C37.0406 21.4458 37.0277 21.5382 37.0121 21.63C36.9998 21.7035 36.9862 21.7764 36.9726 21.8492C36.9563 21.9396 36.9399 22.03 36.9216 22.1198C36.9073 22.1926 36.8909 22.2662 36.8753 22.3397C36.8562 22.4281 36.8365 22.5165 36.8161 22.6048C36.7991 22.6784 36.7807 22.7512 36.7617 22.8241C36.7399 22.9118 36.7174 22.9988 36.6936 23.0858C36.6739 23.158 36.6535 23.2309 36.6324 23.3037C36.6079 23.3901 36.5827 23.4758 36.5562 23.5614C36.5344 23.6336 36.5113 23.7051 36.4882 23.7773C36.4609 23.8623 36.433 23.9473 36.4038 24.0317C36.3793 24.1025 36.3548 24.174 36.3289 24.2448C36.299 24.3292 36.2677 24.4128 36.2357 24.4965C36.2092 24.5666 36.1827 24.6361 36.1548 24.7063C36.1214 24.7899 36.0874 24.8729 36.0534 24.9559C36.0248 25.0254 35.9962 25.0935 35.9663 25.1623C35.9302 25.2453 35.8935 25.3269 35.8561 25.4086C35.8255 25.4767 35.7948 25.5442 35.7636 25.6109C35.7248 25.6933 35.6846 25.7749 35.6438 25.8565C35.6118 25.9226 35.5798 25.9867 35.5465 26.0522C35.5043 26.1345 35.4608 26.2161 35.4172 26.2977C35.3839 26.3611 35.3499 26.4245 35.3159 26.4859C35.2703 26.5689 35.2226 26.6505 35.175 26.7328C35.1403 26.7929 35.1063 26.8536 35.0709 26.913C35.0206 26.9973 34.9682 27.0803 34.9165 27.1639C34.8818 27.2199 34.8478 27.2766 34.8124 27.3319C34.7559 27.4203 34.6974 27.5073 34.6389 27.5943C34.6062 27.6436 34.5736 27.6928 34.5402 27.7428C34.4695 27.8446 34.3973 27.9465 34.3245 28.0463C34.3007 28.0794 34.279 28.1125 34.2545 28.1442C34.1565 28.2771 34.0565 28.4093 33.9551 28.5395C33.9429 28.5537 33.9306 28.5685 33.919 28.584C33.8285 28.6974 33.7374 28.8107 33.6442 28.9227C33.6095 28.9638 33.5734 29.003 33.5387 29.0441C33.4666 29.1284 33.3945 29.2134 33.3203 29.2957C33.2781 29.3436 33.2339 29.3909 33.1904 29.4367C33.1216 29.5116 33.0536 29.5872 32.9835 29.6594C32.9359 29.7093 32.8869 29.7579 32.8393 29.8071C32.7746 29.8766 32.7073 29.9454 32.6379 30.0129ZM46.57 32.6372C46.3986 32.5683 46.2162 32.5339 46.0353 32.5339C45.808 32.5339 45.5808 32.5886 45.3746 32.6952C43.1817 33.8346 40.7065 34.4384 38.2156 34.4384C36.4031 34.4384 34.6076 34.1207 32.9189 33.5108C32.9869 33.4582 33.0536 33.4049 33.121 33.3516C33.1747 33.3098 33.2285 33.2686 33.2808 33.2261C33.3938 33.135 33.5047 33.0433 33.6149 32.9502C33.6496 32.9205 33.6857 32.8922 33.7204 32.8625C33.8632 32.7397 34.0041 32.6149 34.1436 32.4881C34.1823 32.4523 34.2204 32.4166 34.2592 32.3801C34.3586 32.2877 34.4579 32.196 34.5552 32.1008C34.6076 32.0509 34.6579 31.9996 34.7096 31.9477C34.7926 31.8661 34.8743 31.7838 34.9553 31.7001C35.0097 31.6448 35.0628 31.5881 35.1158 31.5314C35.1927 31.4512 35.2682 31.3695 35.3431 31.2866C35.3961 31.2285 35.4492 31.1705 35.5009 31.1112C35.5751 31.0275 35.6486 30.9425 35.7214 30.8568C35.771 30.7995 35.8207 30.7415 35.869 30.6828C35.9473 30.589 36.0235 30.4952 36.099 30.3994C36.1398 30.3482 36.182 30.2982 36.2221 30.2456C36.3358 30.1012 36.4473 29.9549 36.5555 29.8071C36.5793 29.7741 36.6025 29.7403 36.6263 29.7079C36.712 29.5899 36.7964 29.4705 36.8794 29.3511C36.9202 29.2917 36.9597 29.231 36.9998 29.1716C37.0638 29.0758 37.1277 28.9807 37.1889 28.8842C37.2318 28.8181 37.274 28.7513 37.3155 28.6839C37.3727 28.5914 37.4298 28.4997 37.4856 28.4066C37.5271 28.3371 37.5679 28.269 37.6087 28.1988C37.6632 28.105 37.7169 28.0106 37.77 27.9155C37.8088 27.8467 37.8469 27.7785 37.8843 27.709C37.9387 27.6085 37.9918 27.5066 38.0442 27.4054C38.0775 27.3414 38.1115 27.2779 38.1442 27.2132C38.2075 27.0863 38.2694 26.9588 38.3299 26.8313C38.349 26.7902 38.3694 26.7511 38.3878 26.7099C38.4653 26.544 38.5395 26.3766 38.6116 26.208C38.6375 26.1486 38.6613 26.0879 38.6858 26.0285C38.7327 25.9152 38.779 25.8025 38.8239 25.6885C38.8518 25.6184 38.8783 25.5475 38.9049 25.4767C38.9443 25.3721 38.9831 25.2669 39.0205 25.1616C39.0471 25.0881 39.0729 25.0132 39.0981 24.939C39.1342 24.8345 39.1689 24.7285 39.2029 24.6233C39.2267 24.5491 39.2498 24.4749 39.273 24.4013C39.307 24.2914 39.339 24.1814 39.3709 24.0708C39.3907 24.0006 39.4118 23.9305 39.4308 23.8603C39.4655 23.7335 39.4982 23.606 39.5301 23.4785C39.5437 23.4245 39.5587 23.3698 39.5716 23.3152C39.6152 23.1337 39.656 22.9516 39.6941 22.7681C39.7036 22.7249 39.7111 22.6797 39.72 22.6365C39.7485 22.4955 39.7758 22.3545 39.8002 22.2122C39.8125 22.1441 39.8227 22.0766 39.8336 22.0078C39.8526 21.8884 39.8717 21.769 39.8887 21.6496C39.8989 21.576 39.9084 21.5005 39.918 21.4263C39.9329 21.3109 39.9465 21.1955 39.9595 21.0795C39.9676 21.0039 39.9758 20.9277 39.9833 20.8522C39.9948 20.7341 40.0044 20.616 40.0132 20.4993C40.0187 20.4258 40.0248 20.3523 40.0289 20.2794C40.037 20.1505 40.0431 20.0217 40.0486 19.8922C40.0513 19.8301 40.0547 19.768 40.0568 19.7053C40.0629 19.5144 40.067 19.3228 40.067 19.1298C40.067 18.9369 40.0629 18.746 40.0568 18.5537C40.0547 18.491 40.0513 18.4289 40.0486 18.3668C40.0431 18.238 40.037 18.1085 40.0289 17.9803C40.0241 17.9067 40.0187 17.8339 40.0132 17.761C40.0037 17.643 39.9942 17.5242 39.9833 17.4075C39.9758 17.332 39.9683 17.2557 39.9595 17.1809C39.9465 17.0641 39.9329 16.9481 39.918 16.8327C39.9084 16.7585 39.8989 16.6837 39.8887 16.6101C39.8717 16.49 39.8526 16.37 39.8329 16.2499C39.822 16.1824 39.8118 16.1149 39.8002 16.0482C39.7751 15.9038 39.7472 15.7601 39.7186 15.6177C39.7104 15.5759 39.703 15.5334 39.6941 15.4909C39.656 15.3081 39.6152 15.1246 39.5716 14.9431C39.5587 14.8905 39.5444 14.8392 39.5315 14.7873C39.4988 14.6571 39.4662 14.5269 39.4308 14.398C39.4124 14.3292 39.392 14.2611 39.3723 14.1923C39.3403 14.0796 39.3077 13.9669 39.273 13.855C39.2505 13.7828 39.228 13.7106 39.2042 13.6391C39.1695 13.5311 39.1335 13.4239 39.0974 13.3166C39.0729 13.2444 39.0477 13.1722 39.0219 13.1001C38.9838 12.9921 38.9436 12.8842 38.9028 12.7769C38.877 12.7081 38.8518 12.64 38.8246 12.5711C38.7783 12.4538 38.73 12.3371 38.6817 12.2203C38.6586 12.1643 38.6361 12.1077 38.6123 12.0517C38.5395 11.8817 38.4647 11.713 38.3864 11.5457C38.3701 11.5113 38.3531 11.4769 38.3368 11.4432C38.2735 11.3089 38.2088 11.176 38.1422 11.0424C38.1109 10.9811 38.0789 10.9197 38.0469 10.8596C37.9925 10.7544 37.938 10.6498 37.8816 10.5459C37.8448 10.4791 37.8081 10.413 37.7707 10.3469C37.7162 10.2491 37.6611 10.1526 37.6047 10.0555C37.5652 9.98801 37.5257 9.92122 37.4856 9.85511C37.4284 9.75864 37.3699 9.66419 37.3107 9.56975C37.2699 9.50498 37.2298 9.44022 37.1883 9.37613C37.1243 9.27696 37.059 9.17914 36.9937 9.08132C36.9549 9.0233 36.9175 8.96528 36.878 8.90861C36.7916 8.78246 36.7032 8.65833 36.6127 8.5342C36.5929 8.50721 36.5739 8.47888 36.5542 8.45189C36.4446 8.3028 36.3323 8.15641 36.2187 8.01001C36.1799 7.96077 36.1398 7.91152 36.1003 7.86227C36.0228 7.76513 35.9452 7.66866 35.8656 7.57353C35.818 7.51552 35.769 7.45885 35.72 7.40218C35.6465 7.31583 35.5724 7.23015 35.4968 7.14515C35.4451 7.08713 35.3927 7.02911 35.3404 6.97109C35.2648 6.88812 35.1886 6.80649 35.1117 6.72486C35.0587 6.66886 35.0056 6.61287 34.9519 6.55755C34.8709 6.47322 34.7886 6.39159 34.7062 6.30929C34.6545 6.25869 34.6042 6.20742 34.5518 6.15682C34.4552 6.06238 34.3565 5.97063 34.2579 5.87888C34.2184 5.84177 34.1796 5.80535 34.1402 5.76824C34.0014 5.64209 33.8612 5.51796 33.7183 5.39585C33.6809 5.36347 33.6428 5.33311 33.6047 5.3014C33.4972 5.21033 33.389 5.1206 33.2795 5.0329C33.2244 4.98838 33.1686 4.94587 33.1128 4.9027C33.0468 4.85075 32.9822 4.79881 32.9155 4.74753C34.6042 4.13768 36.4004 3.81993 38.2122 3.81993C46.7252 3.81993 53.6508 10.6876 53.6508 19.1285C53.6508 21.0977 53.2786 23.015 52.5451 24.8264C52.4288 25.1138 52.4111 25.4308 52.4948 25.7297L55.4286 36.2019L46.57 32.6372Z"/>
</mask>
<path d="M55.366 25.4254C56.1185 23.413 56.5002 21.2967 56.5002 19.1298C56.5002 9.13259 48.2975 1 38.2156 1C35.3594 1 32.5365 1.66653 30 2.9328C27.4636 1.66653 24.6407 1 21.7845 1C11.7026 1 3.49992 9.13326 3.49992 19.1298C3.49992 21.2967 3.88093 23.413 4.63343 25.4261L1.05191 38.2122C0.906987 38.7304 1.07096 39.2849 1.47578 39.6424C1.74113 39.8779 2.07996 40 2.42287 40C2.60318 40 2.78484 39.9656 2.95765 39.8968L13.9036 35.4928C16.3496 36.6512 19.0595 37.2597 21.7845 37.2597C24.6414 37.2597 27.4643 36.5925 30 35.3269C32.5365 36.5925 35.3587 37.2597 38.2156 37.2597C40.9406 37.2597 43.6505 36.6505 46.0965 35.4922L57.0418 39.8968C57.2146 39.9663 57.3962 40 57.5765 40C57.9195 40 58.2583 39.8765 58.5236 39.6424C58.9285 39.2849 59.0931 38.7297 58.9482 38.2122L55.366 25.4254ZM21.7845 34.4384C19.2582 34.4384 16.8497 33.8521 14.6255 32.6952C14.2343 32.4921 13.7852 32.4854 13.4029 32.6493L4.56811 36.2046L7.50191 25.7317C7.5856 25.4335 7.56791 25.1158 7.45156 24.8284C6.71811 23.0163 6.34595 21.0997 6.34595 19.1305C6.34595 10.6889 13.2715 3.82195 21.7845 3.82195C23.5963 3.82195 25.3925 4.1397 27.0819 4.74956C27.0159 4.79948 26.9513 4.8521 26.8859 4.90405C26.8295 4.94722 26.773 4.99107 26.7172 5.0356C26.6084 5.1233 26.5015 5.21235 26.3947 5.30208C26.3559 5.33513 26.3165 5.36684 26.2784 5.3999C26.1362 5.52133 25.9953 5.64478 25.8572 5.77161C25.8157 5.80872 25.7762 5.84785 25.7354 5.88495C25.6381 5.97603 25.5408 6.0671 25.4456 6.15885C25.3925 6.21012 25.3408 6.26274 25.2891 6.31401C25.2075 6.39497 25.1258 6.47592 25.0462 6.5589C24.9911 6.61557 24.9373 6.67224 24.8836 6.72891C24.8074 6.80919 24.7319 6.89081 24.657 6.97244C24.604 7.03114 24.5509 7.08983 24.4985 7.1492C24.4243 7.23285 24.3509 7.31785 24.2781 7.40285C24.2284 7.46087 24.1787 7.51821 24.1297 7.57758C24.0515 7.67135 23.9753 7.7658 23.8991 7.86092C23.8583 7.91219 23.8168 7.96212 23.7766 8.01406C23.663 8.15911 23.5514 8.3055 23.4425 8.45392C23.4194 8.48428 23.3983 8.51666 23.3752 8.54769C23.2881 8.66777 23.2024 8.78853 23.1187 8.90996C23.0779 8.96933 23.0398 9.0287 23.0003 9.08739C22.9357 9.18386 22.8717 9.27966 22.8084 9.37748C22.7662 9.44292 22.7247 9.50903 22.6832 9.57582C22.6254 9.66824 22.5676 9.76134 22.5111 9.85511C22.4703 9.92392 22.4301 9.99206 22.39 10.0609C22.3342 10.156 22.2805 10.2504 22.2267 10.3469C22.1886 10.415 22.1505 10.4825 22.1138 10.5506C22.0587 10.6525 22.0049 10.7557 21.9518 10.8583C21.9192 10.9217 21.8858 10.9838 21.8539 11.0465C21.7885 11.176 21.7259 11.3076 21.6634 11.4385C21.6457 11.4762 21.6273 11.512 21.6096 11.5498C21.532 11.7164 21.4572 11.8844 21.3844 12.0544C21.3599 12.1111 21.3368 12.1691 21.313 12.2271C21.2653 12.3418 21.2177 12.4571 21.1721 12.5738C21.1449 12.6427 21.119 12.7121 21.0932 12.7816C21.053 12.8875 21.0136 12.9941 20.9755 13.1014C20.9496 13.1743 20.9245 13.2478 20.8993 13.3207C20.8632 13.4266 20.8278 13.5325 20.7938 13.6398C20.77 13.7126 20.7469 13.7861 20.7244 13.859C20.6904 13.9696 20.6577 14.0816 20.6258 14.1936C20.606 14.2624 20.5856 14.3312 20.5666 14.4007C20.5319 14.5289 20.4992 14.6578 20.4672 14.7866C20.4536 14.8399 20.4393 14.8932 20.4264 14.9465C20.3829 15.128 20.3421 15.3108 20.304 15.4943C20.2951 15.5361 20.2876 15.58 20.2788 15.6225C20.2502 15.7648 20.223 15.9078 20.1978 16.0502C20.1862 16.1183 20.176 16.1858 20.1652 16.2532C20.1454 16.3733 20.1264 16.4927 20.1094 16.6128C20.0985 16.6864 20.0889 16.7619 20.0794 16.8354C20.0645 16.9515 20.0508 17.0668 20.0379 17.1829C20.0298 17.2584 20.0223 17.334 20.0141 17.4102C20.0025 17.5276 19.993 17.6463 19.9842 17.7637C19.978 17.8366 19.9726 17.9094 19.9678 17.983C19.9597 18.1112 19.9536 18.2407 19.9481 18.3695C19.9454 18.4323 19.942 18.4943 19.9399 18.5564C19.9338 18.748 19.9304 18.9396 19.9304 19.1325C19.9304 19.3255 19.9338 19.5164 19.9399 19.7087C19.942 19.7714 19.9454 19.8335 19.9481 19.8949C19.9536 20.0237 19.9597 20.1539 19.9678 20.2828C19.9726 20.355 19.978 20.4278 19.9835 20.5C19.9923 20.6194 20.0025 20.7381 20.0141 20.8562C20.0216 20.9311 20.0291 21.006 20.0372 21.0802C20.0502 21.1976 20.0645 21.3149 20.0794 21.4317C20.0889 21.5038 20.0978 21.5767 20.108 21.6489C20.1257 21.773 20.1447 21.8951 20.1645 22.0172C20.1754 22.0827 20.1849 22.1468 20.1958 22.2115C20.2223 22.3613 20.2509 22.5097 20.2808 22.6581C20.2876 22.6952 20.2944 22.731 20.3019 22.7674C20.34 22.9529 20.3815 23.1378 20.4257 23.3206C20.4366 23.3665 20.4489 23.4117 20.4604 23.4576C20.4945 23.5945 20.5298 23.7314 20.5666 23.867C20.5843 23.9311 20.6026 23.9946 20.621 24.058C20.6543 24.176 20.689 24.2941 20.7251 24.4108C20.7462 24.4783 20.7673 24.5464 20.7897 24.6139C20.8258 24.7272 20.8632 24.8399 20.902 24.9525C20.9251 25.02 20.9476 25.0868 20.9721 25.1536C21.0129 25.2689 21.0558 25.3836 21.0993 25.4983C21.1224 25.559 21.1456 25.6211 21.1694 25.6818C21.2204 25.8113 21.2728 25.9395 21.3266 26.067C21.3449 26.1115 21.3626 26.1567 21.3824 26.2012C21.4565 26.3753 21.5334 26.548 21.613 26.7194C21.6198 26.7335 21.6273 26.7484 21.6334 26.7625C21.7062 26.917 21.7804 27.0708 21.8579 27.224C21.8838 27.2752 21.911 27.3265 21.9375 27.3785C21.9967 27.4931 22.0573 27.6085 22.1192 27.7225C22.1512 27.7819 22.1838 27.8399 22.2172 27.8986C22.2764 28.0045 22.3362 28.1104 22.3982 28.2157C22.4329 28.2757 22.4682 28.3358 22.5036 28.3944C22.5662 28.499 22.6309 28.6036 22.6955 28.7068C22.7309 28.7628 22.7662 28.8195 22.8016 28.8748C22.8731 28.9861 22.9459 29.0961 23.0193 29.2053C23.0506 29.2512 23.0813 29.2978 23.1126 29.3436C23.2146 29.4927 23.318 29.6391 23.4242 29.7835C23.4283 29.7902 23.433 29.7963 23.4371 29.8017C23.5494 29.9548 23.6643 30.106 23.7814 30.2551C23.8113 30.2935 23.8419 30.3313 23.8725 30.3684C23.959 30.4777 24.0467 30.5856 24.1359 30.6929C24.1774 30.7421 24.2202 30.7921 24.2624 30.8413C24.3427 30.9364 24.4237 31.0295 24.506 31.1219C24.5522 31.1746 24.5992 31.2258 24.6461 31.2771C24.7278 31.3668 24.8101 31.4559 24.8931 31.5443C24.9407 31.5949 24.989 31.6448 25.0374 31.6954C25.1244 31.7858 25.2136 31.8748 25.3034 31.9632C25.3483 32.0077 25.3932 32.0536 25.4388 32.0975C25.5449 32.2 25.6531 32.3019 25.762 32.4024C25.7919 32.43 25.8218 32.4591 25.8525 32.4867C25.9933 32.6142 26.1362 32.741 26.2818 32.8659C26.3103 32.8895 26.3389 32.9124 26.3675 32.9367C26.4838 33.0352 26.6015 33.1323 26.7206 33.2281C26.771 33.2693 26.8227 33.3084 26.8737 33.3482C26.9431 33.4029 27.0111 33.4575 27.0805 33.5115C25.3932 34.1213 23.5963 34.4384 21.7845 34.4384ZM32.6379 30.0129C32.5869 30.0628 32.5345 30.112 32.4828 30.162C32.4147 30.2274 32.3467 30.2922 32.2773 30.3563C32.2229 30.4055 32.1684 30.4547 32.1133 30.5033C32.0439 30.5654 31.9752 30.6275 31.9051 30.6875C31.8486 30.7361 31.7908 30.7846 31.7337 30.8325C31.6629 30.8919 31.5928 30.9499 31.5214 31.0079C31.4622 31.0558 31.4023 31.1031 31.3424 31.1496C31.271 31.2056 31.1989 31.2616 31.1261 31.3162C31.0642 31.3628 31.0022 31.4087 30.9403 31.4545C30.8675 31.5072 30.7941 31.5611 30.7192 31.6124C30.6559 31.6569 30.5913 31.7021 30.5273 31.7453C30.4525 31.7966 30.377 31.8465 30.3008 31.8971C30.2355 31.9403 30.1695 31.9828 30.1035 32.0246C30.0694 32.0462 30.0341 32.0671 30 32.0894C29.9653 32.0678 29.9307 32.0469 29.896 32.0246C29.83 31.9828 29.764 31.9403 29.6986 31.8971C29.6231 31.8472 29.5476 31.7972 29.4728 31.7453C29.4081 31.7021 29.3442 31.6569 29.2802 31.6124C29.2067 31.5605 29.1332 31.5078 29.0604 31.4545C28.9978 31.4087 28.9353 31.3621 28.8733 31.3162C28.8012 31.2616 28.7305 31.2063 28.659 31.151C28.5985 31.1031 28.5372 31.0552 28.4774 31.0073C28.4066 30.9499 28.3372 30.8926 28.2678 30.8346C28.2093 30.7853 28.1508 30.7361 28.0929 30.6861C28.0235 30.6268 27.9562 30.5661 27.8881 30.5053C27.8317 30.4554 27.7752 30.4055 27.7201 30.3549C27.6521 30.2915 27.5861 30.2281 27.5194 30.1653C27.4656 30.1141 27.4119 30.0641 27.3595 30.0115C27.2928 29.9461 27.2275 29.8793 27.1622 29.8118C27.1118 29.7606 27.0608 29.7106 27.0111 29.6573C26.9438 29.5872 26.8785 29.5157 26.8131 29.4442C26.7669 29.3942 26.7199 29.3457 26.675 29.2937C26.6049 29.2161 26.5362 29.1359 26.4682 29.0563C26.4294 29.0104 26.3893 28.9659 26.3512 28.9207C26.2661 28.8195 26.1831 28.7156 26.1008 28.6123C26.0804 28.5874 26.06 28.5624 26.0396 28.5375C25.9382 28.4086 25.8395 28.2771 25.7416 28.1448C25.7123 28.105 25.6851 28.0652 25.6565 28.0248C25.5891 27.931 25.5218 27.8379 25.4572 27.7434C25.4204 27.6901 25.3864 27.6362 25.3503 27.5829C25.2945 27.4999 25.2387 27.4176 25.185 27.3333C25.1476 27.2746 25.1115 27.2145 25.0748 27.1558C25.0244 27.0756 24.9748 26.996 24.9265 26.9143C24.889 26.8523 24.8537 26.7888 24.8176 26.7268C24.772 26.6478 24.7257 26.5682 24.6815 26.488C24.6455 26.4225 24.6108 26.3578 24.5761 26.2923C24.5339 26.2134 24.491 26.1345 24.4502 26.0535C24.4162 25.986 24.3828 25.9193 24.3495 25.8518C24.31 25.7715 24.2712 25.6926 24.2331 25.6123C24.2005 25.5435 24.1692 25.4747 24.1379 25.4052C24.1012 25.3249 24.0651 25.2446 24.0297 25.163C23.9998 25.0928 23.9705 25.0234 23.9413 24.9525C23.9072 24.8716 23.8739 24.7899 23.8419 24.7076C23.8134 24.6375 23.7861 24.566 23.7596 24.4944C23.7283 24.4121 23.6977 24.3292 23.6677 24.2462C23.6419 24.174 23.6167 24.1018 23.5922 24.0303C23.5637 23.9467 23.5358 23.863 23.5085 23.7787C23.4854 23.7065 23.4623 23.6323 23.4398 23.5601C23.414 23.4751 23.3888 23.3901 23.365 23.3058C23.3439 23.2322 23.3228 23.158 23.3031 23.0845C23.2799 22.9988 23.2582 22.9118 23.2364 22.8261C23.2173 22.7526 23.199 22.6784 23.1813 22.6035C23.1609 22.5164 23.1411 22.4287 23.1228 22.341C23.1064 22.2675 23.0901 22.1926 23.0751 22.1184C23.0574 22.0294 23.0411 21.9396 23.0248 21.8513C23.0112 21.7777 22.9976 21.7035 22.9846 21.63C22.9697 21.5382 22.9561 21.4472 22.9425 21.3547C22.9316 21.2826 22.92 21.2097 22.9105 21.1362C22.8976 21.0424 22.8874 20.948 22.8765 20.8528C22.8683 20.782 22.8595 20.7105 22.852 20.6396C22.8418 20.5398 22.8343 20.4393 22.8261 20.3394C22.8207 20.272 22.8139 20.2065 22.8098 20.1404C22.8023 20.0284 22.7975 19.9151 22.7928 19.8031C22.7907 19.7478 22.7867 19.6925 22.7846 19.6365C22.7792 19.4685 22.7758 19.2998 22.7758 19.1305C22.7758 18.9612 22.7792 18.7925 22.7846 18.6245C22.7867 18.5686 22.7907 18.5132 22.7928 18.4579C22.7975 18.3459 22.8023 18.2326 22.8098 18.1206C22.8139 18.0545 22.8207 17.989 22.8261 17.9216C22.8343 17.8217 22.8418 17.7212 22.852 17.6214C22.8595 17.5505 22.8676 17.479 22.8765 17.4082C22.8874 17.3131 22.8976 17.2186 22.9105 17.1242C22.92 17.0513 22.9316 16.9785 22.9425 16.9063C22.9561 16.8139 22.9697 16.7228 22.9846 16.631C22.9976 16.5575 23.0112 16.4833 23.0248 16.4098C23.0411 16.32 23.0574 16.2303 23.0751 16.1426C23.0901 16.0677 23.1064 15.9935 23.1228 15.92C23.1418 15.8316 23.1609 15.7446 23.1813 15.6569C23.1983 15.5827 23.2173 15.5085 23.2364 15.4349C23.2582 15.3486 23.2799 15.2622 23.3031 15.1765C23.3228 15.103 23.3439 15.0288 23.365 14.9553C23.3895 14.8709 23.414 14.7853 23.4398 14.7009C23.4623 14.6281 23.4854 14.5545 23.5085 14.4824C23.5358 14.398 23.5637 14.3144 23.5922 14.2307C23.6167 14.1585 23.6426 14.0864 23.6677 14.0148C23.6977 13.9319 23.7283 13.8489 23.7596 13.7659C23.7868 13.6951 23.814 13.6236 23.8419 13.5527C23.8739 13.4711 23.9079 13.3895 23.9413 13.3078C23.9705 13.2377 23.9998 13.1682 24.0297 13.098C24.0651 13.0164 24.1012 12.9361 24.1379 12.8558C24.1692 12.7857 24.2005 12.7175 24.2325 12.6487C24.2706 12.5684 24.31 12.4888 24.3495 12.4092C24.3828 12.3418 24.4155 12.275 24.4495 12.2075C24.4903 12.1272 24.5332 12.0483 24.5754 11.9687C24.6101 11.9026 24.6448 11.8378 24.6808 11.7724C24.7251 11.6928 24.7713 11.6132 24.8169 11.5336C24.853 11.4702 24.8884 11.4081 24.9258 11.346C24.9741 11.2651 25.0244 11.1848 25.0748 11.1045C25.1115 11.0451 25.1469 10.9858 25.1843 10.9278C25.2387 10.8434 25.2945 10.7605 25.3503 10.6768C25.3857 10.6235 25.4204 10.5702 25.4565 10.5176C25.5225 10.4218 25.5898 10.328 25.6579 10.2336C25.6864 10.1944 25.7137 10.1546 25.7416 10.1162C25.8388 9.98329 25.9382 9.85241 26.0396 9.72356C26.0586 9.69927 26.0783 9.67634 26.0974 9.65205C26.1811 9.54748 26.2648 9.44291 26.3512 9.34037C26.3893 9.2945 26.4287 9.25065 26.4668 9.20612C26.5356 9.12584 26.6043 9.04556 26.675 8.96663C26.7199 8.91671 26.7669 8.86814 26.8125 8.81754C26.8785 8.74536 26.9438 8.67385 27.0111 8.60301C27.0608 8.55174 27.1112 8.50182 27.1615 8.44987C27.2275 8.38241 27.2928 8.31562 27.3602 8.24951C27.4126 8.19823 27.4656 8.14831 27.5187 8.09704C27.5854 8.03295 27.6527 7.96954 27.7208 7.9068C27.7759 7.8562 27.8317 7.80695 27.8875 7.75636C27.9555 7.69564 28.0235 7.63492 28.0929 7.57421C28.1501 7.52496 28.2086 7.47571 28.2671 7.42714C28.3365 7.36845 28.4059 7.31043 28.4767 7.25376C28.5359 7.20586 28.5971 7.15797 28.6577 7.11074C28.7284 7.05475 28.7999 6.99943 28.8727 6.94546C28.9346 6.89823 28.9965 6.85236 29.0591 6.80716C29.1319 6.75319 29.2054 6.70057 29.2795 6.64863C29.3428 6.6041 29.4074 6.55957 29.4714 6.51572C29.5462 6.46513 29.6224 6.41386 29.698 6.36326C29.7633 6.32143 29.8286 6.27893 29.8946 6.23643C29.9293 6.21417 29.964 6.19325 29.9987 6.17167C30.0334 6.19258 30.0688 6.21349 30.1028 6.23643C30.1688 6.27826 30.2341 6.32076 30.2994 6.36326C30.3756 6.41318 30.4511 6.46445 30.526 6.5164C30.5899 6.55957 30.6539 6.60342 30.7172 6.64795C30.7913 6.70057 30.8648 6.75319 30.9383 6.80716C31.0002 6.85236 31.0621 6.89824 31.1234 6.94411C31.1962 6.99943 31.2683 7.05542 31.3397 7.11142C31.3996 7.15864 31.4595 7.20519 31.5187 7.25309C31.5901 7.31043 31.6602 7.3698 31.7309 7.42849C31.7881 7.47639 31.8459 7.52496 31.9031 7.57421C31.9732 7.63425 32.0419 7.69564 32.1106 7.75703C32.1657 7.80628 32.2208 7.85553 32.2752 7.90545C32.3446 7.96954 32.412 8.03363 32.48 8.09839C32.5317 8.14831 32.5848 8.19689 32.6358 8.24816C32.7046 8.31629 32.7719 8.38443 32.8393 8.45324C32.8876 8.50317 32.9366 8.55174 32.9842 8.60166C33.0543 8.67452 33.1216 8.74873 33.1897 8.82361C33.2332 8.87084 33.2774 8.91738 33.3203 8.96528C33.3938 9.04759 33.4659 9.13192 33.5373 9.21557C33.5727 9.2574 33.6088 9.2972 33.6442 9.33902C33.7367 9.44966 33.8272 9.56165 33.9163 9.67431C33.9292 9.6905 33.9429 9.70669 33.9551 9.72221C34.0572 9.85174 34.1572 9.98396 34.2545 10.1169C34.2783 10.1492 34.3014 10.183 34.3252 10.2154C34.3973 10.3159 34.4701 10.4164 34.5402 10.5183C34.5736 10.5662 34.6049 10.6168 34.6382 10.6653C34.6967 10.7524 34.7552 10.8401 34.8124 10.9291C34.8478 10.9844 34.8818 11.0411 34.9165 11.0964C34.9682 11.1801 35.0206 11.2637 35.0709 11.3481C35.1063 11.4074 35.1403 11.4681 35.175 11.5275C35.2226 11.6098 35.2703 11.6921 35.3159 11.7744C35.3499 11.8372 35.3839 11.9006 35.4172 11.9633C35.4608 12.0449 35.5043 12.1266 35.5472 12.2089C35.5798 12.2736 35.6118 12.3384 35.6445 12.4038C35.6853 12.4855 35.7254 12.5678 35.7642 12.6501C35.7955 12.7169 35.8261 12.7837 35.8568 12.8511C35.8942 12.9334 35.9309 13.0157 35.9677 13.0987C35.9969 13.1675 36.0255 13.2356 36.0541 13.3045C36.0888 13.3874 36.1228 13.4704 36.1555 13.5547C36.1833 13.6242 36.2099 13.6937 36.2364 13.7639C36.2684 13.8475 36.299 13.9319 36.3296 14.0162C36.3555 14.087 36.38 14.1585 36.4045 14.2294C36.433 14.3137 36.4609 14.3987 36.4888 14.4837C36.512 14.5559 36.5344 14.6274 36.5569 14.6996C36.5834 14.7853 36.6086 14.8709 36.6331 14.958C36.6535 15.0301 36.6746 15.103 36.6936 15.1752C36.7174 15.2622 36.7392 15.3492 36.7617 15.4369C36.78 15.5098 36.7984 15.5827 36.8161 15.6562C36.8365 15.7446 36.8562 15.833 36.8753 15.9213C36.8909 15.9949 36.9073 16.0677 36.9216 16.1413C36.9399 16.231 36.9563 16.3221 36.9726 16.4118C36.9862 16.4846 36.9998 16.5575 37.0121 16.631C37.0277 16.7228 37.0406 16.8145 37.0549 16.9076C37.0658 16.9791 37.0767 17.0513 37.0869 17.1235C37.0998 17.2193 37.11 17.3144 37.1209 17.4102C37.1291 17.4804 37.1379 17.5505 37.1447 17.6207C37.1549 17.7212 37.1624 17.8224 37.1706 17.9229C37.176 17.989 37.1821 18.0545 37.1862 18.1206C37.1937 18.2326 37.1985 18.3459 37.2032 18.4579C37.206 18.5132 37.2094 18.5686 37.2114 18.6239C37.2168 18.7925 37.2202 18.9612 37.2202 19.1305C37.2202 19.2998 37.2175 19.4685 37.2114 19.6365C37.2094 19.6925 37.206 19.7478 37.2032 19.8031C37.1985 19.9151 37.1937 20.0284 37.1862 20.1404C37.1821 20.2065 37.1753 20.272 37.1706 20.3381C37.1624 20.4386 37.1549 20.5398 37.1447 20.6396C37.1379 20.7105 37.1291 20.7806 37.1209 20.8508C37.11 20.9466 37.0991 21.0417 37.0869 21.1368C37.0767 21.2097 37.0658 21.2819 37.0549 21.3534C37.0406 21.4458 37.0277 21.5382 37.0121 21.63C36.9998 21.7035 36.9862 21.7764 36.9726 21.8492C36.9563 21.9396 36.9399 22.03 36.9216 22.1198C36.9073 22.1926 36.8909 22.2662 36.8753 22.3397C36.8562 22.4281 36.8365 22.5165 36.8161 22.6048C36.7991 22.6784 36.7807 22.7512 36.7617 22.8241C36.7399 22.9118 36.7174 22.9988 36.6936 23.0858C36.6739 23.158 36.6535 23.2309 36.6324 23.3037C36.6079 23.3901 36.5827 23.4758 36.5562 23.5614C36.5344 23.6336 36.5113 23.7051 36.4882 23.7773C36.4609 23.8623 36.433 23.9473 36.4038 24.0317C36.3793 24.1025 36.3548 24.174 36.3289 24.2448C36.299 24.3292 36.2677 24.4128 36.2357 24.4965C36.2092 24.5666 36.1827 24.6361 36.1548 24.7063C36.1214 24.7899 36.0874 24.8729 36.0534 24.9559C36.0248 25.0254 35.9962 25.0935 35.9663 25.1623C35.9302 25.2453 35.8935 25.3269 35.8561 25.4086C35.8255 25.4767 35.7948 25.5442 35.7636 25.6109C35.7248 25.6933 35.6846 25.7749 35.6438 25.8565C35.6118 25.9226 35.5798 25.9867 35.5465 26.0522C35.5043 26.1345 35.4608 26.2161 35.4172 26.2977C35.3839 26.3611 35.3499 26.4245 35.3159 26.4859C35.2703 26.5689 35.2226 26.6505 35.175 26.7328C35.1403 26.7929 35.1063 26.8536 35.0709 26.913C35.0206 26.9973 34.9682 27.0803 34.9165 27.1639C34.8818 27.2199 34.8478 27.2766 34.8124 27.3319C34.7559 27.4203 34.6974 27.5073 34.6389 27.5943C34.6062 27.6436 34.5736 27.6928 34.5402 27.7428C34.4695 27.8446 34.3973 27.9465 34.3245 28.0463C34.3007 28.0794 34.279 28.1125 34.2545 28.1442C34.1565 28.2771 34.0565 28.4093 33.9551 28.5395C33.9429 28.5537 33.9306 28.5685 33.919 28.584C33.8285 28.6974 33.7374 28.8107 33.6442 28.9227C33.6095 28.9638 33.5734 29.003 33.5387 29.0441C33.4666 29.1284 33.3945 29.2134 33.3203 29.2957C33.2781 29.3436 33.2339 29.3909 33.1904 29.4367C33.1216 29.5116 33.0536 29.5872 32.9835 29.6594C32.9359 29.7093 32.8869 29.7579 32.8393 29.8071C32.7746 29.8766 32.7073 29.9454 32.6379 30.0129ZM46.57 32.6372C46.3986 32.5683 46.2162 32.5339 46.0353 32.5339C45.808 32.5339 45.5808 32.5886 45.3746 32.6952C43.1817 33.8346 40.7065 34.4384 38.2156 34.4384C36.4031 34.4384 34.6076 34.1207 32.9189 33.5108C32.9869 33.4582 33.0536 33.4049 33.121 33.3516C33.1747 33.3098 33.2285 33.2686 33.2808 33.2261C33.3938 33.135 33.5047 33.0433 33.6149 32.9502C33.6496 32.9205 33.6857 32.8922 33.7204 32.8625C33.8632 32.7397 34.0041 32.6149 34.1436 32.4881C34.1823 32.4523 34.2204 32.4166 34.2592 32.3801C34.3586 32.2877 34.4579 32.196 34.5552 32.1008C34.6076 32.0509 34.6579 31.9996 34.7096 31.9477C34.7926 31.8661 34.8743 31.7838 34.9553 31.7001C35.0097 31.6448 35.0628 31.5881 35.1158 31.5314C35.1927 31.4512 35.2682 31.3695 35.3431 31.2866C35.3961 31.2285 35.4492 31.1705 35.5009 31.1112C35.5751 31.0275 35.6486 30.9425 35.7214 30.8568C35.771 30.7995 35.8207 30.7415 35.869 30.6828C35.9473 30.589 36.0235 30.4952 36.099 30.3994C36.1398 30.3482 36.182 30.2982 36.2221 30.2456C36.3358 30.1012 36.4473 29.9549 36.5555 29.8071C36.5793 29.7741 36.6025 29.7403 36.6263 29.7079C36.712 29.5899 36.7964 29.4705 36.8794 29.3511C36.9202 29.2917 36.9597 29.231 36.9998 29.1716C37.0638 29.0758 37.1277 28.9807 37.1889 28.8842C37.2318 28.8181 37.274 28.7513 37.3155 28.6839C37.3727 28.5914 37.4298 28.4997 37.4856 28.4066C37.5271 28.3371 37.5679 28.269 37.6087 28.1988C37.6632 28.105 37.7169 28.0106 37.77 27.9155C37.8088 27.8467 37.8469 27.7785 37.8843 27.709C37.9387 27.6085 37.9918 27.5066 38.0442 27.4054C38.0775 27.3414 38.1115 27.2779 38.1442 27.2132C38.2075 27.0863 38.2694 26.9588 38.3299 26.8313C38.349 26.7902 38.3694 26.7511 38.3878 26.7099C38.4653 26.544 38.5395 26.3766 38.6116 26.208C38.6375 26.1486 38.6613 26.0879 38.6858 26.0285C38.7327 25.9152 38.779 25.8025 38.8239 25.6885C38.8518 25.6184 38.8783 25.5475 38.9049 25.4767C38.9443 25.3721 38.9831 25.2669 39.0205 25.1616C39.0471 25.0881 39.0729 25.0132 39.0981 24.939C39.1342 24.8345 39.1689 24.7285 39.2029 24.6233C39.2267 24.5491 39.2498 24.4749 39.273 24.4013C39.307 24.2914 39.339 24.1814 39.3709 24.0708C39.3907 24.0006 39.4118 23.9305 39.4308 23.8603C39.4655 23.7335 39.4982 23.606 39.5301 23.4785C39.5437 23.4245 39.5587 23.3698 39.5716 23.3152C39.6152 23.1337 39.656 22.9516 39.6941 22.7681C39.7036 22.7249 39.7111 22.6797 39.72 22.6365C39.7485 22.4955 39.7758 22.3545 39.8002 22.2122C39.8125 22.1441 39.8227 22.0766 39.8336 22.0078C39.8526 21.8884 39.8717 21.769 39.8887 21.6496C39.8989 21.576 39.9084 21.5005 39.918 21.4263C39.9329 21.3109 39.9465 21.1955 39.9595 21.0795C39.9676 21.0039 39.9758 20.9277 39.9833 20.8522C39.9948 20.7341 40.0044 20.616 40.0132 20.4993C40.0187 20.4258 40.0248 20.3523 40.0289 20.2794C40.037 20.1505 40.0431 20.0217 40.0486 19.8922C40.0513 19.8301 40.0547 19.768 40.0568 19.7053C40.0629 19.5144 40.067 19.3228 40.067 19.1298C40.067 18.9369 40.0629 18.746 40.0568 18.5537C40.0547 18.491 40.0513 18.4289 40.0486 18.3668C40.0431 18.238 40.037 18.1085 40.0289 17.9803C40.0241 17.9067 40.0187 17.8339 40.0132 17.761C40.0037 17.643 39.9942 17.5242 39.9833 17.4075C39.9758 17.332 39.9683 17.2557 39.9595 17.1809C39.9465 17.0641 39.9329 16.9481 39.918 16.8327C39.9084 16.7585 39.8989 16.6837 39.8887 16.6101C39.8717 16.49 39.8526 16.37 39.8329 16.2499C39.822 16.1824 39.8118 16.1149 39.8002 16.0482C39.7751 15.9038 39.7472 15.7601 39.7186 15.6177C39.7104 15.5759 39.703 15.5334 39.6941 15.4909C39.656 15.3081 39.6152 15.1246 39.5716 14.9431C39.5587 14.8905 39.5444 14.8392 39.5315 14.7873C39.4988 14.6571 39.4662 14.5269 39.4308 14.398C39.4124 14.3292 39.392 14.2611 39.3723 14.1923C39.3403 14.0796 39.3077 13.9669 39.273 13.855C39.2505 13.7828 39.228 13.7106 39.2042 13.6391C39.1695 13.5311 39.1335 13.4239 39.0974 13.3166C39.0729 13.2444 39.0477 13.1722 39.0219 13.1001C38.9838 12.9921 38.9436 12.8842 38.9028 12.7769C38.877 12.7081 38.8518 12.64 38.8246 12.5711C38.7783 12.4538 38.73 12.3371 38.6817 12.2203C38.6586 12.1643 38.6361 12.1077 38.6123 12.0517C38.5395 11.8817 38.4647 11.713 38.3864 11.5457C38.3701 11.5113 38.3531 11.4769 38.3368 11.4432C38.2735 11.3089 38.2088 11.176 38.1422 11.0424C38.1109 10.9811 38.0789 10.9197 38.0469 10.8596C37.9925 10.7544 37.938 10.6498 37.8816 10.5459C37.8448 10.4791 37.8081 10.413 37.7707 10.3469C37.7162 10.2491 37.6611 10.1526 37.6047 10.0555C37.5652 9.98801 37.5257 9.92122 37.4856 9.85511C37.4284 9.75864 37.3699 9.66419 37.3107 9.56975C37.2699 9.50498 37.2298 9.44022 37.1883 9.37613C37.1243 9.27696 37.059 9.17914 36.9937 9.08132C36.9549 9.0233 36.9175 8.96528 36.878 8.90861C36.7916 8.78246 36.7032 8.65833 36.6127 8.5342C36.5929 8.50721 36.5739 8.47888 36.5542 8.45189C36.4446 8.3028 36.3323 8.15641 36.2187 8.01001C36.1799 7.96077 36.1398 7.91152 36.1003 7.86227C36.0228 7.76513 35.9452 7.66866 35.8656 7.57353C35.818 7.51552 35.769 7.45885 35.72 7.40218C35.6465 7.31583 35.5724 7.23015 35.4968 7.14515C35.4451 7.08713 35.3927 7.02911 35.3404 6.97109C35.2648 6.88812 35.1886 6.80649 35.1117 6.72486C35.0587 6.66886 35.0056 6.61287 34.9519 6.55755C34.8709 6.47322 34.7886 6.39159 34.7062 6.30929C34.6545 6.25869 34.6042 6.20742 34.5518 6.15682C34.4552 6.06238 34.3565 5.97063 34.2579 5.87888C34.2184 5.84177 34.1796 5.80535 34.1402 5.76824C34.0014 5.64209 33.8612 5.51796 33.7183 5.39585C33.6809 5.36347 33.6428 5.33311 33.6047 5.3014C33.4972 5.21033 33.389 5.1206 33.2795 5.0329C33.2244 4.98838 33.1686 4.94587 33.1128 4.9027C33.0468 4.85075 32.9822 4.79881 32.9155 4.74753C34.6042 4.13768 36.4004 3.81993 38.2122 3.81993C46.7252 3.81993 53.6508 10.6876 53.6508 19.1285C53.6508 21.0977 53.2786 23.015 52.5451 24.8264C52.4288 25.1138 52.4111 25.4308 52.4948 25.7297L55.4286 36.2019L46.57 32.6372Z" fill="white"/>
<path d="M55.366 25.4254C56.1185 23.413 56.5002 21.2967 56.5002 19.1298C56.5002 9.13259 48.2975 1 38.2156 1C35.3594 1 32.5365 1.66653 30 2.9328C27.4636 1.66653 24.6407 1 21.7845 1C11.7026 1 3.49992 9.13326 3.49992 19.1298C3.49992 21.2967 3.88093 23.413 4.63343 25.4261L1.05191 38.2122C0.906987 38.7304 1.07096 39.2849 1.47578 39.6424C1.74113 39.8779 2.07996 40 2.42287 40C2.60318 40 2.78484 39.9656 2.95765 39.8968L13.9036 35.4928C16.3496 36.6512 19.0595 37.2597 21.7845 37.2597C24.6414 37.2597 27.4643 36.5925 30 35.3269C32.5365 36.5925 35.3587 37.2597 38.2156 37.2597C40.9406 37.2597 43.6505 36.6505 46.0965 35.4922L57.0418 39.8968C57.2146 39.9663 57.3962 40 57.5765 40C57.9195 40 58.2583 39.8765 58.5236 39.6424C58.9285 39.2849 59.0931 38.7297 58.9482 38.2122L55.366 25.4254ZM21.7845 34.4384C19.2582 34.4384 16.8497 33.8521 14.6255 32.6952C14.2343 32.4921 13.7852 32.4854 13.4029 32.6493L4.56811 36.2046L7.50191 25.7317C7.5856 25.4335 7.56791 25.1158 7.45156 24.8284C6.71811 23.0163 6.34595 21.0997 6.34595 19.1305C6.34595 10.6889 13.2715 3.82195 21.7845 3.82195C23.5963 3.82195 25.3925 4.1397 27.0819 4.74956C27.0159 4.79948 26.9513 4.8521 26.8859 4.90405C26.8295 4.94722 26.773 4.99107 26.7172 5.0356C26.6084 5.1233 26.5015 5.21235 26.3947 5.30208C26.3559 5.33513 26.3165 5.36684 26.2784 5.3999C26.1362 5.52133 25.9953 5.64478 25.8572 5.77161C25.8157 5.80872 25.7762 5.84785 25.7354 5.88495C25.6381 5.97603 25.5408 6.0671 25.4456 6.15885C25.3925 6.21012 25.3408 6.26274 25.2891 6.31401C25.2075 6.39497 25.1258 6.47592 25.0462 6.5589C24.9911 6.61557 24.9373 6.67224 24.8836 6.72891C24.8074 6.80919 24.7319 6.89081 24.657 6.97244C24.604 7.03114 24.5509 7.08983 24.4985 7.1492C24.4243 7.23285 24.3509 7.31785 24.2781 7.40285C24.2284 7.46087 24.1787 7.51821 24.1297 7.57758C24.0515 7.67135 23.9753 7.7658 23.8991 7.86092C23.8583 7.91219 23.8168 7.96212 23.7766 8.01406C23.663 8.15911 23.5514 8.3055 23.4425 8.45392C23.4194 8.48428 23.3983 8.51666 23.3752 8.54769C23.2881 8.66777 23.2024 8.78853 23.1187 8.90996C23.0779 8.96933 23.0398 9.0287 23.0003 9.08739C22.9357 9.18386 22.8717 9.27966 22.8084 9.37748C22.7662 9.44292 22.7247 9.50903 22.6832 9.57582C22.6254 9.66824 22.5676 9.76134 22.5111 9.85511C22.4703 9.92392 22.4301 9.99206 22.39 10.0609C22.3342 10.156 22.2805 10.2504 22.2267 10.3469C22.1886 10.415 22.1505 10.4825 22.1138 10.5506C22.0587 10.6525 22.0049 10.7557 21.9518 10.8583C21.9192 10.9217 21.8858 10.9838 21.8539 11.0465C21.7885 11.176 21.7259 11.3076 21.6634 11.4385C21.6457 11.4762 21.6273 11.512 21.6096 11.5498C21.532 11.7164 21.4572 11.8844 21.3844 12.0544C21.3599 12.1111 21.3368 12.1691 21.313 12.2271C21.2653 12.3418 21.2177 12.4571 21.1721 12.5738C21.1449 12.6427 21.119 12.7121 21.0932 12.7816C21.053 12.8875 21.0136 12.9941 20.9755 13.1014C20.9496 13.1743 20.9245 13.2478 20.8993 13.3207C20.8632 13.4266 20.8278 13.5325 20.7938 13.6398C20.77 13.7126 20.7469 13.7861 20.7244 13.859C20.6904 13.9696 20.6577 14.0816 20.6258 14.1936C20.606 14.2624 20.5856 14.3312 20.5666 14.4007C20.5319 14.5289 20.4992 14.6578 20.4672 14.7866C20.4536 14.8399 20.4393 14.8932 20.4264 14.9465C20.3829 15.128 20.3421 15.3108 20.304 15.4943C20.2951 15.5361 20.2876 15.58 20.2788 15.6225C20.2502 15.7648 20.223 15.9078 20.1978 16.0502C20.1862 16.1183 20.176 16.1858 20.1652 16.2532C20.1454 16.3733 20.1264 16.4927 20.1094 16.6128C20.0985 16.6864 20.0889 16.7619 20.0794 16.8354C20.0645 16.9515 20.0508 17.0668 20.0379 17.1829C20.0298 17.2584 20.0223 17.334 20.0141 17.4102C20.0025 17.5276 19.993 17.6463 19.9842 17.7637C19.978 17.8366 19.9726 17.9094 19.9678 17.983C19.9597 18.1112 19.9536 18.2407 19.9481 18.3695C19.9454 18.4323 19.942 18.4943 19.9399 18.5564C19.9338 18.748 19.9304 18.9396 19.9304 19.1325C19.9304 19.3255 19.9338 19.5164 19.9399 19.7087C19.942 19.7714 19.9454 19.8335 19.9481 19.8949C19.9536 20.0237 19.9597 20.1539 19.9678 20.2828C19.9726 20.355 19.978 20.4278 19.9835 20.5C19.9923 20.6194 20.0025 20.7381 20.0141 20.8562C20.0216 20.9311 20.0291 21.006 20.0372 21.0802C20.0502 21.1976 20.0645 21.3149 20.0794 21.4317C20.0889 21.5038 20.0978 21.5767 20.108 21.6489C20.1257 21.773 20.1447 21.8951 20.1645 22.0172C20.1754 22.0827 20.1849 22.1468 20.1958 22.2115C20.2223 22.3613 20.2509 22.5097 20.2808 22.6581C20.2876 22.6952 20.2944 22.731 20.3019 22.7674C20.34 22.9529 20.3815 23.1378 20.4257 23.3206C20.4366 23.3665 20.4489 23.4117 20.4604 23.4576C20.4945 23.5945 20.5298 23.7314 20.5666 23.867C20.5843 23.9311 20.6026 23.9946 20.621 24.058C20.6543 24.176 20.689 24.2941 20.7251 24.4108C20.7462 24.4783 20.7673 24.5464 20.7897 24.6139C20.8258 24.7272 20.8632 24.8399 20.902 24.9525C20.9251 25.02 20.9476 25.0868 20.9721 25.1536C21.0129 25.2689 21.0558 25.3836 21.0993 25.4983C21.1224 25.559 21.1456 25.6211 21.1694 25.6818C21.2204 25.8113 21.2728 25.9395 21.3266 26.067C21.3449 26.1115 21.3626 26.1567 21.3824 26.2012C21.4565 26.3753 21.5334 26.548 21.613 26.7194C21.6198 26.7335 21.6273 26.7484 21.6334 26.7625C21.7062 26.917 21.7804 27.0708 21.8579 27.224C21.8838 27.2752 21.911 27.3265 21.9375 27.3785C21.9967 27.4931 22.0573 27.6085 22.1192 27.7225C22.1512 27.7819 22.1838 27.8399 22.2172 27.8986C22.2764 28.0045 22.3362 28.1104 22.3982 28.2157C22.4329 28.2757 22.4682 28.3358 22.5036 28.3944C22.5662 28.499 22.6309 28.6036 22.6955 28.7068C22.7309 28.7628 22.7662 28.8195 22.8016 28.8748C22.8731 28.9861 22.9459 29.0961 23.0193 29.2053C23.0506 29.2512 23.0813 29.2978 23.1126 29.3436C23.2146 29.4927 23.318 29.6391 23.4242 29.7835C23.4283 29.7902 23.433 29.7963 23.4371 29.8017C23.5494 29.9548 23.6643 30.106 23.7814 30.2551C23.8113 30.2935 23.8419 30.3313 23.8725 30.3684C23.959 30.4777 24.0467 30.5856 24.1359 30.6929C24.1774 30.7421 24.2202 30.7921 24.2624 30.8413C24.3427 30.9364 24.4237 31.0295 24.506 31.1219C24.5522 31.1746 24.5992 31.2258 24.6461 31.2771C24.7278 31.3668 24.8101 31.4559 24.8931 31.5443C24.9407 31.5949 24.989 31.6448 25.0374 31.6954C25.1244 31.7858 25.2136 31.8748 25.3034 31.9632C25.3483 32.0077 25.3932 32.0536 25.4388 32.0975C25.5449 32.2 25.6531 32.3019 25.762 32.4024C25.7919 32.43 25.8218 32.4591 25.8525 32.4867C25.9933 32.6142 26.1362 32.741 26.2818 32.8659C26.3103 32.8895 26.3389 32.9124 26.3675 32.9367C26.4838 33.0352 26.6015 33.1323 26.7206 33.2281C26.771 33.2693 26.8227 33.3084 26.8737 33.3482C26.9431 33.4029 27.0111 33.4575 27.0805 33.5115C25.3932 34.1213 23.5963 34.4384 21.7845 34.4384ZM32.6379 30.0129C32.5869 30.0628 32.5345 30.112 32.4828 30.162C32.4147 30.2274 32.3467 30.2922 32.2773 30.3563C32.2229 30.4055 32.1684 30.4547 32.1133 30.5033C32.0439 30.5654 31.9752 30.6275 31.9051 30.6875C31.8486 30.7361 31.7908 30.7846 31.7337 30.8325C31.6629 30.8919 31.5928 30.9499 31.5214 31.0079C31.4622 31.0558 31.4023 31.1031 31.3424 31.1496C31.271 31.2056 31.1989 31.2616 31.1261 31.3162C31.0642 31.3628 31.0022 31.4087 30.9403 31.4545C30.8675 31.5072 30.7941 31.5611 30.7192 31.6124C30.6559 31.6569 30.5913 31.7021 30.5273 31.7453C30.4525 31.7966 30.377 31.8465 30.3008 31.8971C30.2355 31.9403 30.1695 31.9828 30.1035 32.0246C30.0694 32.0462 30.0341 32.0671 30 32.0894C29.9653 32.0678 29.9307 32.0469 29.896 32.0246C29.83 31.9828 29.764 31.9403 29.6986 31.8971C29.6231 31.8472 29.5476 31.7972 29.4728 31.7453C29.4081 31.7021 29.3442 31.6569 29.2802 31.6124C29.2067 31.5605 29.1332 31.5078 29.0604 31.4545C28.9978 31.4087 28.9353 31.3621 28.8733 31.3162C28.8012 31.2616 28.7305 31.2063 28.659 31.151C28.5985 31.1031 28.5372 31.0552 28.4774 31.0073C28.4066 30.9499 28.3372 30.8926 28.2678 30.8346C28.2093 30.7853 28.1508 30.7361 28.0929 30.6861C28.0235 30.6268 27.9562 30.5661 27.8881 30.5053C27.8317 30.4554 27.7752 30.4055 27.7201 30.3549C27.6521 30.2915 27.5861 30.2281 27.5194 30.1653C27.4656 30.1141 27.4119 30.0641 27.3595 30.0115C27.2928 29.9461 27.2275 29.8793 27.1622 29.8118C27.1118 29.7606 27.0608 29.7106 27.0111 29.6573C26.9438 29.5872 26.8785 29.5157 26.8131 29.4442C26.7669 29.3942 26.7199 29.3457 26.675 29.2937C26.6049 29.2161 26.5362 29.1359 26.4682 29.0563C26.4294 29.0104 26.3893 28.9659 26.3512 28.9207C26.2661 28.8195 26.1831 28.7156 26.1008 28.6123C26.0804 28.5874 26.06 28.5624 26.0396 28.5375C25.9382 28.4086 25.8395 28.2771 25.7416 28.1448C25.7123 28.105 25.6851 28.0652 25.6565 28.0248C25.5891 27.931 25.5218 27.8379 25.4572 27.7434C25.4204 27.6901 25.3864 27.6362 25.3503 27.5829C25.2945 27.4999 25.2387 27.4176 25.185 27.3333C25.1476 27.2746 25.1115 27.2145 25.0748 27.1558C25.0244 27.0756 24.9748 26.996 24.9265 26.9143C24.889 26.8523 24.8537 26.7888 24.8176 26.7268C24.772 26.6478 24.7257 26.5682 24.6815 26.488C24.6455 26.4225 24.6108 26.3578 24.5761 26.2923C24.5339 26.2134 24.491 26.1345 24.4502 26.0535C24.4162 25.986 24.3828 25.9193 24.3495 25.8518C24.31 25.7715 24.2712 25.6926 24.2331 25.6123C24.2005 25.5435 24.1692 25.4747 24.1379 25.4052C24.1012 25.3249 24.0651 25.2446 24.0297 25.163C23.9998 25.0928 23.9705 25.0234 23.9413 24.9525C23.9072 24.8716 23.8739 24.7899 23.8419 24.7076C23.8134 24.6375 23.7861 24.566 23.7596 24.4944C23.7283 24.4121 23.6977 24.3292 23.6677 24.2462C23.6419 24.174 23.6167 24.1018 23.5922 24.0303C23.5637 23.9467 23.5358 23.863 23.5085 23.7787C23.4854 23.7065 23.4623 23.6323 23.4398 23.5601C23.414 23.4751 23.3888 23.3901 23.365 23.3058C23.3439 23.2322 23.3228 23.158 23.3031 23.0845C23.2799 22.9988 23.2582 22.9118 23.2364 22.8261C23.2173 22.7526 23.199 22.6784 23.1813 22.6035C23.1609 22.5164 23.1411 22.4287 23.1228 22.341C23.1064 22.2675 23.0901 22.1926 23.0751 22.1184C23.0574 22.0294 23.0411 21.9396 23.0248 21.8513C23.0112 21.7777 22.9976 21.7035 22.9846 21.63C22.9697 21.5382 22.9561 21.4472 22.9425 21.3547C22.9316 21.2826 22.92 21.2097 22.9105 21.1362C22.8976 21.0424 22.8874 20.948 22.8765 20.8528C22.8683 20.782 22.8595 20.7105 22.852 20.6396C22.8418 20.5398 22.8343 20.4393 22.8261 20.3394C22.8207 20.272 22.8139 20.2065 22.8098 20.1404C22.8023 20.0284 22.7975 19.9151 22.7928 19.8031C22.7907 19.7478 22.7867 19.6925 22.7846 19.6365C22.7792 19.4685 22.7758 19.2998 22.7758 19.1305C22.7758 18.9612 22.7792 18.7925 22.7846 18.6245C22.7867 18.5686 22.7907 18.5132 22.7928 18.4579C22.7975 18.3459 22.8023 18.2326 22.8098 18.1206C22.8139 18.0545 22.8207 17.989 22.8261 17.9216C22.8343 17.8217 22.8418 17.7212 22.852 17.6214C22.8595 17.5505 22.8676 17.479 22.8765 17.4082C22.8874 17.3131 22.8976 17.2186 22.9105 17.1242C22.92 17.0513 22.9316 16.9785 22.9425 16.9063C22.9561 16.8139 22.9697 16.7228 22.9846 16.631C22.9976 16.5575 23.0112 16.4833 23.0248 16.4098C23.0411 16.32 23.0574 16.2303 23.0751 16.1426C23.0901 16.0677 23.1064 15.9935 23.1228 15.92C23.1418 15.8316 23.1609 15.7446 23.1813 15.6569C23.1983 15.5827 23.2173 15.5085 23.2364 15.4349C23.2582 15.3486 23.2799 15.2622 23.3031 15.1765C23.3228 15.103 23.3439 15.0288 23.365 14.9553C23.3895 14.8709 23.414 14.7853 23.4398 14.7009C23.4623 14.6281 23.4854 14.5545 23.5085 14.4824C23.5358 14.398 23.5637 14.3144 23.5922 14.2307C23.6167 14.1585 23.6426 14.0864 23.6677 14.0148C23.6977 13.9319 23.7283 13.8489 23.7596 13.7659C23.7868 13.6951 23.814 13.6236 23.8419 13.5527C23.8739 13.4711 23.9079 13.3895 23.9413 13.3078C23.9705 13.2377 23.9998 13.1682 24.0297 13.098C24.0651 13.0164 24.1012 12.9361 24.1379 12.8558C24.1692 12.7857 24.2005 12.7175 24.2325 12.6487C24.2706 12.5684 24.31 12.4888 24.3495 12.4092C24.3828 12.3418 24.4155 12.275 24.4495 12.2075C24.4903 12.1272 24.5332 12.0483 24.5754 11.9687C24.6101 11.9026 24.6448 11.8378 24.6808 11.7724C24.7251 11.6928 24.7713 11.6132 24.8169 11.5336C24.853 11.4702 24.8884 11.4081 24.9258 11.346C24.9741 11.2651 25.0244 11.1848 25.0748 11.1045C25.1115 11.0451 25.1469 10.9858 25.1843 10.9278C25.2387 10.8434 25.2945 10.7605 25.3503 10.6768C25.3857 10.6235 25.4204 10.5702 25.4565 10.5176C25.5225 10.4218 25.5898 10.328 25.6579 10.2336C25.6864 10.1944 25.7137 10.1546 25.7416 10.1162C25.8388 9.98329 25.9382 9.85241 26.0396 9.72356C26.0586 9.69927 26.0783 9.67634 26.0974 9.65205C26.1811 9.54748 26.2648 9.44291 26.3512 9.34037C26.3893 9.2945 26.4287 9.25065 26.4668 9.20612C26.5356 9.12584 26.6043 9.04556 26.675 8.96663C26.7199 8.91671 26.7669 8.86814 26.8125 8.81754C26.8785 8.74536 26.9438 8.67385 27.0111 8.60301C27.0608 8.55174 27.1112 8.50182 27.1615 8.44987C27.2275 8.38241 27.2928 8.31562 27.3602 8.24951C27.4126 8.19823 27.4656 8.14831 27.5187 8.09704C27.5854 8.03295 27.6527 7.96954 27.7208 7.9068C27.7759 7.8562 27.8317 7.80695 27.8875 7.75636C27.9555 7.69564 28.0235 7.63492 28.0929 7.57421C28.1501 7.52496 28.2086 7.47571 28.2671 7.42714C28.3365 7.36845 28.4059 7.31043 28.4767 7.25376C28.5359 7.20586 28.5971 7.15797 28.6577 7.11074C28.7284 7.05475 28.7999 6.99943 28.8727 6.94546C28.9346 6.89823 28.9965 6.85236 29.0591 6.80716C29.1319 6.75319 29.2054 6.70057 29.2795 6.64863C29.3428 6.6041 29.4074 6.55957 29.4714 6.51572C29.5462 6.46513 29.6224 6.41386 29.698 6.36326C29.7633 6.32143 29.8286 6.27893 29.8946 6.23643C29.9293 6.21417 29.964 6.19325 29.9987 6.17167C30.0334 6.19258 30.0688 6.21349 30.1028 6.23643C30.1688 6.27826 30.2341 6.32076 30.2994 6.36326C30.3756 6.41318 30.4511 6.46445 30.526 6.5164C30.5899 6.55957 30.6539 6.60342 30.7172 6.64795C30.7913 6.70057 30.8648 6.75319 30.9383 6.80716C31.0002 6.85236 31.0621 6.89824 31.1234 6.94411C31.1962 6.99943 31.2683 7.05542 31.3397 7.11142C31.3996 7.15864 31.4595 7.20519 31.5187 7.25309C31.5901 7.31043 31.6602 7.3698 31.7309 7.42849C31.7881 7.47639 31.8459 7.52496 31.9031 7.57421C31.9732 7.63425 32.0419 7.69564 32.1106 7.75703C32.1657 7.80628 32.2208 7.85553 32.2752 7.90545C32.3446 7.96954 32.412 8.03363 32.48 8.09839C32.5317 8.14831 32.5848 8.19689 32.6358 8.24816C32.7046 8.31629 32.7719 8.38443 32.8393 8.45324C32.8876 8.50317 32.9366 8.55174 32.9842 8.60166C33.0543 8.67452 33.1216 8.74873 33.1897 8.82361C33.2332 8.87084 33.2774 8.91738 33.3203 8.96528C33.3938 9.04759 33.4659 9.13192 33.5373 9.21557C33.5727 9.2574 33.6088 9.2972 33.6442 9.33902C33.7367 9.44966 33.8272 9.56165 33.9163 9.67431C33.9292 9.6905 33.9429 9.70669 33.9551 9.72221C34.0572 9.85174 34.1572 9.98396 34.2545 10.1169C34.2783 10.1492 34.3014 10.183 34.3252 10.2154C34.3973 10.3159 34.4701 10.4164 34.5402 10.5183C34.5736 10.5662 34.6049 10.6168 34.6382 10.6653C34.6967 10.7524 34.7552 10.8401 34.8124 10.9291C34.8478 10.9844 34.8818 11.0411 34.9165 11.0964C34.9682 11.1801 35.0206 11.2637 35.0709 11.3481C35.1063 11.4074 35.1403 11.4681 35.175 11.5275C35.2226 11.6098 35.2703 11.6921 35.3159 11.7744C35.3499 11.8372 35.3839 11.9006 35.4172 11.9633C35.4608 12.0449 35.5043 12.1266 35.5472 12.2089C35.5798 12.2736 35.6118 12.3384 35.6445 12.4038C35.6853 12.4855 35.7254 12.5678 35.7642 12.6501C35.7955 12.7169 35.8261 12.7837 35.8568 12.8511C35.8942 12.9334 35.9309 13.0157 35.9677 13.0987C35.9969 13.1675 36.0255 13.2356 36.0541 13.3045C36.0888 13.3874 36.1228 13.4704 36.1555 13.5547C36.1833 13.6242 36.2099 13.6937 36.2364 13.7639C36.2684 13.8475 36.299 13.9319 36.3296 14.0162C36.3555 14.087 36.38 14.1585 36.4045 14.2294C36.433 14.3137 36.4609 14.3987 36.4888 14.4837C36.512 14.5559 36.5344 14.6274 36.5569 14.6996C36.5834 14.7853 36.6086 14.8709 36.6331 14.958C36.6535 15.0301 36.6746 15.103 36.6936 15.1752C36.7174 15.2622 36.7392 15.3492 36.7617 15.4369C36.78 15.5098 36.7984 15.5827 36.8161 15.6562C36.8365 15.7446 36.8562 15.833 36.8753 15.9213C36.8909 15.9949 36.9073 16.0677 36.9216 16.1413C36.9399 16.231 36.9563 16.3221 36.9726 16.4118C36.9862 16.4846 36.9998 16.5575 37.0121 16.631C37.0277 16.7228 37.0406 16.8145 37.0549 16.9076C37.0658 16.9791 37.0767 17.0513 37.0869 17.1235C37.0998 17.2193 37.11 17.3144 37.1209 17.4102C37.1291 17.4804 37.1379 17.5505 37.1447 17.6207C37.1549 17.7212 37.1624 17.8224 37.1706 17.9229C37.176 17.989 37.1821 18.0545 37.1862 18.1206C37.1937 18.2326 37.1985 18.3459 37.2032 18.4579C37.206 18.5132 37.2094 18.5686 37.2114 18.6239C37.2168 18.7925 37.2202 18.9612 37.2202 19.1305C37.2202 19.2998 37.2175 19.4685 37.2114 19.6365C37.2094 19.6925 37.206 19.7478 37.2032 19.8031C37.1985 19.9151 37.1937 20.0284 37.1862 20.1404C37.1821 20.2065 37.1753 20.272 37.1706 20.3381C37.1624 20.4386 37.1549 20.5398 37.1447 20.6396C37.1379 20.7105 37.1291 20.7806 37.1209 20.8508C37.11 20.9466 37.0991 21.0417 37.0869 21.1368C37.0767 21.2097 37.0658 21.2819 37.0549 21.3534C37.0406 21.4458 37.0277 21.5382 37.0121 21.63C36.9998 21.7035 36.9862 21.7764 36.9726 21.8492C36.9563 21.9396 36.9399 22.03 36.9216 22.1198C36.9073 22.1926 36.8909 22.2662 36.8753 22.3397C36.8562 22.4281 36.8365 22.5165 36.8161 22.6048C36.7991 22.6784 36.7807 22.7512 36.7617 22.8241C36.7399 22.9118 36.7174 22.9988 36.6936 23.0858C36.6739 23.158 36.6535 23.2309 36.6324 23.3037C36.6079 23.3901 36.5827 23.4758 36.5562 23.5614C36.5344 23.6336 36.5113 23.7051 36.4882 23.7773C36.4609 23.8623 36.433 23.9473 36.4038 24.0317C36.3793 24.1025 36.3548 24.174 36.3289 24.2448C36.299 24.3292 36.2677 24.4128 36.2357 24.4965C36.2092 24.5666 36.1827 24.6361 36.1548 24.7063C36.1214 24.7899 36.0874 24.8729 36.0534 24.9559C36.0248 25.0254 35.9962 25.0935 35.9663 25.1623C35.9302 25.2453 35.8935 25.3269 35.8561 25.4086C35.8255 25.4767 35.7948 25.5442 35.7636 25.6109C35.7248 25.6933 35.6846 25.7749 35.6438 25.8565C35.6118 25.9226 35.5798 25.9867 35.5465 26.0522C35.5043 26.1345 35.4608 26.2161 35.4172 26.2977C35.3839 26.3611 35.3499 26.4245 35.3159 26.4859C35.2703 26.5689 35.2226 26.6505 35.175 26.7328C35.1403 26.7929 35.1063 26.8536 35.0709 26.913C35.0206 26.9973 34.9682 27.0803 34.9165 27.1639C34.8818 27.2199 34.8478 27.2766 34.8124 27.3319C34.7559 27.4203 34.6974 27.5073 34.6389 27.5943C34.6062 27.6436 34.5736 27.6928 34.5402 27.7428C34.4695 27.8446 34.3973 27.9465 34.3245 28.0463C34.3007 28.0794 34.279 28.1125 34.2545 28.1442C34.1565 28.2771 34.0565 28.4093 33.9551 28.5395C33.9429 28.5537 33.9306 28.5685 33.919 28.584C33.8285 28.6974 33.7374 28.8107 33.6442 28.9227C33.6095 28.9638 33.5734 29.003 33.5387 29.0441C33.4666 29.1284 33.3945 29.2134 33.3203 29.2957C33.2781 29.3436 33.2339 29.3909 33.1904 29.4367C33.1216 29.5116 33.0536 29.5872 32.9835 29.6594C32.9359 29.7093 32.8869 29.7579 32.8393 29.8071C32.7746 29.8766 32.7073 29.9454 32.6379 30.0129ZM46.57 32.6372C46.3986 32.5683 46.2162 32.5339 46.0353 32.5339C45.808 32.5339 45.5808 32.5886 45.3746 32.6952C43.1817 33.8346 40.7065 34.4384 38.2156 34.4384C36.4031 34.4384 34.6076 34.1207 32.9189 33.5108C32.9869 33.4582 33.0536 33.4049 33.121 33.3516C33.1747 33.3098 33.2285 33.2686 33.2808 33.2261C33.3938 33.135 33.5047 33.0433 33.6149 32.9502C33.6496 32.9205 33.6857 32.8922 33.7204 32.8625C33.8632 32.7397 34.0041 32.6149 34.1436 32.4881C34.1823 32.4523 34.2204 32.4166 34.2592 32.3801C34.3586 32.2877 34.4579 32.196 34.5552 32.1008C34.6076 32.0509 34.6579 31.9996 34.7096 31.9477C34.7926 31.8661 34.8743 31.7838 34.9553 31.7001C35.0097 31.6448 35.0628 31.5881 35.1158 31.5314C35.1927 31.4512 35.2682 31.3695 35.3431 31.2866C35.3961 31.2285 35.4492 31.1705 35.5009 31.1112C35.5751 31.0275 35.6486 30.9425 35.7214 30.8568C35.771 30.7995 35.8207 30.7415 35.869 30.6828C35.9473 30.589 36.0235 30.4952 36.099 30.3994C36.1398 30.3482 36.182 30.2982 36.2221 30.2456C36.3358 30.1012 36.4473 29.9549 36.5555 29.8071C36.5793 29.7741 36.6025 29.7403 36.6263 29.7079C36.712 29.5899 36.7964 29.4705 36.8794 29.3511C36.9202 29.2917 36.9597 29.231 36.9998 29.1716C37.0638 29.0758 37.1277 28.9807 37.1889 28.8842C37.2318 28.8181 37.274 28.7513 37.3155 28.6839C37.3727 28.5914 37.4298 28.4997 37.4856 28.4066C37.5271 28.3371 37.5679 28.269 37.6087 28.1988C37.6632 28.105 37.7169 28.0106 37.77 27.9155C37.8088 27.8467 37.8469 27.7785 37.8843 27.709C37.9387 27.6085 37.9918 27.5066 38.0442 27.4054C38.0775 27.3414 38.1115 27.2779 38.1442 27.2132C38.2075 27.0863 38.2694 26.9588 38.3299 26.8313C38.349 26.7902 38.3694 26.7511 38.3878 26.7099C38.4653 26.544 38.5395 26.3766 38.6116 26.208C38.6375 26.1486 38.6613 26.0879 38.6858 26.0285C38.7327 25.9152 38.779 25.8025 38.8239 25.6885C38.8518 25.6184 38.8783 25.5475 38.9049 25.4767C38.9443 25.3721 38.9831 25.2669 39.0205 25.1616C39.0471 25.0881 39.0729 25.0132 39.0981 24.939C39.1342 24.8345 39.1689 24.7285 39.2029 24.6233C39.2267 24.5491 39.2498 24.4749 39.273 24.4013C39.307 24.2914 39.339 24.1814 39.3709 24.0708C39.3907 24.0006 39.4118 23.9305 39.4308 23.8603C39.4655 23.7335 39.4982 23.606 39.5301 23.4785C39.5437 23.4245 39.5587 23.3698 39.5716 23.3152C39.6152 23.1337 39.656 22.9516 39.6941 22.7681C39.7036 22.7249 39.7111 22.6797 39.72 22.6365C39.7485 22.4955 39.7758 22.3545 39.8002 22.2122C39.8125 22.1441 39.8227 22.0766 39.8336 22.0078C39.8526 21.8884 39.8717 21.769 39.8887 21.6496C39.8989 21.576 39.9084 21.5005 39.918 21.4263C39.9329 21.3109 39.9465 21.1955 39.9595 21.0795C39.9676 21.0039 39.9758 20.9277 39.9833 20.8522C39.9948 20.7341 40.0044 20.616 40.0132 20.4993C40.0187 20.4258 40.0248 20.3523 40.0289 20.2794C40.037 20.1505 40.0431 20.0217 40.0486 19.8922C40.0513 19.8301 40.0547 19.768 40.0568 19.7053C40.0629 19.5144 40.067 19.3228 40.067 19.1298C40.067 18.9369 40.0629 18.746 40.0568 18.5537C40.0547 18.491 40.0513 18.4289 40.0486 18.3668C40.0431 18.238 40.037 18.1085 40.0289 17.9803C40.0241 17.9067 40.0187 17.8339 40.0132 17.761C40.0037 17.643 39.9942 17.5242 39.9833 17.4075C39.9758 17.332 39.9683 17.2557 39.9595 17.1809C39.9465 17.0641 39.9329 16.9481 39.918 16.8327C39.9084 16.7585 39.8989 16.6837 39.8887 16.6101C39.8717 16.49 39.8526 16.37 39.8329 16.2499C39.822 16.1824 39.8118 16.1149 39.8002 16.0482C39.7751 15.9038 39.7472 15.7601 39.7186 15.6177C39.7104 15.5759 39.703 15.5334 39.6941 15.4909C39.656 15.3081 39.6152 15.1246 39.5716 14.9431C39.5587 14.8905 39.5444 14.8392 39.5315 14.7873C39.4988 14.6571 39.4662 14.5269 39.4308 14.398C39.4124 14.3292 39.392 14.2611 39.3723 14.1923C39.3403 14.0796 39.3077 13.9669 39.273 13.855C39.2505 13.7828 39.228 13.7106 39.2042 13.6391C39.1695 13.5311 39.1335 13.4239 39.0974 13.3166C39.0729 13.2444 39.0477 13.1722 39.0219 13.1001C38.9838 12.9921 38.9436 12.8842 38.9028 12.7769C38.877 12.7081 38.8518 12.64 38.8246 12.5711C38.7783 12.4538 38.73 12.3371 38.6817 12.2203C38.6586 12.1643 38.6361 12.1077 38.6123 12.0517C38.5395 11.8817 38.4647 11.713 38.3864 11.5457C38.3701 11.5113 38.3531 11.4769 38.3368 11.4432C38.2735 11.3089 38.2088 11.176 38.1422 11.0424C38.1109 10.9811 38.0789 10.9197 38.0469 10.8596C37.9925 10.7544 37.938 10.6498 37.8816 10.5459C37.8448 10.4791 37.8081 10.413 37.7707 10.3469C37.7162 10.2491 37.6611 10.1526 37.6047 10.0555C37.5652 9.98801 37.5257 9.92122 37.4856 9.85511C37.4284 9.75864 37.3699 9.66419 37.3107 9.56975C37.2699 9.50498 37.2298 9.44022 37.1883 9.37613C37.1243 9.27696 37.059 9.17914 36.9937 9.08132C36.9549 9.0233 36.9175 8.96528 36.878 8.90861C36.7916 8.78246 36.7032 8.65833 36.6127 8.5342C36.5929 8.50721 36.5739 8.47888 36.5542 8.45189C36.4446 8.3028 36.3323 8.15641 36.2187 8.01001C36.1799 7.96077 36.1398 7.91152 36.1003 7.86227C36.0228 7.76513 35.9452 7.66866 35.8656 7.57353C35.818 7.51552 35.769 7.45885 35.72 7.40218C35.6465 7.31583 35.5724 7.23015 35.4968 7.14515C35.4451 7.08713 35.3927 7.02911 35.3404 6.97109C35.2648 6.88812 35.1886 6.80649 35.1117 6.72486C35.0587 6.66886 35.0056 6.61287 34.9519 6.55755C34.8709 6.47322 34.7886 6.39159 34.7062 6.30929C34.6545 6.25869 34.6042 6.20742 34.5518 6.15682C34.4552 6.06238 34.3565 5.97063 34.2579 5.87888C34.2184 5.84177 34.1796 5.80535 34.1402 5.76824C34.0014 5.64209 33.8612 5.51796 33.7183 5.39585C33.6809 5.36347 33.6428 5.33311 33.6047 5.3014C33.4972 5.21033 33.389 5.1206 33.2795 5.0329C33.2244 4.98838 33.1686 4.94587 33.1128 4.9027C33.0468 4.85075 32.9822 4.79881 32.9155 4.74753C34.6042 4.13768 36.4004 3.81993 38.2122 3.81993C46.7252 3.81993 53.6508 10.6876 53.6508 19.1285C53.6508 21.0977 53.2786 23.015 52.5451 24.8264C52.4288 25.1138 52.4111 25.4308 52.4948 25.7297L55.4286 36.2019L46.57 32.6372Z" stroke="white" stroke-width="1.2" mask="url(#path-1-outside-1_1_2305)"/>
</svg>
