<svg width="68" height="74" viewBox="0 0 68 74" fill="none" xmlns="http://www.w3.org/2000/svg">
<path d="M64.2222 73.9678H68C68 59.6482 59.6889 55.3447 53.0041 51.8864C47.8493 49.2178 43.7391 47.091 43.4596 41.1749C45.1759 38.5597 46.4408 35.6855 47.2033 32.6679C50.8999 28.5993 51.0132 24.6158 49.776 21.9804C51.6932 11.7812 47.8191 6.41067 44.1849 3.68656C41.2239 1.68205 37.7907 0.448157 34.2083 0.101009C30.626 -0.246139 27.0123 0.304878 23.7074 1.7022L22.6667 2.21262V4.34679C20.7858 5.45578 19.3372 7.14811 18.5508 9.15512C16.8637 13.3175 16.7121 17.9256 18.122 22.1857C17.0019 24.7341 17.1473 28.6585 20.7967 32.6771C21.5596 35.6947 22.8244 38.5687 24.5404 41.1842C24.2609 47.1021 20.1507 49.227 14.9959 51.8957C8.31111 55.3447 0 59.6482 0 73.9678H3.77778C3.77778 62.8809 9.08178 59.2173 15.1111 56.029V63.2211C13.8508 63.6574 12.7886 64.5158 12.1123 65.6447C11.4359 66.7736 11.1889 68.1002 11.4149 69.3901C11.641 70.68 12.3255 71.8502 13.3475 72.6938C14.3696 73.5373 15.6633 74 17 74C18.3367 74 19.6305 73.5373 20.6525 72.6938C21.6745 71.8502 22.359 70.68 22.5851 69.3901C22.8111 68.1002 22.5641 66.7736 21.8877 65.6447C21.2114 64.5158 20.1492 63.6574 18.8889 63.2211V54.0483C19.7313 53.5915 20.5549 53.1236 21.3444 52.604L30.9778 70.2691H37.0222L46.6556 52.5947C47.4527 53.1052 48.2762 53.5823 49.1111 54.0391V61.8471C45.101 64.3955 41.5556 69.9269 41.5556 73.9678H45.3333C45.3333 71.2548 48.1534 66.9199 51 65.0169C53.8466 66.9199 56.6667 71.2548 56.6667 73.9678H60.4444C60.4444 69.9269 56.899 64.3955 52.8889 61.8471V56.029C58.9182 59.2173 64.2222 62.8809 64.2222 73.9678ZM17 70.2691C16.6264 70.2691 16.2612 70.1606 15.9506 69.9574C15.64 69.7542 15.3979 69.4653 15.2549 69.1274C15.1119 68.7895 15.0745 68.4176 15.1474 68.0589C15.2203 67.7002 15.4002 67.3706 15.6644 67.112C15.9285 66.8534 16.2651 66.6772 16.6315 66.6059C16.9979 66.5345 17.3777 66.5711 17.7228 66.7111C18.068 66.8511 18.363 67.0881 18.5706 67.3923C18.7781 67.6964 18.8889 68.0539 18.8889 68.4197C18.8889 68.9102 18.6899 69.3806 18.3356 69.7274C17.9814 70.0742 17.501 70.2691 17 70.2691ZM34.7556 66.5703H33.2444L24.3667 50.2682C25.6945 49.0102 26.7347 47.4907 27.4184 45.81C28.1022 44.1293 28.414 42.3258 28.3333 40.5184V39.7787L27.8158 39.2424C26.161 36.8305 24.981 34.1373 24.3364 31.3012L24.2156 30.8352L23.8812 30.4856C20.8968 27.3787 20.8949 24.6435 21.8034 23.2454L22.3607 22.3836L21.9149 21.4589C20.581 17.9514 20.6228 14.0842 22.032 10.605C22.2923 9.87138 22.7042 9.19814 23.2421 8.62731C23.7799 8.05648 24.4322 7.60031 25.1581 7.28727L26.4444 6.87301V4.57241C29.0065 3.72756 31.7332 3.4731 34.4122 3.82883C37.0912 4.18456 39.6502 5.14089 41.8899 6.62335C46.0454 9.73397 47.4054 14.8696 45.9453 21.8917L45.798 22.5944L46.1758 23.2103C47.1032 24.723 47.0466 27.4323 44.1188 30.4912L43.7863 30.8407L43.6654 31.3049C43.0209 34.141 41.8409 36.8342 40.1861 39.2461L39.6686 39.7824V40.5221C39.5879 42.3295 39.8997 44.133 40.5835 45.8137C41.2672 47.4944 42.3074 49.0139 43.6352 50.2719L34.7556 66.5703Z" fill="white"/>
</svg>
