<svg width="45" height="50" viewBox="0 0 45 50" fill="none" xmlns="http://www.w3.org/2000/svg">
<path d="M0.7 23.9333V23.9333C0.700051 23.4287 0.902131 22.9452 1.26103 22.5891C1.61985 22.233 2.10601 22.0334 2.6125 22.0333C4.98259 22.0333 6.53456 21.9519 7.96824 21.5705C9.38537 21.1936 10.7066 20.5179 12.5954 19.2971C14.7814 16.1476 17.531 13.4257 21.239 11.2611C22.7343 9.73015 23.916 7.53808 25.0015 5.52435C25.0315 5.46862 25.0615 5.41303 25.0914 5.3576C25.656 4.3106 26.2109 3.32812 26.8842 2.48013C27.5556 1.63438 28.5599 0.7 30.025 0.7C31.554 0.7 32.9705 1.58895 33.6922 2.79604C34.4027 3.98426 34.6268 5.38025 34.625 6.86704M0.7 23.9333L34.325 6.86667M0.7 23.9333V42.0667C0.700051 42.5713 0.902131 43.0548 1.26103 43.4109C1.61976 43.7669 2.10575 43.9665 2.61205 43.9667C6.12106 43.9719 9.81927 45.1972 13.7531 46.534L13.9506 46.6012C17.807 47.9121 21.89 49.3 26.2625 49.3H30.5625C32.7118 49.3 34.7079 48.8568 36.2943 47.7457C37.5056 46.8973 38.3592 45.5998 38.7153 44.1018C39.6401 43.7069 40.4299 43.0465 40.9595 42.2299C41.7766 40.9699 42.15 39.4298 42.15 37.8C42.15 37.0775 42.0531 36.429 41.9305 35.8862M0.7 23.9333L41.9305 35.8862M34.625 6.86704L34.325 6.86667M34.625 6.86704C34.625 6.86692 34.625 6.86679 34.625 6.86667H34.325M34.625 6.86704C34.6249 11.0393 32.877 14.297 31.14 17.2333M34.325 6.86667C34.325 11.0238 32.556 14.2594 30.7913 17.2333H31.14M31.14 17.2333H32.1729M31.14 17.2333C31.0807 17.3337 31.0213 17.4337 30.962 17.5333L32.1729 17.2333M32.1729 17.2333C32.4253 17.2301 32.6758 17.2765 32.9102 17.3699C33.1452 17.4636 33.3592 17.6028 33.5398 17.7794C33.7204 17.9561 33.8639 18.1667 33.9619 18.3992C34.0599 18.6317 34.1104 18.8812 34.1104 19.1333C34.1104 19.3855 34.0599 19.635 33.9619 19.8675C33.8639 20.0999 33.7204 20.3106 33.5398 20.4872C33.3592 20.6639 33.1452 20.8031 32.9102 20.8968C32.6758 20.9902 32.4253 21.0366 32.1729 21.0333H27.875H27.8745C27.5395 21.0328 27.2104 20.9449 26.9202 20.7782C26.63 20.6115 26.3888 20.3718 26.221 20.0829C26.0532 19.7941 25.9648 19.4664 25.9649 19.1327C25.965 18.7992 26.0534 18.4717 26.2212 18.1831C26.5212 17.6621 26.8233 17.1513 27.1216 16.647C27.9297 15.2806 28.7101 13.9611 29.3469 12.6123C30.2147 10.7741 30.8 8.91075 30.8 6.86667V6.84962C30.8013 5.78672 30.5898 5.04507 30.4058 4.7373C30.353 4.64898 30.3175 4.59315 30.2886 4.5547C30.2608 4.51771 30.2495 4.51104 30.2505 4.51168C30.2543 4.51417 30.2522 4.50653 30.1705 4.5024C30.1674 4.50489 30.1642 4.50753 30.1609 4.5103C30.1057 4.55684 30.0096 4.64852 29.8736 4.81987C29.5033 5.28623 29.029 6.1317 28.475 7.15907C28.3776 7.33957 28.2782 7.52558 28.1763 7.71621C27.1351 9.66422 25.8359 12.095 23.8558 14.0606C23.7384 14.1822 23.6052 14.2877 23.4598 14.3744L23.4542 14.3777L23.4542 14.3776C19.9511 16.3639 17.5046 18.7898 15.493 21.7836C15.3514 21.9956 15.1684 22.177 14.955 22.3173L14.9547 22.3176C11.1941 24.7819 8.45521 25.5752 4.525 25.7545V40.308C8.16853 40.642 11.654 41.7999 14.9875 42.9326L14.891 43.2167L14.9875 42.9326C18.916 44.2676 22.6474 45.5 26.2625 45.5H30.5625C32.1754 45.5 33.4044 45.1266 34.1025 44.6376L34.2746 44.8833L34.1025 44.6376C34.4602 44.3871 34.7013 44.1389 34.8576 43.8364C35.0145 43.5327 35.1 43.1472 35.1 42.6C35.1 42.0953 35.3021 41.6118 35.661 41.2557C36.0198 40.8997 36.506 40.7001 37.0125 40.7C37.1658 40.7 37.2663 40.6743 37.3612 40.6136C37.4654 40.5469 37.589 40.4211 37.7518 40.1701C38.0584 39.6974 38.325 38.8378 38.325 37.8C38.325 36.9709 38.0166 36.0638 37.9278 35.848C37.9278 35.8479 37.9277 35.8478 37.9277 35.8476L38.205 35.7333C38.0532 35.368 38.043 34.9599 38.1764 34.5876C38.3097 34.2152 38.5772 33.905 38.9273 33.7167L32.1729 17.2333ZM44.3 23.9333C44.3 21.9797 43.7001 20.1916 42.4275 18.9672C41.1569 17.7445 39.3965 17.2337 37.5521 17.2333C37.2997 17.2301 37.0491 17.2765 36.8147 17.3699C36.5797 17.4636 36.3657 17.6028 36.1851 17.7794C36.0045 17.9561 35.861 18.1668 35.763 18.3992L36.0394 18.5158L35.763 18.3992C35.665 18.6317 35.6145 18.8812 35.6145 19.1333C35.6145 19.3855 35.665 19.635 35.763 19.8675L36.0394 19.7509L35.763 19.8675C35.861 20.0999 36.0045 20.3106 36.1851 20.4872C36.3657 20.6639 36.5797 20.8031 36.8147 20.8968C37.0491 20.9902 37.2997 21.0366 37.552 21.0333C38.7124 21.0337 39.3658 21.3195 39.7607 21.6995C40.1503 22.0743 40.4683 22.6969 40.475 23.9017L40.475 23.9077L40.475 23.9113C40.4714 23.9994 40.4341 24.1575 40.354 24.3701C40.2758 24.5779 40.1663 24.8135 40.0402 25.0434C39.914 25.2737 39.7746 25.4922 39.6386 25.6679C39.4975 25.8502 39.3795 25.9606 39.3009 26.0052C39.0392 26.1521 38.8158 26.3584 38.6491 26.6074C38.4823 26.8565 38.3771 27.1414 38.342 27.4387C38.307 27.7361 38.3432 28.0375 38.4477 28.3182C38.552 28.5988 38.7215 28.8508 38.9422 29.0538C38.9717 29.081 39.0006 29.1077 39.0291 29.1339C39.3189 29.4012 39.56 29.6235 39.7556 29.8155C39.9722 30.028 40.1189 30.1896 40.2087 30.3201C40.3078 30.464 40.3672 30.5689 40.4073 30.7091C40.4492 30.8556 40.475 31.0585 40.475 31.4C40.475 31.6896 40.3256 32.0573 40.021 32.4389C39.7208 32.8149 39.2909 33.177 38.7844 33.4529L42.5386 27.7667M44.3 23.9333H44L44.2999 23.9317L44.3 23.9333ZM44.3 23.9333L44.2999 23.9516L44.2999 23.9544C44.2804 25.3011 43.8116 26.6395 42.9461 27.7429M42.9461 27.7429C42.8768 27.6811 42.8185 27.6285 42.7606 27.5648L42.5386 27.7667M42.9461 27.7429C42.8879 27.817 42.828 27.8901 42.7663 27.962L42.5386 27.7667M42.9461 27.7429C42.9492 27.7457 42.9522 27.7484 42.9554 27.7512C42.9791 27.7724 43.0042 27.7948 43.031 27.8191C43.1349 27.9135 43.2512 28.0265 43.3568 28.1799L43.1097 28.35M42.5386 27.7667C42.6106 27.8458 42.6867 27.9137 42.763 27.9817C42.8835 28.0891 43.0043 28.1969 43.1097 28.35M43.1097 28.35L43.3568 28.1799C43.9376 29.0234 44.3 30.1434 44.3 31.4C44.3 33.3552 43.2174 34.8454 41.9305 35.8862M43.1097 28.35L41.9305 35.8862" fill="white" stroke="white" stroke-width="0.6"/>
</svg>
