<svg width="49" height="49" viewBox="0 0 49 49" fill="none" xmlns="http://www.w3.org/2000/svg">
<g clip-path="url(#clip0_1_2289)">
<path d="M15.3955 10.2083C15.518 12.0254 15.8242 13.8017 16.3142 15.4963L13.8642 17.9462C13.0271 15.4963 12.4963 12.9033 12.3126 10.2083H15.3955ZM35.5263 34.7492C37.2617 35.2392 39.038 35.5454 40.8346 35.6679V38.71C38.1396 38.5262 35.5467 37.9954 33.0763 37.1787L35.5263 34.7492ZM17.3555 6.125H10.2096C9.08672 6.125 8.16797 7.04375 8.16797 8.16667C8.16797 27.3379 23.7051 42.875 42.8763 42.875C43.9992 42.875 44.918 41.9563 44.918 40.8333V33.7079C44.918 32.585 43.9992 31.6663 42.8763 31.6663C40.3446 31.6663 37.8742 31.2579 35.5876 30.5025C35.3834 30.4208 35.1588 30.4004 34.9546 30.4004C34.4238 30.4004 33.9134 30.6046 33.5051 30.9925L29.0134 35.4842C23.2355 32.5237 18.4988 27.8075 15.5588 22.0296L20.0505 17.5379C20.6221 16.9663 20.7855 16.17 20.5609 15.4554C19.8055 13.1688 19.3971 10.7188 19.3971 8.16667C19.3971 7.04375 18.4784 6.125 17.3555 6.125Z" fill="white"/>
</g>
<defs>
<clipPath id="clip0_1_2289">
<rect width="49" height="49" fill="white"/>
</clipPath>
</defs>
</svg>
