<svg width="37" height="43" viewBox="0 0 37 43" fill="none" xmlns="http://www.w3.org/2000/svg">
<path d="M34.9444 42.9813H37C37 34.6604 32.4778 32.1598 28.8405 30.1502C26.0357 28.5995 23.7992 27.3637 23.6471 23.926C24.581 22.4063 25.2693 20.7362 25.6842 18.9827C27.6955 16.6185 27.7572 14.3038 27.084 12.7724C28.1272 6.84584 26.0192 3.72512 24.0418 2.14219C22.4307 0.977409 20.5626 0.260415 18.6134 0.0586944C16.6641 -0.143027 14.6979 0.177159 12.8996 0.989116L12.3333 1.28571V2.52583C11.3099 3.17025 10.5217 4.15363 10.0938 5.31987C9.17584 7.73855 9.09333 10.4162 9.8605 12.8917C9.25103 14.3725 9.33017 16.6529 11.3158 18.9881C11.7309 20.7415 12.4192 22.4116 13.3529 23.9313C13.2008 27.3702 10.9643 28.6049 8.15953 30.1556C4.52222 32.1598 0 34.6604 0 42.9813H2.05556C2.05556 36.5389 4.94156 34.41 8.22222 32.5574V36.7366C7.53647 36.9901 6.95851 37.4889 6.59049 38.1449C6.22247 38.8009 6.08808 39.5717 6.21107 40.3213C6.33407 41.0708 6.70653 41.7508 7.26263 42.241C7.81873 42.7312 8.52265 43 9.25 43C9.97735 43 10.6813 42.7312 11.2374 42.241C11.7935 41.7508 12.1659 41.0708 12.2889 40.3213C12.4119 39.5717 12.2775 38.8009 11.9095 38.1449C11.5415 37.4889 10.9635 36.9901 10.2778 36.7366V31.4065C10.7362 31.141 11.1843 30.8691 11.6139 30.5672L16.8556 40.832H20.1444L25.3861 30.5618C25.8198 30.8584 26.2679 31.1357 26.7222 31.4011V35.9382C24.5403 37.419 22.6111 40.6332 22.6111 42.9813H24.6667C24.6667 41.4048 26.2011 38.8859 27.75 37.7801C29.2989 38.8859 30.8333 41.4048 30.8333 42.9813H32.8889C32.8889 40.6332 30.9598 37.419 28.7778 35.9382V32.5574C32.0584 34.41 34.9444 36.5389 34.9444 42.9813ZM9.25 40.832C9.04673 40.832 8.84801 40.769 8.679 40.6509C8.50998 40.5328 8.37825 40.365 8.30046 40.1686C8.22267 39.9723 8.20231 39.7562 8.24197 39.5477C8.28163 39.3393 8.37951 39.1478 8.52325 38.9975C8.66699 38.8472 8.85012 38.7449 9.04949 38.7034C9.24886 38.6619 9.45551 38.6832 9.64331 38.7646C9.83112 38.8459 9.99163 38.9836 10.1046 39.1604C10.2175 39.3371 10.2778 39.5448 10.2778 39.7574C10.2778 40.0424 10.1695 40.3157 9.97675 40.5173C9.784 40.7188 9.52258 40.832 9.25 40.832ZM18.9111 38.6828H18.0889L13.2583 29.2099C13.9808 28.4789 14.5468 27.5959 14.9188 26.6193C15.2909 25.6427 15.4606 24.5947 15.4167 23.5445V23.1146L15.1351 22.803C14.2347 21.4015 13.5926 19.8365 13.2419 18.1885L13.1761 17.9177L12.9942 17.7146C11.3703 15.9093 11.3693 14.3199 11.8636 13.5075L12.1668 13.0067L11.9243 12.4694C11.1985 10.4312 11.2212 8.18406 11.988 6.16237C12.1296 5.73607 12.3538 5.34487 12.6464 5.01317C12.9391 4.68147 13.294 4.4164 13.689 4.23449L14.3889 3.99378V2.65694C15.783 2.16601 17.2666 2.01815 18.7243 2.22486C20.182 2.43157 21.5744 2.98727 22.793 3.8487C25.0541 5.65623 25.7941 8.64047 24.9997 12.7208L24.9195 13.1292L25.1251 13.487C25.6297 14.3661 25.5989 15.9404 24.0058 17.7178L23.8249 17.921L23.7591 18.1907C23.4084 19.8387 22.7664 21.4037 21.866 22.8051L21.5844 23.1168V23.5466C21.5405 24.5969 21.7101 25.6449 22.0822 26.6215C22.4542 27.5981 23.0202 28.481 23.7427 29.2121L18.9111 38.6828Z" fill="white"/>
</svg>
