<svg width="54" height="46" viewBox="0 0 54 46" fill="none" xmlns="http://www.w3.org/2000/svg">
<path d="M50.1907 45.9998H3.48572C1.82334 45.9998 0.398438 44.6541 0.398438 42.9125V10.8523C0.398438 9.18991 1.74417 7.76501 3.48572 7.76501H50.1907C51.8531 7.76501 53.278 9.11075 53.278 10.8523V42.9125C53.278 44.5749 51.8531 45.9998 50.1907 45.9998ZM3.48572 10.1398C3.08991 10.1398 2.77327 10.4565 2.77327 10.8523V42.9125C2.77327 43.3083 3.08991 43.625 3.48572 43.625H50.1907C50.5865 43.625 50.9032 43.3083 50.9032 42.9125V10.8523C50.9032 10.4565 50.5865 10.1398 50.1907 10.1398H3.48572Z" fill="white"/>
<path d="M38.9498 8.95265H36.575V3.5697C36.575 3.1739 36.2584 2.85725 35.8626 2.85725H17.8138C17.418 2.85725 17.1014 3.1739 17.1014 3.5697V8.95265H14.7266V3.5697C14.7266 1.90732 16.0723 0.482422 17.8138 0.482422H35.7834C37.4458 0.482422 38.8707 1.82816 38.8707 3.5697V8.95265H38.9498Z" fill="white"/>
<path d="M10.8475 8.95312H8.47266V44.8131H10.8475V8.95312Z" fill="white"/>
<path d="M45.203 8.95312H42.8281V44.8131H45.203V8.95312Z" fill="white"/>
<path d="M29.2128 39.1139H24.4631C22.4049 39.1139 20.6634 37.4515 20.6634 35.3142V33.4935H18.8427C16.7845 33.4935 15.043 31.8311 15.043 29.6938V24.9441C15.043 22.8859 16.7054 21.1444 18.8427 21.1444H20.6634V19.3237C20.6634 17.2655 22.3258 15.5239 24.4631 15.5239H29.2128C31.271 15.5239 33.0125 17.1863 33.0125 19.3237V21.1444H34.8332C36.8914 21.1444 38.633 22.8067 38.633 24.9441V29.6938C38.633 30.7228 38.2372 31.6728 37.5247 32.3852C36.8123 33.0977 35.7832 33.4935 34.8332 33.4935H33.0125V35.3142C33.0125 37.3724 31.271 39.1139 29.2128 39.1139ZM18.8427 23.5984C18.0511 23.5984 17.4178 24.2316 17.4178 25.0232V29.7729C17.4178 30.5645 18.0511 31.1978 18.8427 31.1978H23.0382V35.3933C23.0382 36.185 23.6715 36.8182 24.4631 36.8182H29.2128C30.0044 36.8182 30.6377 36.185 30.6377 35.3933V31.1186H34.8332C35.229 31.1186 35.5457 30.9603 35.8623 30.7228C36.0998 30.4854 36.2581 30.0896 36.2581 29.6938V24.9441C36.2581 24.1525 35.6248 23.5192 34.8332 23.5192H30.6377V19.3237C30.6377 18.532 30.0044 17.8988 29.2128 17.8988H24.4631C23.6715 17.8988 23.0382 18.532 23.0382 19.3237V23.5192H18.8427V23.5984Z" fill="white"/>
</svg>
