<svg width="43" height="48" viewBox="0 0 43 48" fill="none" xmlns="http://www.w3.org/2000/svg">
<path d="M40.6479 47.1052H42.9996C42.9996 38.0004 37.8258 35.2641 33.6643 33.0652C30.4554 31.3684 27.8966 30.0162 27.7226 26.2545C28.7911 24.5916 29.5785 22.7642 30.0532 20.8455C32.3544 18.2585 32.425 15.7257 31.6548 14.0501C32.8483 7.56508 30.4365 4.15032 28.1742 2.41825C26.3309 1.14372 24.1936 0.359171 21.9635 0.138443C19.7334 -0.0822839 17.4838 0.26807 15.4264 1.15653L14.7785 1.48107V2.83804C13.6076 3.54317 12.7059 4.6192 12.2163 5.89533C11.166 8.5419 11.0716 11.4719 11.9494 14.1806C11.2521 15.8009 11.3426 18.2962 13.6144 20.8513C14.0893 22.77 14.8767 24.5974 15.945 26.2604C15.771 30.0232 13.2123 31.3743 10.0033 33.0711C5.84184 35.2641 0.667969 38.0004 0.667969 47.1052H3.01973C3.01973 40.0558 6.3216 37.7264 10.075 35.6992V40.2722C9.29044 40.5496 8.6292 41.0954 8.20814 41.8131C7.78709 42.5309 7.63333 43.3744 7.77405 44.1946C7.91477 45.0148 8.3409 45.7588 8.97714 46.2952C9.61337 46.8315 10.4187 47.1257 11.2509 47.1257C12.083 47.1257 12.8884 46.8315 13.5246 46.2952C14.1609 45.7588 14.587 45.0148 14.7277 44.1946C14.8684 43.3744 14.7147 42.5309 14.2936 41.8131C13.8726 41.0954 13.2113 40.5496 12.4268 40.2722V34.4398C12.9512 34.1494 13.4639 33.8519 13.9554 33.5215L19.9524 44.7535H23.7152L29.7122 33.5156C30.2084 33.8401 30.7211 34.1435 31.2408 34.4339V39.3985C28.7445 41.0189 26.5373 44.5359 26.5373 47.1052H28.8891C28.8891 45.3802 30.6447 42.6239 32.4167 41.414C34.1888 42.6239 35.9444 45.3802 35.9444 47.1052H38.2961C38.2961 44.5359 36.089 41.0189 33.5926 39.3985V35.6992C37.346 37.7264 40.6479 40.0558 40.6479 47.1052ZM11.2509 44.7535C11.0183 44.7535 10.791 44.6845 10.5976 44.5553C10.4042 44.4261 10.2535 44.2424 10.1645 44.0276C10.0755 43.8127 10.0522 43.5763 10.0976 43.3482C10.143 43.1201 10.255 42.9105 10.4194 42.7461C10.5839 42.5816 10.7934 42.4697 11.0215 42.4243C11.2496 42.3789 11.486 42.4022 11.7009 42.4912C11.9157 42.5802 12.0994 42.7309 12.2286 42.9243C12.3578 43.1177 12.4268 43.345 12.4268 43.5776C12.4268 43.8894 12.3029 44.1885 12.0824 44.409C11.8618 44.6296 11.5627 44.7535 11.2509 44.7535ZM22.3042 42.4017H21.3635L15.8368 32.0363C16.6634 31.2364 17.3109 30.2702 17.7366 29.2016C18.1623 28.133 18.3564 26.9863 18.3062 25.8371V25.3667L17.984 25.0257C16.9538 23.4922 16.2193 21.7798 15.818 19.9765L15.7427 19.6802L15.5346 19.4579C13.6767 17.4824 13.6756 15.7433 14.2411 14.8544L14.588 14.3064L14.3105 13.7185C13.4802 11.4882 13.5061 9.02938 14.3834 6.81722C14.5455 6.35075 14.8019 5.92268 15.1367 5.55973C15.4716 5.19678 15.8776 4.90673 16.3295 4.70769L17.1303 4.44429V2.9815C18.7253 2.44432 20.4227 2.28252 22.0904 2.50871C23.7582 2.73489 25.3512 3.34295 26.7455 4.28555C29.3324 6.26338 30.179 9.5288 29.2701 13.9936L29.1784 14.4404L29.4135 14.832C29.9909 15.7939 29.9556 17.5165 28.133 19.4615L27.926 19.6837L27.8508 19.9788C27.4495 21.7821 26.7149 23.4946 25.6848 25.0281L25.3626 25.3691V25.8394C25.3124 26.9886 25.5065 28.1354 25.9322 29.204C26.3578 30.2726 27.0054 31.2388 27.832 32.0387L22.3042 42.4017Z" fill="white"/>
</svg>
