<svg width="60" height="49" viewBox="0 0 60 49" fill="none" xmlns="http://www.w3.org/2000/svg">
<g clip-path="url(#clip0_1_2421)">
<path d="M18.7592 49C18.4672 49 18.1752 48.8506 17.9562 48.6265C17.7373 48.3277 17.5913 47.9543 17.7373 47.5808C18.7592 43.1738 15.1825 40.4101 11.7519 37.7957C9.85405 36.3765 8.24821 35.1814 7.51828 33.6875C6.13142 31.1479 5.62047 27.936 5.62047 27.7866C5.10952 25.3216 4.37959 22.1098 3.86864 20.0183C3.72266 19.346 3.57667 18.7485 3.50368 18.3003C2.99273 16.0595 0.146016 8.14177 0.146016 7.99238C-0.0729619 7.6936 3.08189e-05 7.39482 0.146016 7.09604C0.292002 6.79726 0.51098 6.57317 0.802951 6.49848C2.99273 5.90091 3.86864 5.90091 4.3066 5.97561C7.59127 6.1997 9.41609 12.8476 10.073 15.8354C10.292 15.8354 10.511 15.9101 10.73 15.9848C12.8467 16.7317 13.9416 18.375 15.1095 19.8689C16.1314 21.2881 17.1533 22.7073 18.9781 23.753C20.803 24.8735 27.0073 28.8323 28.4672 32.7165C29.4891 35.4802 29.0511 45.4893 28.9781 46.6098C28.9781 47.1326 28.5402 47.5808 28.0292 47.6555L18.9781 48.9253C18.8322 49 18.7592 49 18.7592 49ZM2.55478 8.44055C3.3577 10.7561 5.18251 15.9848 5.62047 17.8521C5.69346 18.2256 5.83945 18.8232 5.98543 19.4954C6.49638 21.6616 7.22631 24.8735 7.66427 27.4878C7.66427 27.5625 8.10222 30.4756 9.3431 32.6418C9.92704 33.6875 11.3869 34.8079 12.9927 36.003C16.1314 38.3933 20.365 41.6052 20.073 46.5351L26.7154 45.564C26.8613 41.3811 26.9343 35.1814 26.3504 33.5381C25.5475 31.4466 22.1898 28.3841 17.7373 25.7698C15.5475 24.4253 14.3066 22.7073 13.2117 21.2134C12.1898 19.7942 11.3869 18.5991 9.92704 18.0762C9.85405 18.0762 9.85405 18.0762 9.78105 18.0015C9.2701 19.1966 10.803 24.7988 11.7519 25.9192C12.1898 26.4421 12.8467 26.8902 13.5037 27.3384C14.5256 28.0854 15.6205 28.7576 16.2044 30.0274C16.4234 30.625 16.2044 31.2226 15.6935 31.5213C15.1095 31.7454 14.5256 31.5213 14.2336 30.9985C13.9416 30.3262 13.2117 29.8034 12.3358 29.2058C11.6059 28.6829 10.803 28.1601 10.146 27.4131C9.05113 26.1433 6.49638 19.1966 7.95624 16.7317C6.93434 11.7271 5.10952 8.29116 4.08762 8.21646C4.01463 8.21646 3.94164 8.21646 3.86864 8.21646C3.72266 8.21646 3.3577 8.21646 2.55478 8.44055ZM41.2409 49C41.1679 49 41.1679 49 41.0949 49L32.0438 47.7302C31.5329 47.6555 31.0949 47.2073 31.0949 46.6845C31.0219 45.564 30.584 35.5549 31.6059 32.7912C33.0657 28.907 39.2701 24.9482 41.0949 23.8277C42.9197 22.7073 43.9416 21.2881 44.9635 19.9436C46.0584 18.375 47.2263 16.8064 49.3431 16.0595C49.5621 15.9848 49.7811 15.9101 50 15.9101C50.657 12.9223 52.5548 6.34909 55.7665 6.05031C56.1314 5.97561 57.0803 5.97561 59.2701 6.57317C59.5621 6.64787 59.7811 6.87195 59.927 7.17073C60.073 7.46951 60.073 7.76829 60 8.06707C60 8.14177 57.0803 16.0595 56.6424 18.375C56.5694 18.8232 56.4234 19.4207 56.2774 20.093C55.7665 22.1845 55.0365 25.3963 54.5986 27.936C54.5986 28.0854 54.0876 31.2973 52.7008 33.8369C51.8979 35.2561 50.292 36.5259 48.4672 37.9451C44.9635 40.5595 41.3869 43.3232 42.4818 47.7302C42.5548 48.1037 42.4818 48.4771 42.2628 48.7759C41.8249 48.8506 41.5329 49 41.2409 49ZM33.2847 45.564L39.927 46.5351C39.6351 41.6052 43.8687 38.3933 47.0073 36.003C48.6132 34.8079 50.073 33.6875 50.657 32.6418C51.8249 30.4756 52.2628 27.5625 52.2628 27.4878C52.7008 24.8735 53.4307 21.6616 53.9416 19.4954C54.0876 18.8232 54.2336 18.2256 54.3066 17.7774C54.7446 15.9101 56.4964 10.7561 57.3723 8.36585C56.6424 8.21646 56.2774 8.21646 56.1314 8.21646C56.0584 8.21646 55.9854 8.21646 55.9124 8.21646C54.8906 8.21646 53.0657 11.7271 51.9708 16.7317C53.4307 19.1966 50.9489 26.1433 49.7811 27.4131C49.1241 28.1601 48.3942 28.6829 47.5913 29.2058C46.7154 29.8034 45.9854 30.3262 45.6935 30.9985C45.4745 31.596 44.8176 31.8201 44.2336 31.5213C43.6497 31.2973 43.4307 30.625 43.7227 30.0274C44.3066 28.7576 45.4015 28.0107 46.4234 27.3384C47.0803 26.8902 47.7373 26.4421 48.1752 25.9192C49.1971 24.7988 50.657 19.1966 50.146 18.0015C50.146 18.0015 50.073 18.0015 50 18.0762C48.5402 18.5991 47.7373 19.7195 46.7154 21.2134C45.6205 22.7073 44.4526 24.4253 42.1898 25.7698C37.8103 28.4588 34.3796 31.5213 33.6497 33.6128C33.0657 35.1814 33.1387 41.4558 33.2847 45.564ZM41.9708 36.3765C41.8249 36.3765 41.6059 36.3018 41.4599 36.2271C40.9489 35.9284 40.73 35.2561 40.9489 34.7332C41.6059 33.314 42.3358 32.343 42.3358 32.343C42.7008 31.8201 43.3577 31.7454 43.8686 32.0442C44.3796 32.4177 44.4526 33.0899 44.1606 33.6128C44.1606 33.6128 43.5767 34.5091 42.9197 35.7043C42.7738 36.1524 42.3358 36.3765 41.9708 36.3765ZM18.4672 36.3765C18.1022 36.3765 17.6643 36.1524 17.5183 35.779C16.9343 34.5091 16.3504 33.6875 16.2774 33.6875C15.9124 33.1646 16.0584 32.4924 16.5694 32.1189C17.0803 31.7454 17.7373 31.8948 18.1022 32.4177C18.1022 32.4924 18.7592 33.3887 19.4891 34.8079C19.7811 35.3308 19.5621 36.003 18.9781 36.3018C18.8322 36.3018 18.6862 36.3765 18.4672 36.3765ZM30 26.1433C22.9197 26.1433 17.2263 20.2424 17.2263 13.0716C17.2263 5.90091 22.9197 0 30 0C37.0803 0 42.7738 5.90091 42.7738 13.0716C42.7738 20.3171 37.0803 26.1433 30 26.1433ZM30 2.24085C24.1606 2.24085 19.4161 7.09604 19.4161 13.0716C19.4161 19.0473 24.1606 23.9024 30 23.9024C35.8395 23.9024 40.584 19.0473 40.584 13.0716C40.584 7.09604 35.8395 2.24085 30 2.24085ZM32.1898 21.064H28.3212C27.7373 21.064 27.2263 20.5412 27.2263 19.9436V15.9848H23.3577C22.7738 15.9848 22.2628 15.4619 22.2628 14.8643V10.9055C22.2628 10.3079 22.7738 9.78506 23.3577 9.78506H27.2263V5.90091C27.2263 5.30335 27.7373 4.78049 28.3212 4.78049H32.1898C32.7738 4.78049 33.2847 5.30335 33.2847 5.90091V9.85976H37.1533C37.7373 9.85976 38.2482 10.3826 38.2482 10.9802V14.939C38.2482 15.5366 37.7373 16.0595 37.1533 16.0595H33.2847V20.0183C33.2847 20.5412 32.7738 21.064 32.1898 21.064ZM29.4161 18.8232H31.0949V14.8643C31.0949 14.2668 31.6059 13.7439 32.1898 13.7439H36.0584V12.0259H32.1898C31.6059 12.0259 31.0949 11.503 31.0949 10.9055V7.02134H29.4161V10.9802C29.4161 11.5777 28.9051 12.1006 28.3212 12.1006H24.4526V13.8186H28.3212C28.9051 13.8186 29.4161 14.3415 29.4161 14.939V18.8232Z" fill="white"/>
</g>
<defs>
<clipPath id="clip0_1_2421">
<rect width="60" height="49" fill="white"/>
</clipPath>
</defs>
</svg>
