<svg width="60" height="61" viewBox="0 0 60 61" fill="none" xmlns="http://www.w3.org/2000/svg">
<path d="M59 48.0038H56.31C57.0693 47.503 57.7047 46.8361 58.1683 46.0536C58.6319 45.2711 58.9116 44.3934 58.9861 43.4869C59.0606 42.5804 58.9281 41.6689 58.5985 40.8211C58.2689 39.9734 57.7509 39.2117 57.0836 38.5936C56.4164 37.9755 55.6173 37.5172 54.7469 37.2533C53.8765 36.9895 52.9574 36.927 52.0593 37.0705C51.1611 37.2141 50.3074 37.5599 49.5626 38.082C48.8177 38.604 48.2014 39.2885 47.76 40.0838C47 37.7338 44.41 36.0038 41.34 36.0038H28V18.0038C28 17.7386 27.8946 17.4843 27.7071 17.2967C27.5196 17.1092 27.2652 17.0038 27 17.0038H21C20.7348 17.0038 20.4804 17.1092 20.2929 17.2967C20.1054 17.4843 20 17.7386 20 18.0038V18.1338L9.81 11.3038C10.9504 10.7007 11.866 9.74601 12.421 8.58144C12.9761 7.41687 13.141 6.10442 12.8913 4.83874C12.6416 3.57306 11.9906 2.42156 11.0349 1.55503C10.0792 0.688492 8.86961 0.153077 7.58559 0.0281877C6.30158 -0.0967012 5.01151 0.195588 3.90671 0.861705C2.80191 1.52782 1.94123 2.53229 1.45232 3.72613C0.963407 4.91997 0.872304 6.2396 1.19252 7.4893C1.51274 8.739 2.22722 9.85221 3.23 10.6638C1.3 12.0038 0 15.3238 0 19.3938V60.0038H2V50.0038H58V60.0038H60V49.0038C60 48.7386 59.8946 48.4843 59.7071 48.2967C59.5196 48.1092 59.2652 48.0038 59 48.0038ZM53 39.0038C53.7911 39.0038 54.5645 39.2384 55.2223 39.678C55.8801 40.1175 56.3928 40.7422 56.6955 41.4731C56.9983 42.204 57.0775 43.0083 56.9231 43.7842C56.7688 44.5601 56.3878 45.2729 55.8284 45.8323C55.269 46.3917 54.5563 46.7726 53.7804 46.927C53.0044 47.0813 52.2002 47.0021 51.4693 46.6994C50.7384 46.3966 50.1136 45.8839 49.6741 45.2261C49.2346 44.5683 49 43.795 49 43.0038C49 41.943 49.4214 40.9256 50.1716 40.1754C50.9217 39.4253 51.9391 39.0038 53 39.0038ZM7 2.00383C7.79113 2.00383 8.56448 2.23843 9.22228 2.67795C9.88008 3.11748 10.3928 3.74219 10.6955 4.4731C10.9983 5.204 11.0775 6.00827 10.9231 6.78419C10.7688 7.56012 10.3878 8.27285 9.82843 8.83226C9.26902 9.39167 8.55628 9.77263 7.78036 9.92697C7.00444 10.0813 6.20017 10.0021 5.46927 9.69935C4.73836 9.3966 4.11365 8.88391 3.67412 8.22611C3.2346 7.56832 3 6.79496 3 6.00383C3 4.94297 3.42143 3.92555 4.17157 3.1754C4.92172 2.42526 5.93913 2.00383 7 2.00383ZM2 19.3938C2 15.1638 3.7 12.0038 5.22 12.0038H7.27L20 20.5338V23.2038L13.53 19.1538C13.3785 19.0591 13.2044 19.0068 13.0257 19.0022C12.8471 18.9976 12.6705 19.0409 12.5144 19.1277C12.3582 19.2144 12.2281 19.3415 12.1376 19.4956C12.0472 19.6496 11.9996 19.8252 12 20.0038V42.0038H8V31.0038H6V42.0038H2V19.3938ZM20 25.5538V42.0038H14V21.8038L20 25.5538ZM2 48.0038V44.0038H21C21.2652 44.0038 21.5196 43.8985 21.7071 43.7109C21.8946 43.5234 22 43.2691 22 43.0038V19.0038H26V37.0038C26 37.2691 26.1054 37.5234 26.2929 37.7109C26.4804 37.8985 26.7348 38.0038 27 38.0038H41.34C43.91 38.0038 46 39.5838 46 41.5238V44.5238C46 46.4238 43.91 48.0038 41.34 48.0038H2ZM47.76 45.9238C48.2278 46.7615 48.8896 47.4748 49.69 48.0038H46.47C47.0585 47.4223 47.5006 46.7094 47.76 45.9238Z" fill="white"/>
</svg>
