<svg width="51" height="64" viewBox="0 0 51 64" fill="none" xmlns="http://www.w3.org/2000/svg">
<path d="M25.1774 41.6488C20.9579 41.6488 16.993 40.0037 14.0124 37.0231C11.0318 34.0425 9.38672 30.0776 9.38672 25.8581C9.38672 21.6386 11.0318 17.6737 14.0124 14.6931C16.993 11.7125 20.9579 10.0674 25.1774 10.0674C29.3969 10.0674 33.3618 11.7125 36.3424 14.6931C39.323 17.6737 40.9681 21.6386 40.9681 25.8581C40.9681 30.0776 39.323 34.0425 36.3424 37.0231C33.355 40.0105 29.3969 41.6488 25.1774 41.6488ZM25.1774 12.1462C17.6124 12.1462 11.4589 18.3001 11.4589 25.8647C11.4589 33.4294 17.6128 39.5833 25.1774 39.5833C32.742 39.5833 38.8959 33.4294 38.8959 25.8647C38.8959 18.3001 32.742 12.1462 25.1774 12.1462Z" fill="white"/>
<path d="M22.8301 32.0611L17.3164 26.5473L18.7757 25.088L22.8301 29.1424L31.579 20.4004L33.0384 21.8597L22.8301 32.0611Z" fill="white"/>
<path d="M25.1781 51.0529C24.1938 51.0529 23.2094 50.812 22.3077 50.3302C22.1218 50.2338 21.9428 50.1237 21.7707 50.0067C21.4472 49.7933 21.1443 49.5386 20.869 49.2632L18.2395 46.6337C17.4823 45.8765 16.4704 45.4566 15.3966 45.4566H11.6795C8.32033 45.4566 5.5877 42.7239 5.5877 39.3648V35.6477C5.5877 34.5877 5.16093 33.5482 4.41062 32.8049L1.78108 30.1753C-0.593695 27.8005 -0.593695 23.9389 1.78108 21.5641L4.41062 18.9346C5.16092 18.1843 5.5877 17.1448 5.5877 16.0917V12.3746C5.5877 9.01542 8.32045 6.28279 11.6795 6.28279H15.3966C16.4704 6.28279 17.4822 5.8629 18.2395 5.10571L20.869 2.47617C22.0185 1.32663 23.5466 0.693359 25.178 0.693359C26.8094 0.693359 28.3307 1.32663 29.487 2.47617L32.1166 5.10571C32.8737 5.86978 33.8857 6.28279 34.9595 6.28279H38.6765C42.0357 6.28279 44.7683 9.01554 44.7683 12.3746V16.0917C44.7683 17.1655 45.1882 18.1773 45.9454 18.9346L48.5749 21.5641C50.9497 23.9389 50.9497 27.8005 48.5749 30.1753L45.9454 32.8049C45.1882 33.562 44.7683 34.574 44.7683 35.6477V39.3648C44.7683 42.724 42.0356 45.4566 38.6765 45.4566H34.9595C33.8856 45.4566 32.8738 45.8765 32.1166 46.6337L29.487 49.2632C29.2117 49.5386 28.9088 49.7933 28.5853 50.0067C28.4201 50.1237 28.2342 50.2269 28.0484 50.3302C27.1466 50.812 26.1624 51.0529 25.1779 51.0529H25.1781ZM11.6723 8.34042C9.45588 8.34042 7.6455 10.1439 7.6455 12.3672V16.0843C7.6455 17.7087 7.01223 19.2369 5.86269 20.3865L3.23315 23.016C1.66369 24.5855 1.66369 27.1393 3.23315 28.7087L5.86269 31.3383C7.01223 32.4878 7.6455 34.0159 7.6455 35.6473V39.3643C7.6455 41.5808 9.44896 43.3911 11.6723 43.3911H15.3894C17.0138 43.3911 18.542 44.0244 19.6984 45.174L22.3279 47.8035C22.5138 47.9894 22.7134 48.1546 22.9268 48.2991C23.0369 48.3748 23.1539 48.4437 23.2778 48.5125C24.4687 49.1458 25.8867 49.1458 27.0707 48.5125C27.1946 48.4505 27.3116 48.3748 27.4217 48.306C27.6351 48.1614 27.8416 47.9962 28.0206 47.8104L30.6501 45.1808C31.7997 44.0313 33.3277 43.398 34.9591 43.398H38.6762C40.8926 43.398 42.703 41.5946 42.703 39.3712V35.6542C42.703 34.0297 43.3363 32.4946 44.4858 31.3452L47.1154 28.7156C48.6848 27.1462 48.6848 24.5924 47.1154 23.0229L44.4858 20.3934C43.3363 19.2438 42.703 17.7158 42.703 16.0844V12.3673C42.703 10.1509 40.8995 8.34051 38.6762 8.34051H34.9591C33.3347 8.34051 31.7996 7.70723 30.6501 6.55769L28.0206 3.92815C26.4511 2.35869 23.8974 2.35869 22.3279 3.92815L19.6984 6.55769C18.5488 7.70723 17.0207 8.34051 15.3893 8.34051L11.6723 8.34042Z" fill="white"/>
<path d="M17.7218 64.0003L12.9723 58.1631L5.53125 59.292L11.6713 43.3984H15.3883C17.0128 43.3984 18.541 44.0317 19.6973 45.1813L22.3269 47.8108C22.5127 47.9967 22.7124 48.1619 22.9257 48.3064L23.6072 48.7676L17.7218 64.0003ZM13.8327 55.9397L17.0817 59.9322L21.1154 49.4968C21.0328 49.4211 20.9502 49.3454 20.8745 49.2697L18.2449 46.6401C17.4877 45.883 16.4758 45.4631 15.402 45.4631H13.0961L8.74582 56.7175L13.8327 55.9397Z" fill="white"/>
<path d="M32.6354 63.9991L26.75 48.7588L27.4315 48.2976C27.6449 48.1531 27.8445 47.9879 28.0303 47.802L30.6599 45.1725C31.8094 44.0229 33.3375 43.3896 34.9689 43.3896H38.6859L44.826 59.2832L37.3849 58.1543L32.6354 63.9991ZM29.2418 49.4951L33.2756 59.9374L36.5245 55.9449L41.6114 56.7159L37.2611 45.4614H34.9552C33.8814 45.4614 32.8695 45.8813 32.1123 46.6385L29.4828 49.268C29.407 49.3437 29.3244 49.4195 29.2418 49.4952L29.2418 49.4951Z" fill="white"/>
</svg>
