<svg width="60" height="61" viewBox="0 0 60 61" fill="none" xmlns="http://www.w3.org/2000/svg">
<path d="M58.1975 39.0681C56.4459 36.3057 50.9212 28.5576 50.5847 28.0862C50.0457 27.2779 49.2374 26.7389 48.2942 26.604C47.2838 26.4019 46.2057 26.6712 45.3296 27.2779C43.5781 28.4904 43.0391 30.8487 44.1844 32.533L45.4646 35.0257L38.9294 32.3981L31.8551 17.7782L35.83 19.7995C37.9862 21.1469 40.7481 20.4735 42.0954 18.3173C42.7694 17.3069 42.9714 16.0268 42.7017 14.8814C42.4324 13.669 41.6913 12.6581 40.6804 11.9847C40.0741 11.5805 29.6312 4.57341 25.9257 2.28286C21.2769 -0.546802 15.348 -0.7488 10.0931 1.74381C5.91662 3.69738 2.7501 7.13327 1.13292 11.3779C-0.483791 15.622 -0.349286 20.2708 1.40267 24.4482L9.75702 42.3694C10.5653 44.0537 12.1824 44.9969 13.934 44.9969C14.6079 44.9969 15.2142 44.862 15.8876 44.5927C16.7636 44.1886 17.437 43.5823 17.8412 42.8412L18.9192 45.1317C19.4583 46.277 20.3343 47.0853 21.5468 47.49C22.0858 47.6921 22.5572 47.7593 23.0962 47.7593C23.7025 47.7593 24.2415 47.6244 24.8478 47.4223L25.6566 47.6921C25.1847 48.0962 24.7806 48.5681 24.5113 49.1743C24.0395 50.1847 24.0395 51.1956 24.4441 52.2059C24.8483 53.1491 25.5222 53.823 26.4654 54.1595L40.5463 59.6843C42.0285 60.2234 43.578 60.4926 45.0603 60.4926C50.6522 60.4926 56.1094 57.124 58.6022 51.6669C60.6235 47.3551 60.4214 42.6391 58.1981 39.0682L58.1975 39.0681ZM22.2204 45.5356C21.6142 45.3335 21.0751 44.8617 20.8053 44.2554L18.1778 38.6635C18.1778 38.5963 18.1106 38.5286 18.1106 38.5286L12.5187 26.6711C12.2494 26.1321 11.6427 25.93 11.1713 26.1993C10.6323 26.4686 10.4302 27.0753 10.6995 27.5466L16.2914 39.4041C16.8977 40.6843 16.3586 42.1665 15.079 42.7727C13.7987 43.379 12.3165 42.8399 11.7103 41.5603L3.28871 23.6391C-0.012673 15.9586 3.35592 7.20015 10.902 3.6294C15.5508 1.47323 20.7386 1.60809 24.8481 4.10123C28.5538 6.32454 39.468 13.6682 39.5354 13.7353C40.1416 14.0723 40.4786 14.6785 40.6807 15.3524C40.8155 16.0263 40.6807 16.6997 40.3437 17.3059C40.0067 17.9122 39.4005 18.2491 38.7266 18.4512C38.0527 18.5861 37.3793 18.4512 36.7731 18.1143C36.7731 18.1143 36.7059 18.1143 36.7059 18.0471L29.3624 14.2743C29.0254 14.0722 28.6212 14.1394 28.2843 14.3415C24.5787 16.969 18.5825 16.4977 15.4835 13.3983C15.0793 12.9941 14.4054 12.9941 14.0013 13.3983C13.5971 13.8025 13.5971 14.4764 14.0013 14.8805C17.6391 18.5184 24.242 19.1924 28.8233 16.4976L35.8975 31.3196L33.5392 30.1743C32.394 29.7025 31.181 29.905 30.1033 30.5113L26.9368 23.774C26.6675 23.2349 26.0608 23.0329 25.5895 23.3022C25.0504 23.5714 24.8484 24.1781 25.1177 24.6495L28.6212 32.0607C28.554 32.1279 28.554 32.1956 28.4863 32.33C28.217 32.9363 28.0821 33.5425 28.1493 34.2165L27.1389 33.8123C26.0609 33.4081 24.9156 33.4753 23.9051 34.0144L21.6818 29.2984C21.4126 28.7594 20.8059 28.5573 20.3345 28.8266C19.7955 29.0959 19.5934 29.7026 19.8627 30.1739L22.3553 35.4961C22.2881 35.631 22.2205 35.7654 22.1533 35.9679C21.6814 36.9783 21.6814 37.9893 22.0861 38.9996C22.423 39.7407 22.962 40.3469 23.6355 40.7512C23.1637 41.1553 22.7595 41.6272 22.4902 42.2334C22.0184 43.2438 22.0184 44.2547 22.423 45.265C22.4902 45.3999 22.5579 45.5343 22.6251 45.6692C22.4226 45.6025 22.3554 45.5353 22.2205 45.5353L22.2204 45.5356ZM56.7826 50.7907C54.0202 56.7869 47.2157 59.8863 41.2869 57.7977L27.206 52.2729C26.8018 52.138 26.5321 51.8011 26.33 51.3969C26.1279 50.9928 26.1951 50.4537 26.3972 49.9818C26.8014 49.0387 27.9467 48.5668 28.8226 48.9038L38.1874 52.6094C38.7265 52.8115 39.3327 52.5422 39.5348 52.0032C39.7369 51.4641 39.4676 50.8579 38.9285 50.6558L29.5637 47.0179L29.4288 46.9507C29.4288 46.9507 24.8477 45.1315 24.7129 45.0643C24.4436 44.9294 24.3087 44.6601 24.1738 44.3904C23.9717 43.9862 24.0389 43.4472 24.241 42.9753C24.4431 42.4363 24.9149 42.0993 25.3863 41.8972C25.7905 41.7623 36.0312 45.6028 36.0312 45.6028C36.5702 45.8049 37.1765 45.5356 37.3785 44.9966C37.5806 44.4576 37.3113 43.8513 36.7723 43.6493L24.7126 38.9333C24.3084 38.7984 24.0386 38.4614 23.8366 38.0573C23.6345 37.6531 23.7017 37.1141 23.9038 36.6422C24.1059 36.2381 24.3756 35.9683 24.7121 35.699C25.1839 35.4297 25.7902 35.2949 26.3292 35.497L40.3427 41.0218C40.8817 41.2238 41.488 40.9546 41.69 40.4155C41.8921 39.8765 41.6228 39.2702 41.0838 39.0682L31.2471 35.1606C30.7753 34.9585 30.4388 34.6215 30.3039 34.2174C30.1019 33.8132 30.1691 33.3414 30.3039 32.9372C30.4388 32.6002 30.7081 32.3309 30.9778 32.1288C31.5169 31.7247 32.1903 31.5898 32.7294 31.8595L47.2158 37.9225C47.6199 38.0574 48.0918 37.9897 48.361 37.6532C48.6303 37.3162 48.698 36.8449 48.4959 36.5079C48.4959 36.5079 45.8013 31.455 45.8013 31.3877C45.2622 30.5794 45.532 29.5013 46.4075 28.895C46.8117 28.6258 47.3507 28.4909 47.8226 28.5581C48.2267 28.6253 48.5637 28.895 48.833 29.232C48.9002 29.2992 54.627 37.3843 56.3786 40.1463C58.3322 43.1103 58.467 47.0852 56.7828 50.7908L56.7826 50.7907Z" fill="white"/>
</svg>
