<svg width="63" height="50" viewBox="0 0 63 50" fill="none" xmlns="http://www.w3.org/2000/svg">
<mask id="path-1-inside-1_1_2813" fill="white">
<path d="M16.1085 23.9751C16.1085 24.5704 15.9283 25.1524 15.5905 25.6474C15.2528 26.1424 14.7728 26.5283 14.2112 26.7561C13.6496 26.9839 13.0317 27.0435 12.4355 26.9274C11.8393 26.8112 11.2916 26.5246 10.8618 26.1036C10.432 25.6826 10.1392 25.1463 10.0206 24.5624C9.90205 23.9785 9.96291 23.3732 10.1955 22.8232C10.4281 22.2732 10.8221 21.8031 11.3275 21.4723C11.8329 21.1416 12.4271 20.965 13.035 20.965C13.8502 20.965 14.6319 21.2822 15.2083 21.8467C15.7847 22.4112 16.1085 23.1768 16.1085 23.9751ZM24.3203 20.965C23.7125 20.965 23.1182 21.1416 22.6128 21.4723C22.1074 21.8031 21.7134 22.2732 21.4808 22.8232C21.2482 23.3732 21.1873 23.9785 21.3059 24.5624C21.4245 25.1463 21.7172 25.6826 22.147 26.1036C22.5769 26.5246 23.1245 26.8113 23.7207 26.9274C24.3169 27.0436 24.9349 26.984 25.4965 26.7561C26.0581 26.5283 26.5381 26.1425 26.8758 25.6474C27.2136 25.1524 27.3938 24.5704 27.3938 23.9751C27.3938 23.5798 27.3143 23.1884 27.1599 22.8232C27.0054 22.458 26.779 22.1262 26.4936 21.8466C26.2082 21.5671 25.8694 21.3454 25.4965 21.1941C25.1236 21.0429 24.724 20.965 24.3203 20.965ZM35.6057 20.965C34.9978 20.965 34.4035 21.1415 33.8981 21.4723C33.3927 21.8031 32.9987 22.2732 32.7661 22.8232C32.5335 23.3732 32.4726 23.9785 32.5912 24.5624C32.7098 25.1463 33.0025 25.6826 33.4323 26.1036C33.8622 26.5246 34.4098 26.8113 35.006 26.9274C35.6022 27.0436 36.2202 26.984 36.7818 26.7561C37.3434 26.5283 37.8234 26.1425 38.1611 25.6475C38.4989 25.1524 38.6791 24.5704 38.6791 23.9751C38.6791 23.1768 38.3553 22.4112 37.7789 21.8467C37.2025 21.2822 36.4208 20.965 35.6057 20.965ZM63 5.10027V27.8017C62.9984 29.048 62.5317 30.2507 61.6876 31.1833C60.8435 32.1159 59.6803 32.7141 58.4172 32.8652L60.1904 40.3756C60.2734 40.7271 60.241 41.0954 60.0979 41.4278C59.9547 41.7603 59.7081 42.04 59.3931 42.2272C59.0782 42.4143 58.7109 42.4994 58.3437 42.4702C57.9765 42.4411 57.6281 42.2992 57.348 42.0648L48.6411 34.7742V35.3256C48.6396 36.6778 48.0905 37.9742 47.1142 38.9304C46.1379 39.8866 44.8142 40.4244 43.4335 40.4258H16.5936L5.65127 49.5886C5.37125 49.8232 5.02279 49.9652 4.65554 49.9944C4.2883 50.0236 3.92101 49.9385 3.60601 49.7513C3.29101 49.5641 3.04437 49.2844 2.90124 48.9518C2.75811 48.6193 2.72579 48.251 2.80889 47.8995L4.58213 40.389C3.31912 40.2378 2.15612 39.6396 1.31216 38.707C0.468203 37.7744 0.00151968 36.5718 0 35.3256V12.6248C0.00146199 11.2726 0.550589 9.97612 1.52689 9.01995C2.50319 8.06378 3.82692 7.52597 5.20761 7.52453H14.3582V5.10027C14.3597 3.74804 14.9088 2.45159 15.8851 1.49542C16.8614 0.53924 18.1851 0.00143186 19.5658 0H57.7924C59.1731 0.00143186 60.4968 0.53924 61.4731 1.49542C62.4494 2.45159 62.9985 3.74804 63 5.10027ZM45.1411 12.6248C45.1405 12.1814 44.9604 11.7564 44.6403 11.4429C44.3202 11.1294 43.8862 10.953 43.4335 10.9524H5.20761C4.75491 10.953 4.32093 11.1294 4.00082 11.4429C3.68071 11.7564 3.50061 12.1814 3.5 12.6248V35.3256C3.50061 35.7689 3.68071 36.194 4.00082 36.5075C4.32093 36.821 4.75491 36.9974 5.20761 36.998H6.77441C7.03775 36.998 7.2977 37.0562 7.53487 37.1682C7.77205 37.2803 7.98034 37.4434 8.14422 37.6453C8.3081 37.8471 8.42335 38.0826 8.48137 38.3342C8.53938 38.5858 8.53867 38.8469 8.4793 39.0982L7.41631 43.6006L14.8101 37.4091C15.1272 37.1438 15.5305 36.9981 15.9476 36.998H43.4335C43.8862 36.9974 44.3202 36.821 44.6403 36.5075C44.9604 36.194 45.1405 35.7689 45.1411 35.3256V12.6248ZM59.5 5.10027C59.4994 4.6569 59.3193 4.23186 58.9992 3.91834C58.6791 3.60483 58.2451 3.42844 57.7924 3.42785H19.5658C19.1131 3.42844 18.6791 3.60483 18.359 3.91834C18.0389 4.23185 17.8588 4.65689 17.8582 5.10026V7.52453H43.4335C44.8142 7.52597 46.1379 8.06378 47.1142 9.01995C48.0905 9.97612 48.6396 11.2726 48.6411 12.6248V30.2636L55.583 36.0767L54.52 31.5744C54.4606 31.3231 54.4599 31.0619 54.518 30.8104C54.576 30.5588 54.6912 30.3233 54.8551 30.1214C55.019 29.9195 55.2273 29.7565 55.4644 29.6444C55.7016 29.5323 55.9616 29.4741 56.2249 29.4741H57.7924C58.2451 29.4735 58.6791 29.2971 58.9992 28.9836C59.3193 28.6701 59.4994 28.2451 59.5 27.8017V5.10027Z"/>
</mask>
<path d="M16.1085 23.9751C16.1085 24.5704 15.9283 25.1524 15.5905 25.6474C15.2528 26.1424 14.7728 26.5283 14.2112 26.7561C13.6496 26.9839 13.0317 27.0435 12.4355 26.9274C11.8393 26.8112 11.2916 26.5246 10.8618 26.1036C10.432 25.6826 10.1392 25.1463 10.0206 24.5624C9.90205 23.9785 9.96291 23.3732 10.1955 22.8232C10.4281 22.2732 10.8221 21.8031 11.3275 21.4723C11.8329 21.1416 12.4271 20.965 13.035 20.965C13.8502 20.965 14.6319 21.2822 15.2083 21.8467C15.7847 22.4112 16.1085 23.1768 16.1085 23.9751ZM24.3203 20.965C23.7125 20.965 23.1182 21.1416 22.6128 21.4723C22.1074 21.8031 21.7134 22.2732 21.4808 22.8232C21.2482 23.3732 21.1873 23.9785 21.3059 24.5624C21.4245 25.1463 21.7172 25.6826 22.147 26.1036C22.5769 26.5246 23.1245 26.8113 23.7207 26.9274C24.3169 27.0436 24.9349 26.984 25.4965 26.7561C26.0581 26.5283 26.5381 26.1425 26.8758 25.6474C27.2136 25.1524 27.3938 24.5704 27.3938 23.9751C27.3938 23.5798 27.3143 23.1884 27.1599 22.8232C27.0054 22.458 26.779 22.1262 26.4936 21.8466C26.2082 21.5671 25.8694 21.3454 25.4965 21.1941C25.1236 21.0429 24.724 20.965 24.3203 20.965ZM35.6057 20.965C34.9978 20.965 34.4035 21.1415 33.8981 21.4723C33.3927 21.8031 32.9987 22.2732 32.7661 22.8232C32.5335 23.3732 32.4726 23.9785 32.5912 24.5624C32.7098 25.1463 33.0025 25.6826 33.4323 26.1036C33.8622 26.5246 34.4098 26.8113 35.006 26.9274C35.6022 27.0436 36.2202 26.984 36.7818 26.7561C37.3434 26.5283 37.8234 26.1425 38.1611 25.6475C38.4989 25.1524 38.6791 24.5704 38.6791 23.9751C38.6791 23.1768 38.3553 22.4112 37.7789 21.8467C37.2025 21.2822 36.4208 20.965 35.6057 20.965ZM63 5.10027V27.8017C62.9984 29.048 62.5317 30.2507 61.6876 31.1833C60.8435 32.1159 59.6803 32.7141 58.4172 32.8652L60.1904 40.3756C60.2734 40.7271 60.241 41.0954 60.0979 41.4278C59.9547 41.7603 59.7081 42.04 59.3931 42.2272C59.0782 42.4143 58.7109 42.4994 58.3437 42.4702C57.9765 42.4411 57.6281 42.2992 57.348 42.0648L48.6411 34.7742V35.3256C48.6396 36.6778 48.0905 37.9742 47.1142 38.9304C46.1379 39.8866 44.8142 40.4244 43.4335 40.4258H16.5936L5.65127 49.5886C5.37125 49.8232 5.02279 49.9652 4.65554 49.9944C4.2883 50.0236 3.92101 49.9385 3.60601 49.7513C3.29101 49.5641 3.04437 49.2844 2.90124 48.9518C2.75811 48.6193 2.72579 48.251 2.80889 47.8995L4.58213 40.389C3.31912 40.2378 2.15612 39.6396 1.31216 38.707C0.468203 37.7744 0.00151968 36.5718 0 35.3256V12.6248C0.00146199 11.2726 0.550589 9.97612 1.52689 9.01995C2.50319 8.06378 3.82692 7.52597 5.20761 7.52453H14.3582V5.10027C14.3597 3.74804 14.9088 2.45159 15.8851 1.49542C16.8614 0.53924 18.1851 0.00143186 19.5658 0H57.7924C59.1731 0.00143186 60.4968 0.53924 61.4731 1.49542C62.4494 2.45159 62.9985 3.74804 63 5.10027ZM45.1411 12.6248C45.1405 12.1814 44.9604 11.7564 44.6403 11.4429C44.3202 11.1294 43.8862 10.953 43.4335 10.9524H5.20761C4.75491 10.953 4.32093 11.1294 4.00082 11.4429C3.68071 11.7564 3.50061 12.1814 3.5 12.6248V35.3256C3.50061 35.7689 3.68071 36.194 4.00082 36.5075C4.32093 36.821 4.75491 36.9974 5.20761 36.998H6.77441C7.03775 36.998 7.2977 37.0562 7.53487 37.1682C7.77205 37.2803 7.98034 37.4434 8.14422 37.6453C8.3081 37.8471 8.42335 38.0826 8.48137 38.3342C8.53938 38.5858 8.53867 38.8469 8.4793 39.0982L7.41631 43.6006L14.8101 37.4091C15.1272 37.1438 15.5305 36.9981 15.9476 36.998H43.4335C43.8862 36.9974 44.3202 36.821 44.6403 36.5075C44.9604 36.194 45.1405 35.7689 45.1411 35.3256V12.6248ZM59.5 5.10027C59.4994 4.6569 59.3193 4.23186 58.9992 3.91834C58.6791 3.60483 58.2451 3.42844 57.7924 3.42785H19.5658C19.1131 3.42844 18.6791 3.60483 18.359 3.91834C18.0389 4.23185 17.8588 4.65689 17.8582 5.10026V7.52453H43.4335C44.8142 7.52597 46.1379 8.06378 47.1142 9.01995C48.0905 9.97612 48.6396 11.2726 48.6411 12.6248V30.2636L55.583 36.0767L54.52 31.5744C54.4606 31.3231 54.4599 31.0619 54.518 30.8104C54.576 30.5588 54.6912 30.3233 54.8551 30.1214C55.019 29.9195 55.2273 29.7565 55.4644 29.6444C55.7016 29.5323 55.9616 29.4741 56.2249 29.4741H57.7924C58.2451 29.4735 58.6791 29.2971 58.9992 28.9836C59.3193 28.6701 59.4994 28.2451 59.5 27.8017V5.10027Z" fill="white" stroke="#7EA903" stroke-width="1.4" mask="url(#path-1-inside-1_1_2813)"/>
</svg>
