<svg width="64" height="69" viewBox="0 0 64 69" fill="none" xmlns="http://www.w3.org/2000/svg">
<path d="M39.4101 2.72573e-05C37.3271 2.72573e-05 35.3686 0.810785 33.8958 2.28395L31.5141 4.66573L29.1323 2.28395C27.6591 0.810785 25.701 2.72573e-05 23.618 2.72573e-05C21.535 2.72573e-05 19.577 0.810785 18.1042 2.28395C16.6316 3.75657 15.8203 5.71521 15.8203 7.7977C15.8203 9.88019 16.6311 11.8387 18.1037 13.3115L31.3699 26.5777L31.514 26.4352L31.6576 26.5788L44.9238 13.3125C46.3964 11.8399 47.2077 9.88126 47.2077 7.79876C47.2077 5.71627 46.397 3.75777 44.9238 2.28501C43.4512 0.810758 41.4925 0 39.41 0L39.4101 2.72573e-05ZM31.6576 23.7402L31.5141 23.5972L31.37 23.7413L19.5222 11.8924C18.4286 10.7988 17.8263 9.3442 17.8263 7.79713C17.8263 6.25006 18.4286 4.79541 19.5228 3.70183C20.6164 2.60823 22.0716 2.00532 23.6181 2.00532C25.1646 2.00532 26.6198 2.60768 27.7134 3.70183L30.0952 6.08361L31.5142 7.50206L35.3144 3.70183C36.408 2.60823 37.8632 2.00532 39.4102 2.00532C40.9573 2.00532 42.412 2.60768 43.5055 3.70183C44.5991 4.79543 45.202 6.25061 45.202 7.79713C45.202 9.3442 44.5997 10.7989 43.5055 11.8924L31.6576 23.7402Z" fill="white"/>
<path d="M43.0427 55.7922C44.954 54.4615 47.5128 53.6438 50.3252 53.6438C56.0446 53.6438 60.7311 57.0155 61.0123 61.2405L48.4442 61.2399V63.2458H62.909L62.9973 62.2245C63.0148 62.0315 63.0308 61.8391 63.0308 61.6424C63.0308 56.126 57.3304 51.6367 50.3245 51.6367C46.805 51.6367 43.6156 52.7707 41.3125 54.598C41.9739 54.8697 42.5587 55.2812 43.0425 55.7921L43.0427 55.7922Z" fill="white"/>
<path d="M50.022 49.6216C53.9998 49.6216 57.2237 45.8596 57.2237 41.2195C57.2237 36.5787 53.9988 32.8174 50.022 32.8174C46.0442 32.8174 42.8203 36.5794 42.8203 41.2195C42.8198 45.8597 46.0447 49.6216 50.022 49.6216ZM55.2173 41.2189C55.2173 44.7453 52.8865 47.6152 50.0215 47.6152C47.1564 47.6152 44.8256 44.7453 44.8256 41.2189C44.8256 37.6925 47.1564 34.8227 50.0215 34.8227C52.8865 34.8227 55.2173 37.692 55.2173 41.2189Z" fill="white"/>
<path d="M14.5874 61.7408H2.0192C2.30045 57.5164 6.98637 54.1442 12.7063 54.1442C15.3907 54.1442 17.8388 54.8933 19.7198 56.1182C20.1541 55.5754 20.6937 55.1304 21.3153 54.8056C19.0484 53.1553 16.0296 52.1377 12.7063 52.1377C5.6998 52.1377 0 56.6259 0 62.1433C0 62.3401 0.0159492 62.533 0.0334927 62.7255L0.121747 63.7468L14.588 63.7473L14.5874 61.7408Z" fill="white"/>
<path d="M5.20312 41.7205C5.20312 46.3613 8.42806 50.1226 12.4048 50.1226C16.3827 50.1226 19.6065 46.3606 19.6065 41.7205C19.6065 37.0803 16.3816 33.3184 12.4048 33.3184C8.42697 33.3184 5.20312 37.0803 5.20312 41.7205ZM12.4048 48.1167C9.53973 48.1167 7.20899 45.2469 7.20899 41.7205C7.20899 38.1941 9.53973 35.3242 12.4048 35.3242C15.2699 35.3242 17.6006 38.1941 17.6006 41.7205C17.6006 45.2479 15.2699 48.1167 12.4048 48.1167Z" fill="white"/>
<path d="M17.4727 66.9236C17.4727 67.1368 17.4903 67.3473 17.5094 67.5568L17.5993 68.5951H45.4334L45.5227 67.5621C45.5424 67.35 45.56 67.1384 45.56 66.9226C45.56 60.8384 39.26 55.8877 31.5156 55.8877C23.7727 55.8882 17.4727 60.8395 17.4727 66.9236L17.4727 66.9236ZM31.5171 57.8952C38.0053 57.8952 43.3111 61.7656 43.5467 66.5892H19.488C19.7235 61.7656 25.0294 57.8952 31.5176 57.8952H31.5171Z" fill="white"/>
<path d="M39.2056 44.8545C39.2056 39.6837 35.6128 35.4922 31.1809 35.4922C26.7491 35.4922 23.1562 39.6843 23.1562 44.8545C23.1562 50.0253 26.7491 54.2168 31.1809 54.2168C35.6128 54.2168 39.2056 50.0247 39.2056 44.8545ZM31.1804 52.2109C27.8618 52.2109 25.1616 48.911 25.1616 44.8545C25.1616 40.798 27.8618 37.4981 31.1804 37.4981C34.499 37.4981 37.1992 40.798 37.1992 44.8545C37.1992 48.9105 34.4995 52.2109 31.1804 52.2109Z" fill="white"/>
</svg>
