<svg width="47" height="58" viewBox="0 0 47 58" fill="none" xmlns="http://www.w3.org/2000/svg">
<path d="M23.2143 42.4651C21.5659 42.4651 19.9856 41.8104 18.8199 40.6452C17.6547 39.4796 17 37.8992 17 36.2508V28.483C17 27.911 17.4638 27.4473 18.0357 27.4473C18.6077 27.4473 19.0714 27.911 19.0714 28.483V36.2508C19.0714 37.7309 19.8612 39.0986 21.1429 39.8388C22.4245 40.5786 24.004 40.5786 25.2857 39.8388C26.5674 39.0985 27.3571 37.7308 27.3571 36.2508V28.483C27.3571 27.911 27.8209 27.4473 28.3929 27.4473C28.9648 27.4473 29.4286 27.911 29.4286 28.483V36.2508C29.4286 37.8992 28.7739 39.4795 27.6087 40.6452C26.443 41.8104 24.8627 42.4651 23.2143 42.4651Z" fill="white"/>
<path d="M23.2165 31.0717C20.4696 31.0717 17.8354 29.9805 15.893 28.0381C13.9506 26.0956 12.8594 23.4615 12.8594 20.7146V11.3931C12.8594 10.8212 13.3231 10.3574 13.8951 10.3574H32.5379C32.8126 10.3574 33.0762 10.4665 33.2703 10.6607C33.4645 10.8549 33.5737 11.1185 33.5737 11.3931V20.7146C33.5737 23.4615 32.4825 26.0957 30.54 28.0381C28.5976 29.9805 25.9635 31.0717 23.2165 31.0717ZM14.9308 12.4289V20.7146C14.9308 23.6747 16.5103 26.41 19.0737 27.8901C21.637 29.3702 24.796 29.3702 27.3594 27.8901C29.9227 26.41 31.5022 23.6747 31.5022 20.7146V12.4289H14.9308Z" fill="white"/>
<path d="M36.6791 12.4283H9.75056C9.17861 12.4283 8.71484 11.9645 8.71484 11.3926V5.17829C8.71484 4.60634 9.17861 4.14258 9.75056 4.14258H36.6791C36.9538 4.14258 37.2173 4.2517 37.4115 4.44589C37.6057 4.64009 37.7148 4.90364 37.7148 5.17829V11.3926C37.7148 11.6672 37.6057 11.9308 37.4115 12.125C37.2173 12.3192 36.9538 12.4283 36.6791 12.4283ZM10.7863 10.3569H35.6434V6.21401H10.7863V10.3569Z" fill="white"/>
<path d="M40.8242 6.21429H5.60993C5.03798 6.21429 4.57422 5.75052 4.57422 5.17857V1.03571C4.57422 0.463763 5.03798 0 5.60993 0H40.8242C41.0989 0 41.3624 0.10912 41.5566 0.303316C41.7508 0.497512 41.8599 0.761067 41.8599 1.03571V5.17857C41.8599 5.45322 41.7508 5.71678 41.5566 5.91097C41.3624 6.10516 41.0989 6.21429 40.8242 6.21429ZM6.64565 4.14286H39.7885V2.07143H6.64565V4.14286Z" fill="white"/>
<path d="M5.60993 26.9283C5.03798 26.9283 4.57422 26.4645 4.57422 25.8926V5.17829C4.57422 4.60634 5.03798 4.14258 5.60993 4.14258C6.18188 4.14258 6.64565 4.60634 6.64565 5.17829V25.8926C6.64565 26.1672 6.53653 26.4308 6.34233 26.625C6.14814 26.8192 5.88458 26.9283 5.60993 26.9283Z" fill="white"/>
<path d="M7.67857 31.0717H3.53571C2.96376 31.0717 2.5 30.6079 2.5 30.036V25.8931C2.5 25.3212 2.96376 24.8574 3.53571 24.8574H7.67857C7.95322 24.8574 8.21678 24.9665 8.41097 25.1607C8.60516 25.3549 8.71429 25.6185 8.71429 25.8931V30.036C8.71429 30.3106 8.60517 30.5742 8.41097 30.7684C8.21677 30.9626 7.95322 31.0717 7.67857 31.0717ZM4.57143 29.0003H6.64286V26.9289H4.57143V29.0003Z" fill="white"/>
<path d="M36.6802 58.0001H9.75161C9.17966 58.0001 8.7159 57.5363 8.7159 56.9644V36.2501C8.6937 35.76 9.02476 35.324 9.50285 35.2144L17.7886 33.143C18.361 33.0056 18.9357 33.358 19.0731 33.9299C19.2104 34.5023 18.8581 35.0771 18.2861 35.2144L10.7873 37.0579V55.9292H35.6445V37.0579L28.1457 35.2144C27.5737 35.0771 27.2214 34.5024 27.3587 33.9299C27.496 33.358 28.0708 33.0056 28.6432 33.143L36.9289 35.2144C37.3913 35.3207 37.7182 35.7341 37.7159 36.2085V56.9228C37.727 57.2048 37.623 57.479 37.4274 57.6825C37.2323 57.8854 36.9622 58.0001 36.6802 58.0001Z" fill="white"/>
<path d="M9.75112 57.9995H1.4654C0.893451 57.9995 0.429688 57.5358 0.429688 56.9638V54.1882C0.429688 47.0209 2.9154 41.614 9.02612 35.5453C9.28412 35.199 9.73955 35.064 10.1446 35.2138C10.5316 35.3729 10.7845 35.7488 10.7868 36.1668V56.8811C10.8099 57.1696 10.711 57.4549 10.5145 57.6676C10.3175 57.8802 10.0406 58.0005 9.75112 57.9995V57.9995ZM2.50112 55.9281H8.7154V38.8595C6.71795 40.8768 5.14035 43.2706 4.07363 45.9014C3.00694 48.5327 2.47247 51.349 2.50112 54.1881V55.9281Z" fill="white"/>
<path d="M44.966 58.0006H36.6802C36.1083 58.0006 35.6445 57.5368 35.6445 56.9649V36.2506C35.6468 35.8326 35.8998 35.4567 36.2868 35.2976C36.6696 35.1243 37.1209 35.2163 37.4052 35.5256C43.516 41.6155 46.0017 47.022 46.0017 54.1685V56.9649C46.0017 57.2395 45.8926 57.5031 45.6984 57.6973C45.5042 57.8915 45.2406 58.0006 44.966 58.0006ZM37.716 55.9292H43.9302V54.1893C43.9589 51.3504 43.4244 48.5341 42.3577 45.9026C41.291 43.2717 39.7134 40.8781 37.716 38.8607V55.9292Z" fill="white"/>
<path d="M23.2129 51.3497C22.9397 51.346 22.6794 51.2341 22.4879 51.039L9.54092 38.1748C9.34488 37.9806 9.23438 37.7157 9.23438 37.4397C9.23438 37.1636 9.34488 36.8987 9.54092 36.7045C9.72864 36.5038 9.99127 36.3905 10.2659 36.3905C10.5406 36.3905 10.8032 36.5038 10.9909 36.7045L23.2124 48.8431L35.5166 36.5601C35.9171 36.1597 36.5662 36.1597 36.9666 36.5601C37.3671 36.9605 37.3671 37.6097 36.9666 38.0101L23.9581 51.0388C23.7602 51.2371 23.492 51.349 23.2123 51.3495L23.2129 51.3497Z" fill="white"/>
<path d="M23.2129 57.5645C22.9397 57.5608 22.6794 57.4489 22.4879 57.2538L9.54092 44.3897C9.34488 44.1955 9.23438 43.9305 9.23438 43.6545C9.23438 43.3785 9.34488 43.1135 9.54092 42.9193C9.72864 42.7187 9.99127 42.6054 10.2659 42.6054C10.5406 42.6054 10.8032 42.7187 10.9909 42.9193L23.2124 55.0579L35.5166 42.7749C35.9171 42.3745 36.5662 42.3745 36.9666 42.7749C37.3671 43.1753 37.3671 43.8245 36.9666 44.2249L23.9581 57.2536C23.7602 57.452 23.492 57.5639 23.2123 57.5643L23.2129 57.5645Z" fill="white"/>
<path d="M13.8934 18.6431C12.5201 18.6431 11.2029 18.0975 10.2314 17.1266C9.26039 16.1552 8.71484 14.8379 8.71484 13.4646V11.3931C8.71484 10.8212 9.17861 10.3574 9.75056 10.3574H13.8934C14.1681 10.3574 14.4316 10.4665 14.6258 10.6607C14.82 10.8549 14.9291 11.1185 14.9291 11.3931V17.6074C14.9291 17.8821 14.82 18.1456 14.6258 18.3398C14.4316 18.534 14.1681 18.6431 13.8934 18.6431ZM10.7863 12.4289V13.4646C10.7881 14.1054 10.9883 14.7305 11.3591 15.2535C11.73 15.7764 12.2534 16.1717 12.8577 16.3853V12.4288L10.7863 12.4289Z" fill="white"/>
<path d="M32.5357 18.6431C31.9638 18.6431 31.5 18.1794 31.5 17.6074V11.3931C31.5 10.8212 31.9638 10.3574 32.5357 10.3574H36.6786C36.9532 10.3574 37.2168 10.4665 37.411 10.6607C37.6052 10.8549 37.7143 11.1185 37.7143 11.3931V13.4646C37.7143 14.8379 37.1687 16.1551 36.1978 17.1266C35.2263 18.0976 33.909 18.6431 32.5357 18.6431ZM33.5714 12.4289V16.3854C34.1758 16.1718 34.6992 15.7765 35.07 15.2535C35.4408 14.7306 35.641 14.1054 35.6428 13.4646V12.4289L33.5714 12.4289Z" fill="white"/>
</svg>
