<svg width="43" height="61" viewBox="0 0 43 61" fill="none" xmlns="http://www.w3.org/2000/svg">
<path d="M19.5346 32.8667C20.7603 32.7026 21.9375 32.287 22.9903 31.6467C28.4641 31.1275 33.7514 29.41 38.4664 26.6195C38.6518 26.5096 38.799 26.3469 38.8884 26.1527C38.9778 25.9585 39.0052 25.7421 38.9671 25.5322C38.9289 25.3223 38.8269 25.1288 38.6746 24.9774C38.5224 24.8259 38.327 24.7237 38.1145 24.6843C34.9147 24.0743 34.3174 21.0032 34.4667 19.1943C34.5062 16.4939 33.8486 13.828 32.5555 11.4473C31.2625 9.06651 29.3767 7.04918 27.0753 5.58497L28.0459 1.28342C28.0817 1.12737 28.0808 0.965337 28.0435 0.809652C28.0061 0.653967 27.9333 0.508734 27.8304 0.385007C27.7276 0.261279 27.5975 0.162318 27.45 0.0956561C27.3025 0.0289938 27.1415 -0.00361294 26.9793 0.000317495H10.9806C10.8184 -0.00361294 10.6574 0.0289938 10.5099 0.0956561C10.3625 0.162318 10.2323 0.261279 10.1295 0.385007C10.0266 0.508734 9.95377 0.653967 9.91643 0.809652C9.87908 0.965337 9.87825 1.12737 9.91399 1.28342L10.9806 6.20549C8.93526 7.73103 7.28391 9.711 6.1608 11.9844C5.03769 14.2578 4.47452 16.7605 4.51708 19.2889C4.6664 21.0032 4.06911 24.0743 0.869363 24.6843C0.656823 24.7237 0.461463 24.8259 0.309191 24.9774C0.156919 25.1288 0.0549296 25.3223 0.0167515 25.5322C-0.0214267 25.7421 0.006009 25.9585 0.0954207 26.1527C0.184832 26.3469 0.331995 26.5096 0.51739 26.6195C5.2339 29.4068 10.5204 31.124 15.9935 31.6467C17.0721 32.2978 18.2795 32.7138 19.5346 32.8667ZM16.9534 29.7115C14.2123 28.1655 11.0019 25.2522 11.0019 22.1707C11.1192 19.8253 10.7353 18.5001 11.3432 15.8603C13.0497 14.9138 15.2896 15.3976 17.6041 17.1224C19.4735 18.5187 21.7345 19.3121 24.0782 19.3941C25.4501 19.3858 26.8064 19.1069 28.0672 18.5738V22.1286C28.0672 25.2101 24.8675 28.1234 22.1264 29.6695C21.3389 30.1807 20.4589 30.5378 19.5346 30.7212C18.6177 30.5467 17.7422 30.2043 16.9534 29.7115ZM25.6781 2.10377L24.0142 9.46583H13.999L12.3351 2.10377H25.6781ZM6.73557 19.1943C6.71258 17.17 7.13446 15.1648 7.97219 13.3166C8.80993 11.4684 10.0437 9.82101 11.5885 8.48773L12.1005 10.7489C12.1547 10.9862 12.2906 11.1976 12.485 11.3472C12.6795 11.4967 12.9205 11.5752 13.1671 11.5693H24.8995C25.146 11.5752 25.3871 11.4967 25.5815 11.3472C25.776 11.1976 25.9119 10.9862 25.9661 10.7489L26.638 7.78308C28.4386 9.08451 29.8998 10.7892 30.9012 12.7568C31.9025 14.7243 32.4154 16.8983 32.3976 19.0996C32.2306 20.3939 32.4232 21.7086 32.9548 22.9033C33.4865 24.098 34.3371 25.128 35.416 25.8832C32.6577 27.2815 29.7241 28.3141 26.6914 28.9543C27.704 28.1117 28.5346 27.077 29.1337 25.9117C29.7329 24.7463 30.0884 23.4741 30.1791 22.1707C30.1151 19.6255 30.3071 19.5519 30.0831 16.7858C30.0595 16.6082 29.9904 16.4394 29.8821 16.2955C29.7738 16.1516 29.6301 16.0373 29.4645 15.9636C29.2989 15.8898 29.1169 15.859 28.9359 15.8741C28.7548 15.8891 28.5806 15.9496 28.4299 16.0496C26.9482 16.9425 25.2221 17.3603 23.4895 17.2454C21.7569 17.1305 20.1031 16.4886 18.756 15.4081C16.8575 14.146 13.0071 11.9374 9.74334 14.3564C9.58948 14.5054 9.46315 14.6798 9.37004 14.8717C8.78341 15.997 8.83674 20.5931 8.84741 22.1286C8.84741 24.6948 10.3726 27.0507 12.3565 28.9122C9.31845 28.2786 6.38043 27.2457 3.62115 25.8412C4.70461 25.1177 5.56725 24.1163 6.11608 22.9449C6.66491 21.7736 6.8791 20.4768 6.73557 19.1943Z" fill="white"/>
<path d="M39.8006 44.3093V43.1209H40.8672C41.1501 43.1209 41.4214 43.0101 41.6214 42.8128C41.8214 42.6156 41.9338 42.3481 41.9338 42.0692V37.8623C41.9338 37.5833 41.8214 37.3158 41.6214 37.1186C41.4214 36.9214 41.1501 36.8105 40.8672 36.8105H31.2679C30.9851 36.8105 30.7138 36.9214 30.5137 37.1186C30.3137 37.3158 30.2013 37.5833 30.2013 37.8623V42.0692C30.2013 42.3481 30.3137 42.6156 30.5137 42.8128C30.7138 43.0101 30.9851 43.1209 31.2679 43.1209H32.3345V44.3093C31.4192 44.5424 30.6084 45.0685 30.0292 45.8052C29.4501 46.5419 29.1355 47.4474 29.1348 48.3795V59.9485C29.1348 60.2274 29.2471 60.4949 29.4472 60.6922C29.6472 60.8894 29.9185 61.0002 30.2013 61.0002H41.9338C42.2166 61.0002 42.4879 60.8894 42.688 60.6922C42.888 60.4949 43.0004 60.2274 43.0004 59.9485V48.3795C42.9996 47.4474 42.685 46.5419 42.1059 45.8052C41.5267 45.0685 40.7159 44.5424 39.8006 44.3093ZM32.3345 38.914H39.8006V41.0174H32.3345V38.914ZM40.8672 58.8968H31.2679V48.3795C31.2679 47.8216 31.4927 47.2866 31.8927 46.8921C32.2928 46.4977 32.8353 46.2761 33.4011 46.2761C33.684 46.2761 33.9553 46.1653 34.1553 45.968C34.3553 45.7708 34.4677 45.5033 34.4677 45.2243V43.1209H37.6674V45.2243C37.6674 45.5033 37.7798 45.7708 37.9798 45.968C38.1799 46.1653 38.4511 46.2761 38.734 46.2761C39.2998 46.2761 39.8423 46.4977 40.2424 46.8921C40.6424 47.2866 40.8672 47.8216 40.8672 48.3795V58.8968Z" fill="white"/>
<path d="M38.1991 51.5346H37.1325V50.4829C37.1325 50.2039 37.0202 49.9364 36.8202 49.7392C36.6201 49.542 36.3488 49.4312 36.066 49.4312C35.7831 49.4312 35.5118 49.542 35.3118 49.7392C35.1117 49.9364 34.9994 50.2039 34.9994 50.4829V51.5346H33.9328C33.6499 51.5346 33.3786 51.6454 33.1786 51.8426C32.9786 52.0399 32.8662 52.3074 32.8662 52.5863C32.8662 52.8653 32.9786 53.1328 33.1786 53.33C33.3786 53.5272 33.6499 53.638 33.9328 53.638H34.9994V54.6898C34.9994 54.9687 35.1117 55.2362 35.3118 55.4335C35.5118 55.6307 35.7831 55.7415 36.066 55.7415C36.3488 55.7415 36.6201 55.6307 36.8202 55.4335C37.0202 55.2362 37.1325 54.9687 37.1325 54.6898V53.638H38.1991C38.482 53.638 38.7533 53.5272 38.9533 53.33C39.1533 53.1328 39.2657 52.8653 39.2657 52.5863C39.2657 52.3074 39.1533 52.0399 38.9533 51.8426C38.7533 51.6454 38.482 51.5346 38.1991 51.5346Z" fill="white"/>
<path d="M26.5743 35.1801C26.3896 35.0435 26.1651 34.9697 25.9343 34.9697H13.1353C12.9045 34.9697 12.68 35.0435 12.4954 35.1801L6.09586 39.9128C5.2991 40.4995 4.65196 41.2612 4.20577 42.1375C3.75959 43.0138 3.52663 43.9806 3.52539 44.9611V59.9482C3.52539 60.2271 3.63776 60.4946 3.83778 60.6919C4.03781 60.8891 4.3091 60.9999 4.59197 60.9999H25.9236C26.2065 60.9999 26.4778 60.8891 26.6778 60.6919C26.8779 60.4946 26.9902 60.2271 26.9902 59.9482C26.9902 59.6692 26.8779 59.4017 26.6778 59.2045C26.4778 59.0073 26.2065 58.8965 25.9236 58.8965H12.0581V49.6939C12.0581 49.4149 11.9457 49.1474 11.7457 48.9502C11.5456 48.7529 11.2744 48.6421 10.9915 48.6421C10.7086 48.6421 10.4373 48.7529 10.2373 48.9502C10.0373 49.1474 9.92489 49.4149 9.92489 49.6939V58.8965H5.65856V44.9611C5.6598 44.3071 5.81565 43.6624 6.11373 43.0782C6.41182 42.494 6.84393 41.9863 7.37576 41.5956L13.4873 37.0732H25.5823L26.4889 37.7358C26.5998 37.831 26.7294 37.9026 26.8696 37.9461C27.0098 37.9896 27.1577 38.0041 27.3038 37.9886C27.45 37.9731 27.5914 37.9279 27.719 37.856C27.8466 37.7841 27.9578 37.6869 28.0455 37.5706C28.1333 37.4542 28.1957 37.3213 28.2288 37.1801C28.262 37.0388 28.2652 36.8924 28.2382 36.7499C28.2112 36.6074 28.1546 36.4719 28.072 36.352C27.9894 36.2321 27.8826 36.1303 27.7582 36.053L26.5743 35.1801Z" fill="white"/>
<path d="M17.3996 6.83631H17.9329V7.36217C17.9329 7.6411 18.0453 7.90861 18.2453 8.10585C18.4453 8.30309 18.7166 8.41389 18.9995 8.41389C19.2823 8.41389 19.5536 8.30309 19.7537 8.10585C19.9537 7.90861 20.0661 7.6411 20.0661 7.36217V6.83631H20.5993C20.8822 6.83631 21.1535 6.7255 21.3535 6.52826C21.5536 6.33103 21.6659 6.06352 21.6659 5.78458C21.6659 5.50565 21.5536 5.23814 21.3535 5.0409C21.1535 4.84367 20.8822 4.73286 20.5993 4.73286H20.0661V4.207C20.0661 3.92806 19.9537 3.66055 19.7537 3.46332C19.5536 3.26608 19.2823 3.15527 18.9995 3.15527C18.7166 3.15527 18.4453 3.26608 18.2453 3.46332C18.0453 3.66055 17.9329 3.92806 17.9329 4.207V4.73286H17.3996C17.1167 4.73286 16.8454 4.84367 16.6454 5.0409C16.4454 5.23814 16.333 5.50565 16.333 5.78458C16.333 6.06352 16.4454 6.33103 16.6454 6.52826C16.8454 6.7255 17.1167 6.83631 17.3996 6.83631Z" fill="white"/>
</svg>
