<svg width="68" height="62" viewBox="0 0 68 62" fill="none" xmlns="http://www.w3.org/2000/svg">
<path d="M9.3783 36.155H29.6509C30.1077 36.155 30.4862 35.7761 30.4862 35.3197C30.4862 34.8628 30.1072 34.4844 29.6509 34.4844H9.3783C8.9214 34.4844 8.54297 34.8633 8.54297 35.3197C8.54297 35.7761 8.92192 36.155 9.3783 36.155Z" fill="white"/>
<path d="M9.3783 44.6619H23.6805C24.1374 44.6619 24.5159 44.2829 24.5159 43.8265C24.5159 43.3696 24.1369 42.9912 23.6805 42.9912H9.3783C8.9214 42.9912 8.54297 43.3702 8.54297 43.8265C8.54297 44.2829 8.92192 44.6619 9.3783 44.6619Z" fill="white"/>
<path d="M47.6211 46.1519C52.9455 46.1519 57.2779 41.8188 57.2779 36.4952V36.4839C57.2666 31.1596 52.934 26.8271 47.6211 26.8271C42.2861 26.8271 37.9531 31.1602 37.9531 36.4952C37.9644 41.819 42.297 46.1519 47.6211 46.1519V46.1519ZM48.4565 28.5416H48.4898C48.9129 28.5862 49.3139 28.6754 49.7149 28.7754C49.7707 28.7867 49.8261 28.7974 49.882 28.82C50.261 28.9313 50.6394 29.0764 50.9958 29.2431C51.0625 29.2764 51.1296 29.3097 51.1963 29.3323C51.5414 29.5107 51.887 29.7112 52.1988 29.9338C52.2434 29.9671 52.288 30.0004 52.3434 30.0451C53.0008 30.524 53.5797 31.1142 54.0699 31.7716C54.1032 31.8162 54.1366 31.8608 54.1812 31.9162C54.4037 32.2392 54.6042 32.5736 54.7827 32.9187C54.816 32.9853 54.8493 33.0525 54.8827 33.1192C55.0498 33.4755 55.1944 33.8432 55.3057 34.2329C55.317 34.2888 55.3391 34.3442 55.3503 34.4001C55.4616 34.8011 55.5508 35.2134 55.5954 35.6364V35.6585H48.9795C48.7124 35.6585 48.4893 35.4359 48.4893 35.1795L48.4898 28.5416L48.4565 28.5416ZM46.7858 28.5416V35.1688C46.7858 36.3605 47.7549 37.3184 48.9467 37.3184H55.5739C55.1616 41.3392 51.7535 44.4805 47.6323 44.4805C43.2213 44.4805 39.6349 40.8941 39.6349 36.4944C39.6349 32.373 42.7758 28.9652 46.7858 28.5416Z" fill="white"/>
<path d="M39.7767 9.61988H59.1908C59.6477 9.61988 60.0261 9.24094 60.0261 8.78455C60.0261 8.32765 59.6471 7.94922 59.1908 7.94922H39.7767C39.3198 7.94922 38.9414 8.32817 38.9414 8.78455C38.9414 9.24094 39.3204 9.61988 39.7767 9.61988Z" fill="white"/>
<path d="M39.7767 18.4011H59.1908C59.6477 18.4011 60.0261 18.0222 60.0261 17.5658C60.0261 17.1089 59.6471 16.7305 59.1908 16.7305H39.7767C39.3198 16.7305 38.9414 17.1094 38.9414 17.5658C38.9414 18.0222 39.3204 18.4011 39.7767 18.4011Z" fill="white"/>
<path d="M12.1858 25.7962H26.8661C28.871 25.7962 30.4971 24.1701 30.4971 22.1652V9.2111C30.4971 7.20616 28.871 5.58008 26.8661 5.58008H12.1858C10.1808 5.58008 8.55475 7.20616 8.55475 9.2111V22.1539C8.54346 24.1588 10.1808 25.7962 12.1858 25.7962ZM10.214 9.2111C10.214 8.13065 11.094 7.25066 12.1745 7.25066H26.8548C27.9352 7.25066 28.8152 8.1306 28.8152 9.2111V22.1539C28.8152 23.2343 27.9353 24.1143 26.8548 24.1143H12.185C11.1045 24.1143 10.2245 23.2344 10.2245 22.1539V9.2111H10.214Z" fill="white"/>
<path d="M63.5445 7.85229V0.879965C63.5445 0.423068 63.1656 0.044633 62.7092 0.044633H39.8086C37.3133 0.044633 35.1417 1.42563 34.0054 3.45315C32.869 1.39281 30.6861 0 28.1688 0H5.29049C4.83359 0 4.45516 0.378947 4.45516 0.835332V7.86358C1.94915 8.17535 0 10.2808 0 12.8648V52.4831C0 55.2789 2.27221 57.5509 5.06781 57.5509H23.7362C24.2818 60.057 26.5986 61.9174 29.3056 61.9174H38.6952C41.3909 61.9174 43.6852 60.0795 44.2533 57.5509H62.9322C65.7279 57.5509 68 55.2787 68 52.4831V12.853C67.9887 10.269 66.0396 8.16354 63.5445 7.85176L63.5445 7.85229ZM39.809 1.71526H61.8629V51.4705L34.8298 51.47V6.69394C34.8298 3.94285 37.0687 1.71527 39.8085 1.71527L39.809 1.71526ZM28.1811 1.67065C30.9322 1.67065 33.1597 3.90951 33.1597 6.64932V51.4254L6.12661 51.4259V1.67063L28.1811 1.67065ZM66.3186 52.4839C66.3186 54.3551 64.7925 55.8812 62.9214 55.8812H43.5297C43.0953 55.8812 42.7277 56.2376 42.6943 56.6832C42.5497 58.6881 40.7898 60.2475 38.6843 60.2475H29.2947C27.1898 60.2475 25.4299 58.6768 25.2847 56.7165C25.2847 56.2596 24.9058 55.8812 24.4494 55.8812H5.0577C3.18653 55.8812 1.66048 54.3551 1.66048 52.484V12.8538C1.66048 11.1944 2.86348 9.81302 4.44492 9.5233V52.2502C4.44492 52.7071 4.82386 53.0855 5.28025 53.0855H33.7167C33.8059 53.1188 33.8951 53.1301 33.9839 53.1301H62.6986C63.1555 53.1301 63.5339 52.7512 63.5339 52.2948V9.52328C65.1154 9.813 66.3184 11.194 66.3184 12.8538L66.3186 52.4839Z" fill="white"/>
</svg>
