<svg width="53" height="53" viewBox="0 0 53 53" fill="none" xmlns="http://www.w3.org/2000/svg">
<mask id="path-1-outside-1_1_2822" maskUnits="userSpaceOnUse" x="0" y="0" width="53" height="53" fill="black">
<rect fill="white" width="53" height="53"/>
<path d="M51.6573 36.0294L44.2593 30.2731L43.4707 26.33C43.4379 26.1693 43.3591 26.0216 43.2438 25.905L42.1494 24.7915L44.0885 22.8518C44.2478 22.6924 44.3373 22.4762 44.3373 22.2509C44.3373 22.0255 44.2478 21.8093 44.0885 21.6499L37.2905 14.8499C37.2116 14.7708 37.118 14.708 37.0149 14.6652C36.9118 14.6223 36.8013 14.6001 36.6897 14.6H23.4556L12.0247 2.6915L11.9754 2.63965C11.8083 2.42696 11.6213 2.23059 11.4171 2.05315L11.3449 1.9775C11.3044 1.94264 11.2606 1.91189 11.214 1.8857C10.4799 1.31498 9.57754 1.00354 8.64779 1C7.52136 1.00135 6.44145 1.44955 5.64494 2.24629C4.84844 3.04302 4.40037 4.12324 4.39902 5.25V40.1H1.84975C1.62439 40.1 1.40825 40.1896 1.24889 40.349C1.08953 40.5084 1 40.7246 1 40.95V51.15C1 51.3754 1.08953 51.5916 1.24889 51.751C1.40825 51.9104 1.62439 52 1.84975 52H8.64779C8.87316 52 9.0893 51.9104 9.24866 51.751C9.40802 51.5916 9.49754 51.3754 9.49754 51.15V40.95C9.49754 40.7246 9.40802 40.5084 9.24866 40.349C9.0893 40.1896 8.87316 40.1 8.64779 40.1H6.09853V8.6279C6.82965 9.19044 7.72541 9.49687 8.64779 9.5C9.64734 9.49739 10.614 9.14236 11.3777 8.49734C12.1414 7.85231 12.6534 6.9586 12.8235 5.97335L22.2439 15.79V29.05C22.2439 29.2754 22.3335 29.4916 22.4928 29.651L29.2909 36.451C29.4502 36.6103 29.6663 36.6998 29.8916 36.6998C30.117 36.6998 30.3331 36.6103 30.4924 36.451L32.4409 34.5019L33.5396 35.601C33.6583 35.7195 33.8094 35.8002 33.9739 35.833L37.9431 36.6278L44.5516 44.0644C44.7013 44.2335 44.9119 44.3362 45.1372 44.3499C45.3626 44.3636 45.5841 44.2872 45.7532 44.1375C45.9222 43.9878 46.0248 43.7771 46.0386 43.5517C46.0523 43.3263 45.9759 43.1047 45.8262 42.9356L39.0282 35.2856C38.9052 35.1474 38.7406 35.0531 38.5591 35.017L34.5653 34.2171L27.6305 27.2795L32.9508 20.4268L34.8644 19.8046L41.8536 26.9148L42.655 30.92C42.6944 31.1201 42.8048 31.2991 42.966 31.424L50.6138 37.3741C50.7015 37.4455 50.8027 37.4987 50.9113 37.5306C51.0199 37.5624 51.1337 37.5722 51.2462 37.5594C51.3586 37.5467 51.4673 37.5116 51.566 37.4562C51.6647 37.4008 51.7514 37.3262 51.8209 37.2369C51.8904 37.1476 51.9413 37.0452 51.9708 36.9359C52.0002 36.8266 52.0075 36.7126 51.9923 36.6004C51.977 36.4882 51.9395 36.3802 51.882 36.2828C51.8245 36.1853 51.7481 36.1003 51.6573 36.0328V36.0294ZM7.79803 50.3H2.69951V41.8H7.79803V50.3ZM40.958 23.5786L37.5148 20.0766L38.8141 18.7769L42.2862 22.25L40.958 23.5786ZM11.1971 5.25C11.1971 5.75434 11.0475 6.24736 10.7674 6.6667C10.4873 7.08605 10.0892 7.41289 9.62335 7.60589C9.15753 7.7989 8.64496 7.8494 8.15045 7.751C7.65594 7.65261 7.20171 7.40975 6.84519 7.05312C6.48867 6.6965 6.24587 6.24213 6.14751 5.74748C6.04915 5.25283 6.09963 4.74011 6.29258 4.27416C6.48552 3.80821 6.81227 3.40995 7.23149 3.12975C7.65072 2.84956 8.14359 2.7 8.64779 2.7C9.21647 2.70245 9.76769 2.89682 10.2122 3.25165L10.7526 3.8152C11.0423 4.23754 11.1973 4.73779 11.1971 5.25ZM29.8916 34.6481L26.4195 31.175L27.7673 29.8269L31.2394 33.3L29.8916 34.6481ZM34.8389 18.0247L32.1775 18.8917C32.0161 18.9446 31.8742 19.0443 31.7696 19.1781L25.8213 26.8281C25.6943 26.9917 25.6313 27.1961 25.6443 27.4029C25.6573 27.6096 25.7453 27.8045 25.8919 27.951L26.5657 28.625L25.218 29.9731L23.9434 28.6981V16.3H36.3379L37.6125 17.575L36.3234 18.8645L35.7074 18.2372C35.5966 18.1245 35.4567 18.045 35.3033 18.0074C35.1499 17.9699 34.9891 17.9759 34.8389 18.0247Z"/>
</mask>
<path d="M51.6573 36.0294L44.2593 30.2731L43.4707 26.33C43.4379 26.1693 43.3591 26.0216 43.2438 25.905L42.1494 24.7915L44.0885 22.8518C44.2478 22.6924 44.3373 22.4762 44.3373 22.2509C44.3373 22.0255 44.2478 21.8093 44.0885 21.6499L37.2905 14.8499C37.2116 14.7708 37.118 14.708 37.0149 14.6652C36.9118 14.6223 36.8013 14.6001 36.6897 14.6H23.4556L12.0247 2.6915L11.9754 2.63965C11.8083 2.42696 11.6213 2.23059 11.4171 2.05315L11.3449 1.9775C11.3044 1.94264 11.2606 1.91189 11.214 1.8857C10.4799 1.31498 9.57754 1.00354 8.64779 1C7.52136 1.00135 6.44145 1.44955 5.64494 2.24629C4.84844 3.04302 4.40037 4.12324 4.39902 5.25V40.1H1.84975C1.62439 40.1 1.40825 40.1896 1.24889 40.349C1.08953 40.5084 1 40.7246 1 40.95V51.15C1 51.3754 1.08953 51.5916 1.24889 51.751C1.40825 51.9104 1.62439 52 1.84975 52H8.64779C8.87316 52 9.0893 51.9104 9.24866 51.751C9.40802 51.5916 9.49754 51.3754 9.49754 51.15V40.95C9.49754 40.7246 9.40802 40.5084 9.24866 40.349C9.0893 40.1896 8.87316 40.1 8.64779 40.1H6.09853V8.6279C6.82965 9.19044 7.72541 9.49687 8.64779 9.5C9.64734 9.49739 10.614 9.14236 11.3777 8.49734C12.1414 7.85231 12.6534 6.9586 12.8235 5.97335L22.2439 15.79V29.05C22.2439 29.2754 22.3335 29.4916 22.4928 29.651L29.2909 36.451C29.4502 36.6103 29.6663 36.6998 29.8916 36.6998C30.117 36.6998 30.3331 36.6103 30.4924 36.451L32.4409 34.5019L33.5396 35.601C33.6583 35.7195 33.8094 35.8002 33.9739 35.833L37.9431 36.6278L44.5516 44.0644C44.7013 44.2335 44.9119 44.3362 45.1372 44.3499C45.3626 44.3636 45.5841 44.2872 45.7532 44.1375C45.9222 43.9878 46.0248 43.7771 46.0386 43.5517C46.0523 43.3263 45.9759 43.1047 45.8262 42.9356L39.0282 35.2856C38.9052 35.1474 38.7406 35.0531 38.5591 35.017L34.5653 34.2171L27.6305 27.2795L32.9508 20.4268L34.8644 19.8046L41.8536 26.9148L42.655 30.92C42.6944 31.1201 42.8048 31.2991 42.966 31.424L50.6138 37.3741C50.7015 37.4455 50.8027 37.4987 50.9113 37.5306C51.0199 37.5624 51.1337 37.5722 51.2462 37.5594C51.3586 37.5467 51.4673 37.5116 51.566 37.4562C51.6647 37.4008 51.7514 37.3262 51.8209 37.2369C51.8904 37.1476 51.9413 37.0452 51.9708 36.9359C52.0002 36.8266 52.0075 36.7126 51.9923 36.6004C51.977 36.4882 51.9395 36.3802 51.882 36.2828C51.8245 36.1853 51.7481 36.1003 51.6573 36.0328V36.0294ZM7.79803 50.3H2.69951V41.8H7.79803V50.3ZM40.958 23.5786L37.5148 20.0766L38.8141 18.7769L42.2862 22.25L40.958 23.5786ZM11.1971 5.25C11.1971 5.75434 11.0475 6.24736 10.7674 6.6667C10.4873 7.08605 10.0892 7.41289 9.62335 7.60589C9.15753 7.7989 8.64496 7.8494 8.15045 7.751C7.65594 7.65261 7.20171 7.40975 6.84519 7.05312C6.48867 6.6965 6.24587 6.24213 6.14751 5.74748C6.04915 5.25283 6.09963 4.74011 6.29258 4.27416C6.48552 3.80821 6.81227 3.40995 7.23149 3.12975C7.65072 2.84956 8.14359 2.7 8.64779 2.7C9.21647 2.70245 9.76769 2.89682 10.2122 3.25165L10.7526 3.8152C11.0423 4.23754 11.1973 4.73779 11.1971 5.25ZM29.8916 34.6481L26.4195 31.175L27.7673 29.8269L31.2394 33.3L29.8916 34.6481ZM34.8389 18.0247L32.1775 18.8917C32.0161 18.9446 31.8742 19.0443 31.7696 19.1781L25.8213 26.8281C25.6943 26.9917 25.6313 27.1961 25.6443 27.4029C25.6573 27.6096 25.7453 27.8045 25.8919 27.951L26.5657 28.625L25.218 29.9731L23.9434 28.6981V16.3H36.3379L37.6125 17.575L36.3234 18.8645L35.7074 18.2372C35.5966 18.1245 35.4567 18.045 35.3033 18.0074C35.1499 17.9699 34.9891 17.9759 34.8389 18.0247Z" fill="white"/>
<path d="M51.6573 36.0294L44.2593 30.2731L43.4707 26.33C43.4379 26.1693 43.3591 26.0216 43.2438 25.905L42.1494 24.7915L44.0885 22.8518C44.2478 22.6924 44.3373 22.4762 44.3373 22.2509C44.3373 22.0255 44.2478 21.8093 44.0885 21.6499L37.2905 14.8499C37.2116 14.7708 37.118 14.708 37.0149 14.6652C36.9118 14.6223 36.8013 14.6001 36.6897 14.6H23.4556L12.0247 2.6915L11.9754 2.63965C11.8083 2.42696 11.6213 2.23059 11.4171 2.05315L11.3449 1.9775C11.3044 1.94264 11.2606 1.91189 11.214 1.8857C10.4799 1.31498 9.57754 1.00354 8.64779 1C7.52136 1.00135 6.44145 1.44955 5.64494 2.24629C4.84844 3.04302 4.40037 4.12324 4.39902 5.25V40.1H1.84975C1.62439 40.1 1.40825 40.1896 1.24889 40.349C1.08953 40.5084 1 40.7246 1 40.95V51.15C1 51.3754 1.08953 51.5916 1.24889 51.751C1.40825 51.9104 1.62439 52 1.84975 52H8.64779C8.87316 52 9.0893 51.9104 9.24866 51.751C9.40802 51.5916 9.49754 51.3754 9.49754 51.15V40.95C9.49754 40.7246 9.40802 40.5084 9.24866 40.349C9.0893 40.1896 8.87316 40.1 8.64779 40.1H6.09853V8.6279C6.82965 9.19044 7.72541 9.49687 8.64779 9.5C9.64734 9.49739 10.614 9.14236 11.3777 8.49734C12.1414 7.85231 12.6534 6.9586 12.8235 5.97335L22.2439 15.79V29.05C22.2439 29.2754 22.3335 29.4916 22.4928 29.651L29.2909 36.451C29.4502 36.6103 29.6663 36.6998 29.8916 36.6998C30.117 36.6998 30.3331 36.6103 30.4924 36.451L32.4409 34.5019L33.5396 35.601C33.6583 35.7195 33.8094 35.8002 33.9739 35.833L37.9431 36.6278L44.5516 44.0644C44.7013 44.2335 44.9119 44.3362 45.1372 44.3499C45.3626 44.3636 45.5841 44.2872 45.7532 44.1375C45.9222 43.9878 46.0248 43.7771 46.0386 43.5517C46.0523 43.3263 45.9759 43.1047 45.8262 42.9356L39.0282 35.2856C38.9052 35.1474 38.7406 35.0531 38.5591 35.017L34.5653 34.2171L27.6305 27.2795L32.9508 20.4268L34.8644 19.8046L41.8536 26.9148L42.655 30.92C42.6944 31.1201 42.8048 31.2991 42.966 31.424L50.6138 37.3741C50.7015 37.4455 50.8027 37.4987 50.9113 37.5306C51.0199 37.5624 51.1337 37.5722 51.2462 37.5594C51.3586 37.5467 51.4673 37.5116 51.566 37.4562C51.6647 37.4008 51.7514 37.3262 51.8209 37.2369C51.8904 37.1476 51.9413 37.0452 51.9708 36.9359C52.0002 36.8266 52.0075 36.7126 51.9923 36.6004C51.977 36.4882 51.9395 36.3802 51.882 36.2828C51.8245 36.1853 51.7481 36.1003 51.6573 36.0328V36.0294ZM7.79803 50.3H2.69951V41.8H7.79803V50.3ZM40.958 23.5786L37.5148 20.0766L38.8141 18.7769L42.2862 22.25L40.958 23.5786ZM11.1971 5.25C11.1971 5.75434 11.0475 6.24736 10.7674 6.6667C10.4873 7.08605 10.0892 7.41289 9.62335 7.60589C9.15753 7.7989 8.64496 7.8494 8.15045 7.751C7.65594 7.65261 7.20171 7.40975 6.84519 7.05312C6.48867 6.6965 6.24587 6.24213 6.14751 5.74748C6.04915 5.25283 6.09963 4.74011 6.29258 4.27416C6.48552 3.80821 6.81227 3.40995 7.23149 3.12975C7.65072 2.84956 8.14359 2.7 8.64779 2.7C9.21647 2.70245 9.76769 2.89682 10.2122 3.25165L10.7526 3.8152C11.0423 4.23754 11.1973 4.73779 11.1971 5.25ZM29.8916 34.6481L26.4195 31.175L27.7673 29.8269L31.2394 33.3L29.8916 34.6481ZM34.8389 18.0247L32.1775 18.8917C32.0161 18.9446 31.8742 19.0443 31.7696 19.1781L25.8213 26.8281C25.6943 26.9917 25.6313 27.1961 25.6443 27.4029C25.6573 27.6096 25.7453 27.8045 25.8919 27.951L26.5657 28.625L25.218 29.9731L23.9434 28.6981V16.3H36.3379L37.6125 17.575L36.3234 18.8645L35.7074 18.2372C35.5966 18.1245 35.4567 18.045 35.3033 18.0074C35.1499 17.9699 34.9891 17.9759 34.8389 18.0247Z" stroke="white" stroke-width="0.6" mask="url(#path-1-outside-1_1_2822)"/>
</svg>
