<svg width="68" height="57" viewBox="0 0 68 57" fill="none" xmlns="http://www.w3.org/2000/svg">
<path d="M3.44828 14.6963H3.14828V14.9963V44.503C3.14828 45.4408 3.91174 46.1222 4.75862 46.1222H34.1379C34.9359 46.1222 35.5621 46.7497 35.5621 47.5579C35.5621 48.366 34.9359 48.9935 34.1379 48.9935H4.75862C2.3055 48.9935 0.3 46.9775 0.3 44.503V4.7905C0.3 2.32442 2.2979 0.367309 4.76265 0.3H55.5862C58.0393 0.3 60.0448 2.31605 60.0448 4.7905V23.1888C60.0448 23.997 59.4186 24.6245 58.6207 24.6245C57.8227 24.6245 57.1965 23.997 57.1965 23.1888V14.9963V14.6963H56.8965H3.44828ZM56.8965 11.825H57.1965V11.525V4.85993C57.1965 3.92221 56.4331 3.2408 55.5862 3.2408H4.75862C3.91174 3.2408 3.14828 3.9222 3.14828 4.85993V11.525V11.825H3.44828H56.8965ZM50.9655 43.3005H50.2727L50.7467 43.8057L51.9166 45.0527C52.4356 45.6359 52.4192 46.5451 51.8104 47.0476C51.4925 47.3033 51.1445 47.4661 50.8276 47.4661C50.4213 47.4661 50.0313 47.2886 49.8211 47.0241L49.8148 47.0162L49.808 47.0087L46.0168 42.8451C46.0164 42.8447 46.0161 42.8443 46.0157 42.8439C45.4982 42.264 45.4982 41.4656 46.0157 40.8856C46.0161 40.8853 46.0164 40.8849 46.0168 40.8845L49.808 36.7209L49.8099 36.7188C50.3221 36.1459 51.235 36.0918 51.7986 36.6023C52.3676 37.1179 52.4227 38.0383 51.9166 38.6074L50.7467 39.8544L50.2727 40.3597H50.9655H58.6095C59.4234 40.4232 60.0448 41.0637 60.0448 41.8648C60.0448 42.673 59.4186 43.3005 58.6207 43.3005H50.9655ZM38.231 41.8648C38.231 33.6973 44.8572 27.0296 52.9655 27.0296C61.0738 27.0296 67.7 33.6973 67.7 41.8648C67.7 50.0332 61.1419 56.7 52.9655 56.7C44.7892 56.7 38.231 50.0332 38.231 41.8648ZM41.0793 41.8648C41.0793 48.4854 46.3842 53.8286 52.9655 53.8286C59.4768 53.8286 64.8517 48.4865 64.8517 41.8648C64.8517 35.2442 59.5469 29.901 52.9655 29.901C46.3842 29.901 41.0793 35.2442 41.0793 41.8648ZM12.3 7.49817C12.3 6.55809 13.0571 5.8542 13.931 5.8542C14.7979 5.8542 15.5621 6.62055 15.5621 7.49817C15.5621 8.43826 14.8049 9.14214 13.931 9.14214C13.0571 9.14214 12.3 8.43826 12.3 7.49817ZM18.7828 7.49817C18.7828 6.55809 19.5399 5.8542 20.4138 5.8542C21.2807 5.8542 22.0448 6.62055 22.0448 7.49817C22.0448 8.43826 21.2877 9.14214 20.4138 9.14214C19.5399 9.14214 18.7828 8.43826 18.7828 7.49817ZM5.81724 7.49817C5.81724 6.55809 6.57436 5.8542 7.44828 5.8542C8.37724 5.8542 9.07931 6.61351 9.07931 7.49817C9.07931 8.43826 8.32219 9.14214 7.44828 9.14214C6.57436 9.14214 5.81724 8.43826 5.81724 7.49817Z" fill="white" stroke="#C4C4C4" stroke-width="0.6"/>
</svg>
