<svg width="58" height="42" viewBox="0 0 58 42" fill="none" xmlns="http://www.w3.org/2000/svg">
<path d="M12.8 41.6C9.06662 41.6 5.99995 40.2 3.59995 37.3999C1.33328 34.6 0.199951 30.8666 0.199951 26.2C0.199951 15.6666 5.53329 6.99995 16.2 0.199951L21 5.19995C17.2666 8.79995 15.4 12.9333 15.4 17.6C15.4 19.7333 15.8 21.3999 16.6 22.5999C17.4 23.7999 18.4666 24.4 19.8 24.4C20.8666 24.4 21.8666 24.0666 22.8 23.4C24.2666 25.1333 25 27.6 25 30.7999C25 34 23.8666 36.6 21.6 38.6C19.3333 40.6 16.4 41.6 12.8 41.6ZM45.6 41.6C41.8666 41.6 38.8 40.2 36.4 37.3999C34.1333 34.6 33 30.8666 33 26.2C33 15.6666 38.3333 6.99995 49 0.199951L53.8 5.19995C50.0666 8.79995 48.2 12.9333 48.2 17.6C48.2 19.7333 48.6 21.3999 49.4 22.5999C50.2 23.7999 51.2666 24.4 52.6 24.4C53.6666 24.4 54.6666 24.0666 55.6 23.4C57.0666 25.1333 57.8 27.6 57.8 30.7999C57.8 34 56.6666 36.6 54.4 38.6C52.1333 40.6 49.2 41.6 45.6 41.6Z" fill="#06849B"/>
</svg>
