<svg width="65" height="70" viewBox="0 0 65 70" fill="none" xmlns="http://www.w3.org/2000/svg">
<path d="M25.8809 44.1875C25.8809 45.0625 26.4691 45.6458 27.3514 45.6458C28.2338 45.6458 28.822 45.0625 28.822 44.1875C28.822 42.875 29.8514 41.8542 31.175 41.8542C32.0573 41.8542 32.6456 41.2708 32.6456 40.3958C32.6456 39.5208 32.0573 38.9375 31.175 38.9375C28.2338 38.9375 25.8809 41.2708 25.8809 44.1875Z" fill="white"/>
<path d="M49.7059 1.75H11.7647C10.7353 0.583333 8.82353 0 6.17647 0C2.5 0 0 1.3125 0 3.5C0 3.79167 0 63.5833 0 63.4375C0 67.0833 3.08823 70 7.05882 70H45.8824C46.7647 70 47.3529 69.4167 47.3529 68.5417V62.7083H49.8529C50.7353 62.7083 51.3235 62.125 51.3235 61.25V53.6667C51.7647 53.6667 52.0588 53.8125 52.5 53.8125C57.3529 53.8125 61.3235 50.3125 62.0588 45.6458H63.5294C64.4118 45.6458 65 45.0625 65 44.1875C65 43.3125 64.4118 42.7292 63.5294 42.7292H62.0588C61.3235 38.0625 57.3529 34.5625 52.5 34.5625C52.0588 34.5625 51.7647 34.5625 51.3235 34.7083V3.20833C51.1765 2.33333 50.5882 1.75 49.7059 1.75ZM2.94118 3.64583C3.23529 3.35417 4.41176 2.91667 6.17647 2.91667C7.94118 2.91667 9.11765 3.35417 9.41177 3.64583C9.41177 3.5 9.41177 58.4792 9.41177 60.0833C9.11765 60.375 8.08824 60.8125 6.17647 60.8125C4.26471 60.8125 3.08824 60.2292 2.94118 60.0833C2.94118 47.25 2.94118 18.8125 2.94118 3.64583ZM44.4118 67.0833H7.05882C4.85294 67.0833 2.94118 65.4792 2.94118 63.4375V63.2917C3.82353 63.5833 5 63.7292 6.17647 63.7292C8.08824 63.7292 9.70588 63.2917 10.8824 62.7083H11.0294H44.4118V67.0833ZM48.2353 59.7917H12.5V4.66667H48.2353V35.5833C45.4412 36.8958 43.2353 39.6667 42.7941 42.875H40.5882C39.8529 38.2083 35.8824 34.7083 31.0294 34.7083C26.1765 34.7083 22.2059 38.2083 21.4706 42.875H20C19.1176 42.875 18.5294 43.4583 18.5294 44.3333C18.5294 45.2083 19.1176 45.7917 20 45.7917H21.4706C22.2059 50.4583 26.1765 53.9583 31.0294 53.9583C35.8824 53.9583 39.8529 50.4583 40.5882 45.7917H42.7941C43.2353 49 45.4412 51.625 48.2353 53.0833V59.7917ZM37.9412 44.1875C37.9412 47.8333 34.8529 50.8958 31.1765 50.8958C27.5 50.8958 24.4118 47.8333 24.4118 44.1875C24.4118 40.5417 27.5 37.4792 31.1765 37.4792C34.8529 37.4792 37.9412 40.5417 37.9412 44.1875ZM59.1176 44.1875C59.1176 47.8333 56.0294 50.8958 52.3529 50.8958C48.6765 50.8958 45.7353 47.8333 45.7353 44.1875C45.7353 40.5417 48.8235 37.4792 52.5 37.4792C56.1765 37.4792 59.1176 40.5417 59.1176 44.1875Z" fill="white"/>
<path d="M19.5604 13.5625H41.3251C42.2075 13.5625 42.7957 12.9792 42.7957 12.1042C42.7957 11.2292 42.2075 10.6459 41.3251 10.6459H19.5604C18.6781 10.6459 18.0898 11.2292 18.0898 12.1042C18.0898 12.8334 18.6781 13.5625 19.5604 13.5625Z" fill="white"/>
<path d="M19.5604 22.0198H41.3251C42.2075 22.0198 42.7957 21.4365 42.7957 20.5615C42.7957 19.6865 42.2075 19.1031 41.3251 19.1031H19.5604C18.6781 19.1031 18.0898 19.6865 18.0898 20.5615C18.0898 21.2906 18.6781 22.0198 19.5604 22.0198Z" fill="white"/>
<path d="M41.3251 30.48C42.2075 30.48 42.7957 29.8967 42.7957 29.0217C42.7957 28.1467 42.2075 27.5634 41.3251 27.5634H19.5604C18.6781 27.5634 18.0898 28.1467 18.0898 29.0217C18.0898 29.8967 18.6781 30.48 19.5604 30.48H41.3251Z" fill="white"/>
</svg>
