<svg width="39" height="37" viewBox="0 0 39 37" fill="none" xmlns="http://www.w3.org/2000/svg">
<path d="M7.03259 21.4962C6.60419 21.6182 6.35587 22.0646 6.47793 22.493L6.47793 22.493C7.49685 26.0685 10.8093 28.5651 14.5339 28.5651C14.9794 28.5651 15.3406 28.204 15.3406 27.7584C15.3406 27.3129 14.9794 26.9518 14.5339 26.9518C11.5266 26.9518 8.85164 24.9361 8.02946 22.0508C7.90741 21.6224 7.46112 21.3736 7.03259 21.4962ZM7.03259 21.4962C7.0326 21.4962 7.03262 21.4961 7.03263 21.4961L7.06003 21.5923L7.03254 21.4962C7.03255 21.4962 7.03257 21.4962 7.03259 21.4962Z" fill="white" stroke="white" stroke-width="0.2"/>
<path d="M19.9371 10.1235C20.3826 10.1235 20.7437 9.76238 20.7437 9.31685V1.6539C20.7437 1.20838 20.3826 0.847266 19.9371 0.847266C19.4916 0.847266 19.1305 1.20838 19.1305 1.6539V9.31685C19.1305 9.76238 19.4916 10.1235 19.9371 10.1235Z" fill="white" stroke="white" stroke-width="0.2"/>
<path d="M15.7379 13.5268C16.1834 13.5268 16.5445 13.1656 16.5445 12.7201V5.06015C16.5445 4.61463 16.1834 4.25352 15.7379 4.25352C15.2924 4.25352 14.9312 4.61463 14.9312 5.06015V12.7201C14.9312 13.1656 15.2924 13.5268 15.7379 13.5268Z" fill="white" stroke="white" stroke-width="0.2"/>
<path d="M24.1363 12.9197C24.5819 12.9197 24.943 12.5586 24.943 12.1131V4.45322C24.943 4.00769 24.5819 3.64658 24.1363 3.64658C23.6908 3.64658 23.3297 4.00769 23.3297 4.45322V12.1131C23.3297 12.5586 23.6908 12.9197 24.1363 12.9197Z" fill="white" stroke="white" stroke-width="0.2"/>
<mask id="path-5-outside-1_1_2377" maskUnits="userSpaceOnUse" x="0.171875" y="4.56982" width="39" height="33" fill="black">
<rect fill="white" x="0.171875" y="4.56982" width="39" height="33"/>
<path d="M33.2615 35.2994H28.0399V31.6528C29.9321 30.7462 31.6773 29.5159 33.2051 27.9892C36.7496 24.4472 38.7017 19.738 38.7017 14.7294C38.7017 14.3391 38.3854 14.0227 37.9951 14.0227H30.4053L37.5036 6.77072C37.7766 6.49183 37.7718 6.04445 37.493 5.77145C37.2139 5.49838 36.7666 5.5034 36.4936 5.78213L28.4276 14.0227H1.87851C1.48821 14.0227 1.17188 14.3391 1.17188 14.7294C1.17188 19.738 3.12393 24.4472 6.66843 27.9892C8.19586 29.5155 9.94055 30.7456 11.8323 31.6521V35.2993H6.61064C6.22034 35.2993 5.904 35.6156 5.904 36.0059C5.904 36.3962 6.22034 36.7126 6.61064 36.7126H12.5389H27.3332H33.2615C33.6518 36.7126 33.9682 36.3962 33.9682 36.0059C33.9682 35.6156 33.6518 35.2994 33.2615 35.2994ZM7.12711 26.4117C7.07443 26.3543 7.02261 26.2962 6.97071 26.2381C6.92651 26.1884 6.8823 26.1387 6.83865 26.0885C6.81282 26.0589 6.78706 26.0291 6.76139 25.9994C5.35824 24.3637 4.25384 22.4649 3.53425 20.3882H36.3394C35.6642 22.337 34.6501 24.129 33.3683 25.694C33.3312 25.7392 33.2936 25.784 33.256 25.8288C33.2234 25.8679 33.1905 25.9069 33.1575 25.9457C30.1606 29.4549 25.8132 31.7206 21.0604 32.0313C21.0103 32.0345 20.9603 32.0378 20.9101 32.0407C20.8475 32.0442 20.7849 32.0473 20.7221 32.0501C20.6982 32.0511 20.6742 32.0519 20.6504 32.0529C20.5914 32.0554 20.5324 32.0577 20.4733 32.0595C20.4296 32.0608 20.386 32.0624 20.3422 32.0634C20.2505 32.0656 20.1586 32.0663 20.0667 32.0671C20.0233 32.0674 19.9802 32.0686 19.9368 32.0686C19.8912 32.0686 19.8458 32.0673 19.8003 32.0669C19.7108 32.0662 19.6213 32.0655 19.5321 32.0634C19.4882 32.0624 19.4445 32.0608 19.4006 32.0595C19.3386 32.0576 19.2768 32.0552 19.215 32.0526C19.1941 32.0517 19.1733 32.0511 19.1525 32.0502C19.0896 32.0473 19.0268 32.0443 18.964 32.0407C18.9133 32.0379 18.8627 32.0346 18.8122 32.0313C14.2733 31.7345 10.104 29.6552 7.12774 26.4126C7.12751 26.4121 7.12727 26.412 7.12711 26.4117ZM37.2742 15.436C37.2251 16.6518 37.049 17.8353 36.7609 18.9748H3.1127C2.82455 17.8353 2.64844 16.6518 2.59936 15.436H37.2742ZM13.2456 35.2994V32.2592C13.3625 32.3038 13.4798 32.3473 13.5975 32.3894C13.6062 32.3926 13.615 32.3955 13.6237 32.3986C13.7556 32.4457 13.8882 32.491 14.0211 32.5352C14.033 32.5391 14.045 32.5429 14.057 32.5469C14.1922 32.5914 14.3278 32.6342 14.4641 32.6756C14.468 32.6768 14.472 32.6781 14.4759 32.6792C15.5498 33.0045 16.6551 33.2325 17.7831 33.36C17.7899 33.3608 17.7967 33.3615 17.8035 33.3623C17.8932 33.3724 17.983 33.3822 18.0729 33.391C18.0732 33.391 18.0735 33.3911 18.0737 33.3911C18.1083 33.3944 18.1429 33.3973 18.1775 33.4005C18.2028 33.4028 18.2283 33.4052 18.2537 33.4074C18.3358 33.4146 18.418 33.4214 18.5003 33.4275C18.5283 33.4296 18.5561 33.4315 18.5841 33.4335C18.6178 33.4358 18.6514 33.4383 18.6851 33.4405C18.7681 33.4459 18.8513 33.4505 18.9346 33.4548C18.9667 33.4565 18.9987 33.4584 19.0308 33.4599C19.0561 33.4611 19.0814 33.4623 19.1067 33.4634C19.2001 33.4675 19.2938 33.4703 19.3875 33.4729C19.4189 33.4738 19.45 33.4753 19.4814 33.476C19.4953 33.4763 19.5093 33.4767 19.5233 33.477C19.6608 33.4799 19.7987 33.4817 19.9367 33.4817C19.9368 33.4817 19.937 33.4817 19.9371 33.4817C20.0752 33.4817 20.2131 33.4799 20.3508 33.477C20.3644 33.4767 20.378 33.4764 20.3917 33.4761C20.4231 33.4754 20.4546 33.4739 20.486 33.4729C20.5801 33.4703 20.6741 33.4675 20.7678 33.4634C20.7925 33.4623 20.8171 33.4611 20.8417 33.4599C20.8741 33.4584 20.9065 33.4565 20.9389 33.4547C21.0227 33.4504 21.1064 33.4457 21.1899 33.4403C21.2227 33.4382 21.2553 33.4357 21.2881 33.4334C21.3165 33.4313 21.3449 33.4294 21.3733 33.4273C21.4563 33.4211 21.539 33.4143 21.6218 33.407C21.6459 33.4049 21.6699 33.4027 21.6939 33.4004C21.7289 33.3972 21.764 33.3943 21.7991 33.3908C21.7996 33.3907 21.8002 33.3907 21.8007 33.3907C21.8917 33.3818 21.9825 33.3719 22.0732 33.3617C22.0782 33.3611 22.0832 33.3606 22.0881 33.36C23.2155 33.2327 24.3203 33.005 25.3936 32.6801C25.4005 32.6781 25.4073 32.6759 25.4141 32.6739C25.5465 32.6336 25.6784 32.5919 25.8099 32.5487C25.8254 32.5436 25.841 32.5386 25.8566 32.5334C25.9837 32.4913 26.1103 32.4478 26.2365 32.4029C26.251 32.3978 26.2654 32.393 26.2799 32.3878C26.3958 32.3462 26.5113 32.3033 26.6264 32.2594V35.2991H13.2456V35.2994Z"/>
</mask>
<path d="M33.2615 35.2994H28.0399V31.6528C29.9321 30.7462 31.6773 29.5159 33.2051 27.9892C36.7496 24.4472 38.7017 19.738 38.7017 14.7294C38.7017 14.3391 38.3854 14.0227 37.9951 14.0227H30.4053L37.5036 6.77072C37.7766 6.49183 37.7718 6.04445 37.493 5.77145C37.2139 5.49838 36.7666 5.5034 36.4936 5.78213L28.4276 14.0227H1.87851C1.48821 14.0227 1.17188 14.3391 1.17188 14.7294C1.17188 19.738 3.12393 24.4472 6.66843 27.9892C8.19586 29.5155 9.94055 30.7456 11.8323 31.6521V35.2993H6.61064C6.22034 35.2993 5.904 35.6156 5.904 36.0059C5.904 36.3962 6.22034 36.7126 6.61064 36.7126H12.5389H27.3332H33.2615C33.6518 36.7126 33.9682 36.3962 33.9682 36.0059C33.9682 35.6156 33.6518 35.2994 33.2615 35.2994ZM7.12711 26.4117C7.07443 26.3543 7.02261 26.2962 6.97071 26.2381C6.92651 26.1884 6.8823 26.1387 6.83865 26.0885C6.81282 26.0589 6.78706 26.0291 6.76139 25.9994C5.35824 24.3637 4.25384 22.4649 3.53425 20.3882H36.3394C35.6642 22.337 34.6501 24.129 33.3683 25.694C33.3312 25.7392 33.2936 25.784 33.256 25.8288C33.2234 25.8679 33.1905 25.9069 33.1575 25.9457C30.1606 29.4549 25.8132 31.7206 21.0604 32.0313C21.0103 32.0345 20.9603 32.0378 20.9101 32.0407C20.8475 32.0442 20.7849 32.0473 20.7221 32.0501C20.6982 32.0511 20.6742 32.0519 20.6504 32.0529C20.5914 32.0554 20.5324 32.0577 20.4733 32.0595C20.4296 32.0608 20.386 32.0624 20.3422 32.0634C20.2505 32.0656 20.1586 32.0663 20.0667 32.0671C20.0233 32.0674 19.9802 32.0686 19.9368 32.0686C19.8912 32.0686 19.8458 32.0673 19.8003 32.0669C19.7108 32.0662 19.6213 32.0655 19.5321 32.0634C19.4882 32.0624 19.4445 32.0608 19.4006 32.0595C19.3386 32.0576 19.2768 32.0552 19.215 32.0526C19.1941 32.0517 19.1733 32.0511 19.1525 32.0502C19.0896 32.0473 19.0268 32.0443 18.964 32.0407C18.9133 32.0379 18.8627 32.0346 18.8122 32.0313C14.2733 31.7345 10.104 29.6552 7.12774 26.4126C7.12751 26.4121 7.12727 26.412 7.12711 26.4117ZM37.2742 15.436C37.2251 16.6518 37.049 17.8353 36.7609 18.9748H3.1127C2.82455 17.8353 2.64844 16.6518 2.59936 15.436H37.2742ZM13.2456 35.2994V32.2592C13.3625 32.3038 13.4798 32.3473 13.5975 32.3894C13.6062 32.3926 13.615 32.3955 13.6237 32.3986C13.7556 32.4457 13.8882 32.491 14.0211 32.5352C14.033 32.5391 14.045 32.5429 14.057 32.5469C14.1922 32.5914 14.3278 32.6342 14.4641 32.6756C14.468 32.6768 14.472 32.6781 14.4759 32.6792C15.5498 33.0045 16.6551 33.2325 17.7831 33.36C17.7899 33.3608 17.7967 33.3615 17.8035 33.3623C17.8932 33.3724 17.983 33.3822 18.0729 33.391C18.0732 33.391 18.0735 33.3911 18.0737 33.3911C18.1083 33.3944 18.1429 33.3973 18.1775 33.4005C18.2028 33.4028 18.2283 33.4052 18.2537 33.4074C18.3358 33.4146 18.418 33.4214 18.5003 33.4275C18.5283 33.4296 18.5561 33.4315 18.5841 33.4335C18.6178 33.4358 18.6514 33.4383 18.6851 33.4405C18.7681 33.4459 18.8513 33.4505 18.9346 33.4548C18.9667 33.4565 18.9987 33.4584 19.0308 33.4599C19.0561 33.4611 19.0814 33.4623 19.1067 33.4634C19.2001 33.4675 19.2938 33.4703 19.3875 33.4729C19.4189 33.4738 19.45 33.4753 19.4814 33.476C19.4953 33.4763 19.5093 33.4767 19.5233 33.477C19.6608 33.4799 19.7987 33.4817 19.9367 33.4817C19.9368 33.4817 19.937 33.4817 19.9371 33.4817C20.0752 33.4817 20.2131 33.4799 20.3508 33.477C20.3644 33.4767 20.378 33.4764 20.3917 33.4761C20.4231 33.4754 20.4546 33.4739 20.486 33.4729C20.5801 33.4703 20.6741 33.4675 20.7678 33.4634C20.7925 33.4623 20.8171 33.4611 20.8417 33.4599C20.8741 33.4584 20.9065 33.4565 20.9389 33.4547C21.0227 33.4504 21.1064 33.4457 21.1899 33.4403C21.2227 33.4382 21.2553 33.4357 21.2881 33.4334C21.3165 33.4313 21.3449 33.4294 21.3733 33.4273C21.4563 33.4211 21.539 33.4143 21.6218 33.407C21.6459 33.4049 21.6699 33.4027 21.6939 33.4004C21.7289 33.3972 21.764 33.3943 21.7991 33.3908C21.7996 33.3907 21.8002 33.3907 21.8007 33.3907C21.8917 33.3818 21.9825 33.3719 22.0732 33.3617C22.0782 33.3611 22.0832 33.3606 22.0881 33.36C23.2155 33.2327 24.3203 33.005 25.3936 32.6801C25.4005 32.6781 25.4073 32.6759 25.4141 32.6739C25.5465 32.6336 25.6784 32.5919 25.8099 32.5487C25.8254 32.5436 25.841 32.5386 25.8566 32.5334C25.9837 32.4913 26.1103 32.4478 26.2365 32.4029C26.251 32.3978 26.2654 32.393 26.2799 32.3878C26.3958 32.3462 26.5113 32.3033 26.6264 32.2594V35.2991H13.2456V35.2994Z" fill="white"/>
<path d="M33.2615 35.2994H28.0399V31.6528C29.9321 30.7462 31.6773 29.5159 33.2051 27.9892C36.7496 24.4472 38.7017 19.738 38.7017 14.7294C38.7017 14.3391 38.3854 14.0227 37.9951 14.0227H30.4053L37.5036 6.77072C37.7766 6.49183 37.7718 6.04445 37.493 5.77145C37.2139 5.49838 36.7666 5.5034 36.4936 5.78213L28.4276 14.0227H1.87851C1.48821 14.0227 1.17188 14.3391 1.17188 14.7294C1.17188 19.738 3.12393 24.4472 6.66843 27.9892C8.19586 29.5155 9.94055 30.7456 11.8323 31.6521V35.2993H6.61064C6.22034 35.2993 5.904 35.6156 5.904 36.0059C5.904 36.3962 6.22034 36.7126 6.61064 36.7126H12.5389H27.3332H33.2615C33.6518 36.7126 33.9682 36.3962 33.9682 36.0059C33.9682 35.6156 33.6518 35.2994 33.2615 35.2994ZM7.12711 26.4117C7.07443 26.3543 7.02261 26.2962 6.97071 26.2381C6.92651 26.1884 6.8823 26.1387 6.83865 26.0885C6.81282 26.0589 6.78706 26.0291 6.76139 25.9994C5.35824 24.3637 4.25384 22.4649 3.53425 20.3882H36.3394C35.6642 22.337 34.6501 24.129 33.3683 25.694C33.3312 25.7392 33.2936 25.784 33.256 25.8288C33.2234 25.8679 33.1905 25.9069 33.1575 25.9457C30.1606 29.4549 25.8132 31.7206 21.0604 32.0313C21.0103 32.0345 20.9603 32.0378 20.9101 32.0407C20.8475 32.0442 20.7849 32.0473 20.7221 32.0501C20.6982 32.0511 20.6742 32.0519 20.6504 32.0529C20.5914 32.0554 20.5324 32.0577 20.4733 32.0595C20.4296 32.0608 20.386 32.0624 20.3422 32.0634C20.2505 32.0656 20.1586 32.0663 20.0667 32.0671C20.0233 32.0674 19.9802 32.0686 19.9368 32.0686C19.8912 32.0686 19.8458 32.0673 19.8003 32.0669C19.7108 32.0662 19.6213 32.0655 19.5321 32.0634C19.4882 32.0624 19.4445 32.0608 19.4006 32.0595C19.3386 32.0576 19.2768 32.0552 19.215 32.0526C19.1941 32.0517 19.1733 32.0511 19.1525 32.0502C19.0896 32.0473 19.0268 32.0443 18.964 32.0407C18.9133 32.0379 18.8627 32.0346 18.8122 32.0313C14.2733 31.7345 10.104 29.6552 7.12774 26.4126C7.12751 26.4121 7.12727 26.412 7.12711 26.4117ZM37.2742 15.436C37.2251 16.6518 37.049 17.8353 36.7609 18.9748H3.1127C2.82455 17.8353 2.64844 16.6518 2.59936 15.436H37.2742ZM13.2456 35.2994V32.2592C13.3625 32.3038 13.4798 32.3473 13.5975 32.3894C13.6062 32.3926 13.615 32.3955 13.6237 32.3986C13.7556 32.4457 13.8882 32.491 14.0211 32.5352C14.033 32.5391 14.045 32.5429 14.057 32.5469C14.1922 32.5914 14.3278 32.6342 14.4641 32.6756C14.468 32.6768 14.472 32.6781 14.4759 32.6792C15.5498 33.0045 16.6551 33.2325 17.7831 33.36C17.7899 33.3608 17.7967 33.3615 17.8035 33.3623C17.8932 33.3724 17.983 33.3822 18.0729 33.391C18.0732 33.391 18.0735 33.3911 18.0737 33.3911C18.1083 33.3944 18.1429 33.3973 18.1775 33.4005C18.2028 33.4028 18.2283 33.4052 18.2537 33.4074C18.3358 33.4146 18.418 33.4214 18.5003 33.4275C18.5283 33.4296 18.5561 33.4315 18.5841 33.4335C18.6178 33.4358 18.6514 33.4383 18.6851 33.4405C18.7681 33.4459 18.8513 33.4505 18.9346 33.4548C18.9667 33.4565 18.9987 33.4584 19.0308 33.4599C19.0561 33.4611 19.0814 33.4623 19.1067 33.4634C19.2001 33.4675 19.2938 33.4703 19.3875 33.4729C19.4189 33.4738 19.45 33.4753 19.4814 33.476C19.4953 33.4763 19.5093 33.4767 19.5233 33.477C19.6608 33.4799 19.7987 33.4817 19.9367 33.4817C19.9368 33.4817 19.937 33.4817 19.9371 33.4817C20.0752 33.4817 20.2131 33.4799 20.3508 33.477C20.3644 33.4767 20.378 33.4764 20.3917 33.4761C20.4231 33.4754 20.4546 33.4739 20.486 33.4729C20.5801 33.4703 20.6741 33.4675 20.7678 33.4634C20.7925 33.4623 20.8171 33.4611 20.8417 33.4599C20.8741 33.4584 20.9065 33.4565 20.9389 33.4547C21.0227 33.4504 21.1064 33.4457 21.1899 33.4403C21.2227 33.4382 21.2553 33.4357 21.2881 33.4334C21.3165 33.4313 21.3449 33.4294 21.3733 33.4273C21.4563 33.4211 21.539 33.4143 21.6218 33.407C21.6459 33.4049 21.6699 33.4027 21.6939 33.4004C21.7289 33.3972 21.764 33.3943 21.7991 33.3908C21.7996 33.3907 21.8002 33.3907 21.8007 33.3907C21.8917 33.3818 21.9825 33.3719 22.0732 33.3617C22.0782 33.3611 22.0832 33.3606 22.0881 33.36C23.2155 33.2327 24.3203 33.005 25.3936 32.6801C25.4005 32.6781 25.4073 32.6759 25.4141 32.6739C25.5465 32.6336 25.6784 32.5919 25.8099 32.5487C25.8254 32.5436 25.841 32.5386 25.8566 32.5334C25.9837 32.4913 26.1103 32.4478 26.2365 32.4029C26.251 32.3978 26.2654 32.393 26.2799 32.3878C26.3958 32.3462 26.5113 32.3033 26.6264 32.2594V35.2991H13.2456V35.2994Z" stroke="white" stroke-width="0.4" mask="url(#path-5-outside-1_1_2377)"/>
</svg>
