<svg width="40" height="40" viewBox="0 0 40 40" fill="none" xmlns="http://www.w3.org/2000/svg">
<path d="M16.4548 22.6744L16.4536 22.6734C16.3144 22.5571 16.1666 22.4488 16.0134 22.3366L15.9901 22.3195L15.9892 22.3189C15.9493 22.2893 15.9143 22.2622 15.8811 22.2366C15.8296 22.1969 15.7826 22.1605 15.7286 22.1235C15.5498 22.0043 15.3672 21.8923 15.1802 21.7809C15.1373 21.7556 15.1037 21.7345 15.0726 21.7149C15.0337 21.6904 14.9985 21.6683 14.9533 21.6431C14.7586 21.5345 14.5561 21.4382 14.3458 21.3398C14.3047 21.3206 14.2731 21.3048 14.244 21.2903C14.2077 21.2722 14.1753 21.256 14.1331 21.2375C13.9465 21.1564 13.7543 21.0856 13.555 21.0121C13.5421 21.0073 13.5292 21.0026 13.5163 20.9978C13.4707 20.9817 13.4341 20.9676 13.4002 20.9545C13.356 20.9375 13.3162 20.9222 13.2667 20.9061C13.0805 20.847 12.8879 20.7971 12.6902 20.7463C12.647 20.7352 12.6062 20.7243 12.5664 20.7137C12.495 20.6947 12.4269 20.6766 12.3546 20.6597C12.2468 20.6364 12.1422 20.6194 12.0317 20.6014C11.9705 20.5914 11.9076 20.5811 11.8413 20.5694C11.8411 20.5693 11.8408 20.5693 11.8405 20.5692L16.4548 22.6744ZM16.4548 22.6744C16.5135 22.7226 16.5621 22.7685 16.6154 22.8188C16.6504 22.8518 16.6874 22.8868 16.7307 22.9256C16.7607 22.9529 16.7903 22.9796 16.8196 23.0061C16.9272 23.1034 17.0302 23.1965 17.1286 23.2957M16.4548 22.6744L17.1286 23.2957M17.1286 23.2957C17.1824 23.3506 17.2295 23.404 17.2801 23.4613C17.3119 23.4972 17.3451 23.5348 17.3822 23.5753L17.1286 23.2957ZM36.7957 34.9679L36.8427 35.1014H36.9843H38.4201C38.6912 35.1014 38.9511 35.2091 39.1428 35.4008C39.3344 35.5924 39.4421 35.8524 39.4421 36.1234C39.4421 36.3944 39.3344 36.6544 39.1428 36.846C38.9511 37.0377 38.6912 37.1454 38.4201 37.1454H36.9843H36.8427L36.7957 37.2789C36.5578 37.9545 36.1161 38.5396 35.5316 38.9535C34.9471 39.3674 34.2485 39.5897 33.5323 39.5897C32.8161 39.5897 32.1175 39.3674 31.533 38.9535C30.9484 38.5396 30.5068 37.9545 30.2689 37.2789L30.2219 37.1454H30.0802H29.8666C28.9476 37.1444 28.0665 36.779 27.4167 36.1292C26.7669 35.4793 26.4014 34.5983 26.4005 33.6793V26.3477V26.1477H26.2005H19.371H19.0738L19.1857 26.423C19.9395 28.278 20.0933 30.3226 19.6256 32.2695C19.1578 34.2165 18.092 35.968 16.5778 37.2782C15.0636 38.5883 13.1771 39.3913 11.1831 39.5744C9.18914 39.7574 7.18794 39.3113 5.46051 38.2987C3.73309 37.286 2.36622 35.7578 1.55186 33.9286C0.737496 32.0993 0.516547 30.0609 0.920039 28.0996C1.32353 26.1384 2.3312 24.3527 3.80153 22.9935C5.27186 21.6343 7.131 20.7697 9.11787 20.5213L9.29305 20.4994V20.3228V11.6842V11.4842H9.09305H6.64912C6.37808 11.4842 6.11814 11.3765 5.92649 11.1848C5.73483 10.9932 5.62716 10.7332 5.62716 10.4622C5.62716 10.1912 5.73483 9.93122 5.92649 9.73956C6.11814 9.54791 6.37808 9.44023 6.64912 9.44023H10.315C10.5861 9.44023 10.846 9.54791 11.0376 9.73956C11.2293 9.93122 11.337 10.1912 11.337 10.4622V16.572V16.772H11.537H24.9784C25.8973 16.7729 26.7784 17.1384 27.4282 17.7882C28.078 18.438 28.4435 19.3191 28.4444 20.2381V33.6795C28.4444 34.0566 28.5942 34.4183 28.8609 34.685C29.1276 34.9516 29.4893 35.1014 29.8664 35.1014H30.0802H30.2219L30.2689 34.9679C30.5068 34.2923 30.9484 33.7072 31.533 33.2933C32.1175 32.8794 32.8161 32.6571 33.5323 32.6571C34.2485 32.6571 34.9471 32.8794 35.5316 33.2933C36.1161 33.7072 36.5578 34.2923 36.7957 34.9679ZM10.3156 22.4818H10.315L11.9781 22.8792C11.7746 22.8315 11.5675 22.7948 11.3598 22.7655L11.389 22.5677C11.3888 22.5676 11.3886 22.5676 11.3884 22.5676C11.3703 22.5649 11.3483 22.5612 11.3243 22.5572C11.2764 22.5492 11.2206 22.5399 11.1721 22.5345C10.8879 22.5002 10.6019 22.4826 10.3156 22.4818ZM12.868 22.9361C12.6604 22.8609 12.4527 22.7971 12.2428 22.741L13.8179 23.3471C13.7995 23.337 13.7821 23.3289 13.7701 23.3234C13.7561 23.3169 13.7489 23.3136 13.7421 23.31L13.7421 23.31L13.7395 23.3087C13.5143 23.1946 13.2845 23.0916 13.0501 22.9997L13.0502 22.9995L13.0409 22.9963C13.0135 22.9871 12.9863 22.9775 12.9572 22.9672C12.9291 22.9573 12.8992 22.9467 12.868 22.9361ZM15.3243 24.397C15.2925 24.3677 15.2572 24.3352 15.2254 24.3078L15.8371 24.9006C15.8371 24.9006 15.8371 24.9006 15.8371 24.9005C15.689 24.7407 15.5345 24.588 15.3738 24.4423L15.3732 24.4418C15.3588 24.4288 15.3421 24.4134 15.3243 24.397ZM16.4365 25.6304C16.2951 25.4351 16.1455 25.2473 15.9877 25.067L10.315 37.3454L10.3145 37.5454C10.3146 37.5454 10.3148 37.5454 10.315 37.5454C11.7008 37.5491 13.0606 37.1699 14.2444 36.4495C15.4283 35.729 16.3901 34.6953 17.0236 33.4626C17.657 32.2299 17.9374 30.8461 17.8339 29.464C17.7304 28.082 17.2469 26.7554 16.4368 25.6308L16.4365 25.6304ZM32.7423 37.3057C32.9761 37.462 33.251 37.5454 33.5323 37.5454C33.9094 37.5454 34.2711 37.3955 34.5378 37.1289C34.8044 36.8622 34.9542 36.5005 34.9542 36.1234C34.9542 35.8422 34.8708 35.5672 34.7146 35.3334C34.5584 35.0996 34.3363 34.9173 34.0764 34.8097C33.8166 34.702 33.5307 34.6739 33.2549 34.7288C32.979 34.7836 32.7257 34.919 32.5268 35.1179C32.3279 35.3168 32.1925 35.5702 32.1376 35.846C32.0828 36.1218 32.1109 36.4077 32.2186 36.6676C32.3262 36.9274 32.5084 37.1495 32.7423 37.3057Z" fill="white" stroke="#7EA903" stroke-width="0.4"/>
<path d="M8.38878 27.1298C8.95872 26.749 9.62877 26.5457 10.3142 26.5457C11.2332 26.5466 12.1142 26.9121 12.764 27.5619C13.4138 28.2117 13.7793 29.0928 13.7802 30.0118C13.7802 30.6972 13.5769 31.3672 13.1961 31.9371C12.8153 32.5071 12.274 32.9513 11.6407 33.2137C11.0074 33.476 10.3105 33.5446 9.63816 33.4109C8.96585 33.2771 8.34829 32.9471 7.86357 32.4623C7.37886 31.9776 7.04877 31.3601 6.91504 30.6878C6.7813 30.0154 6.84994 29.3186 7.11226 28.6853C7.37459 28.0519 7.81882 27.5106 8.38878 27.1298ZM9.52432 31.1939C9.75817 31.3502 10.0331 31.4336 10.3143 31.4336C10.6915 31.4336 11.0531 31.2837 11.3198 31.0171C11.5865 30.7504 11.7363 30.3887 11.7363 30.0116C11.7363 29.7304 11.6529 29.4554 11.4966 29.2216C11.3404 28.9877 11.1183 28.8055 10.8585 28.6979C10.5987 28.5902 10.3127 28.5621 10.0369 28.6169C9.76108 28.6718 9.50771 28.8072 9.30885 29.0061C9.10998 29.205 8.97455 29.4583 8.91969 29.7342C8.86482 30.01 8.89298 30.2959 9.0006 30.5557C9.10823 30.8156 9.29048 31.0377 9.52432 31.1939Z" fill="white" stroke="#7EA903" stroke-width="0.4"/>
<path d="M19.8423 10.2306L19.8427 10.2307C20.0052 10.2715 20.1753 10.2715 20.3379 10.2307L20.3381 10.2306C20.448 10.2031 21.876 9.83344 23.2721 8.9118C24.6675 7.99055 26 6.54056 26.0001 4.35158C25.9997 3.68267 25.8058 3.02815 25.4418 2.467C25.0777 1.90584 24.559 1.46203 23.9483 1.18911C23.3376 0.91619 22.661 0.825821 22.0001 0.928907C21.3392 1.03199 20.7222 1.32413 20.2236 1.77007L20.0903 1.88933L19.9569 1.77007C19.4584 1.32413 18.8414 1.03199 18.1805 0.928907C17.5196 0.825821 16.8429 0.91619 16.2322 1.18911C15.6215 1.46203 15.1029 1.90584 14.7388 2.467C14.3747 3.02812 14.1808 3.6826 14.1805 4.35147L19.8423 10.2306ZM19.8423 10.2306C19.7323 10.2031 18.3043 9.83345 16.9083 8.9118M19.8423 10.2306L16.9083 8.9118M16.9083 8.9118C15.5129 7.99056 14.1805 6.54057 14.1805 4.35158L16.9083 8.9118ZM19.794 10.4246C19.9885 10.4735 20.1921 10.4735 20.3866 10.4246H19.794ZM20.0275 8.15409L20.09 8.17477L20.1526 8.15424C20.6227 8.00004 21.5621 7.64449 22.3879 7.03876C23.2122 6.43417 23.9562 5.55451 23.9562 4.35147C23.9562 3.97434 23.8064 3.61266 23.5397 3.34599C23.273 3.07932 22.9113 2.92951 22.5342 2.92951C22.1571 2.92951 21.7954 3.07932 21.5287 3.34599C21.2621 3.61266 21.1122 3.97434 21.1122 4.35147C21.1122 4.62251 21.0046 4.88245 20.8129 5.07411C20.6213 5.26576 20.3613 5.37343 20.0903 5.37343C19.8192 5.37343 19.5593 5.26576 19.3676 5.07411C19.176 4.88245 19.0683 4.62251 19.0683 4.35147C19.0683 3.97434 18.9185 3.61266 18.6518 3.34599C18.3852 3.07932 18.0235 2.92951 17.6464 2.92951C17.2692 2.92951 16.9075 3.07932 16.6409 3.34599C16.3742 3.61266 16.2244 3.97434 16.2244 4.35147C16.2244 5.55455 16.9684 6.43361 17.7927 7.03788C18.6184 7.64327 19.5579 7.99879 20.0275 8.15409Z" fill="white" stroke="#7EA903" stroke-width="0.4"/>
</svg>
