<svg width="41" height="45" viewBox="0 0 41 45" fill="none" xmlns="http://www.w3.org/2000/svg">
<path d="M39.6211 38.2114H37.4123V25.3263L40.8728 21.8658L39.842 20.835L32.4791 28.1979L33.5099 29.2287L35.9397 26.7989V38.2114H2.8066C2.36483 38.2114 2.07031 38.5059 2.07031 38.9477V43.4391C2.07031 43.8809 2.36483 44.1754 2.8066 44.1754H39.6211C40.0629 44.1754 40.3574 43.8809 40.3574 43.4391V38.9477C40.3574 38.5059 40.0629 38.2114 39.6211 38.2114ZM38.8849 42.7028H3.54289V39.684H38.8849V42.7028Z" fill="white"/>
<path d="M8.69686 35.3399C8.77048 35.3399 10.464 35.3399 12.1574 33.6464L17.0906 28.7132H18.7104L24.2326 34.4563C24.6744 34.8981 25.4843 35.3399 26.3678 35.3399C27.0305 35.3399 27.7668 35.119 28.4295 34.4563C29.2394 33.6464 29.5339 32.6156 29.1657 31.5848C28.9449 30.8485 28.4295 30.4067 28.4295 30.3331L22.2446 24.1482C22.171 24.0746 21.2138 23.1911 19.3731 22.9702L21.5819 18.2579L23.6436 20.5404C24.4535 21.3503 25.7052 21.424 26.1469 21.424C26.2206 21.424 26.2942 21.424 26.2942 21.424H29.313C30.1965 21.424 31.5219 20.8349 31.5219 19.2151C31.5219 17.5953 30.1965 17.0062 29.313 17.0062H26.736L22.9809 12.0731C25.7052 11.7049 27.8404 9.34879 27.8404 6.55089C27.8404 3.45847 25.337 0.955078 22.2446 0.955078C19.1522 0.955078 16.6488 3.45847 16.6488 6.55089C16.6488 7.43444 16.8697 8.24436 17.1642 8.98065H10.8321C10.7585 8.98065 9.94855 9.05428 9.21226 9.42242C8.62323 9.71694 7.96056 10.306 7.88694 10.3796L3.98459 14.7237C3.46919 15.2391 3.17467 15.9018 3.17467 16.6381C3.17467 18.1107 4.35274 19.2887 5.82532 19.2887C6.63524 19.2887 7.44516 18.9206 7.88694 18.2579L11.2739 14.1347H13.4091L9.21226 22.2339C8.91774 22.8965 8.77048 23.5592 8.77048 24.2955C8.77048 26.7989 11.053 28.8605 13.9245 28.8605H15.1026L11.2002 32.7628C9.87492 33.7937 8.77048 33.8673 8.69686 33.8673H3.54282C3.32193 33.8673 2.07024 33.7937 2.07024 32.3947C2.07024 31.0694 3.17467 30.9221 3.54282 30.9221H8.69686C8.91774 30.9221 9.065 30.8485 9.21226 30.7012L9.94855 29.9649L8.91774 28.9341L8.40234 29.4495H3.54282C2.36475 29.4495 0.597656 30.2595 0.597656 32.3947C0.597656 34.5299 2.36475 35.3399 3.54282 35.3399H8.69686ZM26.3678 18.4052H29.313C29.6811 18.4052 30.0493 18.5524 30.0493 19.1415C30.0493 19.7305 29.6075 19.8778 29.313 19.8778H26.2206C25.9261 19.8778 25.1161 19.8778 24.6744 19.436L22.2446 16.7117L23.0545 15.0182C23.1282 14.871 23.1282 14.7237 23.2018 14.5765L25.7788 18.037C25.9261 18.3315 26.1469 18.4052 26.3678 18.4052ZM22.2446 2.2804C24.5271 2.2804 26.3678 4.12113 26.3678 6.40363C26.3678 8.68613 24.5271 10.5269 22.2446 10.5269C19.9621 10.5269 18.1214 8.68613 18.1214 6.40363C18.1214 4.12113 19.9621 2.2804 22.2446 2.2804ZM10.1694 24.1482C10.1694 23.6328 10.2431 23.1911 10.464 22.7493L15.029 13.9874H17.5323V12.5148H10.9057C10.6848 12.5148 10.464 12.5885 10.3167 12.8094L6.63524 17.2271C6.48798 17.448 6.11984 17.6689 5.75169 17.6689C5.08903 17.6689 4.57363 17.1535 4.57363 16.4908C4.57363 16.1963 4.72089 15.9018 5.0154 15.6073L8.91774 11.2631C9.065 11.1159 9.50678 10.7477 9.80129 10.6005C10.3167 10.3796 10.9057 10.306 10.9057 10.306H18.195C18.784 10.895 19.4467 11.3368 20.2566 11.7049V11.7786C20.9929 11.9994 21.4347 12.4412 21.6556 12.9566C21.8765 13.5457 21.8028 14.1347 21.6556 14.5028L17.7532 22.8229H14.5872V24.2955H18.6368C20.3303 24.2955 21.2138 25.1054 21.2138 25.1054L27.3986 31.2903C27.3986 31.2903 27.6932 31.5848 27.8404 31.9529C27.9877 32.4683 27.914 32.9101 27.3986 33.3519C26.4415 34.3091 25.5579 33.5728 25.337 33.3519L19.594 27.3879C19.3731 27.3143 19.2258 27.2407 19.0049 27.2407H13.8509C12.0838 27.2407 10.1694 25.989 10.1694 24.1482Z" fill="white"/>
</svg>
