<svg width="37" height="38" viewBox="0 0 37 38" fill="none" xmlns="http://www.w3.org/2000/svg">
<path d="M18.6725 11.1372L14.1758 7.85044L15.3605 6.00872L16.0283 4.97168L18.6725 11.1372Z" stroke="white" stroke-width="1.5" stroke-miterlimit="10" stroke-linejoin="round"/>
<path d="M15.0386 2.35988L15.5286 3.64626L16.0295 4.97228L15.3617 6.00932L11.8828 5.64663L13.8754 2.48457L14.6347 1.2832" stroke="white" stroke-width="1.5" stroke-miterlimit="10" stroke-linejoin="round"/>
<path d="M18.6718 3.64626H15.5268L15.0367 2.35988L14.6328 1.2832H18.6718" stroke="white" stroke-width="1.5" stroke-miterlimit="10" stroke-linejoin="round"/>
<path d="M1.64265 19.3521H6.64512V4.97461H4.41247C2.58607 4.97461 1.10547 6.5326 1.10547 8.45448L1.64265 19.3521Z" stroke="white" stroke-width="1.5" stroke-miterlimit="10" stroke-linejoin="round"/>
<path d="M6.64623 16.583H1.58203" stroke="white" stroke-width="1.5" stroke-miterlimit="10" stroke-linejoin="round"/>
<path d="M18.6719 11.1372L23.1686 7.85044L21.9839 6.00872L21.3161 4.97168L18.6719 11.1372Z" stroke="white" stroke-width="1.5" stroke-miterlimit="10" stroke-linejoin="round"/>
<path d="M22.3073 2.35988L21.8173 3.64626L21.3164 4.97228L21.9842 6.00932L25.4631 5.64663L23.4705 2.48457L22.7112 1.2832" stroke="white" stroke-width="1.5" stroke-miterlimit="10" stroke-linejoin="round"/>
<path d="M18.6719 3.64626H21.8169L22.307 2.35988L22.7109 1.2832H18.6719" stroke="white" stroke-width="1.5" stroke-miterlimit="10" stroke-linejoin="round"/>
<path d="M23.4722 2.48438C25.3194 2.73935 27.2904 3.26073 29.2722 4.21275C29.773 4.45642 30.2523 4.71143 30.6993 4.97208V36.4173H18.6739H6.64844V4.97208C7.09543 4.71143 7.57473 4.45642 8.07556 4.21275C10.0574 3.26073 12.0284 2.73935 13.8756 2.48438" stroke="white" stroke-width="1.5" stroke-miterlimit="10" stroke-linejoin="round"/>
<path d="M35.7017 19.3521H30.6992V4.97461H32.9319C34.7583 4.97461 36.2389 6.5326 36.2389 8.45448L35.7017 19.3521Z" stroke="white" stroke-width="1.5" stroke-miterlimit="10" stroke-linejoin="round"/>
<path d="M30.6992 16.583H35.7634" stroke="white" stroke-width="1.5" stroke-miterlimit="10" stroke-linejoin="round"/>
<path d="M6.64453 31.8838H30.6996" stroke="white" stroke-width="1.5" stroke-miterlimit="10" stroke-linejoin="round"/>
<path d="M18.6719 13.1826V20.5495" stroke="white" stroke-width="1.5" stroke-miterlimit="10" stroke-linecap="round" stroke-linejoin="round"/>
</svg>
