<svg width="41" height="41" viewBox="0 0 41 41" fill="none" xmlns="http://www.w3.org/2000/svg">
<path d="M39.1912 23.7379H38.2404V5.67388C38.2391 4.58277 37.8625 3.52532 37.1739 2.67902C36.4852 1.83272 35.5263 1.24909 34.4582 1.02611C33.3901 0.803131 32.2779 0.954366 31.3081 1.45443C30.3383 1.9545 29.5701 2.77295 29.1324 3.77241L26.5464 1.20542C26.3699 1.02891 26.1305 0.929749 25.8808 0.929749C25.6312 0.929749 25.3918 1.02891 25.2153 1.20542C25.0388 1.38192 24.9397 1.62131 24.9397 1.87093C24.9397 2.12055 25.0388 2.35994 25.2153 2.53645L29.0183 6.3394L32.8212 10.1423C32.9066 10.2333 33.0097 10.3058 33.1241 10.3553C33.2386 10.4049 33.362 10.4305 33.4867 10.4305C33.6115 10.4305 33.7349 10.4049 33.8493 10.3553C33.9638 10.3058 34.0669 10.2333 34.1523 10.1423C34.2432 10.057 34.3157 9.95389 34.3652 9.83943C34.4148 9.72497 34.4404 9.60156 34.4404 9.47683C34.4404 9.3521 34.4148 9.22869 34.3652 9.11423C34.3157 8.99976 34.2432 8.89667 34.1523 8.81131L30.6345 5.3126C30.6824 4.55615 31.0289 3.84971 31.5977 3.34869C32.1664 2.84767 32.9109 2.59312 33.6674 2.64103C34.4238 2.68894 35.1303 3.03538 35.6313 3.60415C36.1323 4.17292 36.3869 4.91743 36.3389 5.67388V23.7379H1.16167C0.909523 23.7379 0.6677 23.8381 0.489402 24.0163C0.311104 24.1946 0.210938 24.4365 0.210938 24.6886V26.5901C0.215329 27.1779 0.400024 27.7502 0.740073 28.2296C1.08012 28.7091 1.55914 29.0727 2.11241 29.2712V36.0975C2.11241 37.3582 2.61325 38.5673 3.50473 39.4588C4.39622 40.3503 5.60534 40.8512 6.8661 40.8512H33.4867C34.7475 40.8512 35.9566 40.3503 36.8481 39.4588C37.7396 38.5673 38.2404 37.3582 38.2404 36.0975V29.2712C38.7937 29.0727 39.2727 28.7091 39.6128 28.2296C39.9528 27.7502 40.1375 27.1779 40.1419 26.5901V24.6886C40.1419 24.4365 40.0417 24.1946 39.8634 24.0163C39.6851 23.8381 39.4433 23.7379 39.1912 23.7379ZM36.3389 36.0975C36.3389 36.8539 36.0384 37.5794 35.5036 38.1143C34.9687 38.6492 34.2432 38.9497 33.4867 38.9497H6.8661C6.10964 38.9497 5.38417 38.6492 4.84928 38.1143C4.31439 37.5794 4.01389 36.8539 4.01389 36.0975V29.4423H36.3389V36.0975ZM38.2404 26.5901C38.2404 26.8422 38.1403 27.0841 37.962 27.2624C37.7837 27.4407 37.5418 27.5408 37.2897 27.5408H3.06315C2.811 27.5408 2.56917 27.4407 2.39088 27.2624C2.21258 27.0841 2.11241 26.8422 2.11241 26.5901V25.6394H38.2404V26.5901ZM19.9482 12.6713C19.92 12.5525 19.92 12.4288 19.9482 12.31C19.9213 12.1911 19.9213 12.0677 19.9482 11.9487C19.9932 11.8324 20.0649 11.7282 20.1574 11.6445C20.2428 11.5539 20.3465 11.4826 20.4616 11.4353C20.634 11.3632 20.8241 11.3446 21.0072 11.3819C21.1903 11.4192 21.358 11.5107 21.4884 11.6445C21.575 11.7332 21.6458 11.8361 21.6976 11.9487C21.7245 12.0677 21.7245 12.1911 21.6976 12.31C21.7259 12.4288 21.7259 12.5525 21.6976 12.6713C21.6461 12.7898 21.5754 12.899 21.4884 12.9946C21.3098 13.1667 21.071 13.2623 20.8229 13.2608C20.7042 13.2891 20.5804 13.2891 20.4616 13.2608C20.3477 13.2201 20.2439 13.1553 20.1574 13.0706C20.0532 12.9586 19.981 12.8207 19.9482 12.6713ZM22.8385 8.86836C22.9249 8.78372 23.0287 8.71885 23.1427 8.67821C23.3128 8.60106 23.5024 8.57793 23.686 8.61193C23.8696 8.64593 24.0384 8.73543 24.1695 8.86836C24.2629 8.95882 24.3344 9.06937 24.3787 9.19161C24.407 9.31037 24.407 9.43412 24.3787 9.55289C24.4056 9.67181 24.4056 9.79525 24.3787 9.91417C24.3337 10.0305 24.262 10.1347 24.1695 10.2184C24.0841 10.309 23.9804 10.3803 23.8653 10.4276C23.7457 10.4474 23.6236 10.4474 23.504 10.4276C23.3842 10.4453 23.2625 10.4453 23.1427 10.4276C23.0276 10.3803 22.9239 10.309 22.8385 10.2184C22.7519 10.1297 22.6811 10.0268 22.6293 9.91417C22.6116 9.79439 22.6116 9.67266 22.6293 9.55289C22.6095 9.43328 22.6095 9.31122 22.6293 9.19161C22.6873 9.09998 22.7577 9.0168 22.8385 8.94442V8.86836ZM26.8316 14.3256C26.9164 14.4228 26.9868 14.5316 27.0407 14.6488C27.0606 14.7684 27.0606 14.8905 27.0407 15.0101C27.0314 15.2596 26.9298 15.4968 26.7555 15.6756C26.5788 15.8531 26.3403 15.9553 26.09 15.9609C25.833 15.9602 25.5868 15.8576 25.4055 15.6756C25.2333 15.497 25.1378 15.2582 25.1393 15.0101C25.111 14.8914 25.111 14.7676 25.1393 14.6488C25.1796 14.5291 25.2443 14.419 25.3294 14.3256C25.4239 14.2199 25.5397 14.1354 25.6691 14.0775C25.7985 14.0197 25.9387 13.9897 26.0805 13.9897C26.2223 13.9897 26.3624 14.0197 26.4919 14.0775C26.6213 14.1354 26.737 14.2199 26.8316 14.3256ZM17.3242 7.29013C17.3043 7.17052 17.3043 7.04846 17.3242 6.92885C17.3227 6.68078 17.4182 6.44195 17.5904 6.26334C17.7713 6.08793 18.0134 5.98983 18.2654 5.98983C18.5174 5.98983 18.7595 6.08793 18.9405 6.26334C19.1126 6.44195 19.2082 6.68078 19.2067 6.92885C19.235 7.04762 19.235 7.17137 19.2067 7.29013C19.1663 7.40988 19.1016 7.51996 19.0165 7.61338C18.831 7.78672 18.5859 7.88204 18.332 7.87959C18.1216 7.91456 17.9056 7.87475 17.7215 7.76707C17.5374 7.6594 17.3969 7.49065 17.3242 7.29013ZM26.8316 11.6445C26.7512 11.5508 26.6811 11.4489 26.6224 11.3403C26.6047 11.2205 26.6047 11.0988 26.6224 10.979C26.6023 10.7325 26.6771 10.4876 26.8316 10.2945C26.9252 10.2141 27.0272 10.144 27.1358 10.0853C27.3673 9.99021 27.6269 9.99021 27.8584 10.0853L28.1816 10.2945C28.3567 10.4789 28.4523 10.7247 28.4478 10.979C28.4748 11.0979 28.4748 11.2214 28.4478 11.3403C28.4028 11.4521 28.3384 11.555 28.2577 11.6445C28.0721 11.8178 27.827 11.9132 27.5732 11.9107C27.4534 11.929 27.3316 11.929 27.2119 11.9107C27.0737 11.8395 26.9458 11.7499 26.8316 11.6445ZM21.2412 5.94009C21.2235 5.82031 21.2235 5.69858 21.2412 5.57881C21.2214 5.4592 21.2214 5.33713 21.2412 5.21753C21.2952 5.10034 21.3656 4.99148 21.4504 4.89428C21.5578 4.82475 21.6726 4.76736 21.7927 4.72314C21.9691 4.65669 22.1606 4.64107 22.3455 4.67804C22.5304 4.71502 22.7012 4.80311 22.8385 4.93231C22.9233 5.02951 22.9937 5.13837 23.0476 5.25556C23.0675 5.37516 23.0675 5.49723 23.0476 5.61684C23.0659 5.73657 23.0659 5.85838 23.0476 5.97812C22.989 6.0867 22.9189 6.18869 22.8385 6.28235C22.6548 6.46097 22.4101 6.56296 22.1539 6.56757C22.0342 6.58527 21.9124 6.58527 21.7927 6.56757C21.68 6.51576 21.5771 6.44502 21.4884 6.35841C21.4016 6.235 21.3313 6.10076 21.2793 5.9591L21.2412 5.94009ZM17.3242 15.3714C17.3059 15.2517 17.3059 15.1299 17.3242 15.0101C17.3198 14.7559 17.4154 14.51 17.5904 14.3256C17.7756 14.1586 18.0161 14.0661 18.2654 14.0661C18.5148 14.0661 18.7553 14.1586 18.9405 14.3256C19.1138 14.5111 19.2091 14.7562 19.2067 15.0101C19.2336 15.129 19.2336 15.2525 19.2067 15.3714C19.1616 15.4832 19.0973 15.5862 19.0165 15.6756C18.8308 15.8511 18.5873 15.9526 18.332 15.9609C18.0816 15.9553 17.8432 15.8531 17.6665 15.6756C17.532 15.5998 17.4153 15.496 17.3242 15.3714ZM25.5956 18.3567C25.7776 18.5381 25.8802 18.7843 25.8808 19.0412C25.9078 19.1602 25.9078 19.2836 25.8808 19.4025C25.8358 19.5189 25.7642 19.6231 25.6717 19.7068C25.5704 19.7938 25.4523 19.859 25.3247 19.8982C25.1971 19.9375 25.0628 19.95 24.9301 19.9349C24.8103 19.9526 24.6886 19.9526 24.5688 19.9349C24.4537 19.8877 24.35 19.8163 24.2646 19.7258C24.1721 19.6421 24.1004 19.5379 24.0554 19.4215C24.0285 19.3026 24.0285 19.1792 24.0554 19.0603C24.0561 18.8033 24.1586 18.5571 24.3406 18.3757C24.4271 18.2911 24.5309 18.2262 24.6449 18.1856C24.7937 18.1421 24.9509 18.1349 25.103 18.1647C25.2552 18.1945 25.3981 18.2603 25.5196 18.3567H25.5956ZM13.217 8.64018C13.1972 8.52057 13.1972 8.39851 13.217 8.2789C13.1993 8.15912 13.1993 8.0374 13.217 7.91762C13.2915 7.79246 13.3961 7.68788 13.5213 7.61338C13.6049 7.52086 13.7091 7.44922 13.8255 7.40422C14.0012 7.33306 14.1939 7.31495 14.3797 7.35212C14.5656 7.3893 14.7365 7.48013 14.8713 7.61338C15.0357 7.79694 15.1299 8.03263 15.1375 8.2789C15.1658 8.39766 15.1658 8.52141 15.1375 8.64018C15.0969 8.75415 15.032 8.85795 14.9474 8.94442C14.8569 9.03779 14.7464 9.10932 14.6241 9.15358C14.5053 9.18187 14.3816 9.18187 14.2628 9.15358C14.1439 9.18052 14.0205 9.18052 13.9016 9.15358C13.7579 9.1203 13.6263 9.04791 13.5213 8.94442C13.3961 8.86992 13.2915 8.76534 13.217 8.64018Z" fill="white"/>
</svg>
