<svg width="21" height="20" viewBox="0 0 21 20" fill="none" xmlns="http://www.w3.org/2000/svg">
<path fill-rule="evenodd" clip-rule="evenodd" d="M2.90625 0C1.80168 0 0.90625 0.895431 0.90625 2V18C0.90625 19.1046 1.80168 20 2.90625 20H18.9062C20.0108 20 20.9062 19.1046 20.9062 18V2C20.9062 0.895431 20.0108 0 18.9062 0H2.90625ZM17.021 5.89734C17.6717 5.82624 18.3072 5.66555 18.9062 5.42061C18.4657 6.02922 17.9109 6.56026 17.2679 6.98869C17.2741 7.1189 17.2774 7.24987 17.2774 7.38104C17.2774 11.384 13.9757 16 7.93795 16C6.15395 16.0016 4.40714 15.5292 2.90625 14.6392C3.16328 14.6674 3.42446 14.6816 3.68939 14.6816C5.16746 14.6836 6.60334 14.2268 7.76611 13.3847C6.3297 13.3601 5.11749 12.484 4.69984 11.2806C5.19181 11.3673 5.69871 11.3496 6.18217 11.2288C4.68073 10.9502 3.54934 9.72577 3.54934 8.25837C3.54934 8.24533 3.54934 8.23287 3.54976 8.22021C4.00557 8.45395 4.51527 8.58386 5.03645 8.59914C4.58686 8.32235 4.21831 7.94734 3.96355 7.50745C3.70879 7.06755 3.57572 6.57639 3.57615 6.0776C3.57528 5.54247 3.72867 5.01676 4.0206 4.5544C5.63965 6.3875 8.05826 7.59371 10.7865 7.72008C10.7304 7.49821 10.7013 7.26675 10.7013 7.02953C10.7013 5.35618 12.1711 4 13.9838 4C14.4329 3.99955 14.8773 4.08422 15.2894 4.24876C15.7015 4.4133 16.0727 4.6542 16.3798 4.95653C17.1149 4.82318 17.8199 4.57464 18.4641 4.22168C18.2193 4.92332 17.7064 5.51887 17.021 5.89734Z" fill="white"/>
</svg>
