<svg width="23" height="15" viewBox="0 0 23 15" fill="none" xmlns="http://www.w3.org/2000/svg">
<path d="M22.6034 15H0.39657C0.177576 15 0 14.8232 0 14.6052V0.394754C0 0.176763 0.177576 0 0.39657 0H22.6034C22.8224 0 23 0.176763 23 0.394754V14.6052C23 14.8233 22.8224 15 22.6034 15Z" fill="white"/>
<path d="M22.7671 1.26636H0V0.513377C0 0.297155 0.175778 0.121826 0.392555 0.121826H22.3746C22.5914 0.121826 22.7672 0.297155 22.7672 0.513377L22.7671 1.26636Z" fill="#FF4B55"/>
<path d="M22.7671 4.69946H0V5.84396H22.7671V4.69946Z" fill="#FF4B55"/>
<path d="M22.7671 2.4104H0V3.55489H22.7671V2.4104Z" fill="#FF4B55"/>
<path d="M22.7671 8.13306H0.392555C0.175778 8.13306 0 7.95773 0 7.74151V6.98853H22.7671V8.13306Z" fill="#FF4B55"/>
<path d="M22.7671 11.5667H0V12.7111H22.7671V11.5667Z" fill="#FF4B55"/>
<path d="M22.3746 15.0002H0.392555C0.175778 15.0002 0 14.8249 0 14.6087V13.8557H22.7671V14.6087C22.7671 14.8249 22.5914 15.0002 22.3746 15.0002Z" fill="#FF4B55"/>
<path d="M22.7671 9.27808H0V10.4226H22.7671V9.27808Z" fill="#FF4B55"/>
<path d="M10.2222 0.121826H0.393179C0.176058 0.121826 0 0.297113 0 0.513338V7.74169C0 7.95792 0.176058 8.13325 0.393179 8.13325H10.2222C10.4393 8.13325 10.6154 7.95792 10.6154 7.74169V0.513338C10.6153 0.297113 10.4393 0.121826 10.2222 0.121826Z" fill="#41479B"/>
<path d="M1.10133 1.02036L1.18822 1.28027L1.4629 1.28235C1.49847 1.28267 1.51319 1.32791 1.4846 1.34897L1.26364 1.51175L1.34652 1.77295C1.35729 1.80674 1.31864 1.83478 1.2897 1.81411L1.06625 1.65483L0.842802 1.81415C0.813854 1.83478 0.775301 1.80679 0.785973 1.77299L0.86886 1.51179L0.647903 1.34902C0.61931 1.32791 0.634029 1.28271 0.669603 1.2824L0.944276 1.28031L1.03116 1.0204C1.04237 0.986696 1.09004 0.986696 1.10133 1.02036Z" fill="#F5F5F5"/>
<path d="M1.10133 2.38019L1.18822 2.6401L1.4629 2.64219C1.49847 2.6425 1.51319 2.68774 1.4846 2.7088L1.26364 2.87158L1.34652 3.13278C1.35729 3.16657 1.31864 3.19461 1.2897 3.17394L1.06625 3.01466L0.842802 3.17398C0.813854 3.19461 0.775301 3.16662 0.785973 3.13282L0.86886 2.87163L0.647903 2.70885C0.61931 2.68774 0.634029 2.64254 0.669603 2.64223L0.944276 2.64014L1.03116 2.38023C1.04237 2.34657 1.09004 2.34657 1.10133 2.38019Z" fill="#F5F5F5"/>
<path d="M1.10133 3.73956L1.18822 3.99948L1.4629 4.00156C1.49847 4.00187 1.51319 4.04711 1.4846 4.06818L1.26364 4.23096L1.34652 4.49215C1.35729 4.52595 1.31864 4.55398 1.2897 4.53331L1.06625 4.37404L0.842802 4.53336C0.813854 4.55398 0.775301 4.52599 0.785973 4.4922L0.86886 4.231L0.647903 4.06822C0.61931 4.04711 0.634029 4.00192 0.669603 4.0016L0.944276 3.99952L1.03116 3.73961C1.04237 3.70595 1.09004 3.70594 1.10133 3.73956Z" fill="#F5F5F5"/>
<path d="M1.10133 5.09946L1.18822 5.35937L1.4629 5.36146C1.49847 5.36177 1.51319 5.40701 1.4846 5.42808L1.26364 5.59085L1.34652 5.85205C1.35729 5.88585 1.31864 5.91388 1.2897 5.89321L1.06625 5.73394L0.842802 5.89325C0.813854 5.91388 0.775301 5.88589 0.785973 5.85209L0.86886 5.5909L0.647903 5.42812C0.61931 5.40701 0.634029 5.36181 0.669603 5.3615L0.944276 5.35942L1.03116 5.09951C1.04237 5.0658 1.09004 5.0658 1.10133 5.09946Z" fill="#F5F5F5"/>
<path d="M1.10133 6.45887L1.18822 6.71878L1.4629 6.72086C1.49847 6.72118 1.51319 6.76642 1.4846 6.78748L1.26364 6.95026L1.34652 7.21146C1.35729 7.24526 1.31864 7.27329 1.2897 7.25262L1.06625 7.09334L0.842802 7.25266C0.813854 7.27329 0.775301 7.2453 0.785973 7.2115L0.86886 6.95031L0.647903 6.78753C0.61931 6.76642 0.634029 6.72122 0.669603 6.72091L0.944276 6.71882L1.03116 6.45891C1.04237 6.42516 1.09004 6.42516 1.10133 6.45887Z" fill="#F5F5F5"/>
<path d="M2.15993 1.68732L2.24682 1.94723L2.52149 1.94932C2.55706 1.94963 2.57178 1.99487 2.54319 2.01594L2.32223 2.17871L2.40512 2.43991C2.41588 2.47371 2.37724 2.50174 2.34829 2.48107L2.12484 2.32175L1.9014 2.48107C1.87245 2.5017 1.83389 2.47371 1.84457 2.43991L1.92745 2.17871L1.7065 2.01594C1.6779 1.99483 1.69262 1.94963 1.7282 1.94932L2.00287 1.94723L2.08976 1.68732C2.10092 1.6537 2.14868 1.6537 2.15993 1.68732Z" fill="#F5F5F5"/>
<path d="M2.15993 3.04673L2.24682 3.30664L2.52149 3.30873C2.55706 3.30904 2.57178 3.35428 2.54319 3.37535L2.32223 3.53812L2.40512 3.79932C2.41588 3.83312 2.37724 3.86115 2.34829 3.84048L2.12484 3.68116L1.9014 3.84048C1.87245 3.8611 1.83389 3.83316 1.84457 3.79932L1.92745 3.53812L1.7065 3.37535C1.6779 3.35423 1.69262 3.30904 1.7282 3.30873L2.00287 3.30664L2.08976 3.04673C2.10092 3.01307 2.14868 3.01307 2.15993 3.04673Z" fill="#F5F5F5"/>
<path d="M2.15993 4.40611L2.24682 4.66602L2.52149 4.6681C2.55706 4.66841 2.57178 4.71365 2.54319 4.73472L2.32223 4.8975L2.40512 5.15869C2.41588 5.19249 2.37724 5.22052 2.34829 5.19986L2.12484 5.04054L1.9014 5.19986C1.87245 5.22048 1.83389 5.19249 1.84457 5.15869L1.92745 4.8975L1.7065 4.73472C1.6779 4.71361 1.69262 4.66841 1.7282 4.6681L2.00287 4.66602L2.08976 4.40611C2.10092 4.37244 2.14868 4.37244 2.15993 4.40611Z" fill="#F5F5F5"/>
<path d="M2.15993 5.76594L2.24682 6.02585L2.52149 6.02793C2.55706 6.02824 2.57178 6.07348 2.54319 6.09455L2.32223 6.25733L2.40512 6.51853C2.41588 6.55232 2.37724 6.58035 2.34829 6.55969L2.12484 6.40037L1.9014 6.55969C1.87245 6.58031 1.83389 6.55232 1.84457 6.51853L1.92745 6.25733L1.7065 6.09455C1.6779 6.07344 1.69262 6.02824 1.7282 6.02793L2.00287 6.02585L2.08976 5.76594C2.10092 5.73232 2.14868 5.73232 2.15993 5.76594Z" fill="#F5F5F5"/>
<path d="M3.21852 1.02037L3.30541 1.28028L3.58008 1.28236C3.61566 1.28267 3.63038 1.32791 3.60178 1.34898L3.38083 1.51176L3.46371 1.77295C3.47447 1.80675 3.43583 1.83478 3.40688 1.81411L3.18344 1.6548L2.95999 1.81411C2.93104 1.83474 2.89249 1.80675 2.90316 1.77295L2.98605 1.51176L2.76509 1.34898C2.7365 1.32787 2.75122 1.28267 2.78679 1.28236L3.06146 1.28028L3.14835 1.02037C3.15956 0.986701 3.20727 0.986701 3.21852 1.02037Z" fill="#F5F5F5"/>
<path d="M3.21852 2.3802L3.30541 2.64011L3.58008 2.64219C3.61566 2.6425 3.63038 2.68774 3.60178 2.70881L3.38083 2.87159L3.46371 3.13278C3.47447 3.16658 3.43583 3.19461 3.40688 3.17394L3.18344 3.01463L2.95999 3.17394C2.93104 3.19457 2.89249 3.16658 2.90316 3.13278L2.98605 2.87159L2.76509 2.70881C2.7365 2.6877 2.75122 2.6425 2.78679 2.64219L3.06146 2.64011L3.14835 2.3802C3.15956 2.34658 3.20727 2.34658 3.21852 2.3802Z" fill="#F5F5F5"/>
<path d="M3.21852 3.73957L3.30541 3.99948L3.58008 4.00157C3.61566 4.00188 3.63038 4.04712 3.60178 4.06819L3.38083 4.23096L3.46371 4.49216C3.47447 4.52596 3.43583 4.55399 3.40688 4.53332L3.18344 4.374L2.95999 4.53332C2.93104 4.55394 2.89249 4.52596 2.90316 4.49216L2.98605 4.23096L2.76509 4.06819C2.7365 4.04707 2.75122 4.00188 2.78679 4.00157L3.06146 3.99948L3.14835 3.73957C3.15956 3.70595 3.20727 3.70595 3.21852 3.73957Z" fill="#F5F5F5"/>
<path d="M3.21852 5.09947L3.30541 5.35938L3.58008 5.36146C3.61566 5.36177 3.63038 5.40701 3.60178 5.42808L3.38083 5.59086L3.46371 5.85205C3.47447 5.88585 3.43583 5.91388 3.40688 5.89321L3.18344 5.7339L2.95999 5.89321C2.93104 5.91384 2.89249 5.88585 2.90316 5.85205L2.98605 5.59086L2.76509 5.42808C2.7365 5.40697 2.75122 5.36177 2.78679 5.36146L3.06146 5.35938L3.14835 5.09947C3.15956 5.0658 3.20727 5.0658 3.21852 5.09947Z" fill="#F5F5F5"/>
<path d="M3.21852 6.45888L3.30541 6.71879L3.58008 6.72087C3.61566 6.72118 3.63038 6.76642 3.60178 6.78749L3.38083 6.95027L3.46371 7.21146C3.47447 7.24526 3.43583 7.27329 3.40688 7.25262L3.18344 7.09331L2.95999 7.25262C2.93104 7.27325 2.89249 7.24526 2.90316 7.21146L2.98605 6.95027L2.76509 6.78749C2.7365 6.76638 2.75122 6.72118 2.78679 6.72087L3.06146 6.71879L3.14835 6.45888C3.15956 6.42517 3.20727 6.42517 3.21852 6.45888Z" fill="#F5F5F5"/>
<path d="M4.27321 1.68732L4.3601 1.94723L4.63477 1.94932C4.67034 1.94963 4.68506 1.99487 4.65647 2.01594L4.43551 2.17871L4.5184 2.43991C4.52916 2.47371 4.49052 2.50174 4.46157 2.48107L4.23812 2.32175L4.01468 2.48107C3.98573 2.5017 3.94718 2.47371 3.95785 2.43991L4.04073 2.17871L3.81978 2.01594C3.79119 1.99483 3.8059 1.94963 3.84148 1.94932L4.11615 1.94723L4.20304 1.68732C4.2142 1.6537 4.26196 1.6537 4.27321 1.68732Z" fill="#F5F5F5"/>
<path d="M4.27321 3.04673L4.3601 3.30664L4.63477 3.30873C4.67034 3.30904 4.68506 3.35428 4.65647 3.37535L4.43551 3.53812L4.5184 3.79932C4.52916 3.83312 4.49052 3.86115 4.46157 3.84048L4.23812 3.68116L4.01468 3.84048C3.98573 3.8611 3.94718 3.83316 3.95785 3.79932L4.04073 3.53812L3.81978 3.37535C3.79119 3.35423 3.8059 3.30904 3.84148 3.30873L4.11615 3.30664L4.20304 3.04673C4.2142 3.01307 4.26196 3.01307 4.27321 3.04673Z" fill="#F5F5F5"/>
<path d="M4.27321 4.40611L4.3601 4.66602L4.63477 4.6681C4.67034 4.66841 4.68506 4.71365 4.65647 4.73472L4.43551 4.8975L4.5184 5.15869C4.52916 5.19249 4.49052 5.22052 4.46157 5.19986L4.23812 5.04054L4.01468 5.19986C3.98573 5.22048 3.94718 5.19249 3.95785 5.15869L4.04073 4.8975L3.81978 4.73472C3.79119 4.71361 3.8059 4.66841 3.84148 4.6681L4.11615 4.66602L4.20304 4.40611C4.2142 4.37244 4.26196 4.37244 4.27321 4.40611Z" fill="#F5F5F5"/>
<path d="M4.27321 5.76594L4.3601 6.02585L4.63477 6.02793C4.67034 6.02824 4.68506 6.07348 4.65647 6.09455L4.43551 6.25733L4.5184 6.51853C4.52916 6.55232 4.49052 6.58035 4.46157 6.55969L4.23812 6.40037L4.01468 6.55969C3.98573 6.58031 3.94718 6.55232 3.95785 6.51853L4.04073 6.25733L3.81978 6.09455C3.79119 6.07344 3.8059 6.02824 3.84148 6.02793L4.11615 6.02585L4.20304 5.76594C4.2142 5.73232 4.26196 5.73232 4.27321 5.76594Z" fill="#F5F5F5"/>
<path d="M5.33185 1.02037L5.41874 1.28028L5.69341 1.28236C5.72898 1.28267 5.7437 1.32791 5.71511 1.34898L5.49415 1.51176L5.57704 1.77295C5.5878 1.80675 5.54916 1.83478 5.52021 1.81411L5.29672 1.6548L5.07327 1.81411C5.04432 1.83474 5.00577 1.80675 5.01644 1.77295L5.09933 1.51176L4.87837 1.34898C4.84978 1.32787 4.8645 1.28267 4.90007 1.28236L5.17474 1.28028L5.26163 1.02037C5.27288 0.986701 5.3206 0.986701 5.33185 1.02037Z" fill="#F5F5F5"/>
<path d="M5.33185 2.3802L5.41874 2.64011L5.69341 2.64219C5.72898 2.6425 5.7437 2.68774 5.71511 2.70881L5.49415 2.87159L5.57704 3.13278C5.5878 3.16658 5.54916 3.19461 5.52021 3.17394L5.29672 3.01463L5.07327 3.17394C5.04432 3.19457 5.00577 3.16658 5.01644 3.13278L5.09933 2.87159L4.87837 2.70881C4.84978 2.6877 4.8645 2.6425 4.90007 2.64219L5.17474 2.64011L5.26163 2.3802C5.27288 2.34658 5.3206 2.34658 5.33185 2.3802Z" fill="#F5F5F5"/>
<path d="M5.33185 3.73957L5.41874 3.99948L5.69341 4.00157C5.72898 4.00188 5.7437 4.04712 5.71511 4.06819L5.49415 4.23096L5.57704 4.49216C5.5878 4.52596 5.54916 4.55399 5.52021 4.53332L5.29672 4.374L5.07327 4.53332C5.04432 4.55394 5.00577 4.52596 5.01644 4.49216L5.09933 4.23096L4.87837 4.06819C4.84978 4.04707 4.8645 4.00188 4.90007 4.00157L5.17474 3.99948L5.26163 3.73957C5.27288 3.70595 5.3206 3.70595 5.33185 3.73957Z" fill="#F5F5F5"/>
<path d="M5.33185 5.09947L5.41874 5.35938L5.69341 5.36146C5.72898 5.36177 5.7437 5.40701 5.71511 5.42808L5.49415 5.59086L5.57704 5.85205C5.5878 5.88585 5.54916 5.91388 5.52021 5.89321L5.29672 5.7339L5.07327 5.89321C5.04432 5.91384 5.00577 5.88585 5.01644 5.85205L5.09933 5.59086L4.87837 5.42808C4.84978 5.40697 4.8645 5.36177 4.90007 5.36146L5.17474 5.35938L5.26163 5.09947C5.27288 5.0658 5.3206 5.0658 5.33185 5.09947Z" fill="#F5F5F5"/>
<path d="M5.33185 6.45888L5.41874 6.71879L5.69341 6.72087C5.72898 6.72118 5.7437 6.76642 5.71511 6.78749L5.49415 6.95027L5.57704 7.21146C5.5878 7.24526 5.54916 7.27329 5.52021 7.25262L5.29672 7.09331L5.07327 7.25262C5.04432 7.27325 5.00577 7.24526 5.01644 7.21146L5.09933 6.95027L4.87837 6.78749C4.84978 6.76638 4.8645 6.72118 4.90007 6.72087L5.17474 6.71879L5.26163 6.45888C5.27288 6.42517 5.3206 6.42517 5.33185 6.45888Z" fill="#F5F5F5"/>
<path d="M6.3904 1.68732L6.47729 1.94723L6.75196 1.94932C6.78753 1.94963 6.80225 1.99487 6.77366 2.01594L6.5527 2.17871L6.63559 2.43991C6.64635 2.47371 6.60771 2.50174 6.57876 2.48107L6.35531 2.32175L6.13186 2.48107C6.10292 2.5017 6.06436 2.47371 6.07504 2.43991L6.15792 2.17871L5.93697 2.01594C5.90837 1.99483 5.92309 1.94963 5.95867 1.94932L6.23334 1.94723L6.32023 1.68732C6.33148 1.6537 6.37915 1.6537 6.3904 1.68732Z" fill="#F5F5F5"/>
<path d="M6.3904 3.04673L6.47729 3.30664L6.75196 3.30873C6.78753 3.30904 6.80225 3.35428 6.77366 3.37535L6.5527 3.53812L6.63559 3.79932C6.64635 3.83312 6.60771 3.86115 6.57876 3.84048L6.35531 3.68116L6.13186 3.84048C6.10292 3.8611 6.06436 3.83316 6.07504 3.79932L6.15792 3.53812L5.93697 3.37535C5.90837 3.35423 5.92309 3.30904 5.95867 3.30873L6.23334 3.30664L6.32023 3.04673C6.33148 3.01307 6.37915 3.01307 6.3904 3.04673Z" fill="#F5F5F5"/>
<path d="M6.3904 4.40611L6.47729 4.66602L6.75196 4.6681C6.78753 4.66841 6.80225 4.71365 6.77366 4.73472L6.5527 4.8975L6.63559 5.15869C6.64635 5.19249 6.60771 5.22052 6.57876 5.19986L6.35531 5.04054L6.13186 5.19986C6.10292 5.22048 6.06436 5.19249 6.07504 5.15869L6.15792 4.8975L5.93697 4.73472C5.90837 4.71361 5.92309 4.66841 5.95867 4.6681L6.23334 4.66602L6.32023 4.40611C6.33148 4.37244 6.37915 4.37244 6.3904 4.40611Z" fill="#F5F5F5"/>
<path d="M6.3904 5.76594L6.47729 6.02585L6.75196 6.02793C6.78753 6.02824 6.80225 6.07348 6.77366 6.09455L6.5527 6.25733L6.63559 6.51853C6.64635 6.55232 6.60771 6.58035 6.57876 6.55969L6.35531 6.40037L6.13186 6.55969C6.10292 6.58031 6.06436 6.55232 6.07504 6.51853L6.15792 6.25733L5.93697 6.09455C5.90837 6.07344 5.92309 6.02824 5.95867 6.02793L6.23334 6.02585L6.32023 5.76594C6.33148 5.73232 6.37915 5.73232 6.3904 5.76594Z" fill="#F5F5F5"/>
<path d="M7.44899 1.02037L7.53588 1.28028L7.81055 1.28236C7.84613 1.28267 7.86084 1.32791 7.83225 1.34898L7.6113 1.51176L7.69418 1.77295C7.70494 1.80675 7.6663 1.83478 7.63735 1.81411L7.41391 1.6548L7.19046 1.81411C7.16151 1.83474 7.12296 1.80675 7.13363 1.77295L7.21652 1.51176L6.99556 1.34898C6.96697 1.32787 6.98169 1.28267 7.01726 1.28236L7.29193 1.28028L7.37882 1.02037C7.38998 0.986701 7.43774 0.986701 7.44899 1.02037Z" fill="#F5F5F5"/>
<path d="M7.44899 2.3802L7.53588 2.64011L7.81055 2.64219C7.84613 2.6425 7.86084 2.68774 7.83225 2.70881L7.6113 2.87159L7.69418 3.13278C7.70494 3.16658 7.6663 3.19461 7.63735 3.17394L7.41391 3.01463L7.19046 3.17394C7.16151 3.19457 7.12296 3.16658 7.13363 3.13278L7.21652 2.87159L6.99556 2.70881C6.96697 2.6877 6.98169 2.6425 7.01726 2.64219L7.29193 2.64011L7.37882 2.3802C7.38998 2.34658 7.43774 2.34658 7.44899 2.3802Z" fill="#F5F5F5"/>
<path d="M7.44899 3.73957L7.53588 3.99948L7.81055 4.00157C7.84613 4.00188 7.86084 4.04712 7.83225 4.06819L7.6113 4.23096L7.69418 4.49216C7.70494 4.52596 7.6663 4.55399 7.63735 4.53332L7.41391 4.374L7.19046 4.53332C7.16151 4.55394 7.12296 4.52596 7.13363 4.49216L7.21652 4.23096L6.99556 4.06819C6.96697 4.04707 6.98169 4.00188 7.01726 4.00157L7.29193 3.99948L7.37882 3.73957C7.38998 3.70595 7.43774 3.70595 7.44899 3.73957Z" fill="#F5F5F5"/>
<path d="M7.44899 5.09947L7.53588 5.35938L7.81055 5.36146C7.84613 5.36177 7.86084 5.40701 7.83225 5.42808L7.6113 5.59086L7.69418 5.85205C7.70494 5.88585 7.6663 5.91388 7.63735 5.89321L7.41391 5.7339L7.19046 5.89321C7.16151 5.91384 7.12296 5.88585 7.13363 5.85205L7.21652 5.59086L6.99556 5.42808C6.96697 5.40697 6.98169 5.36177 7.01726 5.36146L7.29193 5.35938L7.37882 5.09947C7.38998 5.0658 7.43774 5.0658 7.44899 5.09947Z" fill="#F5F5F5"/>
<path d="M7.44899 6.45888L7.53588 6.71879L7.81055 6.72087C7.84613 6.72118 7.86084 6.76642 7.83225 6.78749L7.6113 6.95027L7.69418 7.21146C7.70494 7.24526 7.6663 7.27329 7.63735 7.25262L7.41391 7.09331L7.19046 7.25262C7.16151 7.27325 7.12296 7.24526 7.13363 7.21146L7.21652 6.95027L6.99556 6.78749C6.96697 6.76638 6.98169 6.72118 7.01726 6.72087L7.29193 6.71879L7.37882 6.45888C7.38998 6.42517 7.43774 6.42517 7.44899 6.45888Z" fill="#F5F5F5"/>
<path d="M8.50758 1.68732L8.59447 1.94723L8.86915 1.94932C8.90472 1.94963 8.91944 1.99487 8.89085 2.01594L8.66989 2.17871L8.75278 2.43991C8.76354 2.47371 8.72489 2.50174 8.69595 2.48107L8.4725 2.32175L8.24905 2.48107C8.2201 2.5017 8.18155 2.47371 8.19222 2.43991L8.27511 2.17871L8.05415 2.01594C8.02556 1.99483 8.04028 1.94963 8.07585 1.94932L8.35053 1.94723L8.43742 1.68732C8.44862 1.6537 8.49638 1.6537 8.50758 1.68732Z" fill="#F5F5F5"/>
<path d="M8.50758 3.04673L8.59447 3.30664L8.86915 3.30873C8.90472 3.30904 8.91944 3.35428 8.89085 3.37535L8.66989 3.53812L8.75278 3.79932C8.76354 3.83312 8.72489 3.86115 8.69595 3.84048L8.4725 3.68116L8.24905 3.84048C8.2201 3.8611 8.18155 3.83316 8.19222 3.79932L8.27511 3.53812L8.05415 3.37535C8.02556 3.35423 8.04028 3.30904 8.07585 3.30873L8.35053 3.30664L8.43742 3.04673C8.44862 3.01307 8.49638 3.01307 8.50758 3.04673Z" fill="#F5F5F5"/>
<path d="M8.50758 4.40611L8.59447 4.66602L8.86915 4.6681C8.90472 4.66841 8.91944 4.71365 8.89085 4.73472L8.66989 4.8975L8.75278 5.15869C8.76354 5.19249 8.72489 5.22052 8.69595 5.19986L8.4725 5.04054L8.24905 5.19986C8.2201 5.22048 8.18155 5.19249 8.19222 5.15869L8.27511 4.8975L8.05415 4.73472C8.02556 4.71361 8.04028 4.66841 8.07585 4.6681L8.35053 4.66602L8.43742 4.40611C8.44862 4.37244 8.49638 4.37244 8.50758 4.40611Z" fill="#F5F5F5"/>
<path d="M8.50758 5.76594L8.59447 6.02585L8.86915 6.02793C8.90472 6.02824 8.91944 6.07348 8.89085 6.09455L8.66989 6.25733L8.75278 6.51853C8.76354 6.55232 8.72489 6.58035 8.69595 6.55969L8.4725 6.40037L8.24905 6.55969C8.2201 6.58031 8.18155 6.55232 8.19222 6.51853L8.27511 6.25733L8.05415 6.09455C8.02556 6.07344 8.04028 6.02824 8.07585 6.02793L8.35053 6.02585L8.43742 5.76594C8.44862 5.73232 8.49638 5.73232 8.50758 5.76594Z" fill="#F5F5F5"/>
<path d="M9.56618 1.02037L9.65307 1.28028L9.92774 1.28236C9.96331 1.28267 9.97803 1.32791 9.94944 1.34898L9.72848 1.51176L9.81137 1.77295C9.82213 1.80675 9.78349 1.83478 9.75454 1.81411L9.53109 1.6548L9.30765 1.81411C9.2787 1.83474 9.24015 1.80675 9.25082 1.77295L9.3337 1.51176L9.11275 1.34898C9.08415 1.32787 9.09887 1.28267 9.13445 1.28236L9.40912 1.28028L9.49601 1.02037C9.50721 0.986701 9.55488 0.986701 9.56618 1.02037Z" fill="#F5F5F5"/>
<path d="M9.56618 2.3802L9.65307 2.64011L9.92774 2.64219C9.96331 2.6425 9.97803 2.68774 9.94944 2.70881L9.72848 2.87159L9.81137 3.13278C9.82213 3.16658 9.78349 3.19461 9.75454 3.17394L9.53109 3.01463L9.30765 3.17394C9.2787 3.19457 9.24015 3.16658 9.25082 3.13278L9.3337 2.87159L9.11275 2.70881C9.08415 2.6877 9.09887 2.6425 9.13445 2.64219L9.40912 2.64011L9.49601 2.3802C9.50721 2.34658 9.55488 2.34658 9.56618 2.3802Z" fill="#F5F5F5"/>
<path d="M9.56618 3.73957L9.65307 3.99948L9.92774 4.00157C9.96331 4.00188 9.97803 4.04712 9.94944 4.06819L9.72848 4.23096L9.81137 4.49216C9.82213 4.52596 9.78349 4.55399 9.75454 4.53332L9.53109 4.374L9.30765 4.53332C9.2787 4.55394 9.24015 4.52596 9.25082 4.49216L9.3337 4.23096L9.11275 4.06819C9.08415 4.04707 9.09887 4.00188 9.13445 4.00157L9.40912 3.99948L9.49601 3.73957C9.50721 3.70595 9.55488 3.70595 9.56618 3.73957Z" fill="#F5F5F5"/>
<path d="M9.56618 5.09947L9.65307 5.35938L9.92774 5.36146C9.96331 5.36177 9.97803 5.40701 9.94944 5.42808L9.72848 5.59086L9.81137 5.85205C9.82213 5.88585 9.78349 5.91388 9.75454 5.89321L9.53109 5.7339L9.30765 5.89321C9.2787 5.91384 9.24015 5.88585 9.25082 5.85205L9.3337 5.59086L9.11275 5.42808C9.08415 5.40697 9.09887 5.36177 9.13445 5.36146L9.40912 5.35938L9.49601 5.09947C9.50721 5.0658 9.55488 5.0658 9.56618 5.09947Z" fill="#F5F5F5"/>
<path d="M9.56618 6.45888L9.65307 6.71879L9.92774 6.72087C9.96331 6.72118 9.97803 6.76642 9.94944 6.78749L9.72848 6.95027L9.81137 7.21146C9.82213 7.24526 9.78349 7.27329 9.75454 7.25262L9.53109 7.09331L9.30765 7.25262C9.2787 7.27325 9.24015 7.24526 9.25082 7.21146L9.3337 6.95027L9.11275 6.78749C9.08415 6.76638 9.09887 6.72118 9.13445 6.72087L9.40912 6.71879L9.49601 6.45888C9.50721 6.42517 9.55488 6.42517 9.56618 6.45888Z" fill="#F5F5F5"/>
</svg>
