<svg width="53" height="56" viewBox="0 0 53 56" fill="none" xmlns="http://www.w3.org/2000/svg">
<path d="M40.6077 18.9387C39.4392 14.4517 36.4594 11.5381 32.311 11.5381C30.266 11.5381 28.1042 12.2956 26.0008 13.6942C23.8974 12.2956 21.6771 11.5381 19.6321 11.5381C15.4253 11.5381 12.1534 14.4517 11.3354 18.997C10.1084 25.3487 13.9646 33.74 25.2412 38.2853C25.4749 38.4018 25.7671 38.4601 26.0592 38.4601C26.3513 38.4601 26.585 38.4018 26.8188 38.2853C38.0369 33.6234 41.7763 25.2322 40.6077 18.9387ZM26.0008 36.0126C16.0096 31.9918 12.5624 24.766 13.6141 19.4049C14.2568 15.9668 16.5939 13.8107 19.6321 13.8107C21.385 13.8107 23.3715 14.5683 25.2996 16.0251L26.0008 16.5495L26.7019 16.0251C28.63 14.6265 30.5581 13.869 32.311 13.869C35.3492 13.869 37.6863 15.9668 38.329 19.4049C39.4392 24.7077 35.9919 31.9335 26.0008 36.0126Z" fill="white"/>
<path d="M21.6183 43.9955L15.3665 35.7208C14.3148 34.3222 12.3283 33.9726 10.8676 34.905C9.40689 35.8373 8.88104 37.8186 9.75746 39.3337L11.9777 43.2962L10.8092 43.4711L6.95292 38.4596L6.77763 29.3691C6.77763 27.5043 5.20008 26.1641 3.33039 26.1641C1.51912 26.1641 0 27.5626 0 29.3691V41.5481C0 42.5387 0.408995 43.4711 1.0517 44.1703L11.3934 55.9997L22.7869 55.8831L22.4947 46.1516C22.4363 45.3358 22.1442 44.5782 21.6183 43.9955ZM12.4451 53.6688L2.80454 42.6552L2.74611 42.597C2.45397 42.3056 2.33712 41.8977 2.33712 41.5481V29.4273C2.33712 28.9029 2.80454 28.5532 3.38882 28.5532C3.9731 28.5532 4.44052 28.9029 4.44052 29.4856L4.6158 39.4502L9.81588 46.0933L15.6587 45.161L11.8024 38.2848C11.5687 37.8186 11.6856 37.2359 12.153 36.9445C12.6204 36.6531 13.2047 36.7697 13.4968 37.1776L19.8071 45.4523C20.0408 45.6854 20.1576 46.0351 20.1576 46.3264L20.3913 53.6105L12.4451 53.6688Z" fill="white"/>
<path d="M52.0016 29.4277C52.0016 27.6212 50.5409 26.2227 48.6712 26.2227H48.6127C46.743 26.2227 45.2239 27.5629 45.2239 29.4277C45.1655 32.3413 45.1071 37.1779 45.0486 38.5765L41.1924 43.5296L40.0238 43.3548L42.2441 39.3923C43.1205 37.8772 42.5947 35.8959 41.134 34.9636C39.6733 34.0312 37.6867 34.3808 36.635 35.7794L30.3832 43.9376C29.8574 44.5786 29.5652 45.3361 29.5068 46.1519L29.1562 55.8252L40.6081 56L50.9499 44.2289C51.651 43.5296 52.0016 42.5973 52.0016 41.6066V29.4277ZM49.197 42.5973L39.498 53.6691L31.6102 53.6108L31.8439 46.3267C31.8439 45.9771 31.9608 45.6857 32.1945 45.3944L38.4463 37.1196C38.7384 36.7117 39.3811 36.5952 39.7901 36.8866C40.2575 37.1779 40.3744 37.7606 40.1407 38.2268L36.2845 45.103L42.1272 46.0354L47.3273 39.334V38.9261C47.3273 38.9261 47.4442 32.8657 47.5026 29.4277C47.5026 28.8449 47.97 28.4953 48.5543 28.4953H48.6127C49.1386 28.4953 49.606 28.7867 49.606 29.3694V41.5484C49.6644 42.0146 49.4892 42.3059 49.197 42.5973Z" fill="white"/>
<path d="M27.1731 0H24.8359V6.99272H27.1731V0Z" fill="white"/>
<path d="M42.4686 3.15607L40.4141 2.04492L37.0161 8.29469L39.0706 9.40584L42.4686 3.15607Z" fill="white"/>
<path d="M15.0315 8.27737L11.6328 2.02832L9.57849 3.1397L12.9772 9.38875L15.0315 8.27737Z" fill="white"/>
</svg>
