<svg width="48" height="42" viewBox="0 0 48 42" fill="none" xmlns="http://www.w3.org/2000/svg">
<path d="M31.35 6V6.15H31.5H43.4999C44.6532 6.15115 45.759 6.60984 46.5746 7.4254C47.3902 8.24096 47.8489 9.34677 47.85 10.5001V34.4999C47.8489 35.6532 47.3902 36.759 46.5746 37.5746C45.759 38.3902 44.6532 38.8489 43.4999 38.85H40.5H40.35V39V40.5C40.35 40.858 40.2078 41.2014 39.9546 41.4546C39.7014 41.7078 39.358 41.85 39 41.85C38.642 41.85 38.2986 41.7078 38.0454 41.4546C37.7922 41.2014 37.65 40.858 37.65 40.5V39V38.85H37.5H10.5H10.35V39V40.5C10.35 40.858 10.2078 41.2014 9.95459 41.4546C9.70142 41.7078 9.35804 41.85 9 41.85C8.64196 41.85 8.29858 41.7078 8.04541 41.4546C7.79223 41.2014 7.65 40.858 7.65 40.5V39V38.85H7.5H4.50015C3.34677 38.8489 2.24096 38.3902 1.4254 37.5746C0.609839 36.759 0.151152 35.6532 0.15 34.4999L0.15 10.5001C0.151171 9.34672 0.609857 8.24095 1.4254 7.4254C2.24096 6.60984 3.34677 6.15115 4.50015 6.15H16.5H16.65V6V1.5C16.65 1.14196 16.7922 0.79858 17.0454 0.545406C17.2986 0.292232 17.642 0.15 18 0.15H30C30.358 0.15 30.7014 0.292232 30.9546 0.545406C31.2078 0.79858 31.35 1.14196 31.35 1.5V6ZM19.5 2.85H19.35V3V6V6.15H19.5H28.5H28.65V6V3V2.85H28.5H19.5ZM44.6667 35.6667C44.9762 35.3573 45.15 34.9376 45.15 34.5V10.5C45.15 10.0624 44.9762 9.64271 44.6667 9.33327C44.3573 9.02384 43.9376 8.85 43.5 8.85H4.5C4.06239 8.85 3.64271 9.02384 3.33327 9.33327C3.02384 9.64271 2.85 10.0624 2.85 10.5V34.5C2.85 34.9376 3.02384 35.3573 3.33327 35.6667C3.64271 35.9762 4.06239 36.15 4.5 36.15H43.5C43.9376 36.15 44.3573 35.9762 44.6667 35.6667Z" fill="white" stroke="#06849B" stroke-width="0.3"/>
<path d="M28.35 18.15V18V15C28.35 14.642 28.2078 14.2986 27.9546 14.0454C27.7014 13.7922 27.358 13.65 27 13.65H21C20.642 13.65 20.2986 13.7922 20.0454 14.0454M28.35 18.15L20.0454 14.0454M28.35 18.15H28.5M28.35 18.15H28.5M20.0454 14.0454C19.7922 14.2986 19.65 14.642 19.65 15V18M20.0454 14.0454L19.65 18M28.5 18.15H31.5C31.858 18.15 32.2014 18.2922 32.4546 18.5454C32.7078 18.7986 32.85 19.142 32.85 19.5V25.5C32.85 25.858 32.7078 26.2014 32.4546 26.4546C32.2014 26.7078 31.858 26.85 31.5 26.85H28.5H28.35V27V30C28.35 30.358 28.2078 30.7014 27.9546 30.9546C27.7014 31.2078 27.358 31.35 27 31.35H21C20.642 31.35 20.2986 31.2078 20.0454 30.9546C19.7922 30.7014 19.65 30.358 19.65 30V27V26.85H19.5H16.5C16.142 26.85 15.7986 26.7078 15.5454 26.4546C15.2922 26.2014 15.15 25.858 15.15 25.5V19.5C15.15 19.142 15.2922 18.7986 15.5454 18.5454C15.7986 18.2922 16.142 18.15 16.5 18.15H19.5H19.65M28.5 18.15H19.65M19.65 18.15V18M19.65 18.15V18M30 24.15H30.15V24V21V20.85H30H27C26.642 20.85 26.2986 20.7078 26.0454 20.4546C25.7922 20.2014 25.65 19.858 25.65 19.5V16.5V16.35H25.5H22.5H22.35V16.5V19.5C22.35 19.858 22.2078 20.2014 21.9546 20.4546C21.7014 20.7078 21.358 20.85 21 20.85H18H17.85V21V24V24.15H18H21C21.358 24.15 21.7014 24.2922 21.9546 24.5454C22.2078 24.7986 22.35 25.142 22.35 25.5V28.5V28.65H22.5H25.5H25.65V28.5V25.5C25.65 25.142 25.7922 24.7986 26.0454 24.5454C26.2986 24.2922 26.642 24.15 27 24.15H30Z" fill="white" stroke="#06849B" stroke-width="0.3"/>
<path d="M10.5 4.35012H6C5.64196 4.35012 5.29858 4.20789 5.04541 3.95472C4.79223 3.70154 4.65 3.35816 4.65 3.00012C4.65 2.64208 4.79223 2.2987 5.04541 2.04553C5.29858 1.79235 5.64196 1.65012 6 1.65012H10.5C10.858 1.65012 11.2014 1.79235 11.4546 2.04553C11.7078 2.2987 11.85 2.64208 11.85 3.00012C11.85 3.35816 11.7078 3.70154 11.4546 3.95472C11.2014 4.20789 10.858 4.35012 10.5 4.35012Z" fill="white" stroke="#06849B" stroke-width="0.3"/>
<path d="M42 4.35H37.5C37.142 4.35 36.7986 4.20777 36.5454 3.95459C36.2922 3.70142 36.15 3.35804 36.15 3C36.15 2.64196 36.2922 2.29858 36.5454 2.04541C36.7986 1.79223 37.142 1.65 37.5 1.65H42C42.358 1.65 42.7014 1.79223 42.9546 2.04541C43.2078 2.29858 43.35 2.64196 43.35 3C43.35 3.35804 43.2078 3.70142 42.9546 3.95459C42.7014 4.20777 42.358 4.35 42 4.35Z" fill="white" stroke="#06849B" stroke-width="0.3"/>
</svg>
