<svg width="47" height="52" viewBox="0 0 47 52" fill="none" xmlns="http://www.w3.org/2000/svg">
<path d="M23.5194 0C17.8437 0 13.218 4.56829 13.218 10.1737C13.218 12.9764 14.3012 16.4541 16.0616 19.3936C16.4975 20.1213 16.9833 20.8323 17.5103 21.4777H13.7903C8.10316 21.4777 3.48894 26.0348 3.48894 31.6514V49.7379H1.19974C1.16399 49.7363 1.12818 49.7363 1.09243 49.7379C0.9421 49.7449 0.794623 49.781 0.658423 49.8442C0.522223 49.9074 0.399968 49.9965 0.298641 50.1064C0.197313 50.2163 0.118897 50.3448 0.0678713 50.4847C0.0168457 50.6245 -0.00578986 50.7729 0.00125687 50.9213C0.00830359 51.0698 0.0448947 51.2155 0.108941 51.3499C0.172987 51.4844 0.263233 51.6052 0.374525 51.7052C0.485818 51.8053 0.615976 51.8827 0.757568 51.933C0.899159 51.9834 1.04941 52.0057 1.19974 51.9987H45.8391C45.9908 52.0009 46.1414 51.9732 46.2821 51.9173C46.4229 51.8615 46.551 51.7785 46.659 51.6734C46.767 51.5682 46.8528 51.4429 46.9113 51.3047C46.9699 51.1665 47 51.0182 47 50.8683C47 50.7185 46.9699 50.5702 46.9113 50.432C46.8528 50.2938 46.767 50.1685 46.659 50.0633C46.551 49.9581 46.4229 49.8752 46.2821 49.8194C46.1414 49.7635 45.9908 49.7358 45.8391 49.7379H43.5499V31.6514C43.5499 26.0348 38.9357 21.4777 33.2485 21.4777H29.5286C30.0556 20.8323 30.5414 20.1213 30.9772 19.3936C32.7376 16.4541 33.8208 12.9764 33.8208 10.1737C33.8208 4.56829 29.1952 0 23.5194 0ZM23.5194 2.26082C27.958 2.26082 31.5316 5.79013 31.5316 10.1737C31.5316 12.3654 30.5636 15.6511 29.0099 18.2455C27.4562 20.8398 25.3933 22.6082 23.5194 22.6082C21.6455 22.6082 19.5826 20.8398 18.0289 18.2455C16.4752 15.6511 15.5072 12.3654 15.5072 10.1737C15.5072 5.79013 19.0808 2.26082 23.5194 2.26082ZM15.9722 23.7386H19.9425C21.0179 24.4444 22.2129 24.869 23.5194 24.869C24.8259 24.869 26.021 24.4444 27.0963 23.7386H31.0666L23.5194 37.4977L15.9722 23.7386ZM13.3969 23.7562L22.2317 39.8645L16.8128 49.7379H5.77813V31.6514C5.77813 27.3796 9.12614 23.9573 13.3969 23.7562ZM33.642 23.7562C37.9127 23.9573 41.2607 27.3796 41.2607 31.6514V49.7379H19.406L33.642 23.7562ZM31.9966 33.347C31.712 33.3735 31.4478 33.5042 31.2558 33.7134C31.0638 33.9226 30.9581 34.1951 30.9593 34.4774V36.173H29.2424C28.9389 36.1731 28.6477 36.2922 28.4331 36.5042C28.2185 36.7162 28.0978 37.0037 28.0978 37.3035V40.6947C28.0978 40.9945 28.2185 41.282 28.4331 41.494C28.6477 41.7059 28.9389 41.8251 29.2424 41.8251H30.9593V43.5207C30.9593 43.8205 31.0799 44.108 31.2946 44.32C31.5092 44.532 31.8004 44.6511 32.1039 44.6511H35.5377C35.8413 44.6511 36.1324 44.532 36.347 44.32C36.5617 44.108 36.6823 43.8205 36.6823 43.5207V41.8251H38.3992C38.7028 41.8251 38.9939 41.7059 39.2085 41.494C39.4232 41.282 39.5438 40.9945 39.5438 40.6947V37.3035C39.5438 37.0037 39.4232 36.7162 39.2085 36.5042C38.9939 36.2922 38.7028 36.1731 38.3992 36.173H36.6823V34.4774C36.6823 34.1776 36.5617 33.8901 36.347 33.6781C36.1324 33.4662 35.8413 33.3471 35.5377 33.347H32.1039C32.0682 33.3454 32.0324 33.3454 31.9966 33.347ZM33.2485 35.6078H34.3931V37.3035C34.3931 37.6032 34.5137 37.8908 34.7284 38.1027C34.943 38.3147 35.2342 38.4338 35.5377 38.4339H37.2546V39.5643H35.5377C35.2342 39.5643 34.943 39.6834 34.7284 39.8954C34.5137 40.1074 34.3931 40.3949 34.3931 40.6947V42.3903H33.2485V40.6947C33.2485 40.3949 33.1279 40.1074 32.9132 39.8954C32.6986 39.6834 32.4075 39.5643 32.1039 39.5643H30.387V38.4339H32.1039C32.4075 38.4338 32.6986 38.3147 32.9132 38.1027C33.1279 37.8908 33.2485 37.6032 33.2485 37.3035V35.6078Z" fill="white"/>
</svg>
