<svg width="56" height="46" viewBox="0 0 56 46" fill="none" xmlns="http://www.w3.org/2000/svg">
<path d="M56 0H10.3584V19.8056H0V39.6111C0 41.3055 0.682079 42.9306 1.89619 44.1287C3.1103 45.3269 4.75698 46 6.47399 46H48.2312C50.2916 46 52.2676 45.1923 53.7246 43.7545C55.1815 42.3167 56 40.3667 56 38.3333V0ZM10.3584 39.6111C10.3584 40.6278 9.94913 41.6028 9.22067 42.3217C8.4922 43.0406 7.50419 43.4444 6.47399 43.4444C5.44378 43.4444 4.45577 43.0406 3.72731 42.3217C2.99884 41.6028 2.5896 40.6278 2.5896 39.6111V22.3611H10.3584V39.6111ZM53.4104 38.3333C53.4104 39.6889 52.8647 40.9889 51.8935 41.9474C50.9222 42.906 49.6048 43.4444 48.2312 43.4444H11.5884C12.4331 42.3407 12.888 40.9942 12.8832 39.6111V2.55556H53.4104V38.3333Z" fill="white"/>
<path d="M31.5261 7.98633H18.5781V20.1252H31.5261V7.98633ZM28.9365 17.5697H21.1677V10.5419H28.9365V17.5697Z" fill="white"/>
<path d="M47.7118 9.90234H36.0586V12.4579H47.7118V9.90234Z" fill="white"/>
<path d="M47.7118 17.5693H36.0586V20.1249H47.7118V17.5693Z" fill="white"/>
<path d="M47.7111 25.8749H18.5781V28.4304H47.7111V25.8749Z" fill="white"/>
<path d="M47.7111 33.542H18.5781V36.0975H47.7111V33.542Z" fill="white"/>
</svg>
