<svg width="40" height="28" viewBox="0 0 40 28" fill="none" xmlns="http://www.w3.org/2000/svg">
<g clip-path="url(#clip0_1_4471)">
<path d="M39.1591 23.6194C38.7045 25.3355 37.3409 26.6903 35.6136 27.1645C32.5 28 20 28 20 28C20 28 7.5 28 4.36364 27.1645C2.63636 26.7129 1.29545 25.3581 0.818182 23.6194C0 20.5032 0 14 0 14C0 14 0 7.49677 0.840909 4.38065C1.29545 2.66452 2.65909 1.30968 4.38636 0.835484C7.5 0 20 0 20 0C20 0 32.5 0 35.6364 0.835484C37.3636 1.2871 38.7045 2.64194 39.1818 4.38065C40 7.49677 40 14 40 14C40 14 40 20.5032 39.1591 23.6194Z" fill="white"/>
<path d="M15.9102 8.08376V19.916L26.3647 13.9999L15.9102 8.08376Z" fill="#FAB446"/>
</g>
<defs>
<clipPath id="clip0_1_4471">
<rect width="40" height="28" fill="white" transform="matrix(1 0 0 -1 0 28)"/>
</clipPath>
</defs>
</svg>
